<svg width="354" height="488" viewBox="0 0 354 488" fill="none" xmlns="http://www.w3.org/2000/svg">
<path d="M0.910156 17.4795C0.910156 8.09064 8.52132 0.479492 17.9102 0.479492H336.91C346.299 0.479492 353.91 8.09065 353.91 17.4795V470.48C353.91 479.868 346.299 487.479 336.91 487.479H17.9102C8.52132 487.479 0.910156 479.868 0.910156 470.479V17.4795Z" fill="#F6ECE3"/>
<path d="M34.5942 259.979H37.5322C37.7662 259.979 37.9222 259.823 37.9222 259.589V255.273L39.8982 252.803L44.8122 259.745C44.9422 259.927 45.0722 259.979 45.2802 259.979H48.6862C48.9982 259.979 49.1022 259.771 48.9202 259.511L42.1602 249.891L48.1922 242.247C48.3742 242.013 48.3222 241.779 47.9842 241.779H44.4222C44.2402 241.779 44.0842 241.831 43.9542 241.987L37.9222 250.203V242.169C37.9222 241.935 37.7662 241.779 37.5322 241.779H34.5942C34.3602 241.779 34.2042 241.935 34.2042 242.169V259.589C34.2042 259.823 34.3602 259.979 34.5942 259.979ZM55.7945 260.291C59.6165 260.291 62.4505 257.379 62.4505 253.609C62.4505 249.839 59.6165 246.927 55.7945 246.927C51.9465 246.927 49.1125 249.839 49.1125 253.609C49.1125 257.379 51.9465 260.291 55.7945 260.291ZM52.5705 253.609C52.5705 251.529 53.9745 250.229 55.7945 250.229C57.5885 250.229 58.9925 251.529 58.9925 253.609C58.9925 255.689 57.5885 256.989 55.7945 256.989C53.9745 256.989 52.5705 255.689 52.5705 253.609ZM65.2599 259.979H68.0939C68.3279 259.979 68.4839 259.823 68.4839 259.589V241.779C68.4839 241.545 68.3279 241.389 68.0939 241.389H65.2599C65.0259 241.389 64.8699 241.545 64.8699 241.779V259.589C64.8699 259.823 65.0259 259.979 65.2599 259.979ZM71.9631 259.979H74.7971C75.0311 259.979 75.1871 259.823 75.1871 259.589V241.779C75.1871 241.545 75.0311 241.389 74.7971 241.389H71.9631C71.7291 241.389 71.5731 241.545 71.5731 241.779V259.589C71.5731 259.823 71.7291 259.979 71.9631 259.979ZM84.6202 260.291C86.4142 260.291 88.0522 259.771 89.1442 258.679C89.3782 258.471 89.4042 258.289 89.2742 258.107L88.3122 256.781C88.1822 256.599 88.0522 256.573 87.8702 256.677C86.8302 257.275 85.8942 257.457 84.9062 257.457C82.8522 257.457 81.5262 256.573 81.1362 254.961H88.8842C90.0022 254.961 90.2882 254.259 90.2882 253.011C90.2882 249.787 88.0522 246.927 84.1782 246.927C80.2522 246.927 77.6262 249.813 77.6262 253.557C77.6262 257.405 80.4342 260.291 84.6202 260.291ZM81.0842 252.439C81.3962 250.749 82.6182 249.891 84.2042 249.891C85.7382 249.891 86.8822 250.749 87.0902 252.439H81.0842ZM93.0881 259.979H95.9221C96.1561 259.979 96.3121 259.823 96.3121 259.589V256.885L97.8981 255.091L101.33 259.745C101.46 259.927 101.59 259.979 101.798 259.979H104.814C105.126 259.979 105.23 259.771 105.048 259.511L100.056 252.621L104.372 247.707C104.58 247.447 104.502 247.239 104.164 247.239H100.966C100.784 247.239 100.628 247.291 100.498 247.447L96.3121 252.387V241.779C96.3121 241.545 96.1561 241.389 95.9221 241.389H93.0881C92.8541 241.389 92.6981 241.545 92.6981 241.779V259.589C92.6981 259.823 92.8541 259.979 93.0881 259.979ZM112.368 260.135C113.226 260.135 114.526 259.979 114.526 259.381V257.483C114.526 257.223 114.344 257.093 114.058 257.119C113.746 257.145 113.486 257.145 113.252 257.145C112.576 257.145 112.134 256.781 112.134 256.027V250.021H114.136C114.37 250.021 114.526 249.865 114.526 249.631V247.629C114.526 247.395 114.37 247.239 114.136 247.239H112.134V244.249C112.134 244.015 111.978 243.859 111.744 243.859H108.91C108.676 243.859 108.52 244.015 108.52 244.249V247.239H106.908C106.674 247.239 106.518 247.395 106.518 247.629V249.631C106.518 249.865 106.674 250.021 106.908 250.021H108.52V256.417C108.52 259.199 110.34 260.135 112.368 260.135ZM118.665 244.977C119.809 244.977 120.641 244.093 120.641 242.975C120.641 241.883 119.809 240.999 118.665 240.999C117.521 240.999 116.663 241.883 116.663 242.975C116.663 244.093 117.521 244.977 118.665 244.977ZM116.845 259.589C116.845 259.823 117.001 259.979 117.235 259.979H120.069C120.303 259.979 120.459 259.823 120.459 259.589V247.629C120.459 247.395 120.303 247.239 120.069 247.239H117.235C117.001 247.239 116.845 247.395 116.845 247.629V259.589ZM128.045 259.979H130.879C131.087 259.979 131.269 259.875 131.347 259.667L136.105 247.681C136.209 247.395 136.079 247.239 135.793 247.239H132.933C132.725 247.239 132.543 247.343 132.465 247.551L129.475 255.845L126.459 247.551C126.381 247.343 126.199 247.239 125.991 247.239H123.131C122.845 247.239 122.715 247.395 122.819 247.681L127.577 259.667C127.655 259.875 127.837 259.979 128.045 259.979ZM142.921 260.291C144.819 260.291 146.197 259.485 147.081 258.185L147.133 259.589C147.133 259.823 147.289 259.979 147.523 259.979H150.045C150.279 259.979 150.461 259.823 150.461 259.589V247.629C150.461 247.395 150.305 247.239 150.071 247.239H147.523C147.289 247.239 147.133 247.395 147.133 247.629L147.081 249.033C146.223 247.707 144.845 246.927 142.921 246.927C139.333 246.927 136.863 249.839 136.863 253.609C136.863 257.405 139.333 260.291 142.921 260.291ZM140.373 253.609C140.373 251.581 141.777 250.203 143.675 250.203C145.573 250.203 146.899 251.555 146.899 253.609C146.899 255.663 145.573 257.015 143.675 257.015C141.777 257.015 140.373 255.663 140.373 253.609ZM159.028 259.979H161.836C162.07 259.979 162.226 259.823 162.226 259.589V252.985C162.226 251.191 163.214 250.229 164.722 250.229C166.256 250.229 167.088 251.191 167.088 252.985V259.589C167.088 259.823 167.244 259.979 167.478 259.979H170.26C170.494 259.979 170.676 259.823 170.676 259.589V252.179C170.676 248.851 168.726 246.927 166.074 246.927C164.176 246.927 162.954 247.863 162.226 249.163V241.779C162.226 241.545 162.07 241.389 161.836 241.389H159.028C158.794 241.389 158.638 241.545 158.638 241.779V259.589C158.638 259.823 158.794 259.979 159.028 259.979ZM179.153 260.291C181.051 260.291 182.429 259.485 183.313 258.185L183.365 259.589C183.365 259.823 183.521 259.979 183.755 259.979H186.277C186.511 259.979 186.693 259.823 186.693 259.589V247.629C186.693 247.395 186.537 247.239 186.303 247.239H183.755C183.521 247.239 183.365 247.395 183.365 247.629L183.313 249.033C182.455 247.707 181.077 246.927 179.153 246.927C175.565 246.927 173.095 249.839 173.095 253.609C173.095 257.405 175.565 260.291 179.153 260.291ZM176.605 253.609C176.605 251.581 178.009 250.203 179.907 250.203C181.805 250.203 183.131 251.555 183.131 253.609C183.131 255.663 181.805 257.015 179.907 257.015C178.009 257.015 176.605 255.663 176.605 253.609ZM190.182 259.979H192.99C193.224 259.979 193.38 259.823 193.38 259.589V252.985C193.38 251.191 194.368 250.229 195.876 250.229C197.41 250.229 198.242 251.191 198.242 252.985V259.589C198.242 259.823 198.398 259.979 198.632 259.979H201.414C201.648 259.979 201.83 259.823 201.83 259.589V252.179C201.83 248.851 199.88 246.927 197.228 246.927C195.33 246.927 194.108 247.863 193.38 249.163L193.276 247.655C193.276 247.343 193.12 247.239 192.886 247.239H190.182C189.948 247.239 189.792 247.395 189.792 247.629V259.589C189.792 259.823 189.948 259.979 190.182 259.979ZM209.461 260.135C210.319 260.135 211.619 259.979 211.619 259.381V257.483C211.619 257.223 211.437 257.093 211.151 257.119C210.839 257.145 210.579 257.145 210.345 257.145C209.669 257.145 209.227 256.781 209.227 256.027V250.021H211.229C211.463 250.021 211.619 249.865 211.619 249.631V247.629C211.619 247.395 211.463 247.239 211.229 247.239H209.227V244.249C209.227 244.015 209.071 243.859 208.837 243.859H206.003C205.769 243.859 205.613 244.015 205.613 244.249V247.239H204.001C203.767 247.239 203.611 247.395 203.611 247.629V249.631C203.611 249.865 203.767 250.021 204.001 250.021H205.613V256.417C205.613 259.199 207.433 260.135 209.461 260.135ZM220.13 260.291C221.924 260.291 223.562 259.771 224.654 258.679C224.888 258.471 224.914 258.289 224.784 258.107L223.822 256.781C223.692 256.599 223.562 256.573 223.38 256.677C222.34 257.275 221.404 257.457 220.416 257.457C218.362 257.457 217.036 256.573 216.646 254.961H224.394C225.512 254.961 225.798 254.259 225.798 253.011C225.798 249.787 223.562 246.927 219.688 246.927C215.762 246.927 213.136 249.813 213.136 253.557C213.136 257.405 215.944 260.291 220.13 260.291ZM216.594 252.439C216.906 250.749 218.128 249.891 219.714 249.891C221.248 249.891 222.392 250.749 222.6 252.439H216.594ZM228.598 259.979H231.406C231.64 259.979 231.796 259.823 231.796 259.589V253.219C231.796 251.399 232.732 250.229 234.5 250.229C234.864 250.229 235.15 250.281 235.436 250.359C235.774 250.437 235.956 250.359 235.956 250.047V247.759C235.956 247.525 235.904 247.369 235.722 247.239C235.514 247.083 235.15 246.927 234.552 246.927C233.044 246.927 232.238 247.941 231.796 249.293L231.692 247.655C231.666 247.343 231.536 247.239 231.302 247.239H228.598C228.364 247.239 228.208 247.395 228.208 247.629V259.589C228.208 259.823 228.364 259.979 228.598 259.979ZM243.315 260.291C245.213 260.291 246.591 259.485 247.475 258.185L247.527 259.589C247.527 259.823 247.683 259.979 247.917 259.979H250.439C250.673 259.979 250.855 259.823 250.855 259.589V247.629C250.855 247.395 250.699 247.239 250.465 247.239H247.917C247.683 247.239 247.527 247.395 247.527 247.629L247.475 249.033C246.617 247.707 245.239 246.927 243.315 246.927C239.727 246.927 237.257 249.839 237.257 253.609C237.257 257.405 239.727 260.291 243.315 260.291ZM240.767 253.609C240.767 251.581 242.171 250.203 244.069 250.203C245.967 250.203 247.293 251.555 247.293 253.609C247.293 255.663 245.967 257.015 244.069 257.015C242.171 257.015 240.767 255.663 240.767 253.609ZM254.344 259.979H257.152C257.386 259.979 257.542 259.823 257.542 259.589V253.219C257.542 251.399 258.478 250.229 260.246 250.229C260.61 250.229 260.896 250.281 261.182 250.359C261.52 250.437 261.702 250.359 261.702 250.047V247.759C261.702 247.525 261.65 247.369 261.468 247.239C261.26 247.083 260.896 246.927 260.298 246.927C258.79 246.927 257.984 247.941 257.542 249.293L257.438 247.655C257.412 247.343 257.282 247.239 257.048 247.239H254.344C254.11 247.239 253.954 247.395 253.954 247.629V259.589C253.954 259.823 254.11 259.979 254.344 259.979ZM39.3522 290.291C41.2502 290.291 42.6282 289.485 43.5122 288.185L43.5642 289.589C43.5642 289.823 43.7202 289.979 43.9542 289.979H46.4762C46.7102 289.979 46.8922 289.823 46.8922 289.589V277.629C46.8922 277.395 46.7362 277.239 46.5022 277.239H43.9542C43.7202 277.239 43.5642 277.395 43.5642 277.629L43.5122 279.033C42.6542 277.707 41.2762 276.927 39.3522 276.927C35.7642 276.927 33.2942 279.839 33.2942 283.609C33.2942 287.405 35.7642 290.291 39.3522 290.291ZM36.8042 283.609C36.8042 281.581 38.2082 280.203 40.1062 280.203C42.0042 280.203 43.3302 281.555 43.3302 283.609C43.3302 285.663 42.0042 287.015 40.1062 287.015C38.2082 287.015 36.8042 285.663 36.8042 283.609ZM50.381 289.979H53.215C53.449 289.979 53.605 289.823 53.605 289.589V271.779C53.605 271.545 53.449 271.389 53.215 271.389H50.381C50.147 271.389 49.991 271.545 49.991 271.779V289.589C49.991 289.823 50.147 289.979 50.381 289.979ZM57.0842 289.979H59.9182C60.1522 289.979 60.3082 289.823 60.3082 289.589V271.779C60.3082 271.545 60.1522 271.389 59.9182 271.389H57.0842C56.8502 271.389 56.6942 271.545 56.6942 271.779V289.589C56.6942 289.823 56.8502 289.979 57.0842 289.979ZM68.8053 290.291C70.7033 290.291 72.0813 289.485 72.9653 288.185L73.0173 289.589C73.0173 289.823 73.1733 289.979 73.4073 289.979H75.9293C76.1633 289.979 76.3453 289.823 76.3453 289.589V277.629C76.3453 277.395 76.1893 277.239 75.9553 277.239H73.4073C73.1733 277.239 73.0173 277.395 73.0173 277.629L72.9653 279.033C72.1073 277.707 70.7293 276.927 68.8053 276.927C65.2173 276.927 62.7473 279.839 62.7473 283.609C62.7473 287.405 65.2173 290.291 68.8053 290.291ZM66.2573 283.609C66.2573 281.581 67.6613 280.203 69.5593 280.203C71.4573 280.203 72.7833 281.555 72.7833 283.609C72.7833 285.663 71.4573 287.015 69.5593 287.015C67.6613 287.015 66.2573 285.663 66.2573 283.609ZM84.9123 289.979H87.7203C87.9543 289.979 88.1103 289.823 88.1103 289.589V282.985C88.1103 281.191 89.0983 280.229 90.6063 280.229C92.1403 280.229 92.9723 281.191 92.9723 282.985V289.589C92.9723 289.823 93.1283 289.979 93.3623 289.979H96.1443C96.3783 289.979 96.5603 289.823 96.5603 289.589V282.179C96.5603 278.851 94.6103 276.927 91.9583 276.927C90.0603 276.927 88.8383 277.863 88.1103 279.163V271.779C88.1103 271.545 87.9543 271.389 87.7203 271.389H84.9123C84.6783 271.389 84.5223 271.545 84.5223 271.779V289.589C84.5223 289.823 84.6783 289.979 84.9123 289.979ZM101.215 294.919H103.971C104.179 294.919 104.361 294.815 104.439 294.607L111.173 277.681C111.277 277.395 111.147 277.239 110.861 277.239H108.001C107.793 277.239 107.611 277.343 107.533 277.551L104.517 285.819L101.475 277.551C101.397 277.343 101.215 277.239 101.007 277.239H98.1467C97.8607 277.239 97.7307 277.395 97.8347 277.681L102.749 290.005L100.903 294.477C100.773 294.763 100.929 294.919 101.215 294.919ZM113.883 289.979H116.691C116.925 289.979 117.081 289.823 117.081 289.589V283.219C117.081 281.399 118.017 280.229 119.785 280.229C120.149 280.229 120.435 280.281 120.721 280.359C121.059 280.437 121.241 280.359 121.241 280.047V277.759C121.241 277.525 121.189 277.369 121.007 277.239C120.799 277.083 120.435 276.927 119.837 276.927C118.329 276.927 117.523 277.941 117.081 279.293L116.977 277.655C116.951 277.343 116.821 277.239 116.587 277.239H113.883C113.649 277.239 113.493 277.395 113.493 277.629V289.589C113.493 289.823 113.649 289.979 113.883 289.979ZM129.536 290.291C131.33 290.291 132.968 289.771 134.06 288.679C134.294 288.471 134.32 288.289 134.19 288.107L133.228 286.781C133.098 286.599 132.968 286.573 132.786 286.677C131.746 287.275 130.81 287.457 129.822 287.457C127.768 287.457 126.442 286.573 126.052 284.961H133.8C134.918 284.961 135.204 284.259 135.204 283.011C135.204 279.787 132.968 276.927 129.094 276.927C125.168 276.927 122.542 279.813 122.542 283.557C122.542 287.405 125.35 290.291 129.536 290.291ZM126 282.439C126.312 280.749 127.534 279.891 129.12 279.891C130.654 279.891 131.798 280.749 132.006 282.439H126ZM141.702 290.291C144.25 290.291 146.46 288.965 146.486 286.391C146.512 284.441 145.238 283.323 143.626 282.673L141.832 281.971C141.13 281.711 140.61 281.373 140.61 280.749C140.61 280.203 141 279.735 141.832 279.735C142.586 279.735 143.314 280.099 144.146 280.801C144.38 280.983 144.562 281.009 144.744 280.801L145.888 279.423C146.018 279.267 146.07 279.059 145.914 278.877C144.848 277.603 143.314 276.927 141.65 276.927C139.284 276.927 137.204 278.331 137.204 280.775C137.204 282.543 138.348 283.635 139.986 284.285L141.598 284.935C142.534 285.325 142.924 285.611 142.924 286.235C142.924 286.963 142.352 287.301 141.494 287.301C140.506 287.301 139.622 286.859 138.556 286.053C138.348 285.897 138.114 285.845 137.906 286.157L136.996 287.431C136.814 287.717 136.788 288.003 136.944 288.185C137.958 289.381 139.57 290.291 141.702 290.291ZM156.606 290.291C160.168 290.291 162.638 287.405 162.638 283.609C162.638 279.839 160.168 276.927 156.606 276.927C154.838 276.927 153.512 277.577 152.654 278.721V271.779C152.654 271.545 152.498 271.389 152.264 271.389H149.43C149.196 271.389 149.04 271.545 149.04 271.779V289.589C149.04 289.823 149.222 289.979 149.456 289.979H152.004C152.238 289.979 152.394 289.823 152.394 289.589L152.446 288.185C153.33 289.485 154.682 290.291 156.606 290.291ZM152.602 283.609C152.602 281.555 153.928 280.203 155.852 280.203C157.724 280.203 159.128 281.581 159.128 283.609C159.128 285.663 157.724 287.015 155.852 287.015C153.928 287.015 152.602 285.663 152.602 283.609ZM171.431 290.291C173.225 290.291 174.863 289.771 175.955 288.679C176.189 288.471 176.215 288.289 176.085 288.107L175.123 286.781C174.993 286.599 174.863 286.573 174.681 286.677C173.641 287.275 172.705 287.457 171.717 287.457C169.663 287.457 168.337 286.573 167.947 284.961H175.695C176.813 284.961 177.099 284.259 177.099 283.011C177.099 279.787 174.863 276.927 170.989 276.927C167.063 276.927 164.437 279.813 164.437 283.557C164.437 287.405 167.245 290.291 171.431 290.291ZM167.895 282.439C168.207 280.749 169.429 279.891 171.015 279.891C172.549 279.891 173.693 280.749 173.901 282.439H167.895ZM184.325 290.135C185.183 290.135 186.483 289.979 186.483 289.381V287.483C186.483 287.223 186.301 287.093 186.015 287.119C185.703 287.145 185.443 287.145 185.209 287.145C184.533 287.145 184.091 286.781 184.091 286.027V280.021H186.093C186.327 280.021 186.483 279.865 186.483 279.631V277.629C186.483 277.395 186.327 277.239 186.093 277.239H184.091V274.249C184.091 274.015 183.935 273.859 183.701 273.859H180.867C180.633 273.859 180.477 274.015 180.477 274.249V277.239H178.865C178.631 277.239 178.475 277.395 178.475 277.629V279.631C178.475 279.865 178.631 280.021 178.865 280.021H180.477V286.417C180.477 289.199 182.297 290.135 184.325 290.135ZM194.057 290.291C195.955 290.291 197.333 289.485 198.217 288.185L198.269 289.589C198.269 289.823 198.425 289.979 198.659 289.979H201.181C201.415 289.979 201.597 289.823 201.597 289.589V277.629C201.597 277.395 201.441 277.239 201.207 277.239H198.659C198.425 277.239 198.269 277.395 198.269 277.629L198.217 279.033C197.359 277.707 195.981 276.927 194.057 276.927C190.469 276.927 187.999 279.839 187.999 283.609C187.999 287.405 190.469 290.291 194.057 290.291ZM191.509 283.609C191.509 281.581 192.913 280.203 194.811 280.203C196.709 280.203 198.035 281.555 198.035 283.609C198.035 285.663 196.709 287.015 194.811 287.015C192.913 287.015 191.509 285.663 191.509 283.609ZM205.086 289.979H207.92C208.154 289.979 208.31 289.823 208.31 289.589V271.779C208.31 271.545 208.154 271.389 207.92 271.389H205.086C204.852 271.389 204.696 271.545 204.696 271.779V289.589C204.696 289.823 204.852 289.979 205.086 289.979ZM211.789 289.979H214.597C214.831 289.979 214.987 289.823 214.987 289.589V282.985C214.987 281.191 215.975 280.229 217.483 280.229C219.017 280.229 219.849 281.191 219.849 282.985V289.589C219.849 289.823 220.005 289.979 220.239 289.979H223.021C223.255 289.979 223.437 289.823 223.437 289.589V282.179C223.437 278.851 221.487 276.927 218.835 276.927C216.937 276.927 215.715 277.863 214.987 279.163L214.883 277.655C214.883 277.343 214.727 277.239 214.493 277.239H211.789C211.555 277.239 211.399 277.395 211.399 277.629V289.589C211.399 289.823 211.555 289.979 211.789 289.979ZM228.353 274.977C229.497 274.977 230.329 274.093 230.329 272.975C230.329 271.883 229.497 270.999 228.353 270.999C227.209 270.999 226.351 271.883 226.351 272.975C226.351 274.093 227.209 274.977 228.353 274.977ZM226.533 289.589C226.533 289.823 226.689 289.979 226.923 289.979H229.757C229.991 289.979 230.147 289.823 230.147 289.589V277.629C230.147 277.395 229.991 277.239 229.757 277.239H226.923C226.689 277.239 226.533 277.395 226.533 277.629V289.589ZM233.651 289.979H236.459C236.693 289.979 236.849 289.823 236.849 289.589V282.985C236.849 281.191 237.837 280.229 239.345 280.229C240.879 280.229 241.711 281.191 241.711 282.985V289.589C241.711 289.823 241.867 289.979 242.101 289.979H244.883C245.117 289.979 245.299 289.823 245.299 289.589V282.179C245.299 278.851 243.349 276.927 240.697 276.927C238.799 276.927 237.577 277.863 236.849 279.163L236.745 277.655C236.745 277.343 236.589 277.239 236.355 277.239H233.651C233.417 277.239 233.261 277.395 233.261 277.629V289.589C233.261 289.823 233.417 289.979 233.651 289.979ZM254.374 295.309C257.52 295.309 261.108 293.853 261.108 289.277V277.629C261.108 277.395 260.952 277.239 260.718 277.239H258.17C257.936 277.239 257.754 277.395 257.754 277.629L257.702 278.799C256.896 277.603 255.596 276.927 253.724 276.927C250.136 276.927 247.718 279.579 247.718 283.323C247.718 287.093 250.136 289.719 253.724 289.719C255.544 289.719 256.87 289.017 257.676 287.873V289.251C257.676 291.617 255.83 292.397 254.036 292.397C252.918 292.397 251.774 292.085 250.656 291.461C250.37 291.305 250.136 291.409 250.006 291.669L249.252 293.099C249.122 293.333 249.148 293.671 249.408 293.853C250.656 294.789 252.476 295.309 254.374 295.309ZM251.228 283.323C251.228 281.399 252.58 280.151 254.426 280.151C256.246 280.151 257.546 281.373 257.546 283.323C257.546 285.273 256.246 286.495 254.426 286.495C252.58 286.495 251.228 285.273 251.228 283.323ZM269.594 290.291C271.492 290.291 272.87 289.485 273.754 288.185L273.806 289.589C273.806 289.823 273.962 289.979 274.196 289.979H276.718C276.952 289.979 277.134 289.823 277.134 289.589V277.629C277.134 277.395 276.978 277.239 276.744 277.239H274.196C273.962 277.239 273.806 277.395 273.806 277.629L273.754 279.033C272.896 277.707 271.518 276.927 269.594 276.927C266.006 276.927 263.536 279.839 263.536 283.609C263.536 287.405 266.006 290.291 269.594 290.291ZM267.046 283.609C267.046 281.581 268.45 280.203 270.348 280.203C272.246 280.203 273.572 281.555 273.572 283.609C273.572 285.663 272.246 287.015 270.348 287.015C268.45 287.015 267.046 285.663 267.046 283.609ZM280.623 289.979H283.431C283.665 289.979 283.821 289.823 283.821 289.589V283.219C283.821 281.399 284.757 280.229 286.525 280.229C286.889 280.229 287.175 280.281 287.461 280.359C287.799 280.437 287.981 280.359 287.981 280.047V277.759C287.981 277.525 287.929 277.369 287.747 277.239C287.539 277.083 287.175 276.927 286.577 276.927C285.069 276.927 284.263 277.941 283.821 279.293L283.717 277.655C283.691 277.343 283.561 277.239 283.327 277.239H280.623C280.389 277.239 280.233 277.395 280.233 277.629V289.589C280.233 289.823 280.389 289.979 280.623 289.979Z" fill="#4B7E7F"/>
<path d="M36.8047 329.829L35.4688 329.021C34.6309 328.511 34.0332 328.01 33.6758 327.518C33.3242 327.02 33.1484 326.448 33.1484 325.804C33.1484 324.837 33.4824 324.052 34.1504 323.448C34.8242 322.845 35.6973 322.543 36.7695 322.543C37.7949 322.543 38.7354 322.83 39.5908 323.404V325.399C38.7061 324.55 37.7539 324.125 36.7344 324.125C36.1602 324.125 35.6885 324.26 35.3193 324.529C34.9502 324.793 34.7656 325.133 34.7656 325.549C34.7656 325.918 34.9004 326.264 35.1699 326.586C35.4395 326.908 35.876 327.245 36.4795 327.597L37.8242 328.388C39.3242 329.278 40.0742 330.415 40.0742 331.798C40.0742 332.782 39.7432 333.582 39.0811 334.197C38.4248 334.812 37.5693 335.12 36.5146 335.12C35.3018 335.12 34.1973 334.748 33.2012 334.004V331.771C34.1504 332.973 35.249 333.573 36.4971 333.573C37.0479 333.573 37.5049 333.421 37.8682 333.116C38.2373 332.806 38.4219 332.419 38.4219 331.956C38.4219 331.206 37.8828 330.497 36.8047 329.829ZM45.6553 326.876C46.8857 326.876 47.9082 327.274 48.7227 328.071C49.5371 328.862 49.9443 329.858 49.9443 331.06C49.9443 332.226 49.5312 333.195 48.7051 333.969C47.8789 334.736 46.8389 335.12 45.585 335.12C44.3721 335.12 43.3584 334.73 42.5439 333.951C41.7295 333.166 41.3223 332.188 41.3223 331.016C41.3223 329.832 41.7324 328.848 42.5527 328.062C43.3789 327.271 44.4131 326.876 45.6553 326.876ZM45.5674 328.317C44.7998 328.317 44.1699 328.569 43.6777 329.073C43.1855 329.577 42.9395 330.219 42.9395 330.998C42.9395 331.771 43.1914 332.404 43.6953 332.896C44.1992 333.383 44.8467 333.626 45.6377 333.626C46.4229 333.626 47.0645 333.38 47.5625 332.888C48.0664 332.39 48.3184 331.754 48.3184 330.98C48.3184 330.213 48.0576 329.577 47.5361 329.073C47.0146 328.569 46.3584 328.317 45.5674 328.317ZM58.3467 329.108V334.979H56.7383V330.479C56.7383 329.583 56.6182 328.959 56.3779 328.607C56.1377 328.25 55.7188 328.071 55.1211 328.071C54.7871 328.071 54.4795 328.147 54.1982 328.3C53.9229 328.452 53.6064 328.722 53.249 329.108V334.979H51.6494V326.894H53.249V327.957C54.0635 327.143 54.8604 326.735 55.6396 326.735C56.665 326.735 57.459 327.222 58.0215 328.194C58.877 327.21 59.7705 326.718 60.7021 326.718C61.4873 326.718 62.1318 327.005 62.6357 327.579C63.1455 328.153 63.4004 329.029 63.4004 330.207V334.979H61.8008V330.189C61.8008 329.516 61.6631 329 61.3877 328.643C61.1123 328.285 60.7168 328.106 60.2012 328.106C59.5391 328.106 58.9209 328.44 58.3467 329.108ZM70.5811 322.701H72.1807V327.957C72.8486 327.143 73.6777 326.735 74.668 326.735C75.207 326.735 75.6904 326.87 76.1182 327.14C76.5459 327.409 76.8623 327.781 77.0674 328.256C77.2783 328.73 77.3838 329.437 77.3838 330.374V334.979H75.7842V329.979C75.7842 329.387 75.6377 328.912 75.3447 328.555C75.0576 328.191 74.6768 328.01 74.2021 328.01C73.8506 328.01 73.5195 328.101 73.209 328.282C72.8984 328.464 72.5557 328.766 72.1807 329.188V334.979H70.5811V322.701ZM84.5645 326.894H86.3662L80.6445 339.102H78.8604L81.6113 333.248L78.4824 326.894H80.3018L82.4814 331.455L84.5645 326.894ZM89.2227 326.894V328.748L89.3105 328.607C90.084 327.359 90.8574 326.735 91.6309 326.735C92.2344 326.735 92.8643 327.04 93.5205 327.649L92.6768 329.056C92.1201 328.528 91.6045 328.265 91.1299 328.265C90.6143 328.265 90.166 328.511 89.7852 329.003C89.4102 329.495 89.2227 330.078 89.2227 330.752V334.979H87.6143V326.894H89.2227ZM101.536 331.077H95.8496C95.8906 331.851 96.1484 332.466 96.623 332.923C97.1035 333.38 97.7217 333.608 98.4775 333.608C99.5322 333.608 100.505 333.28 101.396 332.624V334.188C100.903 334.517 100.414 334.751 99.9277 334.892C99.4473 335.032 98.8818 335.103 98.2314 335.103C97.3408 335.103 96.6201 334.918 96.0693 334.549C95.5186 334.18 95.0762 333.685 94.7422 333.063C94.4141 332.437 94.25 331.713 94.25 330.893C94.25 329.662 94.5986 328.663 95.2959 327.896C95.9932 327.122 96.8984 326.735 98.0117 326.735C99.084 326.735 99.9395 327.11 100.578 327.86C101.217 328.61 101.536 329.615 101.536 330.875V331.077ZM95.8848 330.119H99.9541C99.9131 329.48 99.7227 328.988 99.3828 328.643C99.043 328.297 98.5859 328.124 98.0117 328.124C97.4375 328.124 96.9658 328.297 96.5967 328.643C96.2334 328.988 95.9961 329.48 95.8848 330.119ZM102.881 334.399V332.677C103.332 332.993 103.792 333.251 104.261 333.45C104.735 333.644 105.134 333.74 105.456 333.74C105.79 333.74 106.077 333.658 106.317 333.494C106.558 333.33 106.678 333.134 106.678 332.905C106.678 332.671 106.599 332.478 106.44 332.325C106.288 332.167 105.954 331.941 105.438 331.648C104.407 331.074 103.73 330.585 103.408 330.181C103.092 329.771 102.934 329.325 102.934 328.845C102.934 328.224 103.174 327.717 103.654 327.324C104.141 326.932 104.765 326.735 105.526 326.735C106.317 326.735 107.129 326.958 107.961 327.403V328.985C107.012 328.411 106.235 328.124 105.632 328.124C105.321 328.124 105.069 328.191 104.876 328.326C104.688 328.455 104.595 328.628 104.595 328.845C104.595 329.032 104.68 329.211 104.85 329.381C105.025 329.551 105.33 329.756 105.764 329.996L106.335 330.321C107.683 331.083 108.356 331.927 108.356 332.853C108.356 333.515 108.096 334.06 107.574 334.487C107.059 334.909 106.394 335.12 105.579 335.12C105.099 335.12 104.671 335.07 104.296 334.971C103.921 334.865 103.449 334.675 102.881 334.399ZM115.15 326.894H116.882L113.313 335.12H112.777L109.121 326.894H110.87L113.05 331.868L115.15 326.894ZM123.175 330.119V333.556C123.175 333.831 123.269 333.969 123.456 333.969C123.649 333.969 123.951 333.825 124.361 333.538V334.514C123.998 334.748 123.705 334.906 123.482 334.988C123.266 335.076 123.037 335.12 122.797 335.12C122.111 335.12 121.707 334.851 121.584 334.312C120.904 334.839 120.181 335.103 119.413 335.103C118.851 335.103 118.382 334.918 118.007 334.549C117.632 334.174 117.444 333.705 117.444 333.143C117.444 332.633 117.626 332.179 117.989 331.78C118.358 331.376 118.88 331.057 119.554 330.822L121.602 330.119V329.688C121.602 328.716 121.115 328.229 120.143 328.229C119.27 328.229 118.42 328.681 117.594 329.583V327.834C118.215 327.102 119.108 326.735 120.274 326.735C121.147 326.735 121.848 326.964 122.375 327.421C122.551 327.567 122.709 327.764 122.85 328.01C122.99 328.25 123.078 328.493 123.113 328.739C123.154 328.979 123.175 329.439 123.175 330.119ZM121.602 333.38V330.98L120.529 331.394C119.984 331.61 119.598 331.83 119.369 332.053C119.146 332.27 119.035 332.542 119.035 332.87C119.035 333.204 119.141 333.477 119.352 333.688C119.568 333.898 119.847 334.004 120.187 334.004C120.696 334.004 121.168 333.796 121.602 333.38ZM119.105 322.974C119.334 322.974 119.53 323.056 119.694 323.22C119.864 323.384 119.949 323.583 119.949 323.817C119.949 324.052 119.87 324.251 119.712 324.415C119.554 324.573 119.36 324.652 119.132 324.652C118.897 324.652 118.698 324.57 118.534 324.406C118.37 324.236 118.288 324.037 118.288 323.809C118.288 323.574 118.367 323.378 118.525 323.22C118.689 323.056 118.883 322.974 119.105 322.974ZM122.489 322.974C122.718 322.974 122.914 323.056 123.078 323.22C123.248 323.384 123.333 323.583 123.333 323.817C123.333 324.052 123.254 324.251 123.096 324.415C122.938 324.573 122.744 324.652 122.516 324.652C122.281 324.652 122.082 324.57 121.918 324.406C121.754 324.236 121.672 324.037 121.672 323.809C121.672 323.574 121.751 323.378 121.909 323.22C122.073 323.056 122.267 322.974 122.489 322.974ZM127.49 326.894V328.748L127.578 328.607C128.352 327.359 129.125 326.735 129.898 326.735C130.502 326.735 131.132 327.04 131.788 327.649L130.944 329.056C130.388 328.528 129.872 328.265 129.397 328.265C128.882 328.265 128.434 328.511 128.053 329.003C127.678 329.495 127.49 330.078 127.49 330.752V334.979H125.882V326.894H127.49ZM138.31 322.701H139.918V334.979H136.499C135.304 334.979 134.349 334.602 133.634 333.846C132.925 333.09 132.57 332.076 132.57 330.805C132.57 329.615 132.942 328.637 133.687 327.869C134.437 327.102 135.392 326.718 136.552 326.718C137.091 326.718 137.677 326.832 138.31 327.061V322.701ZM138.31 333.608V328.484C137.812 328.232 137.308 328.106 136.798 328.106C136.001 328.106 135.365 328.367 134.891 328.889C134.422 329.41 134.188 330.113 134.188 330.998C134.188 331.83 134.393 332.472 134.803 332.923C135.049 333.192 135.31 333.374 135.585 333.468C135.86 333.562 136.355 333.608 137.07 333.608H138.31ZM152.179 330.119V333.556C152.179 333.831 152.272 333.969 152.46 333.969C152.653 333.969 152.955 333.825 153.365 333.538V334.514C153.002 334.748 152.709 334.906 152.486 334.988C152.27 335.076 152.041 335.12 151.801 335.12C151.115 335.12 150.711 334.851 150.588 334.312C149.908 334.839 149.185 335.103 148.417 335.103C147.854 335.103 147.386 334.918 147.011 334.549C146.636 334.174 146.448 333.705 146.448 333.143C146.448 332.633 146.63 332.179 146.993 331.78C147.362 331.376 147.884 331.057 148.558 330.822L150.605 330.119V329.688C150.605 328.716 150.119 328.229 149.146 328.229C148.273 328.229 147.424 328.681 146.598 329.583V327.834C147.219 327.102 148.112 326.735 149.278 326.735C150.151 326.735 150.852 326.964 151.379 327.421C151.555 327.567 151.713 327.764 151.854 328.01C151.994 328.25 152.082 328.493 152.117 328.739C152.158 328.979 152.179 329.439 152.179 330.119ZM150.605 333.38V330.98L149.533 331.394C148.988 331.61 148.602 331.83 148.373 332.053C148.15 332.27 148.039 332.542 148.039 332.87C148.039 333.204 148.145 333.477 148.355 333.688C148.572 333.898 148.851 334.004 149.19 334.004C149.7 334.004 150.172 333.796 150.605 333.38ZM156.38 326.894V327.922C157.095 327.131 157.906 326.735 158.814 326.735C159.318 326.735 159.787 326.867 160.221 327.131C160.654 327.389 160.982 327.746 161.205 328.203C161.434 328.654 161.548 329.372 161.548 330.356V334.979H159.948V330.374C159.948 329.548 159.822 328.959 159.57 328.607C159.318 328.25 158.896 328.071 158.305 328.071C157.549 328.071 156.907 328.449 156.38 329.205V334.979H154.745V326.894H156.38ZM163.385 334.399V332.677C163.836 332.993 164.296 333.251 164.765 333.45C165.239 333.644 165.638 333.74 165.96 333.74C166.294 333.74 166.581 333.658 166.821 333.494C167.062 333.33 167.182 333.134 167.182 332.905C167.182 332.671 167.103 332.478 166.944 332.325C166.792 332.167 166.458 331.941 165.942 331.648C164.911 331.074 164.234 330.585 163.912 330.181C163.596 329.771 163.438 329.325 163.438 328.845C163.438 328.224 163.678 327.717 164.158 327.324C164.645 326.932 165.269 326.735 166.03 326.735C166.821 326.735 167.633 326.958 168.465 327.403V328.985C167.516 328.411 166.739 328.124 166.136 328.124C165.825 328.124 165.573 328.191 165.38 328.326C165.192 328.455 165.099 328.628 165.099 328.845C165.099 329.032 165.184 329.211 165.354 329.381C165.529 329.551 165.834 329.756 166.268 329.996L166.839 330.321C168.187 331.083 168.86 331.927 168.86 332.853C168.86 333.515 168.6 334.06 168.078 334.487C167.562 334.909 166.897 335.12 166.083 335.12C165.603 335.12 165.175 335.07 164.8 334.971C164.425 334.865 163.953 334.675 163.385 334.399ZM175.654 326.894H177.386L173.817 335.12H173.281L169.625 326.894H171.374L173.554 331.868L175.654 326.894ZM183.679 330.119V333.556C183.679 333.831 183.772 333.969 183.96 333.969C184.153 333.969 184.455 333.825 184.865 333.538V334.514C184.502 334.748 184.209 334.906 183.986 334.988C183.77 335.076 183.541 335.12 183.301 335.12C182.615 335.12 182.211 334.851 182.088 334.312C181.408 334.839 180.685 335.103 179.917 335.103C179.354 335.103 178.886 334.918 178.511 334.549C178.136 334.174 177.948 333.705 177.948 333.143C177.948 332.633 178.13 332.179 178.493 331.78C178.862 331.376 179.384 331.057 180.058 330.822L182.105 330.119V329.688C182.105 328.716 181.619 328.229 180.646 328.229C179.773 328.229 178.924 328.681 178.098 329.583V327.834C178.719 327.102 179.612 326.735 180.778 326.735C181.651 326.735 182.352 326.964 182.879 327.421C183.055 327.567 183.213 327.764 183.354 328.01C183.494 328.25 183.582 328.493 183.617 328.739C183.658 328.979 183.679 329.439 183.679 330.119ZM182.105 333.38V330.98L181.033 331.394C180.488 331.61 180.102 331.83 179.873 332.053C179.65 332.27 179.539 332.542 179.539 332.87C179.539 333.204 179.645 333.477 179.855 333.688C180.072 333.898 180.351 334.004 180.69 334.004C181.2 334.004 181.672 333.796 182.105 333.38ZM187.994 326.894V328.748L188.082 328.607C188.855 327.359 189.629 326.735 190.402 326.735C191.006 326.735 191.636 327.04 192.292 327.649L191.448 329.056C190.892 328.528 190.376 328.265 189.901 328.265C189.386 328.265 188.938 328.511 188.557 329.003C188.182 329.495 187.994 330.078 187.994 330.752V334.979H186.386V326.894H187.994ZM198.497 330.119V333.556C198.497 333.831 198.591 333.969 198.778 333.969C198.972 333.969 199.273 333.825 199.684 333.538V334.514C199.32 334.748 199.027 334.906 198.805 334.988C198.588 335.076 198.359 335.12 198.119 335.12C197.434 335.12 197.029 334.851 196.906 334.312C196.227 334.839 195.503 335.103 194.735 335.103C194.173 335.103 193.704 334.918 193.329 334.549C192.954 334.174 192.767 333.705 192.767 333.143C192.767 332.633 192.948 332.179 193.312 331.78C193.681 331.376 194.202 331.057 194.876 330.822L196.924 330.119V329.688C196.924 328.716 196.438 328.229 195.465 328.229C194.592 328.229 193.742 328.681 192.916 329.583V327.834C193.537 327.102 194.431 326.735 195.597 326.735C196.47 326.735 197.17 326.964 197.697 327.421C197.873 327.567 198.031 327.764 198.172 328.01C198.312 328.25 198.4 328.493 198.436 328.739C198.477 328.979 198.497 329.439 198.497 330.119ZM196.924 333.38V330.98L195.852 331.394C195.307 331.61 194.92 331.83 194.691 332.053C194.469 332.27 194.357 332.542 194.357 332.87C194.357 333.204 194.463 333.477 194.674 333.688C194.891 333.898 195.169 334.004 195.509 334.004C196.019 334.004 196.49 333.796 196.924 333.38ZM202.812 326.894V328.748L202.9 328.607C203.674 327.359 204.447 326.735 205.221 326.735C205.824 326.735 206.454 327.04 207.11 327.649L206.267 329.056C205.71 328.528 205.194 328.265 204.72 328.265C204.204 328.265 203.756 328.511 203.375 329.003C203 329.495 202.812 330.078 202.812 330.752V334.979H201.204V326.894H202.812ZM218.642 322.701H220.25V334.979H216.831C215.636 334.979 214.681 334.602 213.966 333.846C213.257 333.09 212.902 332.076 212.902 330.805C212.902 329.615 213.274 328.637 214.019 327.869C214.769 327.102 215.724 326.718 216.884 326.718C217.423 326.718 218.009 326.832 218.642 327.061V322.701ZM218.642 333.608V328.484C218.144 328.232 217.64 328.106 217.13 328.106C216.333 328.106 215.697 328.367 215.223 328.889C214.754 329.41 214.52 330.113 214.52 330.998C214.52 331.83 214.725 332.472 215.135 332.923C215.381 333.192 215.642 333.374 215.917 333.468C216.192 333.562 216.688 333.608 217.402 333.608H218.642ZM227.571 334.979V333.951C227.231 334.32 226.842 334.607 226.402 334.812C225.969 335.018 225.535 335.12 225.102 335.12C224.592 335.12 224.12 334.994 223.687 334.742C223.259 334.484 222.934 334.139 222.711 333.705C222.494 333.266 222.386 332.539 222.386 331.525V326.894H223.985V331.508C223.985 332.357 224.105 332.952 224.346 333.292C224.592 333.626 225.02 333.793 225.629 333.793C226.391 333.793 227.038 333.421 227.571 332.677V326.894H229.171V334.979H227.571ZM237.257 323.492C237.521 323.492 237.746 323.583 237.934 323.765C238.121 323.946 238.215 324.169 238.215 324.433C238.215 324.69 238.121 324.913 237.934 325.101C237.746 325.288 237.521 325.382 237.257 325.382C237.011 325.382 236.794 325.288 236.606 325.101C236.419 324.907 236.325 324.685 236.325 324.433C236.325 324.187 236.419 323.97 236.606 323.782C236.794 323.589 237.011 323.492 237.257 323.492ZM236.466 326.894H238.065V334.979H236.466V326.894ZM241.985 326.894V327.922C242.7 327.131 243.512 326.735 244.42 326.735C244.924 326.735 245.393 326.867 245.826 327.131C246.26 327.389 246.588 327.746 246.811 328.203C247.039 328.654 247.153 329.372 247.153 330.356V334.979H245.554V330.374C245.554 329.548 245.428 328.959 245.176 328.607C244.924 328.25 244.502 328.071 243.91 328.071C243.154 328.071 242.513 328.449 241.985 329.205V334.979H240.351V326.894H241.985ZM248.252 328.177L251.258 325.224V326.894H253.815V328.335H251.258V332.299C251.258 333.225 251.642 333.688 252.409 333.688C252.983 333.688 253.59 333.494 254.229 333.107V334.602C253.613 334.947 252.942 335.12 252.216 335.12C251.483 335.12 250.874 334.906 250.388 334.479C250.235 334.35 250.109 334.206 250.01 334.048C249.91 333.884 249.825 333.673 249.755 333.415C249.69 333.151 249.658 332.653 249.658 331.921V328.335H248.252V328.177ZM262.271 331.077H256.584C256.625 331.851 256.883 332.466 257.357 332.923C257.838 333.38 258.456 333.608 259.212 333.608C260.267 333.608 261.239 333.28 262.13 332.624V334.188C261.638 334.517 261.148 334.751 260.662 334.892C260.182 335.032 259.616 335.103 258.966 335.103C258.075 335.103 257.354 334.918 256.804 334.549C256.253 334.18 255.811 333.685 255.477 333.063C255.148 332.437 254.984 331.713 254.984 330.893C254.984 329.662 255.333 328.663 256.03 327.896C256.728 327.122 257.633 326.735 258.746 326.735C259.818 326.735 260.674 327.11 261.312 327.86C261.951 328.61 262.271 329.615 262.271 330.875V331.077ZM256.619 330.119H260.688C260.647 329.48 260.457 328.988 260.117 328.643C259.777 328.297 259.32 328.124 258.746 328.124C258.172 328.124 257.7 328.297 257.331 328.643C256.968 328.988 256.73 329.48 256.619 330.119ZM269.205 326.894V326.41C269.205 325.109 269.48 324.14 270.031 323.501C270.588 322.862 271.253 322.543 272.026 322.543C272.36 322.543 272.756 322.596 273.213 322.701V324.266C272.955 324.172 272.709 324.125 272.475 324.125C271.848 324.125 271.411 324.292 271.165 324.626C270.925 324.96 270.805 325.555 270.805 326.41V326.894H272.246V328.335H270.805V334.979H269.205V328.335H268.045V326.894H269.205ZM277.388 326.876C278.618 326.876 279.641 327.274 280.455 328.071C281.27 328.862 281.677 329.858 281.677 331.06C281.677 332.226 281.264 333.195 280.438 333.969C279.611 334.736 278.571 335.12 277.317 335.12C276.104 335.12 275.091 334.73 274.276 333.951C273.462 333.166 273.055 332.188 273.055 331.016C273.055 329.832 273.465 328.848 274.285 328.062C275.111 327.271 276.146 326.876 277.388 326.876ZM277.3 328.317C276.532 328.317 275.902 328.569 275.41 329.073C274.918 329.577 274.672 330.219 274.672 330.998C274.672 331.771 274.924 332.404 275.428 332.896C275.932 333.383 276.579 333.626 277.37 333.626C278.155 333.626 278.797 333.38 279.295 332.888C279.799 332.39 280.051 331.754 280.051 330.98C280.051 330.213 279.79 329.577 279.269 329.073C278.747 328.569 278.091 328.317 277.3 328.317ZM275.41 322.974C275.639 322.974 275.835 323.056 275.999 323.22C276.169 323.384 276.254 323.583 276.254 323.817C276.254 324.052 276.175 324.251 276.017 324.415C275.858 324.573 275.665 324.652 275.437 324.652C275.202 324.652 275.003 324.57 274.839 324.406C274.675 324.236 274.593 324.037 274.593 323.809C274.593 323.574 274.672 323.378 274.83 323.22C274.994 323.056 275.188 322.974 275.41 322.974ZM278.794 322.974C279.022 322.974 279.219 323.056 279.383 323.22C279.553 323.384 279.638 323.583 279.638 323.817C279.638 324.052 279.559 324.251 279.4 324.415C279.242 324.573 279.049 324.652 278.82 324.652C278.586 324.652 278.387 324.57 278.223 324.406C278.059 324.236 277.977 324.037 277.977 323.809C277.977 323.574 278.056 323.378 278.214 323.22C278.378 323.056 278.571 322.974 278.794 322.974ZM285.166 326.894V328.748L285.254 328.607C286.027 327.359 286.801 326.735 287.574 326.735C288.178 326.735 288.808 327.04 289.464 327.649L288.62 329.056C288.063 328.528 287.548 328.265 287.073 328.265C286.558 328.265 286.109 328.511 285.729 329.003C285.354 329.495 285.166 330.078 285.166 330.752V334.979H283.558V326.894H285.166ZM33.4736 346.701H35.0732V351.474C35.7646 350.97 36.5029 350.718 37.2881 350.718C38.3135 350.718 39.1514 351.104 39.8018 351.878C40.4521 352.651 40.7773 353.645 40.7773 354.857C40.7773 356.158 40.3877 357.195 39.6084 357.969C38.835 358.736 37.7979 359.12 36.4971 359.12C35.9756 359.12 35.4248 359.064 34.8447 358.953C34.2705 358.842 33.8135 358.701 33.4736 358.531V346.701ZM35.0732 353.003V357.38C35.6182 357.544 36.1777 357.626 36.752 357.626C37.4609 357.626 38.0381 357.374 38.4834 356.87C38.9346 356.366 39.1602 355.719 39.1602 354.928C39.1602 354.125 38.9492 353.472 38.5273 352.968C38.1113 352.464 37.5664 352.212 36.8926 352.212C36.2949 352.212 35.6885 352.476 35.0732 353.003ZM49.4346 355.077H43.748C43.7891 355.851 44.0469 356.466 44.5215 356.923C45.002 357.38 45.6201 357.608 46.376 357.608C47.4307 357.608 48.4033 357.28 49.2939 356.624V358.188C48.8018 358.517 48.3125 358.751 47.8262 358.892C47.3457 359.032 46.7803 359.103 46.1299 359.103C45.2393 359.103 44.5186 358.918 43.9678 358.549C43.417 358.18 42.9746 357.685 42.6406 357.063C42.3125 356.437 42.1484 355.713 42.1484 354.893C42.1484 353.662 42.4971 352.663 43.1943 351.896C43.8916 351.122 44.7969 350.735 45.9102 350.735C46.9824 350.735 47.8379 351.11 48.4766 351.86C49.1152 352.61 49.4346 353.615 49.4346 354.875V355.077ZM43.7832 354.119H47.8525C47.8115 353.48 47.6211 352.988 47.2812 352.643C46.9414 352.297 46.4844 352.124 45.9102 352.124C45.3359 352.124 44.8643 352.297 44.4951 352.643C44.1318 352.988 43.8945 353.48 43.7832 354.119ZM50.041 352.177L53.0469 349.224V350.894H55.6045V352.335H53.0469V356.299C53.0469 357.225 53.4307 357.688 54.1982 357.688C54.7725 357.688 55.3789 357.494 56.0176 357.107V358.602C55.4023 358.947 54.7314 359.12 54.0049 359.12C53.2725 359.12 52.6631 358.906 52.1768 358.479C52.0244 358.35 51.8984 358.206 51.7988 358.048C51.6992 357.884 51.6143 357.673 51.5439 357.415C51.4795 357.151 51.4473 356.653 51.4473 355.921V352.335H50.041V352.177ZM62.249 354.119V357.556C62.249 357.831 62.3428 357.969 62.5303 357.969C62.7236 357.969 63.0254 357.825 63.4355 357.538V358.514C63.0723 358.748 62.7793 358.906 62.5566 358.988C62.3398 359.076 62.1113 359.12 61.8711 359.12C61.1855 359.12 60.7812 358.851 60.6582 358.312C59.9785 358.839 59.2549 359.103 58.4873 359.103C57.9248 359.103 57.4561 358.918 57.0811 358.549C56.7061 358.174 56.5186 357.705 56.5186 357.143C56.5186 356.633 56.7002 356.179 57.0635 355.78C57.4326 355.376 57.9541 355.057 58.6279 354.822L60.6758 354.119V353.688C60.6758 352.716 60.1895 352.229 59.2168 352.229C58.3438 352.229 57.4941 352.681 56.668 353.583V351.834C57.2891 351.102 58.1826 350.735 59.3486 350.735C60.2217 350.735 60.9219 350.964 61.4492 351.421C61.625 351.567 61.7832 351.764 61.9238 352.01C62.0645 352.25 62.1523 352.493 62.1875 352.739C62.2285 352.979 62.249 353.439 62.249 354.119ZM60.6758 357.38V354.98L59.6035 355.394C59.0586 355.61 58.6719 355.83 58.4434 356.053C58.2207 356.27 58.1094 356.542 58.1094 356.87C58.1094 357.204 58.2148 357.477 58.4258 357.688C58.6426 357.898 58.9209 358.004 59.2607 358.004C59.7705 358.004 60.2422 357.796 60.6758 357.38ZM64.8857 346.701H66.4854V358.979H64.8857V346.701ZM70.4053 350.894V351.922C71.1201 351.131 71.9316 350.735 72.8398 350.735C73.3438 350.735 73.8125 350.867 74.2461 351.131C74.6797 351.389 75.0078 351.746 75.2305 352.203C75.459 352.654 75.5732 353.372 75.5732 354.356V358.979H73.9736V354.374C73.9736 353.548 73.8477 352.959 73.5957 352.607C73.3438 352.25 72.9219 352.071 72.3301 352.071C71.5742 352.071 70.9326 352.449 70.4053 353.205V358.979H68.7705V350.894H70.4053ZM78.6318 347.492C78.8955 347.492 79.1211 347.583 79.3086 347.765C79.4961 347.946 79.5898 348.169 79.5898 348.433C79.5898 348.69 79.4961 348.913 79.3086 349.101C79.1211 349.288 78.8955 349.382 78.6318 349.382C78.3857 349.382 78.1689 349.288 77.9814 349.101C77.7939 348.907 77.7002 348.685 77.7002 348.433C77.7002 348.187 77.7939 347.97 77.9814 347.782C78.1689 347.589 78.3857 347.492 78.6318 347.492ZM77.8408 350.894H79.4404V358.979H77.8408V350.894ZM83.3604 350.894V351.922C84.0752 351.131 84.8867 350.735 85.7949 350.735C86.2988 350.735 86.7676 350.867 87.2012 351.131C87.6348 351.389 87.9629 351.746 88.1855 352.203C88.4141 352.654 88.5283 353.372 88.5283 354.356V358.979H86.9287V354.374C86.9287 353.548 86.8027 352.959 86.5508 352.607C86.2988 352.25 85.877 352.071 85.2852 352.071C84.5293 352.071 83.8877 352.449 83.3604 353.205V358.979H81.7256V350.894H83.3604ZM90.3477 353.688C90.3477 352.827 90.6611 352.147 91.2881 351.649C91.9209 351.146 92.7822 350.894 93.8721 350.894H97.2031V352.142H95.5684C95.8848 352.464 96.1045 352.757 96.2275 353.021C96.3506 353.284 96.4121 353.586 96.4121 353.926C96.4121 354.348 96.292 354.764 96.0518 355.174C95.8115 355.578 95.501 355.889 95.1201 356.105C94.7451 356.322 94.127 356.495 93.2656 356.624C92.6621 356.712 92.3604 356.92 92.3604 357.248C92.3604 357.436 92.4717 357.591 92.6943 357.714C92.9229 357.831 93.333 357.954 93.9248 358.083C94.915 358.3 95.5508 358.47 95.832 358.593C96.1191 358.716 96.377 358.892 96.6055 359.12C96.9922 359.507 97.1855 359.993 97.1855 360.579C97.1855 361.347 96.8428 361.959 96.1572 362.416C95.4775 362.873 94.5664 363.102 93.4238 363.102C92.2695 363.102 91.3467 362.87 90.6553 362.407C89.9697 361.95 89.627 361.335 89.627 360.562C89.627 359.466 90.3037 358.76 91.6572 358.443C91.1182 358.098 90.8486 357.755 90.8486 357.415C90.8486 357.157 90.9629 356.923 91.1914 356.712C91.4258 356.501 91.7393 356.346 92.1318 356.246C90.9424 355.719 90.3477 354.866 90.3477 353.688ZM93.3535 352.282C92.9199 352.282 92.5508 352.429 92.2461 352.722C91.9414 353.015 91.7891 353.366 91.7891 353.776C91.7891 354.192 91.9385 354.538 92.2373 354.813C92.5361 355.083 92.9141 355.218 93.3711 355.218C93.8223 355.218 94.1973 355.08 94.4961 354.805C94.8008 354.523 94.9531 354.175 94.9531 353.759C94.9531 353.337 94.8008 352.985 94.4961 352.704C94.1914 352.423 93.8105 352.282 93.3535 352.282ZM92.9756 359.357C92.4365 359.357 91.9941 359.472 91.6484 359.7C91.3086 359.929 91.1387 360.222 91.1387 360.579C91.1387 361.411 91.8887 361.827 93.3887 361.827C94.0977 361.827 94.6455 361.722 95.0322 361.511C95.4248 361.306 95.6211 361.013 95.6211 360.632C95.6211 360.257 95.375 359.949 94.8828 359.709C94.3906 359.475 93.7549 359.357 92.9756 359.357ZM103.522 354.119V357.556C103.522 357.831 103.616 357.969 103.804 357.969C103.997 357.969 104.299 357.825 104.709 357.538V358.514C104.346 358.748 104.053 358.906 103.83 358.988C103.613 359.076 103.385 359.12 103.145 359.12C102.459 359.12 102.055 358.851 101.932 358.312C101.252 358.839 100.528 359.103 99.7607 359.103C99.1982 359.103 98.7295 358.918 98.3545 358.549C97.9795 358.174 97.792 357.705 97.792 357.143C97.792 356.633 97.9736 356.179 98.3369 355.78C98.7061 355.376 99.2275 355.057 99.9014 354.822L101.949 354.119V353.688C101.949 352.716 101.463 352.229 100.49 352.229C99.6172 352.229 98.7676 352.681 97.9414 353.583V351.834C98.5625 351.102 99.4561 350.735 100.622 350.735C101.495 350.735 102.195 350.964 102.723 351.421C102.898 351.567 103.057 351.764 103.197 352.01C103.338 352.25 103.426 352.493 103.461 352.739C103.502 352.979 103.522 353.439 103.522 354.119ZM101.949 357.38V354.98L100.877 355.394C100.332 355.61 99.9453 355.83 99.7168 356.053C99.4941 356.27 99.3828 356.542 99.3828 356.87C99.3828 357.204 99.4883 357.477 99.6992 357.688C99.916 357.898 100.194 358.004 100.534 358.004C101.044 358.004 101.516 357.796 101.949 357.38ZM107.838 350.894V352.748L107.926 352.607C108.699 351.359 109.473 350.735 110.246 350.735C110.85 350.735 111.479 351.04 112.136 351.649L111.292 353.056C110.735 352.528 110.22 352.265 109.745 352.265C109.229 352.265 108.781 352.511 108.4 353.003C108.025 353.495 107.838 354.078 107.838 354.752V358.979H106.229V350.894H107.838ZM124.897 353.108V358.979H123.289V354.479C123.289 353.583 123.169 352.959 122.929 352.607C122.688 352.25 122.27 352.071 121.672 352.071C121.338 352.071 121.03 352.147 120.749 352.3C120.474 352.452 120.157 352.722 119.8 353.108V358.979H118.2V350.894H119.8V351.957C120.614 351.143 121.411 350.735 122.19 350.735C123.216 350.735 124.01 351.222 124.572 352.194C125.428 351.21 126.321 350.718 127.253 350.718C128.038 350.718 128.683 351.005 129.187 351.579C129.696 352.153 129.951 353.029 129.951 354.207V358.979H128.352V354.189C128.352 353.516 128.214 353 127.938 352.643C127.663 352.285 127.268 352.106 126.752 352.106C126.09 352.106 125.472 352.44 124.897 353.108ZM139.048 355.077H133.361C133.402 355.851 133.66 356.466 134.135 356.923C134.615 357.38 135.233 357.608 135.989 357.608C137.044 357.608 138.017 357.28 138.907 356.624V358.188C138.415 358.517 137.926 358.751 137.439 358.892C136.959 359.032 136.394 359.103 135.743 359.103C134.853 359.103 134.132 358.918 133.581 358.549C133.03 358.18 132.588 357.685 132.254 357.063C131.926 356.437 131.762 355.713 131.762 354.893C131.762 353.662 132.11 352.663 132.808 351.896C133.505 351.122 134.41 350.735 135.523 350.735C136.596 350.735 137.451 351.11 138.09 351.86C138.729 352.61 139.048 353.615 139.048 354.875V355.077ZM133.396 354.119H137.466C137.425 353.48 137.234 352.988 136.895 352.643C136.555 352.297 136.098 352.124 135.523 352.124C134.949 352.124 134.478 352.297 134.108 352.643C133.745 352.988 133.508 353.48 133.396 354.119ZM140.823 346.701H142.423V358.979H140.823V346.701ZM144.778 346.701H146.378V358.979H144.778V346.701ZM153.778 354.119V357.556C153.778 357.831 153.872 357.969 154.06 357.969C154.253 357.969 154.555 357.825 154.965 357.538V358.514C154.602 358.748 154.309 358.906 154.086 358.988C153.869 359.076 153.641 359.12 153.4 359.12C152.715 359.12 152.311 358.851 152.188 358.312C151.508 358.839 150.784 359.103 150.017 359.103C149.454 359.103 148.985 358.918 148.61 358.549C148.235 358.174 148.048 357.705 148.048 357.143C148.048 356.633 148.229 356.179 148.593 355.78C148.962 355.376 149.483 355.057 150.157 354.822L152.205 354.119V353.688C152.205 352.716 151.719 352.229 150.746 352.229C149.873 352.229 149.023 352.681 148.197 353.583V351.834C148.818 351.102 149.712 350.735 150.878 350.735C151.751 350.735 152.451 350.964 152.979 351.421C153.154 351.567 153.312 351.764 153.453 352.01C153.594 352.25 153.682 352.493 153.717 352.739C153.758 352.979 153.778 353.439 153.778 354.119ZM152.205 357.38V354.98L151.133 355.394C150.588 355.61 150.201 355.83 149.973 356.053C149.75 356.27 149.639 356.542 149.639 356.87C149.639 357.204 149.744 357.477 149.955 357.688C150.172 357.898 150.45 358.004 150.79 358.004C151.3 358.004 151.771 357.796 152.205 357.38ZM157.979 350.894V351.922C158.694 351.131 159.506 350.735 160.414 350.735C160.918 350.735 161.387 350.867 161.82 351.131C162.254 351.389 162.582 351.746 162.805 352.203C163.033 352.654 163.147 353.372 163.147 354.356V358.979H161.548V354.374C161.548 353.548 161.422 352.959 161.17 352.607C160.918 352.25 160.496 352.071 159.904 352.071C159.148 352.071 158.507 352.449 157.979 353.205V358.979H156.345V350.894H157.979ZM175.786 346.701H177.395V358.979H173.976C172.78 358.979 171.825 358.602 171.11 357.846C170.401 357.09 170.047 356.076 170.047 354.805C170.047 353.615 170.419 352.637 171.163 351.869C171.913 351.102 172.868 350.718 174.028 350.718C174.567 350.718 175.153 350.832 175.786 351.061V346.701ZM175.786 357.608V352.484C175.288 352.232 174.784 352.106 174.274 352.106C173.478 352.106 172.842 352.367 172.367 352.889C171.898 353.41 171.664 354.113 171.664 354.998C171.664 355.83 171.869 356.472 172.279 356.923C172.525 357.192 172.786 357.374 173.062 357.468C173.337 357.562 173.832 357.608 174.547 357.608H175.786ZM180.392 347.492C180.655 347.492 180.881 347.583 181.068 347.765C181.256 347.946 181.35 348.169 181.35 348.433C181.35 348.69 181.256 348.913 181.068 349.101C180.881 349.288 180.655 349.382 180.392 349.382C180.146 349.382 179.929 349.288 179.741 349.101C179.554 348.907 179.46 348.685 179.46 348.433C179.46 348.187 179.554 347.97 179.741 347.782C179.929 347.589 180.146 347.492 180.392 347.492ZM179.601 350.894H181.2V358.979H179.601V350.894ZM183.107 353.688C183.107 352.827 183.421 352.147 184.048 351.649C184.681 351.146 185.542 350.894 186.632 350.894H189.963V352.142H188.328C188.645 352.464 188.864 352.757 188.987 353.021C189.11 353.284 189.172 353.586 189.172 353.926C189.172 354.348 189.052 354.764 188.812 355.174C188.571 355.578 188.261 355.889 187.88 356.105C187.505 356.322 186.887 356.495 186.025 356.624C185.422 356.712 185.12 356.92 185.12 357.248C185.12 357.436 185.231 357.591 185.454 357.714C185.683 357.831 186.093 357.954 186.685 358.083C187.675 358.3 188.311 358.47 188.592 358.593C188.879 358.716 189.137 358.892 189.365 359.12C189.752 359.507 189.945 359.993 189.945 360.579C189.945 361.347 189.603 361.959 188.917 362.416C188.237 362.873 187.326 363.102 186.184 363.102C185.029 363.102 184.106 362.87 183.415 362.407C182.729 361.95 182.387 361.335 182.387 360.562C182.387 359.466 183.063 358.76 184.417 358.443C183.878 358.098 183.608 357.755 183.608 357.415C183.608 357.157 183.723 356.923 183.951 356.712C184.186 356.501 184.499 356.346 184.892 356.246C183.702 355.719 183.107 354.866 183.107 353.688ZM186.113 352.282C185.68 352.282 185.311 352.429 185.006 352.722C184.701 353.015 184.549 353.366 184.549 353.776C184.549 354.192 184.698 354.538 184.997 354.813C185.296 355.083 185.674 355.218 186.131 355.218C186.582 355.218 186.957 355.08 187.256 354.805C187.561 354.523 187.713 354.175 187.713 353.759C187.713 353.337 187.561 352.985 187.256 352.704C186.951 352.423 186.57 352.282 186.113 352.282ZM185.735 359.357C185.196 359.357 184.754 359.472 184.408 359.7C184.068 359.929 183.898 360.222 183.898 360.579C183.898 361.411 184.648 361.827 186.148 361.827C186.857 361.827 187.405 361.722 187.792 361.511C188.185 361.306 188.381 361.013 188.381 360.632C188.381 360.257 188.135 359.949 187.643 359.709C187.15 359.475 186.515 359.357 185.735 359.357ZM200.079 350.876C201.31 350.876 202.332 351.274 203.146 352.071C203.961 352.862 204.368 353.858 204.368 355.06C204.368 356.226 203.955 357.195 203.129 357.969C202.303 358.736 201.263 359.12 200.009 359.12C198.796 359.12 197.782 358.73 196.968 357.951C196.153 357.166 195.746 356.188 195.746 355.016C195.746 353.832 196.156 352.848 196.977 352.062C197.803 351.271 198.837 350.876 200.079 350.876ZM199.991 352.317C199.224 352.317 198.594 352.569 198.102 353.073C197.609 353.577 197.363 354.219 197.363 354.998C197.363 355.771 197.615 356.404 198.119 356.896C198.623 357.383 199.271 357.626 200.062 357.626C200.847 357.626 201.488 357.38 201.986 356.888C202.49 356.39 202.742 355.754 202.742 354.98C202.742 354.213 202.481 353.577 201.96 353.073C201.438 352.569 200.782 352.317 199.991 352.317ZM212.208 357.09V358.672C211.405 358.971 210.62 359.12 209.853 359.12C208.587 359.12 207.576 358.745 206.82 357.995C206.07 357.245 205.695 356.24 205.695 354.98C205.695 353.709 206.062 352.684 206.794 351.904C207.526 351.125 208.49 350.735 209.686 350.735C210.102 350.735 210.474 350.776 210.802 350.858C211.136 350.935 211.546 351.081 212.032 351.298V353.003C211.224 352.487 210.474 352.229 209.782 352.229C209.062 352.229 208.47 352.484 208.007 352.994C207.544 353.498 207.312 354.143 207.312 354.928C207.312 355.754 207.562 356.41 208.06 356.896C208.563 357.383 209.24 357.626 210.09 357.626C210.705 357.626 211.411 357.447 212.208 357.09ZM214.001 346.701H215.601V351.957C216.269 351.143 217.098 350.735 218.088 350.735C218.627 350.735 219.11 350.87 219.538 351.14C219.966 351.409 220.282 351.781 220.487 352.256C220.698 352.73 220.804 353.437 220.804 354.374V358.979H219.204V353.979C219.204 353.387 219.058 352.912 218.765 352.555C218.478 352.191 218.097 352.01 217.622 352.01C217.271 352.01 216.939 352.101 216.629 352.282C216.318 352.464 215.976 352.766 215.601 353.188V358.979H214.001V346.701ZM233.442 346.701H235.051V358.979H231.632C230.437 358.979 229.481 358.602 228.767 357.846C228.058 357.09 227.703 356.076 227.703 354.805C227.703 353.615 228.075 352.637 228.819 351.869C229.569 351.102 230.524 350.718 231.685 350.718C232.224 350.718 232.81 350.832 233.442 351.061V346.701ZM233.442 357.608V352.484C232.944 352.232 232.44 352.106 231.931 352.106C231.134 352.106 230.498 352.367 230.023 352.889C229.555 353.41 229.32 354.113 229.32 354.998C229.32 355.83 229.525 356.472 229.936 356.923C230.182 357.192 230.442 357.374 230.718 357.468C230.993 357.562 231.488 357.608 232.203 357.608H233.442ZM238.048 347.492C238.312 347.492 238.537 347.583 238.725 347.765C238.912 347.946 239.006 348.169 239.006 348.433C239.006 348.69 238.912 348.913 238.725 349.101C238.537 349.288 238.312 349.382 238.048 349.382C237.802 349.382 237.585 349.288 237.397 349.101C237.21 348.907 237.116 348.685 237.116 348.433C237.116 348.187 237.21 347.97 237.397 347.782C237.585 347.589 237.802 347.492 238.048 347.492ZM237.257 350.894H238.856V358.979H237.257V350.894ZM242.776 350.894V351.922C243.491 351.131 244.303 350.735 245.211 350.735C245.715 350.735 246.184 350.867 246.617 351.131C247.051 351.389 247.379 351.746 247.602 352.203C247.83 352.654 247.944 353.372 247.944 354.356V358.979H246.345V354.374C246.345 353.548 246.219 352.959 245.967 352.607C245.715 352.25 245.293 352.071 244.701 352.071C243.945 352.071 243.304 352.449 242.776 353.205V358.979H241.142V350.894H242.776ZM33.5088 370.701H35.1084V375.957C35.7764 375.143 36.6055 374.735 37.5957 374.735C38.1348 374.735 38.6182 374.87 39.0459 375.14C39.4736 375.409 39.79 375.781 39.9951 376.256C40.2061 376.73 40.3115 377.437 40.3115 378.374V382.979H38.7119V377.979C38.7119 377.387 38.5654 376.912 38.2725 376.555C37.9854 376.191 37.6045 376.01 37.1299 376.01C36.7783 376.01 36.4473 376.101 36.1367 376.282C35.8262 376.464 35.4834 376.766 35.1084 377.188V382.979H33.5088V370.701ZM47.4922 374.894H49.2939L43.5723 387.102H41.7881L44.5391 381.248L41.4102 374.894H43.2295L45.4092 379.455L47.4922 374.894ZM52.1504 374.894V376.748L52.2383 376.607C53.0117 375.359 53.7852 374.735 54.5586 374.735C55.1621 374.735 55.792 375.04 56.4482 375.649L55.6045 377.056C55.0479 376.528 54.5322 376.265 54.0576 376.265C53.542 376.265 53.0938 376.511 52.7129 377.003C52.3379 377.495 52.1504 378.078 52.1504 378.752V382.979H50.542V374.894H52.1504ZM64.4639 379.077H58.7773C58.8184 379.851 59.0762 380.466 59.5508 380.923C60.0312 381.38 60.6494 381.608 61.4053 381.608C62.46 381.608 63.4326 381.28 64.3232 380.624V382.188C63.8311 382.517 63.3418 382.751 62.8555 382.892C62.375 383.032 61.8096 383.103 61.1592 383.103C60.2686 383.103 59.5479 382.918 58.9971 382.549C58.4463 382.18 58.0039 381.685 57.6699 381.063C57.3418 380.437 57.1777 379.713 57.1777 378.893C57.1777 377.662 57.5264 376.663 58.2236 375.896C58.9209 375.122 59.8262 374.735 60.9395 374.735C62.0117 374.735 62.8672 375.11 63.5059 375.86C64.1445 376.61 64.4639 377.615 64.4639 378.875V379.077ZM58.8125 378.119H62.8818C62.8408 377.48 62.6504 376.988 62.3105 376.643C61.9707 376.297 61.5137 376.124 60.9395 376.124C60.3652 376.124 59.8936 376.297 59.5244 376.643C59.1611 376.988 58.9238 377.48 58.8125 378.119ZM65.8086 382.399V380.677C66.2598 380.993 66.7197 381.251 67.1885 381.45C67.6631 381.644 68.0615 381.74 68.3838 381.74C68.7178 381.74 69.0049 381.658 69.2451 381.494C69.4854 381.33 69.6055 381.134 69.6055 380.905C69.6055 380.671 69.5264 380.478 69.3682 380.325C69.2158 380.167 68.8818 379.941 68.3662 379.648C67.335 379.074 66.6582 378.585 66.3359 378.181C66.0195 377.771 65.8613 377.325 65.8613 376.845C65.8613 376.224 66.1016 375.717 66.582 375.324C67.0684 374.932 67.6924 374.735 68.4541 374.735C69.2451 374.735 70.0566 374.958 70.8887 375.403V376.985C69.9395 376.411 69.1631 376.124 68.5596 376.124C68.249 376.124 67.9971 376.191 67.8037 376.326C67.6162 376.455 67.5225 376.628 67.5225 376.845C67.5225 377.032 67.6074 377.211 67.7773 377.381C67.9531 377.551 68.2578 377.756 68.6914 377.996L69.2627 378.321C70.6104 379.083 71.2842 379.927 71.2842 380.853C71.2842 381.515 71.0234 382.06 70.502 382.487C69.9863 382.909 69.3213 383.12 68.5068 383.12C68.0264 383.12 67.5986 383.07 67.2236 382.971C66.8486 382.865 66.377 382.675 65.8086 382.399ZM72.7168 377.688C72.7168 376.827 73.0303 376.147 73.6572 375.649C74.29 375.146 75.1514 374.894 76.2412 374.894H79.5723V376.142H77.9375C78.2539 376.464 78.4736 376.757 78.5967 377.021C78.7197 377.284 78.7812 377.586 78.7812 377.926C78.7812 378.348 78.6611 378.764 78.4209 379.174C78.1807 379.578 77.8701 379.889 77.4893 380.105C77.1143 380.322 76.4961 380.495 75.6348 380.624C75.0312 380.712 74.7295 380.92 74.7295 381.248C74.7295 381.436 74.8408 381.591 75.0635 381.714C75.292 381.831 75.7021 381.954 76.2939 382.083C77.2842 382.3 77.9199 382.47 78.2012 382.593C78.4883 382.716 78.7461 382.892 78.9746 383.12C79.3613 383.507 79.5547 383.993 79.5547 384.579C79.5547 385.347 79.2119 385.959 78.5264 386.416C77.8467 386.873 76.9355 387.102 75.793 387.102C74.6387 387.102 73.7158 386.87 73.0244 386.407C72.3389 385.95 71.9961 385.335 71.9961 384.562C71.9961 383.466 72.6729 382.76 74.0264 382.443C73.4873 382.098 73.2178 381.755 73.2178 381.415C73.2178 381.157 73.332 380.923 73.5605 380.712C73.7949 380.501 74.1084 380.346 74.501 380.246C73.3115 379.719 72.7168 378.866 72.7168 377.688ZM75.7227 376.282C75.2891 376.282 74.9199 376.429 74.6152 376.722C74.3105 377.015 74.1582 377.366 74.1582 377.776C74.1582 378.192 74.3076 378.538 74.6064 378.813C74.9053 379.083 75.2832 379.218 75.7402 379.218C76.1914 379.218 76.5664 379.08 76.8652 378.805C77.1699 378.523 77.3223 378.175 77.3223 377.759C77.3223 377.337 77.1699 376.985 76.8652 376.704C76.5605 376.423 76.1797 376.282 75.7227 376.282ZM75.3447 383.357C74.8057 383.357 74.3633 383.472 74.0176 383.7C73.6777 383.929 73.5078 384.222 73.5078 384.579C73.5078 385.411 74.2578 385.827 75.7578 385.827C76.4668 385.827 77.0146 385.722 77.4014 385.511C77.7939 385.306 77.9902 385.013 77.9902 384.632C77.9902 384.257 77.7441 383.949 77.252 383.709C76.7598 383.475 76.124 383.357 75.3447 383.357ZM85.8916 378.119V381.556C85.8916 381.831 85.9854 381.969 86.1729 381.969C86.3662 381.969 86.668 381.825 87.0781 381.538V382.514C86.7148 382.748 86.4219 382.906 86.1992 382.988C85.9824 383.076 85.7539 383.12 85.5137 383.12C84.8281 383.12 84.4238 382.851 84.3008 382.312C83.6211 382.839 82.8975 383.103 82.1299 383.103C81.5674 383.103 81.0986 382.918 80.7236 382.549C80.3486 382.174 80.1611 381.705 80.1611 381.143C80.1611 380.633 80.3428 380.179 80.7061 379.78C81.0752 379.376 81.5967 379.057 82.2705 378.822L84.3184 378.119V377.688C84.3184 376.716 83.832 376.229 82.8594 376.229C81.9863 376.229 81.1367 376.681 80.3105 377.583V375.834C80.9316 375.102 81.8252 374.735 82.9912 374.735C83.8643 374.735 84.5645 374.964 85.0918 375.421C85.2676 375.567 85.4258 375.764 85.5664 376.01C85.707 376.25 85.7949 376.493 85.8301 376.739C85.8711 376.979 85.8916 377.439 85.8916 378.119ZM84.3184 381.38V378.98L83.2461 379.394C82.7012 379.61 82.3145 379.83 82.0859 380.053C81.8633 380.27 81.752 380.542 81.752 380.87C81.752 381.204 81.8574 381.477 82.0684 381.688C82.2852 381.898 82.5635 382.004 82.9033 382.004C83.4131 382.004 83.8848 381.796 84.3184 381.38ZM81.8223 370.974C82.0508 370.974 82.2471 371.056 82.4111 371.22C82.5811 371.384 82.666 371.583 82.666 371.817C82.666 372.052 82.5869 372.251 82.4287 372.415C82.2705 372.573 82.0771 372.652 81.8486 372.652C81.6143 372.652 81.415 372.57 81.251 372.406C81.0869 372.236 81.0049 372.037 81.0049 371.809C81.0049 371.574 81.084 371.378 81.2422 371.22C81.4062 371.056 81.5996 370.974 81.8223 370.974ZM85.2061 370.974C85.4346 370.974 85.6309 371.056 85.7949 371.22C85.9648 371.384 86.0498 371.583 86.0498 371.817C86.0498 372.052 85.9707 372.251 85.8125 372.415C85.6543 372.573 85.4609 372.652 85.2324 372.652C84.998 372.652 84.7988 372.57 84.6348 372.406C84.4707 372.236 84.3887 372.037 84.3887 371.809C84.3887 371.574 84.4678 371.378 84.626 371.22C84.79 371.056 84.9834 370.974 85.2061 370.974ZM88.0977 382.399V380.677C88.5488 380.993 89.0088 381.251 89.4775 381.45C89.9521 381.644 90.3506 381.74 90.6729 381.74C91.0068 381.74 91.2939 381.658 91.5342 381.494C91.7744 381.33 91.8945 381.134 91.8945 380.905C91.8945 380.671 91.8154 380.478 91.6572 380.325C91.5049 380.167 91.1709 379.941 90.6553 379.648C89.624 379.074 88.9473 378.585 88.625 378.181C88.3086 377.771 88.1504 377.325 88.1504 376.845C88.1504 376.224 88.3906 375.717 88.8711 375.324C89.3574 374.932 89.9814 374.735 90.7432 374.735C91.5342 374.735 92.3457 374.958 93.1777 375.403V376.985C92.2285 376.411 91.4521 376.124 90.8486 376.124C90.5381 376.124 90.2861 376.191 90.0928 376.326C89.9053 376.455 89.8115 376.628 89.8115 376.845C89.8115 377.032 89.8965 377.211 90.0664 377.381C90.2422 377.551 90.5469 377.756 90.9805 377.996L91.5518 378.321C92.8994 379.083 93.5732 379.927 93.5732 380.853C93.5732 381.515 93.3125 382.06 92.791 382.487C92.2754 382.909 91.6104 383.12 90.7959 383.12C90.3154 383.12 89.8877 383.07 89.5127 382.971C89.1377 382.865 88.666 382.675 88.0977 382.399ZM94.2852 376.177L97.291 373.224V374.894H99.8486V376.335H97.291V380.299C97.291 381.225 97.6748 381.688 98.4424 381.688C99.0166 381.688 99.623 381.494 100.262 381.107V382.602C99.6465 382.947 98.9756 383.12 98.249 383.12C97.5166 383.12 96.9072 382.906 96.4209 382.479C96.2686 382.35 96.1426 382.206 96.043 382.048C95.9434 381.884 95.8584 381.673 95.7881 381.415C95.7236 381.151 95.6914 380.653 95.6914 379.921V376.335H94.2852V376.177ZM102.239 381.02C102.538 381.02 102.793 381.122 103.004 381.327C103.215 381.532 103.32 381.784 103.32 382.083C103.32 382.376 103.215 382.622 103.004 382.821C102.799 383.021 102.544 383.12 102.239 383.12C101.94 383.12 101.688 383.021 101.483 382.821C101.278 382.622 101.176 382.376 101.176 382.083C101.176 381.784 101.278 381.532 101.483 381.327C101.688 381.122 101.94 381.02 102.239 381.02ZM117.541 370.701H119.738L114.412 376.52L121.048 382.979H118.64L112.373 376.915V382.979H110.615V370.701H112.373V376.317L117.541 370.701ZM126.058 374.876C127.288 374.876 128.311 375.274 129.125 376.071C129.939 376.862 130.347 377.858 130.347 379.06C130.347 380.226 129.934 381.195 129.107 381.969C128.281 382.736 127.241 383.12 125.987 383.12C124.774 383.12 123.761 382.73 122.946 381.951C122.132 381.166 121.725 380.188 121.725 379.016C121.725 377.832 122.135 376.848 122.955 376.062C123.781 375.271 124.815 374.876 126.058 374.876ZM125.97 376.317C125.202 376.317 124.572 376.569 124.08 377.073C123.588 377.577 123.342 378.219 123.342 378.998C123.342 379.771 123.594 380.404 124.098 380.896C124.602 381.383 125.249 381.626 126.04 381.626C126.825 381.626 127.467 381.38 127.965 380.888C128.469 380.39 128.721 379.754 128.721 378.98C128.721 378.213 128.46 377.577 127.938 377.073C127.417 376.569 126.761 376.317 125.97 376.317ZM132.157 370.701H133.757V382.979H132.157V370.701ZM136.112 370.701H137.712V382.979H136.112V370.701ZM146.923 379.077H141.236C141.277 379.851 141.535 380.466 142.01 380.923C142.49 381.38 143.108 381.608 143.864 381.608C144.919 381.608 145.892 381.28 146.782 380.624V382.188C146.29 382.517 145.801 382.751 145.314 382.892C144.834 383.032 144.269 383.103 143.618 383.103C142.728 383.103 142.007 382.918 141.456 382.549C140.905 382.18 140.463 381.685 140.129 381.063C139.801 380.437 139.637 379.713 139.637 378.893C139.637 377.662 139.985 376.663 140.683 375.896C141.38 375.122 142.285 374.735 143.398 374.735C144.471 374.735 145.326 375.11 145.965 375.86C146.604 376.61 146.923 377.615 146.923 378.875V379.077ZM141.271 378.119H145.341C145.3 377.48 145.109 376.988 144.77 376.643C144.43 376.297 143.973 376.124 143.398 376.124C142.824 376.124 142.353 376.297 141.983 376.643C141.62 376.988 141.383 377.48 141.271 378.119ZM153.919 374.894H155.826L152.372 378.857L156.529 382.979H154.385L150.333 378.857L153.919 374.894ZM148.663 370.701H150.263V382.979H148.663V370.701ZM156.16 376.177L159.166 373.224V374.894H161.724V376.335H159.166V380.299C159.166 381.225 159.55 381.688 160.317 381.688C160.892 381.688 161.498 381.494 162.137 381.107V382.602C161.521 382.947 160.851 383.12 160.124 383.12C159.392 383.12 158.782 382.906 158.296 382.479C158.144 382.35 158.018 382.206 157.918 382.048C157.818 381.884 157.733 381.673 157.663 381.415C157.599 381.151 157.566 380.653 157.566 379.921V376.335H156.16V376.177ZM164.114 371.492C164.378 371.492 164.604 371.583 164.791 371.765C164.979 371.946 165.072 372.169 165.072 372.433C165.072 372.69 164.979 372.913 164.791 373.101C164.604 373.288 164.378 373.382 164.114 373.382C163.868 373.382 163.651 373.288 163.464 373.101C163.276 372.907 163.183 372.685 163.183 372.433C163.183 372.187 163.276 371.97 163.464 371.782C163.651 371.589 163.868 371.492 164.114 371.492ZM163.323 374.894H164.923V382.979H163.323V374.894ZM172.191 374.894H173.923L170.354 383.12H169.818L166.162 374.894H167.911L170.091 379.868L172.191 374.894ZM180.216 378.119V381.556C180.216 381.831 180.31 381.969 180.497 381.969C180.69 381.969 180.992 381.825 181.402 381.538V382.514C181.039 382.748 180.746 382.906 180.523 382.988C180.307 383.076 180.078 383.12 179.838 383.12C179.152 383.12 178.748 382.851 178.625 382.312C177.945 382.839 177.222 383.103 176.454 383.103C175.892 383.103 175.423 382.918 175.048 382.549C174.673 382.174 174.485 381.705 174.485 381.143C174.485 380.633 174.667 380.179 175.03 379.78C175.399 379.376 175.921 379.057 176.595 378.822L178.643 378.119V377.688C178.643 376.716 178.156 376.229 177.184 376.229C176.311 376.229 175.461 376.681 174.635 377.583V375.834C175.256 375.102 176.149 374.735 177.315 374.735C178.188 374.735 178.889 374.964 179.416 375.421C179.592 375.567 179.75 375.764 179.891 376.01C180.031 376.25 180.119 376.493 180.154 376.739C180.195 376.979 180.216 377.439 180.216 378.119ZM178.643 381.38V378.98L177.57 379.394C177.025 379.61 176.639 379.83 176.41 380.053C176.188 380.27 176.076 380.542 176.076 380.87C176.076 381.204 176.182 381.477 176.393 381.688C176.609 381.898 176.888 382.004 177.228 382.004C177.737 382.004 178.209 381.796 178.643 381.38ZM187.432 382.399V380.677C187.883 380.993 188.343 381.251 188.812 381.45C189.286 381.644 189.685 381.74 190.007 381.74C190.341 381.74 190.628 381.658 190.868 381.494C191.108 381.33 191.229 381.134 191.229 380.905C191.229 380.671 191.149 380.478 190.991 380.325C190.839 380.167 190.505 379.941 189.989 379.648C188.958 379.074 188.281 378.585 187.959 378.181C187.643 377.771 187.484 377.325 187.484 376.845C187.484 376.224 187.725 375.717 188.205 375.324C188.691 374.932 189.315 374.735 190.077 374.735C190.868 374.735 191.68 374.958 192.512 375.403V376.985C191.562 376.411 190.786 376.124 190.183 376.124C189.872 376.124 189.62 376.191 189.427 376.326C189.239 376.455 189.146 376.628 189.146 376.845C189.146 377.032 189.23 377.211 189.4 377.381C189.576 377.551 189.881 377.756 190.314 377.996L190.886 378.321C192.233 379.083 192.907 379.927 192.907 380.853C192.907 381.515 192.646 382.06 192.125 382.487C191.609 382.909 190.944 383.12 190.13 383.12C189.649 383.12 189.222 383.07 188.847 382.971C188.472 382.865 188 382.675 187.432 382.399ZM200.009 374.894H201.916L198.462 378.857L202.619 382.979H200.475L196.423 378.857L200.009 374.894ZM194.753 370.701H196.353V382.979H194.753V370.701ZM207.251 374.876C208.481 374.876 209.504 375.274 210.318 376.071C211.133 376.862 211.54 377.858 211.54 379.06C211.54 380.226 211.127 381.195 210.301 381.969C209.475 382.736 208.435 383.12 207.181 383.12C205.968 383.12 204.954 382.73 204.14 381.951C203.325 381.166 202.918 380.188 202.918 379.016C202.918 377.832 203.328 376.848 204.148 376.062C204.975 375.271 206.009 374.876 207.251 374.876ZM207.163 376.317C206.396 376.317 205.766 376.569 205.273 377.073C204.781 377.577 204.535 378.219 204.535 378.998C204.535 379.771 204.787 380.404 205.291 380.896C205.795 381.383 206.442 381.626 207.233 381.626C208.019 381.626 208.66 381.38 209.158 380.888C209.662 380.39 209.914 379.754 209.914 378.98C209.914 378.213 209.653 377.577 209.132 377.073C208.61 376.569 207.954 376.317 207.163 376.317ZM205.273 370.974C205.502 370.974 205.698 371.056 205.862 371.22C206.032 371.384 206.117 371.583 206.117 371.817C206.117 372.052 206.038 372.251 205.88 372.415C205.722 372.573 205.528 372.652 205.3 372.652C205.065 372.652 204.866 372.57 204.702 372.406C204.538 372.236 204.456 372.037 204.456 371.809C204.456 371.574 204.535 371.378 204.693 371.22C204.857 371.056 205.051 370.974 205.273 370.974ZM208.657 370.974C208.886 370.974 209.082 371.056 209.246 371.22C209.416 371.384 209.501 371.583 209.501 371.817C209.501 372.052 209.422 372.251 209.264 372.415C209.105 372.573 208.912 372.652 208.684 372.652C208.449 372.652 208.25 372.57 208.086 372.406C207.922 372.236 207.84 372.037 207.84 371.809C207.84 371.574 207.919 371.378 208.077 371.22C208.241 371.056 208.435 370.974 208.657 370.974ZM212.182 376.177L215.188 373.224V374.894H217.745V376.335H215.188V380.299C215.188 381.225 215.571 381.688 216.339 381.688C216.913 381.688 217.52 381.494 218.158 381.107V382.602C217.543 382.947 216.872 383.12 216.146 383.12C215.413 383.12 214.804 382.906 214.317 382.479C214.165 382.35 214.039 382.206 213.939 382.048C213.84 381.884 213.755 381.673 213.685 381.415C213.62 381.151 213.588 380.653 213.588 379.921V376.335H212.182V376.177ZM226.2 379.077H220.514C220.555 379.851 220.812 380.466 221.287 380.923C221.768 381.38 222.386 381.608 223.142 381.608C224.196 381.608 225.169 381.28 226.06 380.624V382.188C225.567 382.517 225.078 382.751 224.592 382.892C224.111 383.032 223.546 383.103 222.896 383.103C222.005 383.103 221.284 382.918 220.733 382.549C220.183 382.18 219.74 381.685 219.406 381.063C219.078 380.437 218.914 379.713 218.914 378.893C218.914 377.662 219.263 376.663 219.96 375.896C220.657 375.122 221.562 374.735 222.676 374.735C223.748 374.735 224.604 375.11 225.242 375.86C225.881 376.61 226.2 377.615 226.2 378.875V379.077ZM220.549 378.119H224.618C224.577 377.48 224.387 376.988 224.047 376.643C223.707 376.297 223.25 376.124 222.676 376.124C222.102 376.124 221.63 376.297 221.261 376.643C220.897 376.988 220.66 377.48 220.549 378.119ZM229.654 374.894V376.748L229.742 376.607C230.516 375.359 231.289 374.735 232.062 374.735C232.666 374.735 233.296 375.04 233.952 375.649L233.108 377.056C232.552 376.528 232.036 376.265 231.562 376.265C231.046 376.265 230.598 376.511 230.217 377.003C229.842 377.495 229.654 378.078 229.654 378.752V382.979H228.046V374.894H229.654ZM245.483 370.701H247.092V382.979H243.673C242.478 382.979 241.522 382.602 240.808 381.846C240.099 381.09 239.744 380.076 239.744 378.805C239.744 377.615 240.116 376.637 240.86 375.869C241.61 375.102 242.565 374.718 243.726 374.718C244.265 374.718 244.851 374.832 245.483 375.061V370.701ZM245.483 381.608V376.484C244.985 376.232 244.481 376.106 243.972 376.106C243.175 376.106 242.539 376.367 242.064 376.889C241.596 377.41 241.361 378.113 241.361 378.998C241.361 379.83 241.566 380.472 241.977 380.923C242.223 381.192 242.483 381.374 242.759 381.468C243.034 381.562 243.529 381.608 244.244 381.608H245.483ZM256.153 379.077H250.467C250.508 379.851 250.766 380.466 251.24 380.923C251.721 381.38 252.339 381.608 253.095 381.608C254.149 381.608 255.122 381.28 256.013 380.624V382.188C255.521 382.517 255.031 382.751 254.545 382.892C254.064 383.032 253.499 383.103 252.849 383.103C251.958 383.103 251.237 382.918 250.687 382.549C250.136 382.18 249.693 381.685 249.359 381.063C249.031 380.437 248.867 379.713 248.867 378.893C248.867 377.662 249.216 376.663 249.913 375.896C250.61 375.122 251.516 374.735 252.629 374.735C253.701 374.735 254.557 375.11 255.195 375.86C255.834 376.61 256.153 377.615 256.153 378.875V379.077ZM250.502 378.119H254.571C254.53 377.48 254.34 376.988 254 376.643C253.66 376.297 253.203 376.124 252.629 376.124C252.055 376.124 251.583 376.297 251.214 376.643C250.851 376.988 250.613 377.48 250.502 378.119ZM256.76 376.177L259.766 373.224V374.894H262.323V376.335H259.766V380.299C259.766 381.225 260.149 381.688 260.917 381.688C261.491 381.688 262.098 381.494 262.736 381.107V382.602C262.121 382.947 261.45 383.12 260.724 383.12C259.991 383.12 259.382 382.906 258.896 382.479C258.743 382.35 258.617 382.206 258.518 382.048C258.418 381.884 258.333 381.673 258.263 381.415C258.198 381.151 258.166 380.653 258.166 379.921V376.335H256.76V376.177ZM273.978 378.119V381.556C273.978 381.831 274.071 381.969 274.259 381.969C274.452 381.969 274.754 381.825 275.164 381.538V382.514C274.801 382.748 274.508 382.906 274.285 382.988C274.068 383.076 273.84 383.12 273.6 383.12C272.914 383.12 272.51 382.851 272.387 382.312C271.707 382.839 270.983 383.103 270.216 383.103C269.653 383.103 269.185 382.918 268.81 382.549C268.435 382.174 268.247 381.705 268.247 381.143C268.247 380.633 268.429 380.179 268.792 379.78C269.161 379.376 269.683 379.057 270.356 378.822L272.404 378.119V377.688C272.404 376.716 271.918 376.229 270.945 376.229C270.072 376.229 269.223 376.681 268.396 377.583V375.834C269.018 375.102 269.911 374.735 271.077 374.735C271.95 374.735 272.65 374.964 273.178 375.421C273.354 375.567 273.512 375.764 273.652 376.01C273.793 376.25 273.881 376.493 273.916 376.739C273.957 376.979 273.978 377.439 273.978 378.119ZM272.404 381.38V378.98L271.332 379.394C270.787 379.61 270.4 379.83 270.172 380.053C269.949 380.27 269.838 380.542 269.838 380.87C269.838 381.204 269.943 381.477 270.154 381.688C270.371 381.898 270.649 382.004 270.989 382.004C271.499 382.004 271.971 381.796 272.404 381.38ZM271.622 369.822C272.073 369.822 272.46 369.983 272.782 370.306C273.11 370.628 273.274 371.021 273.274 371.483C273.274 371.946 273.11 372.342 272.782 372.67C272.46 372.998 272.067 373.162 271.604 373.162C271.147 373.162 270.755 373.001 270.427 372.679C270.104 372.351 269.943 371.958 269.943 371.501C269.943 371.032 270.107 370.637 270.436 370.314C270.77 369.986 271.165 369.822 271.622 369.822ZM271.578 370.534C271.279 370.534 271.039 370.625 270.857 370.807C270.682 370.982 270.594 371.214 270.594 371.501C270.594 371.782 270.69 372.022 270.884 372.222C271.083 372.415 271.323 372.512 271.604 372.512C271.886 372.512 272.126 372.415 272.325 372.222C272.524 372.028 272.624 371.794 272.624 371.519C272.624 371.243 272.524 371.012 272.325 370.824C272.126 370.631 271.877 370.534 271.578 370.534ZM275.445 376.177L278.451 373.224V374.894H281.009V376.335H278.451V380.299C278.451 381.225 278.835 381.688 279.603 381.688C280.177 381.688 280.783 381.494 281.422 381.107V382.602C280.807 382.947 280.136 383.12 279.409 383.12C278.677 383.12 278.067 382.906 277.581 382.479C277.429 382.35 277.303 382.206 277.203 382.048C277.104 381.884 277.019 381.673 276.948 381.415C276.884 381.151 276.852 380.653 276.852 379.921V376.335H275.445V376.177ZM292.979 370.701H294.588V382.979H291.169C289.974 382.979 289.019 382.602 288.304 381.846C287.595 381.09 287.24 380.076 287.24 378.805C287.24 377.615 287.612 376.637 288.356 375.869C289.106 375.102 290.062 374.718 291.222 374.718C291.761 374.718 292.347 374.832 292.979 375.061V370.701ZM292.979 381.608V376.484C292.481 376.232 291.978 376.106 291.468 376.106C290.671 376.106 290.035 376.367 289.561 376.889C289.092 377.41 288.857 378.113 288.857 378.998C288.857 379.83 289.062 380.472 289.473 380.923C289.719 381.192 289.979 381.374 290.255 381.468C290.53 381.562 291.025 381.608 291.74 381.608H292.979ZM297.585 371.492C297.849 371.492 298.074 371.583 298.262 371.765C298.449 371.946 298.543 372.169 298.543 372.433C298.543 372.69 298.449 372.913 298.262 373.101C298.074 373.288 297.849 373.382 297.585 373.382C297.339 373.382 297.122 373.288 296.935 373.101C296.747 372.907 296.653 372.685 296.653 372.433C296.653 372.187 296.747 371.97 296.935 371.782C297.122 371.589 297.339 371.492 297.585 371.492ZM296.794 374.894H298.394V382.979H296.794V374.894ZM300.301 377.688C300.301 376.827 300.614 376.147 301.241 375.649C301.874 375.146 302.735 374.894 303.825 374.894H307.156V376.142H305.521C305.838 376.464 306.058 376.757 306.181 377.021C306.304 377.284 306.365 377.586 306.365 377.926C306.365 378.348 306.245 378.764 306.005 379.174C305.765 379.578 305.454 379.889 305.073 380.105C304.698 380.322 304.08 380.495 303.219 380.624C302.615 380.712 302.313 380.92 302.313 381.248C302.313 381.436 302.425 381.591 302.647 381.714C302.876 381.831 303.286 381.954 303.878 382.083C304.868 382.3 305.504 382.47 305.785 382.593C306.072 382.716 306.33 382.892 306.559 383.12C306.945 383.507 307.139 383.993 307.139 384.579C307.139 385.347 306.796 385.959 306.11 386.416C305.431 386.873 304.52 387.102 303.377 387.102C302.223 387.102 301.3 386.87 300.608 386.407C299.923 385.95 299.58 385.335 299.58 384.562C299.58 383.466 300.257 382.76 301.61 382.443C301.071 382.098 300.802 381.755 300.802 381.415C300.802 381.157 300.916 380.923 301.145 380.712C301.379 380.501 301.692 380.346 302.085 380.246C300.896 379.719 300.301 378.866 300.301 377.688ZM303.307 376.282C302.873 376.282 302.504 376.429 302.199 376.722C301.895 377.015 301.742 377.366 301.742 377.776C301.742 378.192 301.892 378.538 302.19 378.813C302.489 379.083 302.867 379.218 303.324 379.218C303.775 379.218 304.15 379.08 304.449 378.805C304.754 378.523 304.906 378.175 304.906 377.759C304.906 377.337 304.754 376.985 304.449 376.704C304.145 376.423 303.764 376.282 303.307 376.282ZM302.929 383.357C302.39 383.357 301.947 383.472 301.602 383.7C301.262 383.929 301.092 384.222 301.092 384.579C301.092 385.411 301.842 385.827 303.342 385.827C304.051 385.827 304.599 385.722 304.985 385.511C305.378 385.306 305.574 385.013 305.574 384.632C305.574 384.257 305.328 383.949 304.836 383.709C304.344 383.475 303.708 383.357 302.929 383.357ZM309.222 381.02C309.521 381.02 309.775 381.122 309.986 381.327C310.197 381.532 310.303 381.784 310.303 382.083C310.303 382.376 310.197 382.622 309.986 382.821C309.781 383.021 309.526 383.12 309.222 383.12C308.923 383.12 308.671 383.021 308.466 382.821C308.261 382.622 308.158 382.376 308.158 382.083C308.158 381.784 308.261 381.532 308.466 381.327C308.671 381.122 308.923 381.02 309.222 381.02Z" fill="#171211"/>
<path fill-rule="evenodd" clip-rule="evenodd" d="M18.4524 110.165C48.0486 111.146 88.1911 112.477 150.332 123.645C186.861 130.209 211.498 136.436 232.388 141.715C269.479 151.089 294.762 157.48 353.838 157.48L353.837 109.498L353.91 109.498L353.91 13.0232C353.91 6.09555 348.294 0.479553 341.367 0.479552L13.4621 0.479494C6.53445 0.479493 0.918473 6.09549 0.918472 13.0232L0.918455 109.496L0.910165 109.496C0.912928 109.496 0.915691 109.496 0.918455 109.496L0.918455 109.498L0.948896 109.498C6.38247 109.765 12.1807 109.957 18.4524 110.165Z" fill="#0E5657"/>
<rect x="73.625" y="109.831" width="148.415" height="96.4536" rx="6" transform="rotate(-19.4123 73.625 109.831)" fill="#E3C7AA"/>
<rect x="89.7383" y="117.227" width="28.2882" height="23.2702" rx="3" transform="rotate(-19.4123 89.7383 117.227)" fill="#6A5752"/>
<rect x="101.09" y="149.053" width="68.5534" height="7.06092" rx="3.53046" transform="rotate(-19.4123 101.09 149.053)" fill="#6A5752"/>
<rect x="124.66" y="107.679" width="156.536" height="96.4949" rx="5" fill="#FDFAF8"/>
<rect x="124.66" y="122.689" width="156.536" height="27.8763" fill="#5C4742"/>
<rect x="139.672" y="167.72" width="60.0413" height="10.7217" rx="5.36083" fill="#E3C7AA"/>
</svg>
