<svg width="354" height="488" viewBox="0 0 354 488" fill="none" xmlns="http://www.w3.org/2000/svg">
<path d="M0.910156 17.6943C0.910156 8.30549 8.52132 0.694336 17.9102 0.694336H336.91C346.299 0.694336 353.91 8.3055 353.91 17.6943V470.694C353.91 480.083 346.299 487.694 336.91 487.694H17.9102C8.52132 487.694 0.910156 480.083 0.910156 470.694V17.6943Z" fill="#F6ECE3"/>
<path d="M34.5942 260.694H37.5322C37.7662 260.694 37.9222 260.538 37.9222 260.304V255.988L39.8982 253.518L44.8122 260.46C44.9422 260.642 45.0722 260.694 45.2802 260.694H48.6862C48.9982 260.694 49.1022 260.486 48.9202 260.226L42.1602 250.606L48.1922 242.962C48.3742 242.728 48.3222 242.494 47.9842 242.494H44.4222C44.2402 242.494 44.0842 242.546 43.9542 242.702L37.9222 250.918V242.884C37.9222 242.65 37.7662 242.494 37.5322 242.494H34.5942C34.3602 242.494 34.2042 242.65 34.2042 242.884V260.304C34.2042 260.538 34.3602 260.694 34.5942 260.694ZM55.7945 261.006C59.6165 261.006 62.4505 258.094 62.4505 254.324C62.4505 250.554 59.6165 247.642 55.7945 247.642C51.9465 247.642 49.1125 250.554 49.1125 254.324C49.1125 258.094 51.9465 261.006 55.7945 261.006ZM52.5705 254.324C52.5705 252.244 53.9745 250.944 55.7945 250.944C57.5885 250.944 58.9925 252.244 58.9925 254.324C58.9925 256.404 57.5885 257.704 55.7945 257.704C53.9745 257.704 52.5705 256.404 52.5705 254.324ZM65.2599 260.694H68.0939C68.3279 260.694 68.4839 260.538 68.4839 260.304V242.494C68.4839 242.26 68.3279 242.104 68.0939 242.104H65.2599C65.0259 242.104 64.8699 242.26 64.8699 242.494V260.304C64.8699 260.538 65.0259 260.694 65.2599 260.694ZM71.9631 260.694H74.7971C75.0311 260.694 75.1871 260.538 75.1871 260.304V242.494C75.1871 242.26 75.0311 242.104 74.7971 242.104H71.9631C71.7291 242.104 71.5731 242.26 71.5731 242.494V260.304C71.5731 260.538 71.7291 260.694 71.9631 260.694ZM84.6202 261.006C86.4142 261.006 88.0522 260.486 89.1442 259.394C89.3782 259.186 89.4042 259.004 89.2742 258.822L88.3122 257.496C88.1822 257.314 88.0522 257.288 87.8702 257.392C86.8302 257.99 85.8942 258.172 84.9062 258.172C82.8522 258.172 81.5262 257.288 81.1362 255.676H88.8842C90.0022 255.676 90.2882 254.974 90.2882 253.726C90.2882 250.502 88.0522 247.642 84.1782 247.642C80.2522 247.642 77.6262 250.528 77.6262 254.272C77.6262 258.12 80.4342 261.006 84.6202 261.006ZM81.0842 253.154C81.3962 251.464 82.6182 250.606 84.2042 250.606C85.7382 250.606 86.8822 251.464 87.0902 253.154H81.0842ZM93.0881 260.694H95.9221C96.1561 260.694 96.3121 260.538 96.3121 260.304V257.6L97.8981 255.806L101.33 260.46C101.46 260.642 101.59 260.694 101.798 260.694H104.814C105.126 260.694 105.23 260.486 105.048 260.226L100.056 253.336L104.372 248.422C104.58 248.162 104.502 247.954 104.164 247.954H100.966C100.784 247.954 100.628 248.006 100.498 248.162L96.3121 253.102V242.494C96.3121 242.26 96.1561 242.104 95.9221 242.104H93.0881C92.8541 242.104 92.6981 242.26 92.6981 242.494V260.304C92.6981 260.538 92.8541 260.694 93.0881 260.694ZM112.368 260.85C113.226 260.85 114.526 260.694 114.526 260.096V258.198C114.526 257.938 114.344 257.808 114.058 257.834C113.746 257.86 113.486 257.86 113.252 257.86C112.576 257.86 112.134 257.496 112.134 256.742V250.736H114.136C114.37 250.736 114.526 250.58 114.526 250.346V248.344C114.526 248.11 114.37 247.954 114.136 247.954H112.134V244.964C112.134 244.73 111.978 244.574 111.744 244.574H108.91C108.676 244.574 108.52 244.73 108.52 244.964V247.954H106.908C106.674 247.954 106.518 248.11 106.518 248.344V250.346C106.518 250.58 106.674 250.736 106.908 250.736H108.52V257.132C108.52 259.914 110.34 260.85 112.368 260.85ZM118.665 245.692C119.809 245.692 120.641 244.808 120.641 243.69C120.641 242.598 119.809 241.714 118.665 241.714C117.521 241.714 116.663 242.598 116.663 243.69C116.663 244.808 117.521 245.692 118.665 245.692ZM116.845 260.304C116.845 260.538 117.001 260.694 117.235 260.694H120.069C120.303 260.694 120.459 260.538 120.459 260.304V248.344C120.459 248.11 120.303 247.954 120.069 247.954H117.235C117.001 247.954 116.845 248.11 116.845 248.344V260.304ZM128.045 260.694H130.879C131.087 260.694 131.269 260.59 131.347 260.382L136.105 248.396C136.209 248.11 136.079 247.954 135.793 247.954H132.933C132.725 247.954 132.543 248.058 132.465 248.266L129.475 256.56L126.459 248.266C126.381 248.058 126.199 247.954 125.991 247.954H123.131C122.845 247.954 122.715 248.11 122.819 248.396L127.577 260.382C127.655 260.59 127.837 260.694 128.045 260.694ZM142.921 261.006C144.819 261.006 146.197 260.2 147.081 258.9L147.133 260.304C147.133 260.538 147.289 260.694 147.523 260.694H150.045C150.279 260.694 150.461 260.538 150.461 260.304V248.344C150.461 248.11 150.305 247.954 150.071 247.954H147.523C147.289 247.954 147.133 248.11 147.133 248.344L147.081 249.748C146.223 248.422 144.845 247.642 142.921 247.642C139.333 247.642 136.863 250.554 136.863 254.324C136.863 258.12 139.333 261.006 142.921 261.006ZM140.373 254.324C140.373 252.296 141.777 250.918 143.675 250.918C145.573 250.918 146.899 252.27 146.899 254.324C146.899 256.378 145.573 257.73 143.675 257.73C141.777 257.73 140.373 256.378 140.373 254.324ZM159.028 260.694H161.836C162.07 260.694 162.226 260.538 162.226 260.304V253.622C162.226 251.88 163.006 250.944 164.358 250.944C165.736 250.944 166.386 251.88 166.386 253.622V260.304C166.386 260.538 166.542 260.694 166.802 260.694H169.584C169.818 260.694 169.974 260.538 169.974 260.304V253.622C169.974 251.88 170.754 250.944 172.106 250.944C173.51 250.944 174.134 251.88 174.134 253.622V260.304C174.134 260.538 174.29 260.694 174.524 260.694H177.332C177.566 260.694 177.722 260.538 177.722 260.304V252.842C177.722 249.514 176.058 247.642 173.328 247.642C171.352 247.642 170.104 248.604 169.402 249.904C168.7 248.422 167.426 247.642 165.788 247.642C164.046 247.642 162.902 248.526 162.2 249.722L162.122 248.37C162.122 248.058 161.966 247.954 161.732 247.954H159.028C158.794 247.954 158.638 248.11 158.638 248.344V260.304C158.638 260.538 158.794 260.694 159.028 260.694ZM186.186 261.006C188.084 261.006 189.462 260.2 190.346 258.9L190.398 260.304C190.398 260.538 190.554 260.694 190.788 260.694H193.31C193.544 260.694 193.726 260.538 193.726 260.304V248.344C193.726 248.11 193.57 247.954 193.336 247.954H190.788C190.554 247.954 190.398 248.11 190.398 248.344L190.346 249.748C189.488 248.422 188.11 247.642 186.186 247.642C182.598 247.642 180.128 250.554 180.128 254.324C180.128 258.12 182.598 261.006 186.186 261.006ZM183.638 254.324C183.638 252.296 185.042 250.918 186.94 250.918C188.838 250.918 190.164 252.27 190.164 254.324C190.164 256.378 188.838 257.73 186.94 257.73C185.042 257.73 183.638 256.378 183.638 254.324ZM201.895 260.85C202.753 260.85 204.053 260.694 204.053 260.096V258.198C204.053 257.938 203.871 257.808 203.585 257.834C203.273 257.86 203.013 257.86 202.779 257.86C202.103 257.86 201.661 257.496 201.661 256.742V250.736H203.663C203.897 250.736 204.053 250.58 204.053 250.346V248.344C204.053 248.11 203.897 247.954 203.663 247.954H201.661V244.964C201.661 244.73 201.505 244.574 201.271 244.574H198.437C198.203 244.574 198.047 244.73 198.047 244.964V247.954H196.435C196.201 247.954 196.045 248.11 196.045 248.344V250.346C196.045 250.58 196.201 250.736 196.435 250.736H198.047V257.132C198.047 259.914 199.867 260.85 201.895 260.85ZM212.304 261.006C214.358 261.006 216.1 260.122 217.192 258.718C217.348 258.536 217.296 258.328 217.14 258.172L215.58 256.638C215.372 256.43 215.086 256.456 214.904 256.638C214.202 257.34 213.448 257.704 212.46 257.704C210.354 257.704 209.028 256.144 209.028 254.272C209.028 252.4 210.354 250.944 212.382 250.944C213.422 250.944 214.176 251.308 214.878 252.01C215.06 252.192 215.346 252.218 215.554 252.01L217.114 250.476C217.27 250.32 217.322 250.112 217.166 249.93C216.074 248.526 214.332 247.642 212.226 247.642C208.404 247.642 205.57 250.502 205.57 254.272C205.57 258.094 208.43 261.006 212.304 261.006ZM220.092 260.694H222.9C223.134 260.694 223.29 260.538 223.29 260.304V253.7C223.29 251.906 224.278 250.944 225.786 250.944C227.32 250.944 228.152 251.906 228.152 253.7V260.304C228.152 260.538 228.308 260.694 228.542 260.694H231.324C231.558 260.694 231.74 260.538 231.74 260.304V252.894C231.74 249.566 229.79 247.642 227.138 247.642C225.24 247.642 224.018 248.578 223.29 249.878V242.494C223.29 242.26 223.134 242.104 222.9 242.104H220.092C219.858 242.104 219.702 242.26 219.702 242.494V260.304C219.702 260.538 219.858 260.694 220.092 260.694ZM240.217 261.006C242.115 261.006 243.493 260.2 244.377 258.9L244.429 260.304C244.429 260.538 244.585 260.694 244.819 260.694H247.341C247.575 260.694 247.757 260.538 247.757 260.304V248.344C247.757 248.11 247.601 247.954 247.367 247.954H244.819C244.585 247.954 244.429 248.11 244.429 248.344L244.377 249.748C243.519 248.422 242.141 247.642 240.217 247.642C236.629 247.642 234.159 250.554 234.159 254.324C234.159 258.12 236.629 261.006 240.217 261.006ZM237.669 254.324C237.669 252.296 239.073 250.918 240.971 250.918C242.869 250.918 244.195 252.27 244.195 254.324C244.195 256.378 242.869 257.73 240.971 257.73C239.073 257.73 237.669 256.378 237.669 254.324ZM251.246 260.694H254.054C254.288 260.694 254.444 260.538 254.444 260.304V253.934C254.444 252.114 255.38 250.944 257.148 250.944C257.512 250.944 257.798 250.996 258.084 251.074C258.422 251.152 258.604 251.074 258.604 250.762V248.474C258.604 248.24 258.552 248.084 258.37 247.954C258.162 247.798 257.798 247.642 257.2 247.642C255.692 247.642 254.886 248.656 254.444 250.008L254.34 248.37C254.314 248.058 254.184 247.954 253.95 247.954H251.246C251.012 247.954 250.856 248.11 250.856 248.344V260.304C250.856 260.538 251.012 260.694 251.246 260.694ZM271.143 261.006C273.041 261.006 274.419 260.2 275.303 258.9L275.355 260.304C275.355 260.538 275.511 260.694 275.745 260.694H278.267C278.501 260.694 278.683 260.538 278.683 260.304V242.494C278.683 242.26 278.527 242.104 278.293 242.104H275.459C275.225 242.104 275.069 242.26 275.069 242.494V249.436C274.211 248.292 272.911 247.642 271.143 247.642C267.555 247.642 265.085 250.554 265.085 254.324C265.085 258.12 267.555 261.006 271.143 261.006ZM268.595 254.324C268.595 252.296 269.999 250.918 271.897 250.918C273.795 250.918 275.121 252.27 275.121 254.324C275.121 256.378 273.795 257.73 271.897 257.73C269.999 257.73 268.595 256.378 268.595 254.324ZM283.628 245.692C284.772 245.692 285.604 244.808 285.604 243.69C285.604 242.598 284.772 241.714 283.628 241.714C282.484 241.714 281.626 242.598 281.626 243.69C281.626 244.808 282.484 245.692 283.628 245.692ZM281.808 260.304C281.808 260.538 281.964 260.694 282.198 260.694H285.032C285.266 260.694 285.422 260.538 285.422 260.304V248.344C285.422 248.11 285.266 247.954 285.032 247.954H282.198C281.964 247.954 281.808 248.11 281.808 248.344V260.304ZM294.542 266.024C297.688 266.024 301.276 264.568 301.276 259.992V248.344C301.276 248.11 301.12 247.954 300.886 247.954H298.338C298.104 247.954 297.922 248.11 297.922 248.344L297.87 249.514C297.064 248.318 295.764 247.642 293.892 247.642C290.304 247.642 287.886 250.294 287.886 254.038C287.886 257.808 290.304 260.434 293.892 260.434C295.712 260.434 297.038 259.732 297.844 258.588V259.966C297.844 262.332 295.998 263.112 294.204 263.112C293.086 263.112 291.942 262.8 290.824 262.176C290.538 262.02 290.304 262.124 290.174 262.384L289.42 263.814C289.29 264.048 289.316 264.386 289.576 264.568C290.824 265.504 292.644 266.024 294.542 266.024ZM291.396 254.038C291.396 252.114 292.748 250.866 294.594 250.866C296.414 250.866 297.714 252.088 297.714 254.038C297.714 255.988 296.414 257.21 294.594 257.21C292.748 257.21 291.396 255.988 291.396 254.038ZM34.3342 290.694H37.1422C37.3762 290.694 37.5322 290.538 37.5322 290.304V283.622C37.5322 281.88 38.3122 280.944 39.6642 280.944C41.0422 280.944 41.6922 281.88 41.6922 283.622V290.304C41.6922 290.538 41.8482 290.694 42.1082 290.694H44.8902C45.1242 290.694 45.2802 290.538 45.2802 290.304V283.622C45.2802 281.88 46.0602 280.944 47.4122 280.944C48.8162 280.944 49.4402 281.88 49.4402 283.622V290.304C49.4402 290.538 49.5962 290.694 49.8302 290.694H52.6382C52.8722 290.694 53.0282 290.538 53.0282 290.304V282.842C53.0282 279.514 51.3642 277.642 48.6342 277.642C46.6582 277.642 45.4102 278.604 44.7082 279.904C44.0062 278.422 42.7322 277.642 41.0942 277.642C39.3522 277.642 38.2082 278.526 37.5062 279.722L37.4282 278.37C37.4282 278.058 37.2722 277.954 37.0382 277.954H34.3342C34.1002 277.954 33.9442 278.11 33.9442 278.344V290.304C33.9442 290.538 34.1002 290.694 34.3342 290.694ZM62.4288 291.006C64.2228 291.006 65.8608 290.486 66.9528 289.394C67.1868 289.186 67.2128 289.004 67.0828 288.822L66.1208 287.496C65.9908 287.314 65.8608 287.288 65.6788 287.392C64.6388 287.99 63.7028 288.172 62.7148 288.172C60.6608 288.172 59.3348 287.288 58.9448 285.676H66.6928C67.8108 285.676 68.0968 284.974 68.0968 283.726C68.0968 280.502 65.8608 277.642 61.9868 277.642C58.0608 277.642 55.4348 280.528 55.4348 284.272C55.4348 288.12 58.2428 291.006 62.4288 291.006ZM58.8928 283.154C59.2048 281.464 60.4268 280.606 62.0128 280.606C63.5468 280.606 64.6908 281.464 64.8988 283.154H58.8928ZM75.9147 291.006C77.8127 291.006 79.1907 290.2 80.0747 288.9L80.1267 290.304C80.1267 290.538 80.2827 290.694 80.5167 290.694H83.0387C83.2727 290.694 83.4547 290.538 83.4547 290.304V272.494C83.4547 272.26 83.2987 272.104 83.0647 272.104H80.2307C79.9967 272.104 79.8407 272.26 79.8407 272.494V279.436C78.9827 278.292 77.6827 277.642 75.9147 277.642C72.3267 277.642 69.8567 280.554 69.8567 284.324C69.8567 288.12 72.3267 291.006 75.9147 291.006ZM73.3667 284.324C73.3667 282.296 74.7707 280.918 76.6687 280.918C78.5667 280.918 79.8927 282.27 79.8927 284.324C79.8927 286.378 78.5667 287.73 76.6687 287.73C74.7707 287.73 73.3667 286.378 73.3667 284.324ZM92.0217 290.694H94.8297C95.0637 290.694 95.2197 290.538 95.2197 290.304V283.934C95.2197 282.114 96.1557 280.944 97.9237 280.944C98.2877 280.944 98.5737 280.996 98.8597 281.074C99.1977 281.152 99.3797 281.074 99.3797 280.762V278.474C99.3797 278.24 99.3277 278.084 99.1457 277.954C98.9377 277.798 98.5737 277.642 97.9757 277.642C96.4677 277.642 95.6617 278.656 95.2197 280.008L95.1157 278.37C95.0897 278.058 94.9597 277.954 94.7257 277.954H92.0217C91.7877 277.954 91.6317 278.11 91.6317 278.344V290.304C91.6317 290.538 91.7877 290.694 92.0217 290.694ZM106.739 291.006C108.637 291.006 110.015 290.2 110.899 288.9L110.951 290.304C110.951 290.538 111.107 290.694 111.341 290.694H113.863C114.097 290.694 114.279 290.538 114.279 290.304V278.344C114.279 278.11 114.123 277.954 113.889 277.954H111.341C111.107 277.954 110.951 278.11 110.951 278.344L110.899 279.748C110.041 278.422 108.663 277.642 106.739 277.642C103.151 277.642 100.681 280.554 100.681 284.324C100.681 288.12 103.151 291.006 106.739 291.006ZM103.073 274.158C103.073 275.198 103.905 275.978 104.867 275.978C105.855 275.978 106.661 275.198 106.661 274.158C106.661 273.144 105.855 272.364 104.867 272.364C103.905 272.364 103.073 273.144 103.073 274.158ZM104.191 284.324C104.191 282.296 105.595 280.918 107.493 280.918C109.391 280.918 110.717 282.27 110.717 284.324C110.717 286.378 109.391 287.73 107.493 287.73C105.595 287.73 104.191 286.378 104.191 284.324ZM108.793 274.158C108.793 275.198 109.599 275.978 110.587 275.978C111.575 275.978 112.381 275.198 112.381 274.158C112.381 273.144 111.575 272.364 110.587 272.364C109.599 272.364 108.793 273.144 108.793 274.158ZM122.448 290.85C123.306 290.85 124.606 290.694 124.606 290.096V288.198C124.606 287.938 124.424 287.808 124.138 287.834C123.826 287.86 123.566 287.86 123.332 287.86C122.656 287.86 122.214 287.496 122.214 286.742V280.736H124.216C124.45 280.736 124.606 280.58 124.606 280.346V278.344C124.606 278.11 124.45 277.954 124.216 277.954H122.214V274.964C122.214 274.73 122.058 274.574 121.824 274.574H118.99C118.756 274.574 118.6 274.73 118.6 274.964V277.954H116.988C116.754 277.954 116.598 278.11 116.598 278.344V280.346C116.598 280.58 116.754 280.736 116.988 280.736H118.6V287.132C118.6 289.914 120.42 290.85 122.448 290.85ZM131.969 290.85C132.827 290.85 134.127 290.694 134.127 290.096V288.198C134.127 287.938 133.945 287.808 133.659 287.834C133.347 287.86 133.087 287.86 132.853 287.86C132.177 287.86 131.735 287.496 131.735 286.742V280.736H133.737C133.971 280.736 134.127 280.58 134.127 280.346V278.344C134.127 278.11 133.971 277.954 133.737 277.954H131.735V274.964C131.735 274.73 131.579 274.574 131.345 274.574H128.511C128.277 274.574 128.121 274.73 128.121 274.964V277.954H126.509C126.275 277.954 126.119 278.11 126.119 278.344V280.346C126.119 280.58 126.275 280.736 126.509 280.736H128.121V287.132C128.121 289.914 129.941 290.85 131.969 290.85ZM141.889 290.694H144.697C144.931 290.694 145.087 290.538 145.087 290.304V283.7C145.087 281.906 146.075 280.944 147.583 280.944C149.117 280.944 149.949 281.906 149.949 283.7V290.304C149.949 290.538 150.105 290.694 150.339 290.694H153.121C153.355 290.694 153.537 290.538 153.537 290.304V282.894C153.537 279.566 151.587 277.642 148.935 277.642C147.037 277.642 145.815 278.578 145.087 279.878V272.494C145.087 272.26 144.931 272.104 144.697 272.104H141.889C141.655 272.104 141.499 272.26 141.499 272.494V290.304C141.499 290.538 141.655 290.694 141.889 290.694ZM158.191 295.634H160.947C161.155 295.634 161.337 295.53 161.415 295.322L168.149 278.396C168.253 278.11 168.123 277.954 167.837 277.954H164.977C164.769 277.954 164.587 278.058 164.509 278.266L161.493 286.534L158.451 278.266C158.373 278.058 158.191 277.954 157.983 277.954H155.123C154.837 277.954 154.707 278.11 154.811 278.396L159.725 290.72L157.879 295.192C157.749 295.478 157.905 295.634 158.191 295.634ZM170.86 290.694H173.668C173.902 290.694 174.058 290.538 174.058 290.304V283.934C174.058 282.114 174.994 280.944 176.762 280.944C177.126 280.944 177.412 280.996 177.698 281.074C178.036 281.152 178.218 281.074 178.218 280.762V278.474C178.218 278.24 178.166 278.084 177.984 277.954C177.776 277.798 177.412 277.642 176.814 277.642C175.306 277.642 174.5 278.656 174.058 280.008L173.954 278.37C173.928 278.058 173.798 277.954 173.564 277.954H170.86C170.626 277.954 170.47 278.11 170.47 278.344V290.304C170.47 290.538 170.626 290.694 170.86 290.694ZM186.513 291.006C188.307 291.006 189.945 290.486 191.037 289.394C191.271 289.186 191.297 289.004 191.167 288.822L190.205 287.496C190.075 287.314 189.945 287.288 189.763 287.392C188.723 287.99 187.787 288.172 186.799 288.172C184.745 288.172 183.419 287.288 183.029 285.676H190.777C191.895 285.676 192.181 284.974 192.181 283.726C192.181 280.502 189.945 277.642 186.071 277.642C182.145 277.642 179.519 280.528 179.519 284.272C179.519 288.12 182.327 291.006 186.513 291.006ZM182.977 283.154C183.289 281.464 184.511 280.606 186.097 280.606C187.631 280.606 188.775 281.464 188.983 283.154H182.977ZM200.597 296.024C203.743 296.024 207.331 294.568 207.331 289.992V278.344C207.331 278.11 207.175 277.954 206.941 277.954H204.393C204.159 277.954 203.977 278.11 203.977 278.344L203.925 279.514C203.119 278.318 201.819 277.642 199.947 277.642C196.359 277.642 193.941 280.294 193.941 284.038C193.941 287.808 196.359 290.434 199.947 290.434C201.767 290.434 203.093 289.732 203.899 288.588V289.966C203.899 292.332 202.053 293.112 200.259 293.112C199.141 293.112 197.997 292.8 196.879 292.176C196.593 292.02 196.359 292.124 196.229 292.384L195.475 293.814C195.345 294.048 195.371 294.386 195.631 294.568C196.879 295.504 198.699 296.024 200.597 296.024ZM197.451 284.038C197.451 282.114 198.803 280.866 200.649 280.866C202.469 280.866 203.769 282.088 203.769 284.038C203.769 285.988 202.469 287.21 200.649 287.21C198.803 287.21 197.451 285.988 197.451 284.038ZM215.817 291.006C217.715 291.006 219.093 290.2 219.977 288.9L220.029 290.304C220.029 290.538 220.185 290.694 220.419 290.694H222.941C223.175 290.694 223.357 290.538 223.357 290.304V278.344C223.357 278.11 223.201 277.954 222.967 277.954H220.419C220.185 277.954 220.029 278.11 220.029 278.344L219.977 279.748C219.119 278.422 217.741 277.642 215.817 277.642C212.229 277.642 209.759 280.554 209.759 284.324C209.759 288.12 212.229 291.006 215.817 291.006ZM212.151 274.158C212.151 275.198 212.983 275.978 213.945 275.978C214.933 275.978 215.739 275.198 215.739 274.158C215.739 273.144 214.933 272.364 213.945 272.364C212.983 272.364 212.151 273.144 212.151 274.158ZM213.269 284.324C213.269 282.296 214.673 280.918 216.571 280.918C218.469 280.918 219.795 282.27 219.795 284.324C219.795 286.378 218.469 287.73 216.571 287.73C214.673 287.73 213.269 286.378 213.269 284.324ZM217.871 274.158C217.871 275.198 218.677 275.978 219.665 275.978C220.653 275.978 221.459 275.198 221.459 274.158C221.459 273.144 220.653 272.364 219.665 272.364C218.677 272.364 217.871 273.144 217.871 274.158ZM230.798 291.006C233.346 291.006 235.556 289.68 235.582 287.106C235.608 285.156 234.334 284.038 232.722 283.388L230.928 282.686C230.226 282.426 229.706 282.088 229.706 281.464C229.706 280.918 230.096 280.45 230.928 280.45C231.682 280.45 232.41 280.814 233.242 281.516C233.476 281.698 233.658 281.724 233.84 281.516L234.984 280.138C235.114 279.982 235.166 279.774 235.01 279.592C233.944 278.318 232.41 277.642 230.746 277.642C228.38 277.642 226.3 279.046 226.3 281.49C226.3 283.258 227.444 284.35 229.082 285L230.694 285.65C231.63 286.04 232.02 286.326 232.02 286.95C232.02 287.678 231.448 288.016 230.59 288.016C229.602 288.016 228.718 287.574 227.652 286.768C227.444 286.612 227.21 286.56 227.002 286.872L226.092 288.146C225.91 288.432 225.884 288.718 226.04 288.9C227.054 290.096 228.666 291.006 230.798 291.006ZM242.698 290.85C243.556 290.85 244.856 290.694 244.856 290.096V288.198C244.856 287.938 244.674 287.808 244.388 287.834C244.076 287.86 243.816 287.86 243.582 287.86C242.906 287.86 242.464 287.496 242.464 286.742V280.736H244.466C244.7 280.736 244.856 280.58 244.856 280.346V278.344C244.856 278.11 244.7 277.954 244.466 277.954H242.464V274.964C242.464 274.73 242.308 274.574 242.074 274.574H239.24C239.006 274.574 238.85 274.73 238.85 274.964V277.954H237.238C237.004 277.954 236.848 278.11 236.848 278.344V280.346C236.848 280.58 237.004 280.736 237.238 280.736H238.85V287.132C238.85 289.914 240.67 290.85 242.698 290.85Z" fill="#4B7E7F"/>
<path d="M43.5195 323.416H45.1895V335.694H43.6777L35.4688 326.246V335.694H33.8164V323.416H35.2402L43.5195 332.943V323.416ZM52.6865 330.834V334.271C52.6865 334.546 52.7803 334.684 52.9678 334.684C53.1611 334.684 53.4629 334.54 53.873 334.253V335.229C53.5098 335.463 53.2168 335.621 52.9941 335.703C52.7773 335.791 52.5488 335.835 52.3086 335.835C51.623 335.835 51.2188 335.565 51.0957 335.026C50.416 335.554 49.6924 335.817 48.9248 335.817C48.3623 335.817 47.8936 335.633 47.5186 335.264C47.1436 334.889 46.9561 334.42 46.9561 333.857C46.9561 333.348 47.1377 332.894 47.501 332.495C47.8701 332.091 48.3916 331.771 49.0654 331.537L51.1133 330.834V330.403C51.1133 329.431 50.627 328.944 49.6543 328.944C48.7812 328.944 47.9316 329.396 47.1055 330.298V328.549C47.7266 327.816 48.6201 327.45 49.7861 327.45C50.6592 327.45 51.3594 327.679 51.8867 328.136C52.0625 328.282 52.2207 328.479 52.3613 328.725C52.502 328.965 52.5898 329.208 52.625 329.454C52.666 329.694 52.6865 330.154 52.6865 330.834ZM51.1133 334.095V331.695L50.041 332.108C49.4961 332.325 49.1094 332.545 48.8809 332.768C48.6582 332.984 48.5469 333.257 48.5469 333.585C48.5469 333.919 48.6523 334.191 48.8633 334.402C49.0801 334.613 49.3584 334.719 49.6982 334.719C50.208 334.719 50.6797 334.511 51.1133 334.095ZM48.6172 323.688C48.8457 323.688 49.042 323.771 49.2061 323.935C49.376 324.099 49.4609 324.298 49.4609 324.532C49.4609 324.767 49.3818 324.966 49.2236 325.13C49.0654 325.288 48.8721 325.367 48.6436 325.367C48.4092 325.367 48.21 325.285 48.0459 325.121C47.8818 324.951 47.7998 324.752 47.7998 324.523C47.7998 324.289 47.8789 324.093 48.0371 323.935C48.2012 323.771 48.3945 323.688 48.6172 323.688ZM52.001 323.688C52.2295 323.688 52.4258 323.771 52.5898 323.935C52.7598 324.099 52.8447 324.298 52.8447 324.532C52.8447 324.767 52.7656 324.966 52.6074 325.13C52.4492 325.288 52.2559 325.367 52.0273 325.367C51.793 325.367 51.5938 325.285 51.4297 325.121C51.2656 324.951 51.1836 324.752 51.1836 324.523C51.1836 324.289 51.2627 324.093 51.4209 323.935C51.585 323.771 51.7783 323.688 52.001 323.688ZM57.002 327.608V329.463L57.0898 329.322C57.8633 328.074 58.6367 327.45 59.4102 327.45C60.0137 327.45 60.6436 327.755 61.2998 328.364L60.4561 329.771C59.8994 329.243 59.3838 328.979 58.9092 328.979C58.3936 328.979 57.9453 329.226 57.5645 329.718C57.1895 330.21 57.002 330.793 57.002 331.467V335.694H55.3936V327.608H57.002ZM72.8311 323.416H74.4395V335.694H71.0205C69.8252 335.694 68.8701 335.316 68.1553 334.561C67.4463 333.805 67.0918 332.791 67.0918 331.52C67.0918 330.33 67.4639 329.352 68.208 328.584C68.958 327.816 69.9131 327.433 71.0732 327.433C71.6123 327.433 72.1982 327.547 72.8311 327.775V323.416ZM72.8311 334.323V329.199C72.333 328.947 71.8291 328.821 71.3193 328.821C70.5225 328.821 69.8867 329.082 69.4121 329.604C68.9434 330.125 68.709 330.828 68.709 331.713C68.709 332.545 68.9141 333.187 69.3242 333.638C69.5703 333.907 69.8311 334.089 70.1064 334.183C70.3818 334.276 70.877 334.323 71.5918 334.323H72.8311ZM81.7607 335.694V334.666C81.4209 335.035 81.0312 335.322 80.5918 335.527C80.1582 335.732 79.7246 335.835 79.291 335.835C78.7812 335.835 78.3096 335.709 77.876 335.457C77.4482 335.199 77.123 334.854 76.9004 334.42C76.6836 333.98 76.5752 333.254 76.5752 332.24V327.608H78.1748V332.223C78.1748 333.072 78.2949 333.667 78.5352 334.007C78.7812 334.341 79.209 334.508 79.8184 334.508C80.5801 334.508 81.2275 334.136 81.7607 333.392V327.608H83.3604V335.694H81.7607ZM90.6553 323.416H92.2549V335.694H90.6553V323.416ZM99.6553 330.834V334.271C99.6553 334.546 99.749 334.684 99.9365 334.684C100.13 334.684 100.432 334.54 100.842 334.253V335.229C100.479 335.463 100.186 335.621 99.9629 335.703C99.7461 335.791 99.5176 335.835 99.2773 335.835C98.5918 335.835 98.1875 335.565 98.0645 335.026C97.3848 335.554 96.6611 335.817 95.8936 335.817C95.3311 335.817 94.8623 335.633 94.4873 335.264C94.1123 334.889 93.9248 334.42 93.9248 333.857C93.9248 333.348 94.1064 332.894 94.4697 332.495C94.8389 332.091 95.3604 331.771 96.0342 331.537L98.082 330.834V330.403C98.082 329.431 97.5957 328.944 96.623 328.944C95.75 328.944 94.9004 329.396 94.0742 330.298V328.549C94.6953 327.816 95.5889 327.45 96.7549 327.45C97.6279 327.45 98.3281 327.679 98.8555 328.136C99.0312 328.282 99.1895 328.479 99.3301 328.725C99.4707 328.965 99.5586 329.208 99.5938 329.454C99.6348 329.694 99.6553 330.154 99.6553 330.834ZM98.082 334.095V331.695L97.0098 332.108C96.4648 332.325 96.0781 332.545 95.8496 332.768C95.627 332.984 95.5156 333.257 95.5156 333.585C95.5156 333.919 95.6211 334.191 95.832 334.402C96.0488 334.613 96.3271 334.719 96.667 334.719C97.1768 334.719 97.6484 334.511 98.082 334.095ZM95.5859 323.688C95.8145 323.688 96.0107 323.771 96.1748 323.935C96.3447 324.099 96.4297 324.298 96.4297 324.532C96.4297 324.767 96.3506 324.966 96.1924 325.13C96.0342 325.288 95.8408 325.367 95.6123 325.367C95.3779 325.367 95.1787 325.285 95.0146 325.121C94.8506 324.951 94.7686 324.752 94.7686 324.523C94.7686 324.289 94.8477 324.093 95.0059 323.935C95.1699 323.771 95.3633 323.688 95.5859 323.688ZM98.9697 323.688C99.1982 323.688 99.3945 323.771 99.5586 323.935C99.7285 324.099 99.8135 324.298 99.8135 324.532C99.8135 324.767 99.7344 324.966 99.5762 325.13C99.418 325.288 99.2246 325.367 98.9961 325.367C98.7617 325.367 98.5625 325.285 98.3984 325.121C98.2344 324.951 98.1523 324.752 98.1523 324.523C98.1523 324.289 98.2314 324.093 98.3896 323.935C98.5537 323.771 98.7471 323.688 98.9697 323.688ZM101.844 330.403C101.844 329.542 102.157 328.862 102.784 328.364C103.417 327.86 104.278 327.608 105.368 327.608H108.699V328.856H107.064C107.381 329.179 107.601 329.472 107.724 329.735C107.847 329.999 107.908 330.301 107.908 330.641C107.908 331.062 107.788 331.479 107.548 331.889C107.308 332.293 106.997 332.604 106.616 332.82C106.241 333.037 105.623 333.21 104.762 333.339C104.158 333.427 103.856 333.635 103.856 333.963C103.856 334.15 103.968 334.306 104.19 334.429C104.419 334.546 104.829 334.669 105.421 334.798C106.411 335.015 107.047 335.185 107.328 335.308C107.615 335.431 107.873 335.606 108.102 335.835C108.488 336.222 108.682 336.708 108.682 337.294C108.682 338.062 108.339 338.674 107.653 339.131C106.974 339.588 106.062 339.816 104.92 339.816C103.766 339.816 102.843 339.585 102.151 339.122C101.466 338.665 101.123 338.05 101.123 337.276C101.123 336.181 101.8 335.475 103.153 335.158C102.614 334.812 102.345 334.47 102.345 334.13C102.345 333.872 102.459 333.638 102.688 333.427C102.922 333.216 103.235 333.061 103.628 332.961C102.438 332.434 101.844 331.581 101.844 330.403ZM104.85 328.997C104.416 328.997 104.047 329.144 103.742 329.437C103.438 329.729 103.285 330.081 103.285 330.491C103.285 330.907 103.435 331.253 103.733 331.528C104.032 331.798 104.41 331.933 104.867 331.933C105.318 331.933 105.693 331.795 105.992 331.52C106.297 331.238 106.449 330.89 106.449 330.474C106.449 330.052 106.297 329.7 105.992 329.419C105.688 329.138 105.307 328.997 104.85 328.997ZM104.472 336.072C103.933 336.072 103.49 336.187 103.145 336.415C102.805 336.644 102.635 336.937 102.635 337.294C102.635 338.126 103.385 338.542 104.885 338.542C105.594 338.542 106.142 338.437 106.528 338.226C106.921 338.021 107.117 337.728 107.117 337.347C107.117 336.972 106.871 336.664 106.379 336.424C105.887 336.189 105.251 336.072 104.472 336.072ZM109.525 330.403C109.525 329.542 109.839 328.862 110.466 328.364C111.099 327.86 111.96 327.608 113.05 327.608H116.381V328.856H114.746C115.062 329.179 115.282 329.472 115.405 329.735C115.528 329.999 115.59 330.301 115.59 330.641C115.59 331.062 115.47 331.479 115.229 331.889C114.989 332.293 114.679 332.604 114.298 332.82C113.923 333.037 113.305 333.21 112.443 333.339C111.84 333.427 111.538 333.635 111.538 333.963C111.538 334.15 111.649 334.306 111.872 334.429C112.101 334.546 112.511 334.669 113.103 334.798C114.093 335.015 114.729 335.185 115.01 335.308C115.297 335.431 115.555 335.606 115.783 335.835C116.17 336.222 116.363 336.708 116.363 337.294C116.363 338.062 116.021 338.674 115.335 339.131C114.655 339.588 113.744 339.816 112.602 339.816C111.447 339.816 110.524 339.585 109.833 339.122C109.147 338.665 108.805 338.05 108.805 337.276C108.805 336.181 109.481 335.475 110.835 335.158C110.296 334.812 110.026 334.47 110.026 334.13C110.026 333.872 110.141 333.638 110.369 333.427C110.604 333.216 110.917 333.061 111.31 332.961C110.12 332.434 109.525 331.581 109.525 330.403ZM112.531 328.997C112.098 328.997 111.729 329.144 111.424 329.437C111.119 329.729 110.967 330.081 110.967 330.491C110.967 330.907 111.116 331.253 111.415 331.528C111.714 331.798 112.092 331.933 112.549 331.933C113 331.933 113.375 331.795 113.674 331.52C113.979 331.238 114.131 330.89 114.131 330.474C114.131 330.052 113.979 329.7 113.674 329.419C113.369 329.138 112.988 328.997 112.531 328.997ZM112.153 336.072C111.614 336.072 111.172 336.187 110.826 336.415C110.486 336.644 110.316 336.937 110.316 337.294C110.316 338.126 111.066 338.542 112.566 338.542C113.275 338.542 113.823 338.437 114.21 338.226C114.603 338.021 114.799 337.728 114.799 337.347C114.799 336.972 114.553 336.664 114.061 336.424C113.568 336.189 112.933 336.072 112.153 336.072ZM122.7 330.834V334.271C122.7 334.546 122.794 334.684 122.981 334.684C123.175 334.684 123.477 334.54 123.887 334.253V335.229C123.523 335.463 123.23 335.621 123.008 335.703C122.791 335.791 122.562 335.835 122.322 335.835C121.637 335.835 121.232 335.565 121.109 335.026C120.43 335.554 119.706 335.817 118.938 335.817C118.376 335.817 117.907 335.633 117.532 335.264C117.157 334.889 116.97 334.42 116.97 333.857C116.97 333.348 117.151 332.894 117.515 332.495C117.884 332.091 118.405 331.771 119.079 331.537L121.127 330.834V330.403C121.127 329.431 120.641 328.944 119.668 328.944C118.795 328.944 117.945 329.396 117.119 330.298V328.549C117.74 327.816 118.634 327.45 119.8 327.45C120.673 327.45 121.373 327.679 121.9 328.136C122.076 328.282 122.234 328.479 122.375 328.725C122.516 328.965 122.604 329.208 122.639 329.454C122.68 329.694 122.7 330.154 122.7 330.834ZM121.127 334.095V331.695L120.055 332.108C119.51 332.325 119.123 332.545 118.895 332.768C118.672 332.984 118.561 333.257 118.561 333.585C118.561 333.919 118.666 334.191 118.877 334.402C119.094 334.613 119.372 334.719 119.712 334.719C120.222 334.719 120.693 334.511 121.127 334.095ZM127.016 327.608V329.463L127.104 329.322C127.877 328.074 128.65 327.45 129.424 327.45C130.027 327.45 130.657 327.755 131.313 328.364L130.47 329.771C129.913 329.243 129.397 328.979 128.923 328.979C128.407 328.979 127.959 329.226 127.578 329.718C127.203 330.21 127.016 330.793 127.016 331.467V335.694H125.407V327.608H127.016ZM142.599 335.694V334.666C142.259 335.035 141.869 335.322 141.43 335.527C140.996 335.732 140.562 335.835 140.129 335.835C139.619 335.835 139.147 335.709 138.714 335.457C138.286 335.199 137.961 334.854 137.738 334.42C137.521 333.98 137.413 333.254 137.413 332.24V327.608H139.013V332.223C139.013 333.072 139.133 333.667 139.373 334.007C139.619 334.341 140.047 334.508 140.656 334.508C141.418 334.508 142.065 334.136 142.599 333.392V327.608H144.198V335.694H142.599ZM146.343 339.816V327.608H149.146C150.582 327.608 151.698 327.966 152.495 328.681C153.298 329.396 153.699 330.395 153.699 331.678C153.699 332.891 153.321 333.887 152.565 334.666C151.815 335.445 150.857 335.835 149.691 335.835C149.176 335.835 148.604 335.721 147.978 335.492V339.816H146.343ZM149.111 329.103H147.978V334.077C148.47 334.329 148.985 334.455 149.524 334.455C150.274 334.455 150.887 334.194 151.361 333.673C151.842 333.151 152.082 332.48 152.082 331.66C152.082 331.133 151.968 330.667 151.739 330.263C151.517 329.858 151.209 329.565 150.816 329.384C150.43 329.196 149.861 329.103 149.111 329.103ZM155.343 339.816V327.608H158.146C159.582 327.608 160.698 327.966 161.495 328.681C162.298 329.396 162.699 330.395 162.699 331.678C162.699 332.891 162.321 333.887 161.565 334.666C160.815 335.445 159.857 335.835 158.691 335.835C158.176 335.835 157.604 335.721 156.978 335.492V339.816H155.343ZM158.111 329.103H156.978V334.077C157.47 334.329 157.985 334.455 158.524 334.455C159.274 334.455 159.887 334.194 160.361 333.673C160.842 333.151 161.082 332.48 161.082 331.66C161.082 331.133 160.968 330.667 160.739 330.263C160.517 329.858 160.209 329.565 159.816 329.384C159.43 329.196 158.861 329.103 158.111 329.103ZM174.854 323.416H176.463V335.694H173.044C171.849 335.694 170.894 335.316 170.179 334.561C169.47 333.805 169.115 332.791 169.115 331.52C169.115 330.33 169.487 329.352 170.231 328.584C170.981 327.816 171.937 327.433 173.097 327.433C173.636 327.433 174.222 327.547 174.854 327.775V323.416ZM174.854 334.323V329.199C174.356 328.947 173.853 328.821 173.343 328.821C172.546 328.821 171.91 329.082 171.436 329.604C170.967 330.125 170.732 330.828 170.732 331.713C170.732 332.545 170.938 333.187 171.348 333.638C171.594 333.907 171.854 334.089 172.13 334.183C172.405 334.276 172.9 334.323 173.615 334.323H174.854ZM179.46 324.207C179.724 324.207 179.949 324.298 180.137 324.479C180.324 324.661 180.418 324.884 180.418 325.147C180.418 325.405 180.324 325.628 180.137 325.815C179.949 326.003 179.724 326.097 179.46 326.097C179.214 326.097 178.997 326.003 178.81 325.815C178.622 325.622 178.528 325.399 178.528 325.147C178.528 324.901 178.622 324.685 178.81 324.497C178.997 324.304 179.214 324.207 179.46 324.207ZM178.669 327.608H180.269V335.694H178.669V327.608ZM184.188 327.608V328.637C184.903 327.846 185.715 327.45 186.623 327.45C187.127 327.45 187.596 327.582 188.029 327.846C188.463 328.104 188.791 328.461 189.014 328.918C189.242 329.369 189.356 330.087 189.356 331.071V335.694H187.757V331.089C187.757 330.263 187.631 329.674 187.379 329.322C187.127 328.965 186.705 328.786 186.113 328.786C185.357 328.786 184.716 329.164 184.188 329.92V335.694H182.554V327.608H184.188ZM196.528 323.416H198.128V328.188C198.819 327.685 199.558 327.433 200.343 327.433C201.368 327.433 202.206 327.819 202.856 328.593C203.507 329.366 203.832 330.359 203.832 331.572C203.832 332.873 203.442 333.91 202.663 334.684C201.89 335.451 200.853 335.835 199.552 335.835C199.03 335.835 198.479 335.779 197.899 335.668C197.325 335.557 196.868 335.416 196.528 335.246V323.416ZM198.128 329.718V334.095C198.673 334.259 199.232 334.341 199.807 334.341C200.516 334.341 201.093 334.089 201.538 333.585C201.989 333.081 202.215 332.434 202.215 331.643C202.215 330.84 202.004 330.187 201.582 329.683C201.166 329.179 200.621 328.927 199.947 328.927C199.35 328.927 198.743 329.19 198.128 329.718ZM209.466 327.591C210.696 327.591 211.719 327.989 212.533 328.786C213.348 329.577 213.755 330.573 213.755 331.774C213.755 332.94 213.342 333.91 212.516 334.684C211.689 335.451 210.649 335.835 209.396 335.835C208.183 335.835 207.169 335.445 206.354 334.666C205.54 333.881 205.133 332.902 205.133 331.73C205.133 330.547 205.543 329.562 206.363 328.777C207.189 327.986 208.224 327.591 209.466 327.591ZM209.378 329.032C208.61 329.032 207.98 329.284 207.488 329.788C206.996 330.292 206.75 330.934 206.75 331.713C206.75 332.486 207.002 333.119 207.506 333.611C208.01 334.098 208.657 334.341 209.448 334.341C210.233 334.341 210.875 334.095 211.373 333.603C211.877 333.104 212.129 332.469 212.129 331.695C212.129 330.928 211.868 330.292 211.347 329.788C210.825 329.284 210.169 329.032 209.378 329.032ZM215.135 335.114V333.392C215.586 333.708 216.046 333.966 216.515 334.165C216.989 334.358 217.388 334.455 217.71 334.455C218.044 334.455 218.331 334.373 218.571 334.209C218.812 334.045 218.932 333.849 218.932 333.62C218.932 333.386 218.853 333.192 218.694 333.04C218.542 332.882 218.208 332.656 217.692 332.363C216.661 331.789 215.984 331.3 215.662 330.896C215.346 330.485 215.188 330.04 215.188 329.56C215.188 328.938 215.428 328.432 215.908 328.039C216.395 327.646 217.019 327.45 217.78 327.45C218.571 327.45 219.383 327.673 220.215 328.118V329.7C219.266 329.126 218.489 328.839 217.886 328.839C217.575 328.839 217.323 328.906 217.13 329.041C216.942 329.17 216.849 329.343 216.849 329.56C216.849 329.747 216.934 329.926 217.104 330.096C217.279 330.266 217.584 330.471 218.018 330.711L218.589 331.036C219.937 331.798 220.61 332.642 220.61 333.567C220.61 334.229 220.35 334.774 219.828 335.202C219.312 335.624 218.647 335.835 217.833 335.835C217.353 335.835 216.925 335.785 216.55 335.686C216.175 335.58 215.703 335.39 215.135 335.114ZM221.322 328.892L224.328 325.938V327.608H226.886V329.05H224.328V333.014C224.328 333.939 224.712 334.402 225.479 334.402C226.054 334.402 226.66 334.209 227.299 333.822V335.316C226.684 335.662 226.013 335.835 225.286 335.835C224.554 335.835 223.944 335.621 223.458 335.193C223.306 335.064 223.18 334.921 223.08 334.763C222.98 334.599 222.896 334.388 222.825 334.13C222.761 333.866 222.729 333.368 222.729 332.636V329.05H221.322V328.892ZM233.53 330.834V334.271C233.53 334.546 233.624 334.684 233.812 334.684C234.005 334.684 234.307 334.54 234.717 334.253V335.229C234.354 335.463 234.061 335.621 233.838 335.703C233.621 335.791 233.393 335.835 233.152 335.835C232.467 335.835 232.062 335.565 231.939 335.026C231.26 335.554 230.536 335.817 229.769 335.817C229.206 335.817 228.737 335.633 228.362 335.264C227.987 334.889 227.8 334.42 227.8 333.857C227.8 333.348 227.981 332.894 228.345 332.495C228.714 332.091 229.235 331.771 229.909 331.537L231.957 330.834V330.403C231.957 329.431 231.471 328.944 230.498 328.944C229.625 328.944 228.775 329.396 227.949 330.298V328.549C228.57 327.816 229.464 327.45 230.63 327.45C231.503 327.45 232.203 327.679 232.73 328.136C232.906 328.282 233.064 328.479 233.205 328.725C233.346 328.965 233.434 329.208 233.469 329.454C233.51 329.694 233.53 330.154 233.53 330.834ZM231.957 334.095V331.695L230.885 332.108C230.34 332.325 229.953 332.545 229.725 332.768C229.502 332.984 229.391 333.257 229.391 333.585C229.391 333.919 229.496 334.191 229.707 334.402C229.924 334.613 230.202 334.719 230.542 334.719C231.052 334.719 231.523 334.511 231.957 334.095ZM241.528 323.416H243.137V335.694H239.718C238.522 335.694 237.567 335.316 236.853 334.561C236.144 333.805 235.789 332.791 235.789 331.52C235.789 330.33 236.161 329.352 236.905 328.584C237.655 327.816 238.61 327.433 239.771 327.433C240.31 327.433 240.896 327.547 241.528 327.775V323.416ZM241.528 334.323V329.199C241.03 328.947 240.526 328.821 240.017 328.821C239.22 328.821 238.584 329.082 238.109 329.604C237.641 330.125 237.406 330.828 237.406 331.713C237.406 332.545 237.611 333.187 238.021 333.638C238.268 333.907 238.528 334.089 238.804 334.183C239.079 334.276 239.574 334.323 240.289 334.323H241.528ZM255.468 335.694V334.666C255.128 335.035 254.738 335.322 254.299 335.527C253.865 335.732 253.432 335.835 252.998 335.835C252.488 335.835 252.017 335.709 251.583 335.457C251.155 335.199 250.83 334.854 250.607 334.42C250.391 333.98 250.282 333.254 250.282 332.24V327.608H251.882V332.223C251.882 333.072 252.002 333.667 252.242 334.007C252.488 334.341 252.916 334.508 253.525 334.508C254.287 334.508 254.935 334.136 255.468 333.392V327.608H257.067V335.694H255.468ZM258.184 328.892L261.189 325.938V327.608H263.747V329.05H261.189V333.014C261.189 333.939 261.573 334.402 262.341 334.402C262.915 334.402 263.521 334.209 264.16 333.822V335.316C263.545 335.662 262.874 335.835 262.147 335.835C261.415 335.835 260.806 335.621 260.319 335.193C260.167 335.064 260.041 334.921 259.941 334.763C259.842 334.599 259.757 334.388 259.687 334.13C259.622 333.866 259.59 333.368 259.59 332.636V329.05H258.184V328.892ZM264.898 330.403C264.898 329.542 265.212 328.862 265.839 328.364C266.472 327.86 267.333 327.608 268.423 327.608H271.754V328.856H270.119C270.436 329.179 270.655 329.472 270.778 329.735C270.901 329.999 270.963 330.301 270.963 330.641C270.963 331.062 270.843 331.479 270.603 331.889C270.362 332.293 270.052 332.604 269.671 332.82C269.296 333.037 268.678 333.21 267.816 333.339C267.213 333.427 266.911 333.635 266.911 333.963C266.911 334.15 267.022 334.306 267.245 334.429C267.474 334.546 267.884 334.669 268.476 334.798C269.466 335.015 270.102 335.185 270.383 335.308C270.67 335.431 270.928 335.606 271.156 335.835C271.543 336.222 271.736 336.708 271.736 337.294C271.736 338.062 271.394 338.674 270.708 339.131C270.028 339.588 269.117 339.816 267.975 339.816C266.82 339.816 265.897 339.585 265.206 339.122C264.521 338.665 264.178 338.05 264.178 337.276C264.178 336.181 264.854 335.475 266.208 335.158C265.669 334.812 265.399 334.47 265.399 334.13C265.399 333.872 265.514 333.638 265.742 333.427C265.977 333.216 266.29 333.061 266.683 332.961C265.493 332.434 264.898 331.581 264.898 330.403ZM267.904 328.997C267.471 328.997 267.102 329.144 266.797 329.437C266.492 329.729 266.34 330.081 266.34 330.491C266.34 330.907 266.489 331.253 266.788 331.528C267.087 331.798 267.465 331.933 267.922 331.933C268.373 331.933 268.748 331.795 269.047 331.52C269.352 331.238 269.504 330.89 269.504 330.474C269.504 330.052 269.352 329.7 269.047 329.419C268.742 329.138 268.361 328.997 267.904 328.997ZM267.526 336.072C266.987 336.072 266.545 336.187 266.199 336.415C265.859 336.644 265.689 336.937 265.689 337.294C265.689 338.126 266.439 338.542 267.939 338.542C268.648 338.542 269.196 338.437 269.583 338.226C269.976 338.021 270.172 337.728 270.172 337.347C270.172 336.972 269.926 336.664 269.434 336.424C268.941 336.189 268.306 336.072 267.526 336.072ZM278.073 330.834V334.271C278.073 334.546 278.167 334.684 278.354 334.684C278.548 334.684 278.85 334.54 279.26 334.253V335.229C278.896 335.463 278.604 335.621 278.381 335.703C278.164 335.791 277.936 335.835 277.695 335.835C277.01 335.835 276.605 335.565 276.482 335.026C275.803 335.554 275.079 335.817 274.312 335.817C273.749 335.817 273.28 335.633 272.905 335.264C272.53 334.889 272.343 334.42 272.343 333.857C272.343 333.348 272.524 332.894 272.888 332.495C273.257 332.091 273.778 331.771 274.452 331.537L276.5 330.834V330.403C276.5 329.431 276.014 328.944 275.041 328.944C274.168 328.944 273.318 329.396 272.492 330.298V328.549C273.113 327.816 274.007 327.45 275.173 327.45C276.046 327.45 276.746 327.679 277.273 328.136C277.449 328.282 277.607 328.479 277.748 328.725C277.889 328.965 277.977 329.208 278.012 329.454C278.053 329.694 278.073 330.154 278.073 330.834ZM276.5 334.095V331.695L275.428 332.108C274.883 332.325 274.496 332.545 274.268 332.768C274.045 332.984 273.934 333.257 273.934 333.585C273.934 333.919 274.039 334.191 274.25 334.402C274.467 334.613 274.745 334.719 275.085 334.719C275.595 334.719 276.066 334.511 276.5 334.095ZM275.718 322.537C276.169 322.537 276.556 322.698 276.878 323.021C277.206 323.343 277.37 323.735 277.37 324.198C277.37 324.661 277.206 325.057 276.878 325.385C276.556 325.713 276.163 325.877 275.7 325.877C275.243 325.877 274.851 325.716 274.522 325.394C274.2 325.065 274.039 324.673 274.039 324.216C274.039 323.747 274.203 323.352 274.531 323.029C274.865 322.701 275.261 322.537 275.718 322.537ZM275.674 323.249C275.375 323.249 275.135 323.34 274.953 323.521C274.777 323.697 274.689 323.929 274.689 324.216C274.689 324.497 274.786 324.737 274.979 324.937C275.179 325.13 275.419 325.227 275.7 325.227C275.981 325.227 276.222 325.13 276.421 324.937C276.62 324.743 276.72 324.509 276.72 324.233C276.72 323.958 276.62 323.727 276.421 323.539C276.222 323.346 275.973 323.249 275.674 323.249ZM282.389 327.608V329.463L282.477 329.322C283.25 328.074 284.023 327.45 284.797 327.45C285.4 327.45 286.03 327.755 286.687 328.364L285.843 329.771C285.286 329.243 284.771 328.979 284.296 328.979C283.78 328.979 283.332 329.226 282.951 329.718C282.576 330.21 282.389 330.793 282.389 331.467V335.694H280.78V327.608H282.389ZM297.77 327.608H299.501L295.933 335.835H295.396L291.74 327.608H293.489L295.669 332.583L297.77 327.608ZM301.54 324.207C301.804 324.207 302.029 324.298 302.217 324.479C302.404 324.661 302.498 324.884 302.498 325.147C302.498 325.405 302.404 325.628 302.217 325.815C302.029 326.003 301.804 326.097 301.54 326.097C301.294 326.097 301.077 326.003 300.89 325.815C300.702 325.622 300.608 325.399 300.608 325.147C300.608 324.901 300.702 324.685 300.89 324.497C301.077 324.304 301.294 324.207 301.54 324.207ZM300.749 327.608H302.349V335.694H300.749V327.608ZM33.7285 351.608V351.125C33.7285 349.824 34.0039 348.854 34.5547 348.216C35.1113 347.577 35.7764 347.258 36.5498 347.258C36.8838 347.258 37.2793 347.311 37.7363 347.416V348.98C37.4785 348.887 37.2324 348.84 36.998 348.84C36.3711 348.84 35.9346 349.007 35.6885 349.341C35.4482 349.675 35.3281 350.27 35.3281 351.125V351.608H36.7695V353.05H35.3281V359.694H33.7285V353.05H32.5684V351.608H33.7285ZM39.7578 351.608V353.463L39.8457 353.322C40.6191 352.074 41.3926 351.45 42.166 351.45C42.7695 351.45 43.3994 351.755 44.0557 352.364L43.2119 353.771C42.6553 353.243 42.1396 352.979 41.665 352.979C41.1494 352.979 40.7012 353.226 40.3203 353.718C39.9453 354.21 39.7578 354.793 39.7578 355.467V359.694H38.1494V351.608H39.7578ZM50.2607 354.834V358.271C50.2607 358.546 50.3545 358.684 50.542 358.684C50.7354 358.684 51.0371 358.54 51.4473 358.253V359.229C51.084 359.463 50.791 359.621 50.5684 359.703C50.3516 359.791 50.123 359.835 49.8828 359.835C49.1973 359.835 48.793 359.565 48.6699 359.026C47.9902 359.554 47.2666 359.817 46.499 359.817C45.9365 359.817 45.4678 359.633 45.0928 359.264C44.7178 358.889 44.5303 358.42 44.5303 357.857C44.5303 357.348 44.7119 356.894 45.0752 356.495C45.4443 356.091 45.9658 355.771 46.6396 355.537L48.6875 354.834V354.403C48.6875 353.431 48.2012 352.944 47.2285 352.944C46.3555 352.944 45.5059 353.396 44.6797 354.298V352.549C45.3008 351.816 46.1943 351.45 47.3604 351.45C48.2334 351.45 48.9336 351.679 49.4609 352.136C49.6367 352.282 49.7949 352.479 49.9355 352.725C50.0762 352.965 50.1641 353.208 50.1992 353.454C50.2402 353.694 50.2607 354.154 50.2607 354.834ZM48.6875 358.095V355.695L47.6152 356.108C47.0703 356.325 46.6836 356.545 46.4551 356.768C46.2324 356.984 46.1211 357.257 46.1211 357.585C46.1211 357.919 46.2266 358.191 46.4375 358.402C46.6543 358.613 46.9326 358.719 47.2725 358.719C47.7822 358.719 48.2539 358.511 48.6875 358.095ZM47.9053 346.537C48.3564 346.537 48.7432 346.698 49.0654 347.021C49.3936 347.343 49.5576 347.735 49.5576 348.198C49.5576 348.661 49.3936 349.057 49.0654 349.385C48.7432 349.713 48.3506 349.877 47.8877 349.877C47.4307 349.877 47.0381 349.716 46.71 349.394C46.3877 349.065 46.2266 348.673 46.2266 348.216C46.2266 347.747 46.3906 347.352 46.7188 347.029C47.0527 346.701 47.4482 346.537 47.9053 346.537ZM47.8613 347.249C47.5625 347.249 47.3223 347.34 47.1406 347.521C46.9648 347.697 46.877 347.929 46.877 348.216C46.877 348.497 46.9736 348.737 47.167 348.937C47.3662 349.13 47.6064 349.227 47.8877 349.227C48.1689 349.227 48.4092 349.13 48.6084 348.937C48.8076 348.743 48.9072 348.509 48.9072 348.233C48.9072 347.958 48.8076 347.727 48.6084 347.539C48.4092 347.346 48.1602 347.249 47.8613 347.249ZM54.4619 351.608V352.637C55.1768 351.846 55.9883 351.45 56.8965 351.45C57.4004 351.45 57.8691 351.582 58.3027 351.846C58.7363 352.104 59.0645 352.461 59.2871 352.918C59.5156 353.369 59.6299 354.087 59.6299 355.071V359.694H58.0303V355.089C58.0303 354.263 57.9043 353.674 57.6523 353.322C57.4004 352.965 56.9785 352.786 56.3867 352.786C55.6309 352.786 54.9893 353.164 54.4619 353.92V359.694H52.8271V351.608H54.4619ZM66.7666 363.816V351.608H69.5703C71.0059 351.608 72.1221 351.966 72.9189 352.681C73.7217 353.396 74.123 354.395 74.123 355.678C74.123 356.891 73.7451 357.887 72.9893 358.666C72.2393 359.445 71.2812 359.835 70.1152 359.835C69.5996 359.835 69.0283 359.721 68.4014 359.492V363.816H66.7666ZM69.5352 353.103H68.4014V358.077C68.8936 358.329 69.4092 358.455 69.9482 358.455C70.6982 358.455 71.3105 358.194 71.7852 357.673C72.2656 357.151 72.5059 356.48 72.5059 355.66C72.5059 355.133 72.3916 354.667 72.1631 354.263C71.9404 353.858 71.6328 353.565 71.2402 353.384C70.8535 353.196 70.2852 353.103 69.5352 353.103ZM82.7627 355.792H77.0762C77.1172 356.565 77.375 357.181 77.8496 357.638C78.3301 358.095 78.9482 358.323 79.7041 358.323C80.7588 358.323 81.7314 357.995 82.6221 357.339V358.903C82.1299 359.231 81.6406 359.466 81.1543 359.606C80.6738 359.747 80.1084 359.817 79.458 359.817C78.5674 359.817 77.8467 359.633 77.2959 359.264C76.7451 358.895 76.3027 358.399 75.9688 357.778C75.6406 357.151 75.4766 356.428 75.4766 355.607C75.4766 354.377 75.8252 353.378 76.5225 352.61C77.2197 351.837 78.125 351.45 79.2383 351.45C80.3105 351.45 81.166 351.825 81.8047 352.575C82.4434 353.325 82.7627 354.33 82.7627 355.59V355.792ZM77.1113 354.834H81.1807C81.1396 354.195 80.9492 353.703 80.6094 353.357C80.2695 353.012 79.8125 352.839 79.2383 352.839C78.6641 352.839 78.1924 353.012 77.8232 353.357C77.46 353.703 77.2227 354.195 77.1113 354.834ZM86.2168 351.608V353.463L86.3047 353.322C87.0781 352.074 87.8516 351.45 88.625 351.45C89.2285 351.45 89.8584 351.755 90.5146 352.364L89.6709 353.771C89.1143 353.243 88.5986 352.979 88.124 352.979C87.6084 352.979 87.1602 353.226 86.7793 353.718C86.4043 354.21 86.2168 354.793 86.2168 355.467V359.694H84.6084V351.608H86.2168ZM91.2441 359.114V357.392C91.6953 357.708 92.1553 357.966 92.624 358.165C93.0986 358.358 93.4971 358.455 93.8193 358.455C94.1533 358.455 94.4404 358.373 94.6807 358.209C94.9209 358.045 95.041 357.849 95.041 357.62C95.041 357.386 94.9619 357.192 94.8037 357.04C94.6514 356.882 94.3174 356.656 93.8018 356.363C92.7705 355.789 92.0938 355.3 91.7715 354.896C91.4551 354.485 91.2969 354.04 91.2969 353.56C91.2969 352.938 91.5371 352.432 92.0176 352.039C92.5039 351.646 93.1279 351.45 93.8896 351.45C94.6807 351.45 95.4922 351.673 96.3242 352.118V353.7C95.375 353.126 94.5986 352.839 93.9951 352.839C93.6846 352.839 93.4326 352.906 93.2393 353.041C93.0518 353.17 92.958 353.343 92.958 353.56C92.958 353.747 93.043 353.926 93.2129 354.096C93.3887 354.266 93.6934 354.471 94.127 354.711L94.6982 355.036C96.0459 355.798 96.7197 356.642 96.7197 357.567C96.7197 358.229 96.459 358.774 95.9375 359.202C95.4219 359.624 94.7568 359.835 93.9424 359.835C93.4619 359.835 93.0342 359.785 92.6592 359.686C92.2842 359.58 91.8125 359.39 91.2441 359.114ZM102.433 351.591C103.663 351.591 104.686 351.989 105.5 352.786C106.314 353.577 106.722 354.573 106.722 355.774C106.722 356.94 106.309 357.91 105.482 358.684C104.656 359.451 103.616 359.835 102.362 359.835C101.149 359.835 100.136 359.445 99.3213 358.666C98.5068 357.881 98.0996 356.902 98.0996 355.73C98.0996 354.547 98.5098 353.562 99.3301 352.777C100.156 351.986 101.19 351.591 102.433 351.591ZM102.345 353.032C101.577 353.032 100.947 353.284 100.455 353.788C99.9629 354.292 99.7168 354.934 99.7168 355.713C99.7168 356.486 99.9688 357.119 100.473 357.611C100.977 358.098 101.624 358.341 102.415 358.341C103.2 358.341 103.842 358.095 104.34 357.603C104.844 357.104 105.096 356.469 105.096 355.695C105.096 354.928 104.835 354.292 104.313 353.788C103.792 353.284 103.136 353.032 102.345 353.032ZM110.097 351.608V352.637C110.812 351.846 111.623 351.45 112.531 351.45C113.035 351.45 113.504 351.582 113.938 351.846C114.371 352.104 114.699 352.461 114.922 352.918C115.15 353.369 115.265 354.087 115.265 355.071V359.694H113.665V355.089C113.665 354.263 113.539 353.674 113.287 353.322C113.035 352.965 112.613 352.786 112.021 352.786C111.266 352.786 110.624 353.164 110.097 353.92V359.694H108.462V351.608H110.097ZM117.532 347.416H119.132V359.694H117.532V347.416ZM122.278 348.207C122.542 348.207 122.768 348.298 122.955 348.479C123.143 348.661 123.236 348.884 123.236 349.147C123.236 349.405 123.143 349.628 122.955 349.815C122.768 350.003 122.542 350.097 122.278 350.097C122.032 350.097 121.815 350.003 121.628 349.815C121.44 349.622 121.347 349.399 121.347 349.147C121.347 348.901 121.44 348.685 121.628 348.497C121.815 348.304 122.032 348.207 122.278 348.207ZM121.487 351.608H123.087V359.694H121.487V351.608ZM124.994 354.403C124.994 353.542 125.308 352.862 125.935 352.364C126.567 351.86 127.429 351.608 128.519 351.608H131.85V352.856H130.215C130.531 353.179 130.751 353.472 130.874 353.735C130.997 353.999 131.059 354.301 131.059 354.641C131.059 355.062 130.938 355.479 130.698 355.889C130.458 356.293 130.147 356.604 129.767 356.82C129.392 357.037 128.773 357.21 127.912 357.339C127.309 357.427 127.007 357.635 127.007 357.963C127.007 358.15 127.118 358.306 127.341 358.429C127.569 358.546 127.979 358.669 128.571 358.798C129.562 359.015 130.197 359.185 130.479 359.308C130.766 359.431 131.023 359.606 131.252 359.835C131.639 360.222 131.832 360.708 131.832 361.294C131.832 362.062 131.489 362.674 130.804 363.131C130.124 363.588 129.213 363.816 128.07 363.816C126.916 363.816 125.993 363.585 125.302 363.122C124.616 362.665 124.273 362.05 124.273 361.276C124.273 360.181 124.95 359.475 126.304 359.158C125.765 358.812 125.495 358.47 125.495 358.13C125.495 357.872 125.609 357.638 125.838 357.427C126.072 357.216 126.386 357.061 126.778 356.961C125.589 356.434 124.994 355.581 124.994 354.403ZM128 352.997C127.566 352.997 127.197 353.144 126.893 353.437C126.588 353.729 126.436 354.081 126.436 354.491C126.436 354.907 126.585 355.253 126.884 355.528C127.183 355.798 127.561 355.933 128.018 355.933C128.469 355.933 128.844 355.795 129.143 355.52C129.447 355.238 129.6 354.89 129.6 354.474C129.6 354.052 129.447 353.7 129.143 353.419C128.838 353.138 128.457 352.997 128 352.997ZM127.622 360.072C127.083 360.072 126.641 360.187 126.295 360.415C125.955 360.644 125.785 360.937 125.785 361.294C125.785 362.126 126.535 362.542 128.035 362.542C128.744 362.542 129.292 362.437 129.679 362.226C130.071 362.021 130.268 361.728 130.268 361.347C130.268 360.972 130.021 360.664 129.529 360.424C129.037 360.189 128.401 360.072 127.622 360.072ZM138.169 354.834V358.271C138.169 358.546 138.263 358.684 138.45 358.684C138.644 358.684 138.945 358.54 139.355 358.253V359.229C138.992 359.463 138.699 359.621 138.477 359.703C138.26 359.791 138.031 359.835 137.791 359.835C137.105 359.835 136.701 359.565 136.578 359.026C135.898 359.554 135.175 359.817 134.407 359.817C133.845 359.817 133.376 359.633 133.001 359.264C132.626 358.889 132.438 358.42 132.438 357.857C132.438 357.348 132.62 356.894 132.983 356.495C133.353 356.091 133.874 355.771 134.548 355.537L136.596 354.834V354.403C136.596 353.431 136.109 352.944 135.137 352.944C134.264 352.944 133.414 353.396 132.588 354.298V352.549C133.209 351.816 134.103 351.45 135.269 351.45C136.142 351.45 136.842 351.679 137.369 352.136C137.545 352.282 137.703 352.479 137.844 352.725C137.984 352.965 138.072 353.208 138.107 353.454C138.148 353.694 138.169 354.154 138.169 354.834ZM136.596 358.095V355.695L135.523 356.108C134.979 356.325 134.592 356.545 134.363 356.768C134.141 356.984 134.029 357.257 134.029 357.585C134.029 357.919 134.135 358.191 134.346 358.402C134.562 358.613 134.841 358.719 135.181 358.719C135.69 358.719 136.162 358.511 136.596 358.095ZM145.965 351.608V351.125C145.965 349.824 146.24 348.854 146.791 348.216C147.348 347.577 148.013 347.258 148.786 347.258C149.12 347.258 149.516 347.311 149.973 347.416V348.98C149.715 348.887 149.469 348.84 149.234 348.84C148.607 348.84 148.171 349.007 147.925 349.341C147.685 349.675 147.564 350.27 147.564 351.125V351.608H149.006V353.05H147.564V359.694H145.965V353.05H144.805V351.608H145.965ZM151.994 351.608V353.463L152.082 353.322C152.855 352.074 153.629 351.45 154.402 351.45C155.006 351.45 155.636 351.755 156.292 352.364L155.448 353.771C154.892 353.243 154.376 352.979 153.901 352.979C153.386 352.979 152.938 353.226 152.557 353.718C152.182 354.21 151.994 354.793 151.994 355.467V359.694H150.386V351.608H151.994ZM162.497 354.834V358.271C162.497 358.546 162.591 358.684 162.778 358.684C162.972 358.684 163.273 358.54 163.684 358.253V359.229C163.32 359.463 163.027 359.621 162.805 359.703C162.588 359.791 162.359 359.835 162.119 359.835C161.434 359.835 161.029 359.565 160.906 359.026C160.227 359.554 159.503 359.817 158.735 359.817C158.173 359.817 157.704 359.633 157.329 359.264C156.954 358.889 156.767 358.42 156.767 357.857C156.767 357.348 156.948 356.894 157.312 356.495C157.681 356.091 158.202 355.771 158.876 355.537L160.924 354.834V354.403C160.924 353.431 160.438 352.944 159.465 352.944C158.592 352.944 157.742 353.396 156.916 354.298V352.549C157.537 351.816 158.431 351.45 159.597 351.45C160.47 351.45 161.17 351.679 161.697 352.136C161.873 352.282 162.031 352.479 162.172 352.725C162.312 352.965 162.4 353.208 162.436 353.454C162.477 353.694 162.497 354.154 162.497 354.834ZM160.924 358.095V355.695L159.852 356.108C159.307 356.325 158.92 356.545 158.691 356.768C158.469 356.984 158.357 357.257 158.357 357.585C158.357 357.919 158.463 358.191 158.674 358.402C158.891 358.613 159.169 358.719 159.509 358.719C160.019 358.719 160.49 358.511 160.924 358.095ZM160.142 346.537C160.593 346.537 160.979 346.698 161.302 347.021C161.63 347.343 161.794 347.735 161.794 348.198C161.794 348.661 161.63 349.057 161.302 349.385C160.979 349.713 160.587 349.877 160.124 349.877C159.667 349.877 159.274 349.716 158.946 349.394C158.624 349.065 158.463 348.673 158.463 348.216C158.463 347.747 158.627 347.352 158.955 347.029C159.289 346.701 159.685 346.537 160.142 346.537ZM160.098 347.249C159.799 347.249 159.559 347.34 159.377 347.521C159.201 347.697 159.113 347.929 159.113 348.216C159.113 348.497 159.21 348.737 159.403 348.937C159.603 349.13 159.843 349.227 160.124 349.227C160.405 349.227 160.646 349.13 160.845 348.937C161.044 348.743 161.144 348.509 161.144 348.233C161.144 347.958 161.044 347.727 160.845 347.539C160.646 347.346 160.396 347.249 160.098 347.249ZM164.686 354.403C164.686 353.542 164.999 352.862 165.626 352.364C166.259 351.86 167.12 351.608 168.21 351.608H171.541V352.856H169.906C170.223 353.179 170.442 353.472 170.565 353.735C170.688 353.999 170.75 354.301 170.75 354.641C170.75 355.062 170.63 355.479 170.39 355.889C170.149 356.293 169.839 356.604 169.458 356.82C169.083 357.037 168.465 357.21 167.604 357.339C167 357.427 166.698 357.635 166.698 357.963C166.698 358.15 166.81 358.306 167.032 358.429C167.261 358.546 167.671 358.669 168.263 358.798C169.253 359.015 169.889 359.185 170.17 359.308C170.457 359.431 170.715 359.606 170.943 359.835C171.33 360.222 171.523 360.708 171.523 361.294C171.523 362.062 171.181 362.674 170.495 363.131C169.815 363.588 168.904 363.816 167.762 363.816C166.607 363.816 165.685 363.585 164.993 363.122C164.308 362.665 163.965 362.05 163.965 361.276C163.965 360.181 164.642 359.475 165.995 359.158C165.456 358.812 165.187 358.47 165.187 358.13C165.187 357.872 165.301 357.638 165.529 357.427C165.764 357.216 166.077 357.061 166.47 356.961C165.28 356.434 164.686 355.581 164.686 354.403ZM167.691 352.997C167.258 352.997 166.889 353.144 166.584 353.437C166.279 353.729 166.127 354.081 166.127 354.491C166.127 354.907 166.276 355.253 166.575 355.528C166.874 355.798 167.252 355.933 167.709 355.933C168.16 355.933 168.535 355.795 168.834 355.52C169.139 355.238 169.291 354.89 169.291 354.474C169.291 354.052 169.139 353.7 168.834 353.419C168.529 353.138 168.148 352.997 167.691 352.997ZM167.313 360.072C166.774 360.072 166.332 360.187 165.986 360.415C165.646 360.644 165.477 360.937 165.477 361.294C165.477 362.126 166.227 362.542 167.727 362.542C168.436 362.542 168.983 362.437 169.37 362.226C169.763 362.021 169.959 361.728 169.959 361.347C169.959 360.972 169.713 360.664 169.221 360.424C168.729 360.189 168.093 360.072 167.313 360.072ZM176.647 351.591C177.878 351.591 178.9 351.989 179.715 352.786C180.529 353.577 180.937 354.573 180.937 355.774C180.937 356.94 180.523 357.91 179.697 358.684C178.871 359.451 177.831 359.835 176.577 359.835C175.364 359.835 174.351 359.445 173.536 358.666C172.722 357.881 172.314 356.902 172.314 355.73C172.314 354.547 172.725 353.562 173.545 352.777C174.371 351.986 175.405 351.591 176.647 351.591ZM176.56 353.032C175.792 353.032 175.162 353.284 174.67 353.788C174.178 354.292 173.932 354.934 173.932 355.713C173.932 356.486 174.184 357.119 174.688 357.611C175.191 358.098 175.839 358.341 176.63 358.341C177.415 358.341 178.057 358.095 178.555 357.603C179.059 357.104 179.311 356.469 179.311 355.695C179.311 354.928 179.05 354.292 178.528 353.788C178.007 353.284 177.351 353.032 176.56 353.032ZM184.426 351.608V353.463L184.514 353.322C185.287 352.074 186.061 351.45 186.834 351.45C187.438 351.45 188.067 351.755 188.724 352.364L187.88 353.771C187.323 353.243 186.808 352.979 186.333 352.979C185.817 352.979 185.369 353.226 184.988 353.718C184.613 354.21 184.426 354.793 184.426 355.467V359.694H182.817V351.608H184.426ZM194.463 359.114V357.392C194.914 357.708 195.374 357.966 195.843 358.165C196.317 358.358 196.716 358.455 197.038 358.455C197.372 358.455 197.659 358.373 197.899 358.209C198.14 358.045 198.26 357.849 198.26 357.62C198.26 357.386 198.181 357.192 198.022 357.04C197.87 356.882 197.536 356.656 197.021 356.363C195.989 355.789 195.312 355.3 194.99 354.896C194.674 354.485 194.516 354.04 194.516 353.56C194.516 352.938 194.756 352.432 195.236 352.039C195.723 351.646 196.347 351.45 197.108 351.45C197.899 351.45 198.711 351.673 199.543 352.118V353.7C198.594 353.126 197.817 352.839 197.214 352.839C196.903 352.839 196.651 352.906 196.458 353.041C196.271 353.17 196.177 353.343 196.177 353.56C196.177 353.747 196.262 353.926 196.432 354.096C196.607 354.266 196.912 354.471 197.346 354.711L197.917 355.036C199.265 355.798 199.938 356.642 199.938 357.567C199.938 358.229 199.678 358.774 199.156 359.202C198.641 359.624 197.976 359.835 197.161 359.835C196.681 359.835 196.253 359.785 195.878 359.686C195.503 359.58 195.031 359.39 194.463 359.114ZM205.651 351.591C206.882 351.591 207.904 351.989 208.719 352.786C209.533 353.577 209.94 354.573 209.94 355.774C209.94 356.94 209.527 357.91 208.701 358.684C207.875 359.451 206.835 359.835 205.581 359.835C204.368 359.835 203.354 359.445 202.54 358.666C201.726 357.881 201.318 356.902 201.318 355.73C201.318 354.547 201.729 353.562 202.549 352.777C203.375 351.986 204.409 351.591 205.651 351.591ZM205.563 353.032C204.796 353.032 204.166 353.284 203.674 353.788C203.182 354.292 202.936 354.934 202.936 355.713C202.936 356.486 203.188 357.119 203.691 357.611C204.195 358.098 204.843 358.341 205.634 358.341C206.419 358.341 207.061 358.095 207.559 357.603C208.062 357.104 208.314 356.469 208.314 355.695C208.314 354.928 208.054 354.292 207.532 353.788C207.011 353.284 206.354 353.032 205.563 353.032ZM218.343 353.823V359.694H216.734V355.194C216.734 354.298 216.614 353.674 216.374 353.322C216.134 352.965 215.715 352.786 215.117 352.786C214.783 352.786 214.476 352.862 214.194 353.015C213.919 353.167 213.603 353.437 213.245 353.823V359.694H211.646V351.608H213.245V352.672C214.06 351.857 214.856 351.45 215.636 351.45C216.661 351.45 217.455 351.937 218.018 352.909C218.873 351.925 219.767 351.433 220.698 351.433C221.483 351.433 222.128 351.72 222.632 352.294C223.142 352.868 223.396 353.744 223.396 354.922V359.694H221.797V354.904C221.797 354.23 221.659 353.715 221.384 353.357C221.108 353 220.713 352.821 220.197 352.821C219.535 352.821 218.917 353.155 218.343 353.823ZM230.577 347.416H232.177V352.672C232.845 351.857 233.674 351.45 234.664 351.45C235.203 351.45 235.687 351.585 236.114 351.854C236.542 352.124 236.858 352.496 237.063 352.971C237.274 353.445 237.38 354.151 237.38 355.089V359.694H235.78V354.693C235.78 354.102 235.634 353.627 235.341 353.27C235.054 352.906 234.673 352.725 234.198 352.725C233.847 352.725 233.516 352.815 233.205 352.997C232.895 353.179 232.552 353.48 232.177 353.902V359.694H230.577V347.416ZM240.351 348.207C240.614 348.207 240.84 348.301 241.027 348.488C241.215 348.67 241.309 348.89 241.309 349.147C241.309 349.417 241.218 349.643 241.036 349.824C240.86 350.006 240.638 350.097 240.368 350.097C240.116 350.097 239.894 350.003 239.7 349.815C239.507 349.628 239.41 349.405 239.41 349.147C239.41 348.901 239.504 348.685 239.691 348.497C239.885 348.304 240.104 348.207 240.351 348.207ZM239.595 351.608H241.194V360.846C241.194 362.246 240.655 363.236 239.577 363.816L238.391 362.647C238.76 362.519 239.053 362.293 239.27 361.971C239.486 361.648 239.595 361.273 239.595 360.846V351.608ZM248.647 354.834V358.271C248.647 358.546 248.741 358.684 248.929 358.684C249.122 358.684 249.424 358.54 249.834 358.253V359.229C249.471 359.463 249.178 359.621 248.955 359.703C248.738 359.791 248.51 359.835 248.27 359.835C247.584 359.835 247.18 359.565 247.057 359.026C246.377 359.554 245.653 359.817 244.886 359.817C244.323 359.817 243.854 359.633 243.479 359.264C243.104 358.889 242.917 358.42 242.917 357.857C242.917 357.348 243.099 356.894 243.462 356.495C243.831 356.091 244.353 355.771 245.026 355.537L247.074 354.834V354.403C247.074 353.431 246.588 352.944 245.615 352.944C244.742 352.944 243.893 353.396 243.066 354.298V352.549C243.688 351.816 244.581 351.45 245.747 351.45C246.62 351.45 247.32 351.679 247.848 352.136C248.023 352.282 248.182 352.479 248.322 352.725C248.463 352.965 248.551 353.208 248.586 353.454C248.627 353.694 248.647 354.154 248.647 354.834ZM247.074 358.095V355.695L246.002 356.108C245.457 356.325 245.07 356.545 244.842 356.768C244.619 356.984 244.508 357.257 244.508 357.585C244.508 357.919 244.613 358.191 244.824 358.402C245.041 358.613 245.319 358.719 245.659 358.719C246.169 358.719 246.641 358.511 247.074 358.095ZM244.578 347.688C244.807 347.688 245.003 347.771 245.167 347.935C245.337 348.099 245.422 348.298 245.422 348.532C245.422 348.767 245.343 348.966 245.185 349.13C245.026 349.288 244.833 349.367 244.604 349.367C244.37 349.367 244.171 349.285 244.007 349.121C243.843 348.951 243.761 348.752 243.761 348.523C243.761 348.289 243.84 348.093 243.998 347.935C244.162 347.771 244.355 347.688 244.578 347.688ZM247.962 347.688C248.19 347.688 248.387 347.771 248.551 347.935C248.721 348.099 248.806 348.298 248.806 348.532C248.806 348.767 248.727 348.966 248.568 349.13C248.41 349.288 248.217 349.367 247.988 349.367C247.754 349.367 247.555 349.285 247.391 349.121C247.227 348.951 247.145 348.752 247.145 348.523C247.145 348.289 247.224 348.093 247.382 347.935C247.546 347.771 247.739 347.688 247.962 347.688ZM251.284 347.416H252.884V359.694H251.284V347.416ZM255.099 363.816V351.608H257.902C259.338 351.608 260.454 351.966 261.251 352.681C262.054 353.396 262.455 354.395 262.455 355.678C262.455 356.891 262.077 357.887 261.321 358.666C260.571 359.445 259.613 359.835 258.447 359.835C257.932 359.835 257.36 359.721 256.733 359.492V363.816H255.099ZM257.867 353.103H256.733V358.077C257.226 358.329 257.741 358.455 258.28 358.455C259.03 358.455 259.643 358.194 260.117 357.673C260.598 357.151 260.838 356.48 260.838 355.66C260.838 355.133 260.724 354.667 260.495 354.263C260.272 353.858 259.965 353.565 259.572 353.384C259.186 353.196 258.617 353.103 257.867 353.103ZM271.095 355.792H265.408C265.449 356.565 265.707 357.181 266.182 357.638C266.662 358.095 267.28 358.323 268.036 358.323C269.091 358.323 270.063 357.995 270.954 357.339V358.903C270.462 359.231 269.973 359.466 269.486 359.606C269.006 359.747 268.44 359.817 267.79 359.817C266.899 359.817 266.179 359.633 265.628 359.264C265.077 358.895 264.635 358.399 264.301 357.778C263.973 357.151 263.809 356.428 263.809 355.607C263.809 354.377 264.157 353.378 264.854 352.61C265.552 351.837 266.457 351.45 267.57 351.45C268.643 351.45 269.498 351.825 270.137 352.575C270.775 353.325 271.095 354.33 271.095 355.59V355.792ZM265.443 354.834H269.513C269.472 354.195 269.281 353.703 268.941 353.357C268.602 353.012 268.145 352.839 267.57 352.839C266.996 352.839 266.524 353.012 266.155 353.357C265.792 353.703 265.555 354.195 265.443 354.834ZM274.549 351.608V353.463L274.637 353.322C275.41 352.074 276.184 351.45 276.957 351.45C277.561 351.45 278.19 351.755 278.847 352.364L278.003 353.771C277.446 353.243 276.931 352.979 276.456 352.979C275.94 352.979 275.492 353.226 275.111 353.718C274.736 354.21 274.549 354.793 274.549 355.467V359.694H272.94V351.608H274.549ZM290.378 347.416H291.986V359.694H288.567C287.372 359.694 286.417 359.316 285.702 358.561C284.993 357.805 284.639 356.791 284.639 355.52C284.639 354.33 285.011 353.352 285.755 352.584C286.505 351.816 287.46 351.433 288.62 351.433C289.159 351.433 289.745 351.547 290.378 351.775V347.416ZM290.378 358.323V353.199C289.88 352.947 289.376 352.821 288.866 352.821C288.069 352.821 287.434 353.082 286.959 353.604C286.49 354.125 286.256 354.828 286.256 355.713C286.256 356.545 286.461 357.187 286.871 357.638C287.117 357.907 287.378 358.089 287.653 358.183C287.929 358.276 288.424 358.323 289.139 358.323H290.378ZM294.983 348.207C295.247 348.207 295.473 348.298 295.66 348.479C295.848 348.661 295.941 348.884 295.941 349.147C295.941 349.405 295.848 349.628 295.66 349.815C295.473 350.003 295.247 350.097 294.983 350.097C294.737 350.097 294.521 350.003 294.333 349.815C294.146 349.622 294.052 349.399 294.052 349.147C294.052 348.901 294.146 348.685 294.333 348.497C294.521 348.304 294.737 348.207 294.983 348.207ZM294.192 351.608H295.792V359.694H294.192V351.608ZM297.699 354.403C297.699 353.542 298.013 352.862 298.64 352.364C299.272 351.86 300.134 351.608 301.224 351.608H304.555V352.856H302.92C303.236 353.179 303.456 353.472 303.579 353.735C303.702 353.999 303.764 354.301 303.764 354.641C303.764 355.062 303.644 355.479 303.403 355.889C303.163 356.293 302.853 356.604 302.472 356.82C302.097 357.037 301.479 357.21 300.617 357.339C300.014 357.427 299.712 357.635 299.712 357.963C299.712 358.15 299.823 358.306 300.046 358.429C300.274 358.546 300.685 358.669 301.276 358.798C302.267 359.015 302.902 359.185 303.184 359.308C303.471 359.431 303.729 359.606 303.957 359.835C304.344 360.222 304.537 360.708 304.537 361.294C304.537 362.062 304.194 362.674 303.509 363.131C302.829 363.588 301.918 363.816 300.775 363.816C299.621 363.816 298.698 363.585 298.007 363.122C297.321 362.665 296.979 362.05 296.979 361.276C296.979 360.181 297.655 359.475 299.009 359.158C298.47 358.812 298.2 358.47 298.2 358.13C298.2 357.872 298.314 357.638 298.543 357.427C298.777 357.216 299.091 357.061 299.483 356.961C298.294 356.434 297.699 355.581 297.699 354.403ZM300.705 352.997C300.271 352.997 299.902 353.144 299.598 353.437C299.293 353.729 299.141 354.081 299.141 354.491C299.141 354.907 299.29 355.253 299.589 355.528C299.888 355.798 300.266 355.933 300.723 355.933C301.174 355.933 301.549 355.795 301.848 355.52C302.152 355.238 302.305 354.89 302.305 354.474C302.305 354.052 302.152 353.7 301.848 353.419C301.543 353.138 301.162 352.997 300.705 352.997ZM300.327 360.072C299.788 360.072 299.346 360.187 299 360.415C298.66 360.644 298.49 360.937 298.49 361.294C298.49 362.126 299.24 362.542 300.74 362.542C301.449 362.542 301.997 362.437 302.384 362.226C302.776 362.021 302.973 361.728 302.973 361.347C302.973 360.972 302.727 360.664 302.234 360.424C301.742 360.189 301.106 360.072 300.327 360.072ZM38.624 378.834V382.271C38.624 382.546 38.7178 382.684 38.9053 382.684C39.0986 382.684 39.4004 382.54 39.8105 382.253V383.229C39.4473 383.463 39.1543 383.621 38.9316 383.703C38.7148 383.791 38.4863 383.835 38.2461 383.835C37.5605 383.835 37.1562 383.565 37.0332 383.026C36.3535 383.554 35.6299 383.817 34.8623 383.817C34.2998 383.817 33.8311 383.633 33.4561 383.264C33.0811 382.889 32.8936 382.42 32.8936 381.857C32.8936 381.348 33.0752 380.894 33.4385 380.495C33.8076 380.091 34.3291 379.771 35.0029 379.537L37.0508 378.834V378.403C37.0508 377.431 36.5645 376.944 35.5918 376.944C34.7188 376.944 33.8691 377.396 33.043 378.298V376.549C33.6641 375.816 34.5576 375.45 35.7236 375.45C36.5967 375.45 37.2969 375.679 37.8242 376.136C38 376.282 38.1582 376.479 38.2988 376.725C38.4395 376.965 38.5273 377.208 38.5625 377.454C38.6035 377.694 38.624 378.154 38.624 378.834ZM37.0508 382.095V379.695L35.9785 380.108C35.4336 380.325 35.0469 380.545 34.8184 380.768C34.5957 380.984 34.4844 381.257 34.4844 381.585C34.4844 381.919 34.5898 382.191 34.8008 382.402C35.0176 382.613 35.2959 382.719 35.6357 382.719C36.1455 382.719 36.6172 382.511 37.0508 382.095ZM40.0918 376.892L43.0977 373.938V375.608H45.6553V377.05H43.0977V381.014C43.0977 381.939 43.4814 382.402 44.249 382.402C44.8232 382.402 45.4297 382.209 46.0684 381.822V383.316C45.4531 383.662 44.7822 383.835 44.0557 383.835C43.3232 383.835 42.7139 383.621 42.2275 383.193C42.0752 383.064 41.9492 382.921 41.8496 382.763C41.75 382.599 41.665 382.388 41.5947 382.13C41.5303 381.866 41.498 381.368 41.498 380.636V377.05H40.0918V376.892ZM46.0859 376.892L49.0918 373.938V375.608H51.6494V377.05H49.0918V381.014C49.0918 381.939 49.4756 382.402 50.2432 382.402C50.8174 382.402 51.4238 382.209 52.0625 381.822V383.316C51.4473 383.662 50.7764 383.835 50.0498 383.835C49.3174 383.835 48.708 383.621 48.2217 383.193C48.0693 383.064 47.9434 382.921 47.8438 382.763C47.7441 382.599 47.6592 382.388 47.5889 382.13C47.5244 381.866 47.4922 381.368 47.4922 380.636V377.05H46.0859V376.892ZM58.1885 371.416H59.7881V376.672C60.4561 375.857 61.2852 375.45 62.2754 375.45C62.8145 375.45 63.2979 375.585 63.7256 375.854C64.1533 376.124 64.4697 376.496 64.6748 376.971C64.8857 377.445 64.9912 378.151 64.9912 379.089V383.694H63.3916V378.693C63.3916 378.102 63.2451 377.627 62.9521 377.27C62.665 376.906 62.2842 376.725 61.8096 376.725C61.458 376.725 61.127 376.815 60.8164 376.997C60.5059 377.179 60.1631 377.48 59.7881 377.902V383.694H58.1885V371.416ZM68.0498 372.207C68.3135 372.207 68.5391 372.298 68.7266 372.479C68.9141 372.661 69.0078 372.884 69.0078 373.147C69.0078 373.405 68.9141 373.628 68.7266 373.815C68.5391 374.003 68.3135 374.097 68.0498 374.097C67.8037 374.097 67.5869 374.003 67.3994 373.815C67.2119 373.622 67.1182 373.399 67.1182 373.147C67.1182 372.901 67.2119 372.685 67.3994 372.497C67.5869 372.304 67.8037 372.207 68.0498 372.207ZM67.2588 375.608H68.8584V383.694H67.2588V375.608ZM70.0449 376.892L73.0508 373.938V375.608H75.6084V377.05H73.0508V381.014C73.0508 381.939 73.4346 382.402 74.2021 382.402C74.7764 382.402 75.3828 382.209 76.0215 381.822V383.316C75.4062 383.662 74.7354 383.835 74.0088 383.835C73.2764 383.835 72.667 383.621 72.1807 383.193C72.0283 383.064 71.9023 382.921 71.8027 382.763C71.7031 382.599 71.6182 382.388 71.5479 382.13C71.4834 381.866 71.4512 381.368 71.4512 380.636V377.05H70.0449V376.892ZM76.0391 376.892L79.0449 373.938V375.608H81.6025V377.05H79.0449V381.014C79.0449 381.939 79.4287 382.402 80.1963 382.402C80.7705 382.402 81.377 382.209 82.0156 381.822V383.316C81.4004 383.662 80.7295 383.835 80.0029 383.835C79.2705 383.835 78.6611 383.621 78.1748 383.193C78.0225 383.064 77.8965 382.921 77.7969 382.763C77.6973 382.599 77.6123 382.388 77.542 382.13C77.4775 381.866 77.4453 381.368 77.4453 380.636V377.05H76.0391V376.892ZM88.2471 378.834V382.271C88.2471 382.546 88.3408 382.684 88.5283 382.684C88.7217 382.684 89.0234 382.54 89.4336 382.253V383.229C89.0703 383.463 88.7773 383.621 88.5547 383.703C88.3379 383.791 88.1094 383.835 87.8691 383.835C87.1836 383.835 86.7793 383.565 86.6562 383.026C85.9766 383.554 85.2529 383.817 84.4854 383.817C83.9229 383.817 83.4541 383.633 83.0791 383.264C82.7041 382.889 82.5166 382.42 82.5166 381.857C82.5166 381.348 82.6982 380.894 83.0615 380.495C83.4307 380.091 83.9521 379.771 84.626 379.537L86.6738 378.834V378.403C86.6738 377.431 86.1875 376.944 85.2148 376.944C84.3418 376.944 83.4922 377.396 82.666 378.298V376.549C83.2871 375.816 84.1807 375.45 85.3467 375.45C86.2197 375.45 86.9199 375.679 87.4473 376.136C87.623 376.282 87.7812 376.479 87.9219 376.725C88.0625 376.965 88.1504 377.208 88.1855 377.454C88.2266 377.694 88.2471 378.154 88.2471 378.834ZM86.6738 382.095V379.695L85.6016 380.108C85.0566 380.325 84.6699 380.545 84.4414 380.768C84.2188 380.984 84.1074 381.257 84.1074 381.585C84.1074 381.919 84.2129 382.191 84.4238 382.402C84.6406 382.613 84.9189 382.719 85.2588 382.719C85.7686 382.719 86.2402 382.511 86.6738 382.095ZM101.255 371.416H102.863V383.694H99.4443C98.249 383.694 97.2939 383.316 96.5791 382.561C95.8701 381.805 95.5156 380.791 95.5156 379.52C95.5156 378.33 95.8877 377.352 96.6318 376.584C97.3818 375.816 98.3369 375.433 99.4971 375.433C100.036 375.433 100.622 375.547 101.255 375.775V371.416ZM101.255 382.323V377.199C100.757 376.947 100.253 376.821 99.7432 376.821C98.9463 376.821 98.3105 377.082 97.8359 377.604C97.3672 378.125 97.1328 378.828 97.1328 379.713C97.1328 380.545 97.3379 381.187 97.748 381.638C97.9941 381.907 98.2549 382.089 98.5303 382.183C98.8057 382.276 99.3008 382.323 100.016 382.323H101.255ZM111.925 379.792H106.238C106.279 380.565 106.537 381.181 107.012 381.638C107.492 382.095 108.11 382.323 108.866 382.323C109.921 382.323 110.894 381.995 111.784 381.339V382.903C111.292 383.231 110.803 383.466 110.316 383.606C109.836 383.747 109.271 383.817 108.62 383.817C107.729 383.817 107.009 383.633 106.458 383.264C105.907 382.895 105.465 382.399 105.131 381.778C104.803 381.151 104.639 380.428 104.639 379.607C104.639 378.377 104.987 377.378 105.685 376.61C106.382 375.837 107.287 375.45 108.4 375.45C109.473 375.45 110.328 375.825 110.967 376.575C111.605 377.325 111.925 378.33 111.925 379.59V379.792ZM106.273 378.834H110.343C110.302 378.195 110.111 377.703 109.771 377.357C109.432 377.012 108.975 376.839 108.4 376.839C107.826 376.839 107.354 377.012 106.985 377.357C106.622 377.703 106.385 378.195 106.273 378.834ZM115.265 375.608V376.637C115.979 375.846 116.791 375.45 117.699 375.45C118.203 375.45 118.672 375.582 119.105 375.846C119.539 376.104 119.867 376.461 120.09 376.918C120.318 377.369 120.433 378.087 120.433 379.071V383.694H118.833V379.089C118.833 378.263 118.707 377.674 118.455 377.322C118.203 376.965 117.781 376.786 117.189 376.786C116.434 376.786 115.792 377.164 115.265 377.92V383.694H113.63V375.608H115.265ZM127.569 387.816V375.608H130.373C131.809 375.608 132.925 375.966 133.722 376.681C134.524 377.396 134.926 378.395 134.926 379.678C134.926 380.891 134.548 381.887 133.792 382.666C133.042 383.445 132.084 383.835 130.918 383.835C130.402 383.835 129.831 383.721 129.204 383.492V387.816H127.569ZM130.338 377.103H129.204V382.077C129.696 382.329 130.212 382.455 130.751 382.455C131.501 382.455 132.113 382.194 132.588 381.673C133.068 381.151 133.309 380.48 133.309 379.66C133.309 379.133 133.194 378.667 132.966 378.263C132.743 377.858 132.436 377.565 132.043 377.384C131.656 377.196 131.088 377.103 130.338 377.103ZM143.565 379.792H137.879C137.92 380.565 138.178 381.181 138.652 381.638C139.133 382.095 139.751 382.323 140.507 382.323C141.562 382.323 142.534 381.995 143.425 381.339V382.903C142.933 383.231 142.443 383.466 141.957 383.606C141.477 383.747 140.911 383.817 140.261 383.817C139.37 383.817 138.649 383.633 138.099 383.264C137.548 382.895 137.105 382.399 136.771 381.778C136.443 381.151 136.279 380.428 136.279 379.607C136.279 378.377 136.628 377.378 137.325 376.61C138.022 375.837 138.928 375.45 140.041 375.45C141.113 375.45 141.969 375.825 142.607 376.575C143.246 377.325 143.565 378.33 143.565 379.59V379.792ZM137.914 378.834H141.983C141.942 378.195 141.752 377.703 141.412 377.357C141.072 377.012 140.615 376.839 140.041 376.839C139.467 376.839 138.995 377.012 138.626 377.357C138.263 377.703 138.025 378.195 137.914 378.834ZM147.02 375.608V377.463L147.107 377.322C147.881 376.074 148.654 375.45 149.428 375.45C150.031 375.45 150.661 375.755 151.317 376.364L150.474 377.771C149.917 377.243 149.401 376.979 148.927 376.979C148.411 376.979 147.963 377.226 147.582 377.718C147.207 378.21 147.02 378.793 147.02 379.467V383.694H145.411V375.608H147.02ZM152.627 375.608V375.125C152.627 373.824 152.902 372.854 153.453 372.216C154.01 371.577 154.675 371.258 155.448 371.258C155.782 371.258 156.178 371.311 156.635 371.416V372.98C156.377 372.887 156.131 372.84 155.896 372.84C155.27 372.84 154.833 373.007 154.587 373.341C154.347 373.675 154.227 374.27 154.227 375.125V375.608H155.668V377.05H154.227V383.694H152.627V377.05H151.467V375.608H152.627ZM163.833 379.792H158.146C158.188 380.565 158.445 381.181 158.92 381.638C159.4 382.095 160.019 382.323 160.774 382.323C161.829 382.323 162.802 381.995 163.692 381.339V382.903C163.2 383.231 162.711 383.466 162.225 383.606C161.744 383.747 161.179 383.817 160.528 383.817C159.638 383.817 158.917 383.633 158.366 383.264C157.815 382.895 157.373 382.399 157.039 381.778C156.711 381.151 156.547 380.428 156.547 379.607C156.547 378.377 156.896 377.378 157.593 376.61C158.29 375.837 159.195 375.45 160.309 375.45C161.381 375.45 162.236 375.825 162.875 376.575C163.514 377.325 163.833 378.33 163.833 379.59V379.792ZM158.182 378.834H162.251C162.21 378.195 162.02 377.703 161.68 377.357C161.34 377.012 160.883 376.839 160.309 376.839C159.734 376.839 159.263 377.012 158.894 377.357C158.53 377.703 158.293 378.195 158.182 378.834ZM170.829 375.608H172.736L169.282 379.572L173.439 383.694H171.295L167.243 379.572L170.829 375.608ZM165.573 371.416H167.173V383.694H165.573V371.416ZM173.07 376.892L176.076 373.938V375.608H178.634V377.05H176.076V381.014C176.076 381.939 176.46 382.402 177.228 382.402C177.802 382.402 178.408 382.209 179.047 381.822V383.316C178.432 383.662 177.761 383.835 177.034 383.835C176.302 383.835 175.692 383.621 175.206 383.193C175.054 383.064 174.928 382.921 174.828 382.763C174.729 382.599 174.644 382.388 174.573 382.13C174.509 381.866 174.477 381.368 174.477 380.636V377.05H173.07V376.892ZM185.278 378.834V382.271C185.278 382.546 185.372 382.684 185.56 382.684C185.753 382.684 186.055 382.54 186.465 382.253V383.229C186.102 383.463 185.809 383.621 185.586 383.703C185.369 383.791 185.141 383.835 184.9 383.835C184.215 383.835 183.811 383.565 183.688 383.026C183.008 383.554 182.284 383.817 181.517 383.817C180.954 383.817 180.485 383.633 180.11 383.264C179.735 382.889 179.548 382.42 179.548 381.857C179.548 381.348 179.729 380.894 180.093 380.495C180.462 380.091 180.983 379.771 181.657 379.537L183.705 378.834V378.403C183.705 377.431 183.219 376.944 182.246 376.944C181.373 376.944 180.523 377.396 179.697 378.298V376.549C180.318 375.816 181.212 375.45 182.378 375.45C183.251 375.45 183.951 375.679 184.479 376.136C184.654 376.282 184.812 376.479 184.953 376.725C185.094 376.965 185.182 377.208 185.217 377.454C185.258 377.694 185.278 378.154 185.278 378.834ZM183.705 382.095V379.695L182.633 380.108C182.088 380.325 181.701 380.545 181.473 380.768C181.25 380.984 181.139 381.257 181.139 381.585C181.139 381.919 181.244 382.191 181.455 382.402C181.672 382.613 181.95 382.719 182.29 382.719C182.8 382.719 183.271 382.511 183.705 382.095ZM192.854 371.416H194.454V376.672C195.122 375.857 195.951 375.45 196.941 375.45C197.48 375.45 197.964 375.585 198.392 375.854C198.819 376.124 199.136 376.496 199.341 376.971C199.552 377.445 199.657 378.151 199.657 379.089V383.694H198.058V378.693C198.058 378.102 197.911 377.627 197.618 377.27C197.331 376.906 196.95 376.725 196.476 376.725C196.124 376.725 195.793 376.815 195.482 376.997C195.172 377.179 194.829 377.48 194.454 377.902V383.694H192.854V371.416ZM206.838 375.608H208.64L202.918 387.816H201.134L203.885 381.963L200.756 375.608H202.575L204.755 380.17L206.838 375.608ZM211.496 375.608V377.463L211.584 377.322C212.357 376.074 213.131 375.45 213.904 375.45C214.508 375.45 215.138 375.755 215.794 376.364L214.95 377.771C214.394 377.243 213.878 376.979 213.403 376.979C212.888 376.979 212.439 377.226 212.059 377.718C211.684 378.21 211.496 378.793 211.496 379.467V383.694H209.888V375.608H211.496ZM223.81 379.792H218.123C218.164 380.565 218.422 381.181 218.896 381.638C219.377 382.095 219.995 382.323 220.751 382.323C221.806 382.323 222.778 381.995 223.669 381.339V382.903C223.177 383.231 222.688 383.466 222.201 383.606C221.721 383.747 221.155 383.817 220.505 383.817C219.614 383.817 218.894 383.633 218.343 383.264C217.792 382.895 217.35 382.399 217.016 381.778C216.688 381.151 216.523 380.428 216.523 379.607C216.523 378.377 216.872 377.378 217.569 376.61C218.267 375.837 219.172 375.45 220.285 375.45C221.357 375.45 222.213 375.825 222.852 376.575C223.49 377.325 223.81 378.33 223.81 379.59V379.792ZM218.158 378.834H222.228C222.187 378.195 221.996 377.703 221.656 377.357C221.316 377.012 220.859 376.839 220.285 376.839C219.711 376.839 219.239 377.012 218.87 377.357C218.507 377.703 218.27 378.195 218.158 378.834ZM225.154 383.114V381.392C225.605 381.708 226.065 381.966 226.534 382.165C227.009 382.358 227.407 382.455 227.729 382.455C228.063 382.455 228.351 382.373 228.591 382.209C228.831 382.045 228.951 381.849 228.951 381.62C228.951 381.386 228.872 381.192 228.714 381.04C228.562 380.882 228.228 380.656 227.712 380.363C226.681 379.789 226.004 379.3 225.682 378.896C225.365 378.485 225.207 378.04 225.207 377.56C225.207 376.938 225.447 376.432 225.928 376.039C226.414 375.646 227.038 375.45 227.8 375.45C228.591 375.45 229.402 375.673 230.234 376.118V377.7C229.285 377.126 228.509 376.839 227.905 376.839C227.595 376.839 227.343 376.906 227.149 377.041C226.962 377.17 226.868 377.343 226.868 377.56C226.868 377.747 226.953 377.926 227.123 378.096C227.299 378.266 227.604 378.471 228.037 378.711L228.608 379.036C229.956 379.798 230.63 380.642 230.63 381.567C230.63 382.229 230.369 382.774 229.848 383.202C229.332 383.624 228.667 383.835 227.853 383.835C227.372 383.835 226.944 383.785 226.569 383.686C226.194 383.58 225.723 383.39 225.154 383.114ZM232.062 378.403C232.062 377.542 232.376 376.862 233.003 376.364C233.636 375.86 234.497 375.608 235.587 375.608H238.918V376.856H237.283C237.6 377.179 237.819 377.472 237.942 377.735C238.065 377.999 238.127 378.301 238.127 378.641C238.127 379.062 238.007 379.479 237.767 379.889C237.526 380.293 237.216 380.604 236.835 380.82C236.46 381.037 235.842 381.21 234.98 381.339C234.377 381.427 234.075 381.635 234.075 381.963C234.075 382.15 234.187 382.306 234.409 382.429C234.638 382.546 235.048 382.669 235.64 382.798C236.63 383.015 237.266 383.185 237.547 383.308C237.834 383.431 238.092 383.606 238.32 383.835C238.707 384.222 238.9 384.708 238.9 385.294C238.9 386.062 238.558 386.674 237.872 387.131C237.192 387.588 236.281 387.816 235.139 387.816C233.984 387.816 233.062 387.585 232.37 387.122C231.685 386.665 231.342 386.05 231.342 385.276C231.342 384.181 232.019 383.475 233.372 383.158C232.833 382.812 232.563 382.47 232.563 382.13C232.563 381.872 232.678 381.638 232.906 381.427C233.141 381.216 233.454 381.061 233.847 380.961C232.657 380.434 232.062 379.581 232.062 378.403ZM235.068 376.997C234.635 376.997 234.266 377.144 233.961 377.437C233.656 377.729 233.504 378.081 233.504 378.491C233.504 378.907 233.653 379.253 233.952 379.528C234.251 379.798 234.629 379.933 235.086 379.933C235.537 379.933 235.912 379.795 236.211 379.52C236.516 379.238 236.668 378.89 236.668 378.474C236.668 378.052 236.516 377.7 236.211 377.419C235.906 377.138 235.525 376.997 235.068 376.997ZM234.69 384.072C234.151 384.072 233.709 384.187 233.363 384.415C233.023 384.644 232.854 384.937 232.854 385.294C232.854 386.126 233.604 386.542 235.104 386.542C235.812 386.542 236.36 386.437 236.747 386.226C237.14 386.021 237.336 385.728 237.336 385.347C237.336 384.972 237.09 384.664 236.598 384.424C236.105 384.189 235.47 384.072 234.69 384.072ZM245.237 378.834V382.271C245.237 382.546 245.331 382.684 245.519 382.684C245.712 382.684 246.014 382.54 246.424 382.253V383.229C246.061 383.463 245.768 383.621 245.545 383.703C245.328 383.791 245.1 383.835 244.859 383.835C244.174 383.835 243.77 383.565 243.646 383.026C242.967 383.554 242.243 383.817 241.476 383.817C240.913 383.817 240.444 383.633 240.069 383.264C239.694 382.889 239.507 382.42 239.507 381.857C239.507 381.348 239.688 380.894 240.052 380.495C240.421 380.091 240.942 379.771 241.616 379.537L243.664 378.834V378.403C243.664 377.431 243.178 376.944 242.205 376.944C241.332 376.944 240.482 377.396 239.656 378.298V376.549C240.277 375.816 241.171 375.45 242.337 375.45C243.21 375.45 243.91 375.679 244.438 376.136C244.613 376.282 244.771 376.479 244.912 376.725C245.053 376.965 245.141 377.208 245.176 377.454C245.217 377.694 245.237 378.154 245.237 378.834ZM243.664 382.095V379.695L242.592 380.108C242.047 380.325 241.66 380.545 241.432 380.768C241.209 380.984 241.098 381.257 241.098 381.585C241.098 381.919 241.203 382.191 241.414 382.402C241.631 382.613 241.909 382.719 242.249 382.719C242.759 382.719 243.23 382.511 243.664 382.095ZM241.168 371.688C241.396 371.688 241.593 371.771 241.757 371.935C241.927 372.099 242.012 372.298 242.012 372.532C242.012 372.767 241.933 372.966 241.774 373.13C241.616 373.288 241.423 373.367 241.194 373.367C240.96 373.367 240.761 373.285 240.597 373.121C240.433 372.951 240.351 372.752 240.351 372.523C240.351 372.289 240.43 372.093 240.588 371.935C240.752 371.771 240.945 371.688 241.168 371.688ZM244.552 371.688C244.78 371.688 244.977 371.771 245.141 371.935C245.311 372.099 245.396 372.298 245.396 372.532C245.396 372.767 245.316 372.966 245.158 373.13C245 373.288 244.807 373.367 244.578 373.367C244.344 373.367 244.145 373.285 243.98 373.121C243.816 372.951 243.734 372.752 243.734 372.523C243.734 372.289 243.813 372.093 243.972 371.935C244.136 371.771 244.329 371.688 244.552 371.688ZM247.443 383.114V381.392C247.895 381.708 248.354 381.966 248.823 382.165C249.298 382.358 249.696 382.455 250.019 382.455C250.353 382.455 250.64 382.373 250.88 382.209C251.12 382.045 251.24 381.849 251.24 381.62C251.24 381.386 251.161 381.192 251.003 381.04C250.851 380.882 250.517 380.656 250.001 380.363C248.97 379.789 248.293 379.3 247.971 378.896C247.654 378.485 247.496 378.04 247.496 377.56C247.496 376.938 247.736 376.432 248.217 376.039C248.703 375.646 249.327 375.45 250.089 375.45C250.88 375.45 251.691 375.673 252.523 376.118V377.7C251.574 377.126 250.798 376.839 250.194 376.839C249.884 376.839 249.632 376.906 249.438 377.041C249.251 377.17 249.157 377.343 249.157 377.56C249.157 377.747 249.242 377.926 249.412 378.096C249.588 378.266 249.893 378.471 250.326 378.711L250.897 379.036C252.245 379.798 252.919 380.642 252.919 381.567C252.919 382.229 252.658 382.774 252.137 383.202C251.621 383.624 250.956 383.835 250.142 383.835C249.661 383.835 249.233 383.785 248.858 383.686C248.483 383.58 248.012 383.39 247.443 383.114ZM253.631 376.892L256.637 373.938V375.608H259.194V377.05H256.637V381.014C256.637 381.939 257.021 382.402 257.788 382.402C258.362 382.402 258.969 382.209 259.607 381.822V383.316C258.992 383.662 258.321 383.835 257.595 383.835C256.862 383.835 256.253 383.621 255.767 383.193C255.614 383.064 255.488 382.921 255.389 382.763C255.289 382.599 255.204 382.388 255.134 382.13C255.069 381.866 255.037 381.368 255.037 380.636V377.05H253.631V376.892ZM267.649 379.792H261.963C262.004 380.565 262.262 381.181 262.736 381.638C263.217 382.095 263.835 382.323 264.591 382.323C265.646 382.323 266.618 381.995 267.509 381.339V382.903C267.017 383.231 266.527 383.466 266.041 383.606C265.561 383.747 264.995 383.817 264.345 383.817C263.454 383.817 262.733 383.633 262.183 383.264C261.632 382.895 261.189 382.399 260.855 381.778C260.527 381.151 260.363 380.428 260.363 379.607C260.363 378.377 260.712 377.378 261.409 376.61C262.106 375.837 263.012 375.45 264.125 375.45C265.197 375.45 266.053 375.825 266.691 376.575C267.33 377.325 267.649 378.33 267.649 379.59V379.792ZM261.998 378.834H266.067C266.026 378.195 265.836 377.703 265.496 377.357C265.156 377.012 264.699 376.839 264.125 376.839C263.551 376.839 263.079 377.012 262.71 377.357C262.347 377.703 262.109 378.195 261.998 378.834ZM270.989 375.608V376.637C271.704 375.846 272.516 375.45 273.424 375.45C273.928 375.45 274.396 375.582 274.83 375.846C275.264 376.104 275.592 376.461 275.814 376.918C276.043 377.369 276.157 378.087 276.157 379.071V383.694H274.558V379.089C274.558 378.263 274.432 377.674 274.18 377.322C273.928 376.965 273.506 376.786 272.914 376.786C272.158 376.786 271.517 377.164 270.989 377.92V383.694H269.354V375.608H270.989ZM279.216 381.734C279.515 381.734 279.77 381.837 279.98 382.042C280.191 382.247 280.297 382.499 280.297 382.798C280.297 383.091 280.191 383.337 279.98 383.536C279.775 383.735 279.521 383.835 279.216 383.835C278.917 383.835 278.665 383.735 278.46 383.536C278.255 383.337 278.152 383.091 278.152 382.798C278.152 382.499 278.255 382.247 278.46 382.042C278.665 381.837 278.917 381.734 279.216 381.734Z" fill="#171211"/>
<path fill-rule="evenodd" clip-rule="evenodd" d="M336.368 110.351C306.772 111.332 266.629 112.663 204.488 123.83C167.959 130.395 143.323 136.621 122.432 141.901C85.3417 151.275 60.0582 157.665 0.982788 157.665L0.983054 109.684L0.910056 109.684L0.910039 13.2089C0.910038 6.28116 6.52603 0.665176 13.4537 0.665175L341.358 0.665118C348.286 0.665116 353.902 6.28111 353.902 13.2088L353.902 109.682L353.91 109.682C353.907 109.682 353.905 109.682 353.902 109.682L353.902 109.684L353.87 109.684C348.437 109.95 342.639 110.143 336.368 110.351Z" fill="#0E5657"/>
<g clip-path="url(#clip0_754_36295)">
<path d="M257.842 195.679C248.418 191.229 239.831 186.501 230.013 184.98C229.249 184.861 228.495 184.658 227.728 184.582C223.564 184.17 222.236 185.443 222.381 189.599C222.479 192.39 222.8 195.212 222.525 197.971C221.995 203.298 218.97 206.993 213.856 208.455C208.846 209.886 204.154 208.66 200.636 204.752C197.069 200.788 196.66 196.034 198.733 191.195C199.675 188.997 201.07 186.987 202.31 184.922C204.091 181.956 203.662 180.151 200.575 178.568C195.748 176.092 190.46 176.276 185.262 176.211C180.156 176.147 175.046 176.359 169.428 176.459C169.388 170.471 169.131 164.413 169.386 158.376C169.552 154.464 170.006 150.44 171.162 146.723C172.637 141.979 174.858 141.522 178.996 144.218C182.235 146.329 185.447 148.417 189.59 148.339C196.511 148.21 201.776 143.02 201.972 135.952C202.16 129.184 197.073 123.611 190.273 123.346C187.392 123.234 184.494 123.579 181.605 123.565C178.595 123.551 177.61 122.501 177.714 119.487C177.969 112.075 180.751 105.363 183.69 98.7206C185.245 95.2054 187.008 91.7822 188.649 88.377C195.043 91.1501 201.123 94.0374 207.398 96.4111C210.978 97.7657 214.838 98.5223 218.64 99.1132C222.9 99.7753 224.229 98.2944 224.02 93.9072C223.919 91.7876 223.73 89.6681 223.735 87.5485C223.749 81.9157 226.789 77.37 231.667 75.5288C236.188 73.8227 242.37 75.2379 245.593 78.7171C249.03 82.4271 249.849 88.1717 247.478 93.0737C246.515 95.0635 245.251 96.9083 244.104 98.8075C242.298 101.8 242.727 103.567 245.792 105.169C250.609 107.686 255.899 107.473 261.092 107.549C266.194 107.624 271.299 107.402 276.95 107.3C277.006 113.105 277.342 118.959 277.026 124.778C276.787 129.159 276.157 133.631 274.88 137.812C273.685 141.722 271.492 142.039 267.917 139.841C264.482 137.73 261.208 135.31 256.825 135.416C249.99 135.58 244.634 140.708 244.443 147.486C244.244 154.556 249.154 160.086 256.099 160.399C258.882 160.525 261.683 160.191 264.476 160.192C267.877 160.193 269.107 161.163 268.621 164.525C267.963 169.084 267.029 173.693 265.47 178.012C263.319 183.969 260.473 189.675 257.842 195.678L257.842 195.679Z" fill="#E3C7AA"/>
<path d="M81.3011 157.685C85.7573 148.252 90.4904 139.656 92.02 129.831C92.1391 129.067 92.3428 128.313 92.4195 127.545C92.8355 123.378 91.5638 122.051 87.4105 122.2C84.6201 122.3 81.7999 122.623 79.0423 122.351C73.7188 121.826 70.0281 118.802 68.5724 113.688C67.1462 108.676 68.376 103.98 72.2856 100.457C76.2503 96.8843 81.0026 96.4707 85.8363 98.5406C88.0329 99.4812 90.0407 100.874 92.1035 102.113C95.0661 103.893 96.8706 103.462 98.4556 100.372C100.934 95.5398 100.755 90.2493 100.825 85.0485C100.894 79.9397 100.687 74.8273 100.592 69.2064C106.577 69.1614 112.632 68.8982 118.665 69.1483C122.575 69.3103 126.597 69.7614 130.31 70.9139C135.05 72.3853 135.505 74.6075 132.807 78.7497C130.694 81.9925 128.605 85.208 128.678 89.3534C128.801 96.2783 133.983 101.541 141.047 101.731C147.812 101.913 153.386 96.8176 153.657 90.0143C153.772 87.1309 153.43 84.2324 153.447 81.3416C153.464 78.3296 154.513 77.3438 157.526 77.445C164.934 77.6935 171.64 80.4702 178.276 83.4045C181.788 84.9574 185.208 86.7186 188.61 88.3572C185.832 94.7571 182.941 100.843 180.563 107.123C179.205 110.707 178.446 114.57 177.852 118.374C177.186 122.637 178.665 123.965 183.05 123.752C185.169 123.649 187.287 123.458 189.406 123.461C195.035 123.47 199.576 126.508 201.412 131.387C203.113 135.908 201.693 142.094 198.212 145.322C194.501 148.765 188.759 149.589 183.862 147.221C181.874 146.26 180.031 144.996 178.134 143.851C175.145 142.047 173.378 142.477 171.775 145.546C169.254 150.368 169.462 155.66 169.381 160.856C169.302 165.96 169.519 171.069 169.616 176.722C163.814 176.783 157.963 177.125 152.147 176.814C147.769 176.579 143.3 175.953 139.122 174.679C135.215 173.486 134.9 171.293 137.1 167.714C139.214 164.275 141.635 160.998 141.533 156.612C141.375 149.774 136.255 144.419 129.481 144.234C122.415 144.042 116.883 148.96 116.564 155.909C116.436 158.693 116.767 161.496 116.763 164.29C116.759 167.693 115.789 168.924 112.428 168.441C107.872 167.787 103.267 166.857 98.9521 165.301C93.0002 163.154 87.2993 160.312 81.3016 157.685L81.3011 157.685Z" fill="#6A5752"/>
</g>
<defs>
<clipPath id="clip0_754_36295">
<rect width="209" height="151" fill="white" transform="translate(124.66 8.3584) rotate(30)"/>
</clipPath>
</defs>
</svg>
