<svg width="354" height="490" viewBox="0 0 354 490" fill="none" xmlns="http://www.w3.org/2000/svg">
<path d="M0.410156 19.6943C0.410156 10.3055 8.02132 2.69434 17.4102 2.69434H336.41C345.799 2.69434 353.41 10.3055 353.41 19.6943V472.694C353.41 482.083 345.799 489.694 336.41 489.694H17.4102C8.02132 489.694 0.410156 482.083 0.410156 472.694V19.6943Z" fill="#F6ECE3"/>
<path d="M34.0942 262.694H40.0222C44.3382 262.694 46.4182 260.588 46.4182 257.546C46.4182 254.92 44.7542 253.386 42.8562 252.892C44.1562 252.32 45.2482 250.994 45.2482 249.07C45.2482 246.626 43.5582 244.494 40.2302 244.494H34.0942C33.8602 244.494 33.7042 244.65 33.7042 244.884V262.304C33.7042 262.538 33.8602 262.694 34.0942 262.694ZM37.3702 259.418V254.608H39.7622C41.5562 254.608 42.6482 255.336 42.6482 257C42.6482 258.664 41.5562 259.418 39.7622 259.418H37.3702ZM37.3702 251.722V247.77H39.5022C40.8802 247.77 41.7382 248.264 41.7382 249.668C41.7382 251.098 40.8802 251.722 39.5022 251.722H37.3702ZM55.1749 263.006C56.9689 263.006 58.6069 262.486 59.6989 261.394C59.9329 261.186 59.9589 261.004 59.8289 260.822L58.8669 259.496C58.7369 259.314 58.6069 259.288 58.4249 259.392C57.3849 259.99 56.4489 260.172 55.4609 260.172C53.4069 260.172 52.0809 259.288 51.6909 257.676H59.4389C60.5569 257.676 60.8429 256.974 60.8429 255.726C60.8429 252.502 58.6069 249.642 54.7329 249.642C50.8069 249.642 48.1809 252.528 48.1809 256.272C48.1809 260.12 50.9889 263.006 55.1749 263.006ZM51.6389 255.154C51.9509 253.464 53.1729 252.606 54.7589 252.606C56.2929 252.606 57.4369 253.464 57.6449 255.154H51.6389ZM63.6428 262.694H66.4508C66.6848 262.694 66.8408 262.538 66.8408 262.304V255.7C66.8408 253.906 67.8288 252.944 69.3368 252.944C70.8708 252.944 71.7028 253.906 71.7028 255.7V262.304C71.7028 262.538 71.8588 262.694 72.0928 262.694H74.8748C75.1088 262.694 75.2908 262.538 75.2908 262.304V254.894C75.2908 251.566 73.3408 249.642 70.6888 249.642C68.7908 249.642 67.5688 250.578 66.8408 251.878V244.494C66.8408 244.26 66.6848 244.104 66.4508 244.104H63.6428C63.4088 244.104 63.2528 244.26 63.2528 244.494V262.304C63.2528 262.538 63.4088 262.694 63.6428 262.694ZM84.3922 263.006C88.2142 263.006 91.0482 260.094 91.0482 256.324C91.0482 252.554 88.2142 249.642 84.3922 249.642C80.5442 249.642 77.7102 252.554 77.7102 256.324C77.7102 260.094 80.5442 263.006 84.3922 263.006ZM79.7122 246.158C79.7122 247.198 80.5442 247.978 81.5062 247.978C82.4942 247.978 83.3002 247.198 83.3002 246.158C83.3002 245.144 82.4942 244.364 81.5062 244.364C80.5442 244.364 79.7122 245.144 79.7122 246.158ZM81.1682 256.324C81.1682 254.244 82.5722 252.944 84.3922 252.944C86.1862 252.944 87.5902 254.244 87.5902 256.324C87.5902 258.404 86.1862 259.704 84.3922 259.704C82.5722 259.704 81.1682 258.404 81.1682 256.324ZM85.4322 246.158C85.4322 247.198 86.2382 247.978 87.2262 247.978C88.2142 247.978 89.0202 247.198 89.0202 246.158C89.0202 245.144 88.2142 244.364 87.2262 244.364C86.2382 244.364 85.4322 245.144 85.4322 246.158ZM97.0255 262.694H99.8595C100.068 262.694 100.25 262.59 100.328 262.382L105.086 250.396C105.19 250.11 105.06 249.954 104.774 249.954H101.914C101.706 249.954 101.524 250.058 101.446 250.266L98.4555 258.56L95.4395 250.266C95.3615 250.058 95.1795 249.954 94.9715 249.954H92.1115C91.8255 249.954 91.6955 250.11 91.7995 250.396L96.5575 262.382C96.6355 262.59 96.8175 262.694 97.0255 262.694ZM112.837 263.006C114.631 263.006 116.269 262.486 117.361 261.394C117.595 261.186 117.621 261.004 117.491 260.822L116.529 259.496C116.399 259.314 116.269 259.288 116.087 259.392C115.047 259.99 114.111 260.172 113.123 260.172C111.069 260.172 109.743 259.288 109.353 257.676H117.101C118.219 257.676 118.505 256.974 118.505 255.726C118.505 252.502 116.269 249.642 112.395 249.642C108.469 249.642 105.843 252.528 105.843 256.272C105.843 260.12 108.651 263.006 112.837 263.006ZM109.301 255.154C109.613 253.464 110.835 252.606 112.421 252.606C113.955 252.606 115.099 253.464 115.307 255.154H109.301ZM121.305 262.694H124.113C124.347 262.694 124.503 262.538 124.503 262.304V255.934C124.503 254.114 125.439 252.944 127.207 252.944C127.571 252.944 127.857 252.996 128.143 253.074C128.481 253.152 128.663 253.074 128.663 252.762V250.474C128.663 250.24 128.611 250.084 128.429 249.954C128.221 249.798 127.857 249.642 127.259 249.642C125.751 249.642 124.945 250.656 124.503 252.008L124.399 250.37C124.373 250.058 124.243 249.954 124.009 249.954H121.305C121.071 249.954 120.915 250.11 120.915 250.344V262.304C120.915 262.538 121.071 262.694 121.305 262.694ZM141.202 263.006C143.1 263.006 144.478 262.2 145.362 260.9L145.414 262.304C145.414 262.538 145.57 262.694 145.804 262.694H148.326C148.56 262.694 148.742 262.538 148.742 262.304V244.494C148.742 244.26 148.586 244.104 148.352 244.104H145.518C145.284 244.104 145.128 244.26 145.128 244.494V251.436C144.27 250.292 142.97 249.642 141.202 249.642C137.614 249.642 135.144 252.554 135.144 256.324C135.144 260.12 137.614 263.006 141.202 263.006ZM138.654 256.324C138.654 254.296 140.058 252.918 141.956 252.918C143.854 252.918 145.18 254.27 145.18 256.324C145.18 258.378 143.854 259.73 141.956 259.73C140.058 259.73 138.654 258.378 138.654 256.324ZM156.443 263.006C158.341 263.006 159.563 262.07 160.291 260.77L160.395 262.278C160.421 262.59 160.551 262.694 160.785 262.694H163.463C163.697 262.694 163.879 262.538 163.879 262.304V250.344C163.879 250.11 163.697 249.954 163.463 249.954H160.681C160.447 249.954 160.291 250.11 160.291 250.344V256.948C160.291 258.742 159.303 259.704 157.795 259.704C156.261 259.704 155.429 258.742 155.429 256.948V250.344C155.429 250.11 155.273 249.954 155.039 249.954H152.231C151.997 249.954 151.841 250.11 151.841 250.344V257.754C151.841 261.082 153.765 263.006 156.443 263.006ZM178.37 263.006C180.164 263.006 181.802 262.486 182.894 261.394C183.128 261.186 183.154 261.004 183.024 260.822L182.062 259.496C181.932 259.314 181.802 259.288 181.62 259.392C180.58 259.99 179.644 260.172 178.656 260.172C176.602 260.172 175.276 259.288 174.886 257.676H182.634C183.752 257.676 184.038 256.974 184.038 255.726C184.038 252.502 181.802 249.642 177.928 249.642C174.002 249.642 171.376 252.528 171.376 256.272C171.376 260.12 174.184 263.006 178.37 263.006ZM174.834 255.154C175.146 253.464 176.368 252.606 177.954 252.606C179.488 252.606 180.632 253.464 180.84 255.154H174.834ZM185.219 262.694H188.287C188.495 262.694 188.651 262.616 188.755 262.434L190.965 258.716L193.149 262.434C193.253 262.616 193.409 262.694 193.617 262.694H196.685C196.997 262.694 197.127 262.486 196.945 262.226L193.123 256.168L196.789 250.422C196.971 250.162 196.841 249.954 196.529 249.954H193.461C193.253 249.954 193.097 250.032 192.993 250.214L190.965 253.62L188.911 250.214C188.807 250.032 188.651 249.954 188.443 249.954H185.375C185.063 249.954 184.959 250.162 185.115 250.422L188.807 256.168L184.959 262.226C184.803 262.486 184.907 262.694 185.219 262.694ZM204.163 262.85C205.021 262.85 206.321 262.694 206.321 262.096V260.198C206.321 259.938 206.139 259.808 205.853 259.834C205.541 259.86 205.281 259.86 205.047 259.86C204.371 259.86 203.929 259.496 203.929 258.742V252.736H205.931C206.165 252.736 206.321 252.58 206.321 252.346V250.344C206.321 250.11 206.165 249.954 205.931 249.954H203.929V246.964C203.929 246.73 203.773 246.574 203.539 246.574H200.705C200.471 246.574 200.315 246.73 200.315 246.964V249.954H198.703C198.469 249.954 198.313 250.11 198.313 250.344V252.346C198.313 252.58 198.469 252.736 198.703 252.736H200.315V259.132C200.315 261.914 202.135 262.85 204.163 262.85ZM209.004 262.694H211.812C212.046 262.694 212.202 262.538 212.202 262.304V255.934C212.202 254.114 213.138 252.944 214.906 252.944C215.27 252.944 215.556 252.996 215.842 253.074C216.18 253.152 216.362 253.074 216.362 252.762V250.474C216.362 250.24 216.31 250.084 216.128 249.954C215.92 249.798 215.556 249.642 214.958 249.642C213.45 249.642 212.644 250.656 212.202 252.008L212.098 250.37C212.072 250.058 211.942 249.954 211.708 249.954H209.004C208.77 249.954 208.614 250.11 208.614 250.344V262.304C208.614 262.538 208.77 262.694 209.004 262.694ZM223.721 263.006C225.619 263.006 226.997 262.2 227.881 260.9L227.933 262.304C227.933 262.538 228.089 262.694 228.323 262.694H230.845C231.079 262.694 231.261 262.538 231.261 262.304V250.344C231.261 250.11 231.105 249.954 230.871 249.954H228.323C228.089 249.954 227.933 250.11 227.933 250.344L227.881 251.748C227.023 250.422 225.645 249.642 223.721 249.642C220.133 249.642 217.663 252.554 217.663 256.324C217.663 260.12 220.133 263.006 223.721 263.006ZM221.173 256.324C221.173 254.296 222.577 252.918 224.475 252.918C226.373 252.918 227.699 254.27 227.699 256.324C227.699 258.378 226.373 259.73 224.475 259.73C222.577 259.73 221.173 258.378 221.173 256.324ZM239.828 262.694H242.636C242.87 262.694 243.026 262.538 243.026 262.304V255.7C243.026 253.906 244.014 252.944 245.522 252.944C247.056 252.944 247.888 253.906 247.888 255.7V262.304C247.888 262.538 248.044 262.694 248.278 262.694H251.06C251.294 262.694 251.476 262.538 251.476 262.304V254.894C251.476 251.566 249.526 249.642 246.874 249.642C244.976 249.642 243.754 250.578 243.026 251.878V244.494C243.026 244.26 242.87 244.104 242.636 244.104H239.828C239.594 244.104 239.438 244.26 239.438 244.494V262.304C239.438 262.538 239.594 262.694 239.828 262.694ZM256.6 247.692C257.744 247.692 258.576 246.808 258.576 245.69C258.576 244.598 257.744 243.714 256.6 243.714C255.456 243.714 254.598 244.598 254.598 245.69C254.598 246.808 255.456 247.692 256.6 247.692ZM251.842 267.114C251.842 267.27 251.92 267.426 252.076 267.504C252.778 267.842 253.324 267.894 254.026 267.894C256.756 267.894 258.394 266.568 258.394 263.604V250.344C258.394 250.11 258.238 249.954 258.004 249.954H255.17C254.936 249.954 254.78 250.11 254.78 250.344V263.11C254.78 264.046 254.494 264.696 253.246 264.696C252.934 264.696 252.596 264.644 252.18 264.566C251.998 264.54 251.842 264.566 251.842 264.748V267.114ZM266.911 263.006C268.809 263.006 270.187 262.2 271.071 260.9L271.123 262.304C271.123 262.538 271.279 262.694 271.513 262.694H274.035C274.269 262.694 274.451 262.538 274.451 262.304V250.344C274.451 250.11 274.295 249.954 274.061 249.954H271.513C271.279 249.954 271.123 250.11 271.123 250.344L271.071 251.748C270.213 250.422 268.835 249.642 266.911 249.642C263.323 249.642 260.853 252.554 260.853 256.324C260.853 260.12 263.323 263.006 266.911 263.006ZM263.245 246.158C263.245 247.198 264.077 247.978 265.039 247.978C266.027 247.978 266.833 247.198 266.833 246.158C266.833 245.144 266.027 244.364 265.039 244.364C264.077 244.364 263.245 245.144 263.245 246.158ZM264.363 256.324C264.363 254.296 265.767 252.918 267.665 252.918C269.563 252.918 270.889 254.27 270.889 256.324C270.889 258.378 269.563 259.73 267.665 259.73C265.767 259.73 264.363 258.378 264.363 256.324ZM268.965 246.158C268.965 247.198 269.771 247.978 270.759 247.978C271.747 247.978 272.553 247.198 272.553 246.158C272.553 245.144 271.747 244.364 270.759 244.364C269.771 244.364 268.965 245.144 268.965 246.158ZM277.94 262.694H280.774C281.008 262.694 281.164 262.538 281.164 262.304V244.494C281.164 244.26 281.008 244.104 280.774 244.104H277.94C277.706 244.104 277.55 244.26 277.55 244.494V262.304C277.55 262.538 277.706 262.694 277.94 262.694ZM284.643 267.634H287.477C287.711 267.634 287.867 267.478 287.867 267.244V261.186C288.751 262.33 290.077 263.006 291.819 263.006C295.381 263.006 297.851 260.12 297.851 256.324C297.851 252.554 295.381 249.642 291.819 249.642C289.869 249.642 288.517 250.422 287.659 251.748L287.607 250.344C287.607 250.11 287.451 249.954 287.217 249.954H284.643C284.409 249.954 284.253 250.11 284.253 250.344V267.244C284.253 267.478 284.409 267.634 284.643 267.634ZM287.815 256.324C287.815 254.27 289.141 252.918 291.065 252.918C292.937 252.918 294.341 254.296 294.341 256.324C294.341 258.378 292.937 259.73 291.065 259.73C289.141 259.73 287.815 258.378 287.815 256.324ZM35.2902 277.692C36.4342 277.692 37.2662 276.808 37.2662 275.69C37.2662 274.598 36.4342 273.714 35.2902 273.714C34.1462 273.714 33.2882 274.598 33.2882 275.69C33.2882 276.808 34.1462 277.692 35.2902 277.692ZM33.4702 292.304C33.4702 292.538 33.6262 292.694 33.8602 292.694H36.6942C36.9282 292.694 37.0842 292.538 37.0842 292.304V280.344C37.0842 280.11 36.9282 279.954 36.6942 279.954H33.8602C33.6262 279.954 33.4702 280.11 33.4702 280.344V292.304ZM45.6662 292.694H48.4742C48.7082 292.694 48.8642 292.538 48.8642 292.304V285.7C48.8642 283.906 49.8522 282.944 51.3602 282.944C52.8942 282.944 53.7262 283.906 53.7262 285.7V292.304C53.7262 292.538 53.8822 292.694 54.1162 292.694H56.8982C57.1322 292.694 57.3142 292.538 57.3142 292.304V284.894C57.3142 281.566 55.3642 279.642 52.7122 279.642C50.8142 279.642 49.5922 280.578 48.8642 281.878V274.494C48.8642 274.26 48.7082 274.104 48.4742 274.104H45.6662C45.4322 274.104 45.2762 274.26 45.2762 274.494V292.304C45.2762 292.538 45.4322 292.694 45.6662 292.694ZM66.7276 293.006C68.5216 293.006 70.1596 292.486 71.2516 291.394C71.4856 291.186 71.5116 291.004 71.3816 290.822L70.4196 289.496C70.2896 289.314 70.1596 289.288 69.9776 289.392C68.9376 289.99 68.0016 290.172 67.0136 290.172C64.9596 290.172 63.6336 289.288 63.2436 287.676H70.9916C72.1096 287.676 72.3956 286.974 72.3956 285.726C72.3956 282.502 70.1596 279.642 66.2856 279.642C62.3596 279.642 59.7336 282.528 59.7336 286.272C59.7336 290.12 62.5416 293.006 66.7276 293.006ZM63.1916 285.154C63.5036 283.464 64.7256 282.606 66.3116 282.606C67.8456 282.606 68.9896 283.464 69.1976 285.154H63.1916ZM75.1955 292.694H78.0035C78.2375 292.694 78.3935 292.538 78.3935 292.304V285.622C78.3935 283.88 79.1735 282.944 80.5255 282.944C81.9035 282.944 82.5535 283.88 82.5535 285.622V292.304C82.5535 292.538 82.7095 292.694 82.9695 292.694H85.7515C85.9855 292.694 86.1415 292.538 86.1415 292.304V285.622C86.1415 283.88 86.9215 282.944 88.2735 282.944C89.6775 282.944 90.3015 283.88 90.3015 285.622V292.304C90.3015 292.538 90.4575 292.694 90.6915 292.694H93.4995C93.7335 292.694 93.8895 292.538 93.8895 292.304V284.842C93.8895 281.514 92.2255 279.642 89.4955 279.642C87.5195 279.642 86.2715 280.604 85.5695 281.904C84.8675 280.422 83.5935 279.642 81.9555 279.642C80.2135 279.642 79.0695 280.526 78.3675 281.722L78.2895 280.37C78.2895 280.058 78.1335 279.954 77.8995 279.954H75.1955C74.9615 279.954 74.8055 280.11 74.8055 280.344V292.304C74.8055 292.538 74.9615 292.694 75.1955 292.694ZM97.3361 292.694H100.144C100.378 292.694 100.534 292.538 100.534 292.304V285.622C100.534 283.88 101.314 282.944 102.666 282.944C104.044 282.944 104.694 283.88 104.694 285.622V292.304C104.694 292.538 104.85 292.694 105.11 292.694H107.892C108.126 292.694 108.282 292.538 108.282 292.304V285.622C108.282 283.88 109.062 282.944 110.414 282.944C111.818 282.944 112.442 283.88 112.442 285.622V292.304C112.442 292.538 112.598 292.694 112.832 292.694H115.64C115.874 292.694 116.03 292.538 116.03 292.304V284.842C116.03 281.514 114.366 279.642 111.636 279.642C109.66 279.642 108.412 280.604 107.71 281.904C107.008 280.422 105.734 279.642 104.096 279.642C102.354 279.642 101.21 280.526 100.508 281.722L100.43 280.37C100.43 280.058 100.274 279.954 100.04 279.954H97.3361C97.1021 279.954 96.9461 280.11 96.9461 280.344V292.304C96.9461 292.538 97.1021 292.694 97.3361 292.694ZM125.431 293.006C127.225 293.006 128.863 292.486 129.955 291.394C130.189 291.186 130.215 291.004 130.085 290.822L129.123 289.496C128.993 289.314 128.863 289.288 128.681 289.392C127.641 289.99 126.705 290.172 125.717 290.172C123.663 290.172 122.337 289.288 121.947 287.676H129.695C130.813 287.676 131.099 286.974 131.099 285.726C131.099 282.502 128.863 279.642 124.989 279.642C121.063 279.642 118.437 282.528 118.437 286.272C118.437 290.12 121.245 293.006 125.431 293.006ZM121.895 285.154C122.207 283.464 123.429 282.606 125.015 282.606C126.549 282.606 127.693 283.464 127.901 285.154H121.895ZM138.325 292.85C139.183 292.85 140.483 292.694 140.483 292.096V290.198C140.483 289.938 140.301 289.808 140.015 289.834C139.703 289.86 139.443 289.86 139.209 289.86C138.533 289.86 138.091 289.496 138.091 288.742V282.736H140.093C140.327 282.736 140.483 282.58 140.483 282.346V280.344C140.483 280.11 140.327 279.954 140.093 279.954H138.091V276.964C138.091 276.73 137.935 276.574 137.701 276.574H134.867C134.633 276.574 134.477 276.73 134.477 276.964V279.954H132.865C132.631 279.954 132.475 280.11 132.475 280.344V282.346C132.475 282.58 132.631 282.736 132.865 282.736H134.477V289.132C134.477 291.914 136.297 292.85 138.325 292.85ZM145.948 287.078H148.184C148.418 287.078 148.548 286.922 148.574 286.688L148.652 285.7C148.886 282.788 152.396 282.632 152.396 278.81C152.396 275.69 149.848 274.286 147.274 274.286C144.414 274.286 142.49 275.924 141.762 278.082C141.684 278.342 141.736 278.576 142.204 278.836L143.79 279.824C144.05 279.98 144.258 279.98 144.414 279.72C144.778 278.862 145.454 277.77 146.858 277.77C147.95 277.77 148.782 278.42 148.782 279.564C148.782 281.93 145.402 281.774 145.506 285.7L145.532 286.688C145.532 286.922 145.714 287.078 145.948 287.078ZM144.934 290.9C144.934 292.07 145.87 293.032 147.066 293.032C148.262 293.032 149.224 292.07 149.224 290.9C149.224 289.704 148.262 288.716 147.066 288.716C145.87 288.716 144.934 289.704 144.934 290.9Z" fill="#4B7E7F"/>
<path d="M36.3047 332.544L34.9688 331.735C34.1309 331.226 33.5332 330.725 33.1758 330.232C32.8242 329.734 32.6484 329.163 32.6484 328.519C32.6484 327.552 32.9824 326.767 33.6504 326.163C34.3242 325.56 35.1973 325.258 36.2695 325.258C37.2949 325.258 38.2354 325.545 39.0908 326.119V328.114C38.2061 327.265 37.2539 326.84 36.2344 326.84C35.6602 326.84 35.1885 326.975 34.8193 327.244C34.4502 327.508 34.2656 327.848 34.2656 328.264C34.2656 328.633 34.4004 328.979 34.6699 329.301C34.9395 329.623 35.376 329.96 35.9795 330.312L37.3242 331.103C38.8242 331.993 39.5742 333.13 39.5742 334.513C39.5742 335.497 39.2432 336.297 38.5811 336.912C37.9248 337.527 37.0693 337.835 36.0146 337.835C34.8018 337.835 33.6973 337.463 32.7012 336.719V334.486C33.6504 335.688 34.749 336.288 35.9971 336.288C36.5479 336.288 37.0049 336.136 37.3682 335.831C37.7373 335.521 37.9219 335.134 37.9219 334.671C37.9219 333.921 37.3828 333.212 36.3047 332.544ZM45.1553 329.591C46.3857 329.591 47.4082 329.989 48.2227 330.786C49.0371 331.577 49.4443 332.573 49.4443 333.774C49.4443 334.94 49.0312 335.91 48.2051 336.684C47.3789 337.451 46.3389 337.835 45.085 337.835C43.8721 337.835 42.8584 337.445 42.0439 336.666C41.2295 335.881 40.8223 334.902 40.8223 333.73C40.8223 332.547 41.2324 331.562 42.0527 330.777C42.8789 329.986 43.9131 329.591 45.1553 329.591ZM45.0674 331.032C44.2998 331.032 43.6699 331.284 43.1777 331.788C42.6855 332.292 42.4395 332.934 42.4395 333.713C42.4395 334.486 42.6914 335.119 43.1953 335.611C43.6992 336.098 44.3467 336.341 45.1377 336.341C45.9229 336.341 46.5645 336.095 47.0625 335.603C47.5664 335.104 47.8184 334.469 47.8184 333.695C47.8184 332.928 47.5576 332.292 47.0361 331.788C46.5146 331.284 45.8584 331.032 45.0674 331.032ZM57.8467 331.823V337.694H56.2383V333.194C56.2383 332.298 56.1182 331.674 55.8779 331.322C55.6377 330.965 55.2188 330.786 54.6211 330.786C54.2871 330.786 53.9795 330.862 53.6982 331.015C53.4229 331.167 53.1064 331.437 52.749 331.823V337.694H51.1494V329.608H52.749V330.672C53.5635 329.857 54.3604 329.45 55.1396 329.45C56.165 329.45 56.959 329.937 57.5215 330.909C58.377 329.925 59.2705 329.433 60.2021 329.433C60.9873 329.433 61.6318 329.72 62.1357 330.294C62.6455 330.868 62.9004 331.744 62.9004 332.922V337.694H61.3008V332.904C61.3008 332.23 61.1631 331.715 60.8877 331.357C60.6123 331 60.2168 330.821 59.7012 330.821C59.0391 330.821 58.4209 331.155 57.8467 331.823ZM70.0811 325.416H71.6807V330.672C72.3486 329.857 73.1777 329.45 74.168 329.45C74.707 329.45 75.1904 329.585 75.6182 329.854C76.0459 330.124 76.3623 330.496 76.5674 330.971C76.7783 331.445 76.8838 332.151 76.8838 333.089V337.694H75.2842V332.693C75.2842 332.102 75.1377 331.627 74.8447 331.27C74.5576 330.906 74.1768 330.725 73.7021 330.725C73.3506 330.725 73.0195 330.815 72.709 330.997C72.3984 331.179 72.0557 331.48 71.6807 331.902V337.694H70.0811V325.416ZM84.0645 329.608H85.8662L80.1445 341.816H78.3604L81.1113 335.963L77.9824 329.608H79.8018L81.9814 334.17L84.0645 329.608ZM88.7227 329.608V331.463L88.8105 331.322C89.584 330.074 90.3574 329.45 91.1309 329.45C91.7344 329.45 92.3643 329.755 93.0205 330.364L92.1768 331.771C91.6201 331.243 91.1045 330.979 90.6299 330.979C90.1143 330.979 89.666 331.226 89.2852 331.718C88.9102 332.21 88.7227 332.793 88.7227 333.467V337.694H87.1143V329.608H88.7227ZM101.036 333.792H95.3496C95.3906 334.565 95.6484 335.181 96.123 335.638C96.6035 336.095 97.2217 336.323 97.9775 336.323C99.0322 336.323 100.005 335.995 100.896 335.339V336.903C100.403 337.231 99.9141 337.466 99.4277 337.606C98.9473 337.747 98.3818 337.817 97.7314 337.817C96.8408 337.817 96.1201 337.633 95.5693 337.264C95.0186 336.895 94.5762 336.399 94.2422 335.778C93.9141 335.151 93.75 334.428 93.75 333.607C93.75 332.377 94.0986 331.378 94.7959 330.61C95.4932 329.837 96.3984 329.45 97.5117 329.45C98.584 329.45 99.4395 329.825 100.078 330.575C100.717 331.325 101.036 332.33 101.036 333.59V333.792ZM95.3848 332.834H99.4541C99.4131 332.195 99.2227 331.703 98.8828 331.357C98.543 331.012 98.0859 330.839 97.5117 330.839C96.9375 330.839 96.4658 331.012 96.0967 331.357C95.7334 331.703 95.4961 332.195 95.3848 332.834ZM102.381 337.114V335.392C102.832 335.708 103.292 335.966 103.761 336.165C104.235 336.358 104.634 336.455 104.956 336.455C105.29 336.455 105.577 336.373 105.817 336.209C106.058 336.045 106.178 335.849 106.178 335.62C106.178 335.386 106.099 335.192 105.94 335.04C105.788 334.882 105.454 334.656 104.938 334.363C103.907 333.789 103.23 333.3 102.908 332.896C102.592 332.485 102.434 332.04 102.434 331.56C102.434 330.938 102.674 330.432 103.154 330.039C103.641 329.646 104.265 329.45 105.026 329.45C105.817 329.45 106.629 329.673 107.461 330.118V331.7C106.512 331.126 105.735 330.839 105.132 330.839C104.821 330.839 104.569 330.906 104.376 331.041C104.188 331.17 104.095 331.343 104.095 331.56C104.095 331.747 104.18 331.926 104.35 332.096C104.525 332.266 104.83 332.471 105.264 332.711L105.835 333.036C107.183 333.798 107.856 334.642 107.856 335.567C107.856 336.229 107.596 336.774 107.074 337.202C106.559 337.624 105.894 337.835 105.079 337.835C104.599 337.835 104.171 337.785 103.796 337.686C103.421 337.58 102.949 337.39 102.381 337.114ZM114.65 329.608H116.382L112.813 337.835H112.277L108.621 329.608H110.37L112.55 334.583L114.65 329.608ZM122.675 332.834V336.271C122.675 336.546 122.769 336.684 122.956 336.684C123.149 336.684 123.451 336.54 123.861 336.253V337.229C123.498 337.463 123.205 337.621 122.982 337.703C122.766 337.791 122.537 337.835 122.297 337.835C121.611 337.835 121.207 337.565 121.084 337.026C120.404 337.554 119.681 337.817 118.913 337.817C118.351 337.817 117.882 337.633 117.507 337.264C117.132 336.889 116.944 336.42 116.944 335.857C116.944 335.348 117.126 334.894 117.489 334.495C117.858 334.091 118.38 333.771 119.054 333.537L121.102 332.834V332.403C121.102 331.431 120.615 330.944 119.643 330.944C118.77 330.944 117.92 331.396 117.094 332.298V330.549C117.715 329.816 118.608 329.45 119.774 329.45C120.647 329.45 121.348 329.679 121.875 330.136C122.051 330.282 122.209 330.479 122.35 330.725C122.49 330.965 122.578 331.208 122.613 331.454C122.654 331.694 122.675 332.154 122.675 332.834ZM121.102 336.095V333.695L120.029 334.108C119.484 334.325 119.098 334.545 118.869 334.768C118.646 334.984 118.535 335.257 118.535 335.585C118.535 335.919 118.641 336.191 118.852 336.402C119.068 336.613 119.347 336.719 119.687 336.719C120.196 336.719 120.668 336.511 121.102 336.095ZM118.605 325.688C118.834 325.688 119.03 325.771 119.194 325.935C119.364 326.099 119.449 326.298 119.449 326.532C119.449 326.767 119.37 326.966 119.212 327.13C119.054 327.288 118.86 327.367 118.632 327.367C118.397 327.367 118.198 327.285 118.034 327.121C117.87 326.951 117.788 326.752 117.788 326.523C117.788 326.289 117.867 326.093 118.025 325.935C118.189 325.771 118.383 325.688 118.605 325.688ZM121.989 325.688C122.218 325.688 122.414 325.771 122.578 325.935C122.748 326.099 122.833 326.298 122.833 326.532C122.833 326.767 122.754 326.966 122.596 327.13C122.438 327.288 122.244 327.367 122.016 327.367C121.781 327.367 121.582 327.285 121.418 327.121C121.254 326.951 121.172 326.752 121.172 326.523C121.172 326.289 121.251 326.093 121.409 325.935C121.573 325.771 121.767 325.688 121.989 325.688ZM126.99 329.608V331.463L127.078 331.322C127.852 330.074 128.625 329.45 129.398 329.45C130.002 329.45 130.632 329.755 131.288 330.364L130.444 331.771C129.888 331.243 129.372 330.979 128.897 330.979C128.382 330.979 127.934 331.226 127.553 331.718C127.178 332.21 126.99 332.793 126.99 333.467V337.694H125.382V329.608H126.99ZM137.81 325.416H139.418V337.694H135.999C134.804 337.694 133.849 337.316 133.134 336.561C132.425 335.805 132.07 334.791 132.07 333.52C132.07 332.33 132.442 331.352 133.187 330.584C133.937 329.816 134.892 329.433 136.052 329.433C136.591 329.433 137.177 329.547 137.81 329.775V325.416ZM137.81 336.323V331.199C137.312 330.947 136.808 330.821 136.298 330.821C135.501 330.821 134.865 331.082 134.391 331.604C133.922 332.125 133.688 332.828 133.688 333.713C133.688 334.545 133.893 335.187 134.303 335.638C134.549 335.907 134.81 336.089 135.085 336.183C135.36 336.276 135.855 336.323 136.57 336.323H137.81ZM151.854 329.608H153.762L150.308 333.572L154.465 337.694H152.32L148.269 333.572L151.854 329.608ZM146.599 325.416H148.198V337.694H146.599V325.416ZM160.31 332.834V336.271C160.31 336.546 160.403 336.684 160.591 336.684C160.784 336.684 161.086 336.54 161.496 336.253V337.229C161.133 337.463 160.84 337.621 160.617 337.703C160.4 337.791 160.172 337.835 159.932 337.835C159.246 337.835 158.842 337.565 158.719 337.026C158.039 337.554 157.315 337.817 156.548 337.817C155.985 337.817 155.517 337.633 155.142 337.264C154.767 336.889 154.579 336.42 154.579 335.857C154.579 335.348 154.761 334.894 155.124 334.495C155.493 334.091 156.015 333.771 156.688 333.537L158.736 332.834V332.403C158.736 331.431 158.25 330.944 157.277 330.944C156.404 330.944 155.555 331.396 154.729 332.298V330.549C155.35 329.816 156.243 329.45 157.409 329.45C158.282 329.45 158.982 329.679 159.51 330.136C159.686 330.282 159.844 330.479 159.984 330.725C160.125 330.965 160.213 331.208 160.248 331.454C160.289 331.694 160.31 332.154 160.31 332.834ZM158.736 336.095V333.695L157.664 334.108C157.119 334.325 156.732 334.545 156.504 334.768C156.281 334.984 156.17 335.257 156.17 335.585C156.17 335.919 156.275 336.191 156.486 336.402C156.703 336.613 156.981 336.719 157.321 336.719C157.831 336.719 158.303 336.511 158.736 336.095ZM164.511 329.608V330.637C165.226 329.846 166.037 329.45 166.945 329.45C167.449 329.45 167.918 329.582 168.352 329.846C168.785 330.104 169.113 330.461 169.336 330.918C169.564 331.369 169.679 332.087 169.679 333.071V337.694H168.079V333.089C168.079 332.263 167.953 331.674 167.701 331.322C167.449 330.965 167.027 330.786 166.436 330.786C165.68 330.786 165.038 331.164 164.511 331.92V337.694H162.876V329.608H164.511ZM182.317 325.416H183.926V337.694H180.507C179.312 337.694 178.356 337.316 177.642 336.561C176.933 335.805 176.578 334.791 176.578 333.52C176.578 332.33 176.95 331.352 177.694 330.584C178.444 329.816 179.399 329.433 180.56 329.433C181.099 329.433 181.685 329.547 182.317 329.775V325.416ZM182.317 336.323V331.199C181.819 330.947 181.315 330.821 180.806 330.821C180.009 330.821 179.373 331.082 178.898 331.604C178.43 332.125 178.195 332.828 178.195 333.713C178.195 334.545 178.4 335.187 178.811 335.638C179.057 335.907 179.317 336.089 179.593 336.183C179.868 336.276 180.363 336.323 181.078 336.323H182.317ZM191.247 337.694V336.666C190.907 337.035 190.518 337.322 190.078 337.527C189.645 337.732 189.211 337.835 188.777 337.835C188.268 337.835 187.796 337.709 187.362 337.457C186.935 337.199 186.609 336.854 186.387 336.42C186.17 335.98 186.062 335.254 186.062 334.24V329.608H187.661V334.223C187.661 335.072 187.781 335.667 188.021 336.007C188.268 336.341 188.695 336.508 189.305 336.508C190.066 336.508 190.714 336.136 191.247 335.392V329.608H192.847V337.694H191.247ZM203.974 329.591C205.204 329.591 206.227 329.989 207.041 330.786C207.855 331.577 208.263 332.573 208.263 333.774C208.263 334.94 207.85 335.91 207.023 336.684C206.197 337.451 205.157 337.835 203.903 337.835C202.69 337.835 201.677 337.445 200.862 336.666C200.048 335.881 199.641 334.902 199.641 333.73C199.641 332.547 200.051 331.562 200.871 330.777C201.697 329.986 202.731 329.591 203.974 329.591ZM203.886 331.032C203.118 331.032 202.488 331.284 201.996 331.788C201.504 332.292 201.258 332.934 201.258 333.713C201.258 334.486 201.51 335.119 202.014 335.611C202.518 336.098 203.165 336.341 203.956 336.341C204.741 336.341 205.383 336.095 205.881 335.603C206.385 335.104 206.637 334.469 206.637 333.695C206.637 332.928 206.376 332.292 205.854 331.788C205.333 331.284 204.677 331.032 203.886 331.032ZM201.996 325.688C202.225 325.688 202.421 325.771 202.585 325.935C202.755 326.099 202.84 326.298 202.84 326.532C202.84 326.767 202.761 326.966 202.603 327.13C202.444 327.288 202.251 327.367 202.022 327.367C201.788 327.367 201.589 327.285 201.425 327.121C201.261 326.951 201.179 326.752 201.179 326.523C201.179 326.289 201.258 326.093 201.416 325.935C201.58 325.771 201.773 325.688 201.996 325.688ZM205.38 325.688C205.608 325.688 205.805 325.771 205.969 325.935C206.139 326.099 206.224 326.298 206.224 326.532C206.224 326.767 206.145 326.966 205.986 327.13C205.828 327.288 205.635 327.367 205.406 327.367C205.172 327.367 204.973 327.285 204.809 327.121C204.645 326.951 204.562 326.752 204.562 326.523C204.562 326.289 204.642 326.093 204.8 325.935C204.964 325.771 205.157 325.688 205.38 325.688ZM211.638 329.608V330.637C212.353 329.846 213.164 329.45 214.072 329.45C214.576 329.45 215.045 329.582 215.479 329.846C215.912 330.104 216.24 330.461 216.463 330.918C216.691 331.369 216.806 332.087 216.806 333.071V337.694H215.206V333.089C215.206 332.263 215.08 331.674 214.828 331.322C214.576 330.965 214.154 330.786 213.562 330.786C212.807 330.786 212.165 331.164 211.638 331.92V337.694H210.003V329.608H211.638ZM218.643 337.114V335.392C219.094 335.708 219.554 335.966 220.022 336.165C220.497 336.358 220.896 336.455 221.218 336.455C221.552 336.455 221.839 336.373 222.079 336.209C222.319 336.045 222.439 335.849 222.439 335.62C222.439 335.386 222.36 335.192 222.202 335.04C222.05 334.882 221.716 334.656 221.2 334.363C220.169 333.789 219.492 333.3 219.17 332.896C218.854 332.485 218.695 332.04 218.695 331.56C218.695 330.938 218.936 330.432 219.416 330.039C219.902 329.646 220.526 329.45 221.288 329.45C222.079 329.45 222.891 329.673 223.723 330.118V331.7C222.773 331.126 221.997 330.839 221.394 330.839C221.083 330.839 220.831 330.906 220.638 331.041C220.45 331.17 220.356 331.343 220.356 331.56C220.356 331.747 220.441 331.926 220.611 332.096C220.787 332.266 221.092 332.471 221.525 332.711L222.097 333.036C223.444 333.798 224.118 334.642 224.118 335.567C224.118 336.229 223.857 336.774 223.336 337.202C222.82 337.624 222.155 337.835 221.341 337.835C220.86 337.835 220.433 337.785 220.058 337.686C219.683 337.58 219.211 337.39 218.643 337.114ZM231.22 329.608H233.127L229.673 333.572L233.83 337.694H231.686L227.634 333.572L231.22 329.608ZM225.964 325.416H227.563V337.694H225.964V325.416ZM239.675 332.834V336.271C239.675 336.546 239.769 336.684 239.956 336.684C240.149 336.684 240.451 336.54 240.861 336.253V337.229C240.498 337.463 240.205 337.621 239.982 337.703C239.766 337.791 239.537 337.835 239.297 337.835C238.611 337.835 238.207 337.565 238.084 337.026C237.404 337.554 236.681 337.817 235.913 337.817C235.351 337.817 234.882 337.633 234.507 337.264C234.132 336.889 233.944 336.42 233.944 335.857C233.944 335.348 234.126 334.894 234.489 334.495C234.858 334.091 235.38 333.771 236.054 333.537L238.102 332.834V332.403C238.102 331.431 237.615 330.944 236.643 330.944C235.77 330.944 234.92 331.396 234.094 332.298V330.549C234.715 329.816 235.608 329.45 236.774 329.45C237.647 329.45 238.348 329.679 238.875 330.136C239.051 330.282 239.209 330.479 239.35 330.725C239.49 330.965 239.578 331.208 239.613 331.454C239.654 331.694 239.675 332.154 239.675 332.834ZM238.102 336.095V333.695L237.029 334.108C236.484 334.325 236.098 334.545 235.869 334.768C235.646 334.984 235.535 335.257 235.535 335.585C235.535 335.919 235.641 336.191 235.852 336.402C236.068 336.613 236.347 336.719 236.687 336.719C237.196 336.719 237.668 336.511 238.102 336.095ZM247.251 325.416H248.851V330.672C249.519 329.857 250.348 329.45 251.338 329.45C251.877 329.45 252.36 329.585 252.788 329.854C253.216 330.124 253.532 330.496 253.737 330.971C253.948 331.445 254.054 332.151 254.054 333.089V337.694H252.454V332.693C252.454 332.102 252.308 331.627 252.015 331.27C251.728 330.906 251.347 330.725 250.872 330.725C250.521 330.725 250.189 330.815 249.879 330.997C249.568 331.179 249.226 331.48 248.851 331.902V337.694H247.251V325.416ZM257.024 326.207C257.288 326.207 257.514 326.301 257.701 326.488C257.889 326.67 257.982 326.89 257.982 327.147C257.982 327.417 257.892 327.643 257.71 327.824C257.534 328.006 257.312 328.097 257.042 328.097C256.79 328.097 256.567 328.003 256.374 327.815C256.181 327.628 256.084 327.405 256.084 327.147C256.084 326.901 256.178 326.685 256.365 326.497C256.559 326.304 256.778 326.207 257.024 326.207ZM256.269 329.608H257.868V338.846C257.868 340.246 257.329 341.236 256.251 341.816L255.064 340.647C255.434 340.519 255.727 340.293 255.943 339.971C256.16 339.648 256.269 339.273 256.269 338.846V329.608ZM265.321 332.834V336.271C265.321 336.546 265.415 336.684 265.603 336.684C265.796 336.684 266.098 336.54 266.508 336.253V337.229C266.145 337.463 265.852 337.621 265.629 337.703C265.412 337.791 265.184 337.835 264.943 337.835C264.258 337.835 263.854 337.565 263.73 337.026C263.051 337.554 262.327 337.817 261.56 337.817C260.997 337.817 260.528 337.633 260.153 337.264C259.778 336.889 259.591 336.42 259.591 335.857C259.591 335.348 259.772 334.894 260.136 334.495C260.505 334.091 261.026 333.771 261.7 333.537L263.748 332.834V332.403C263.748 331.431 263.262 330.944 262.289 330.944C261.416 330.944 260.566 331.396 259.74 332.298V330.549C260.361 329.816 261.255 329.45 262.421 329.45C263.294 329.45 263.994 329.679 264.521 330.136C264.697 330.282 264.855 330.479 264.996 330.725C265.137 330.965 265.225 331.208 265.26 331.454C265.301 331.694 265.321 332.154 265.321 332.834ZM263.748 336.095V333.695L262.676 334.108C262.131 334.325 261.744 334.545 261.516 334.768C261.293 334.984 261.182 335.257 261.182 335.585C261.182 335.919 261.287 336.191 261.498 336.402C261.715 336.613 261.993 336.719 262.333 336.719C262.843 336.719 263.314 336.511 263.748 336.095ZM261.252 325.688C261.48 325.688 261.677 325.771 261.841 325.935C262.011 326.099 262.096 326.298 262.096 326.532C262.096 326.767 262.017 326.966 261.858 327.13C261.7 327.288 261.507 327.367 261.278 327.367C261.044 327.367 260.845 327.285 260.681 327.121C260.517 326.951 260.435 326.752 260.435 326.523C260.435 326.289 260.514 326.093 260.672 325.935C260.836 325.771 261.029 325.688 261.252 325.688ZM264.636 325.688C264.864 325.688 265.061 325.771 265.225 325.935C265.395 326.099 265.479 326.298 265.479 326.532C265.479 326.767 265.4 326.966 265.242 327.13C265.084 327.288 264.891 327.367 264.662 327.367C264.428 327.367 264.229 327.285 264.064 327.121C263.9 326.951 263.818 326.752 263.818 326.523C263.818 326.289 263.897 326.093 264.056 325.935C264.22 325.771 264.413 325.688 264.636 325.688ZM267.958 325.416H269.558V337.694H267.958V325.416ZM271.772 341.816V329.608H274.576C276.012 329.608 277.128 329.966 277.925 330.681C278.728 331.396 279.129 332.395 279.129 333.678C279.129 334.891 278.751 335.887 277.995 336.666C277.245 337.445 276.287 337.835 275.121 337.835C274.605 337.835 274.034 337.721 273.407 337.492V341.816H271.772ZM274.541 331.103H273.407V336.077C273.899 336.329 274.415 336.455 274.954 336.455C275.704 336.455 276.316 336.194 276.791 335.673C277.271 335.151 277.512 334.48 277.512 333.66C277.512 333.133 277.397 332.667 277.169 332.263C276.946 331.858 276.639 331.565 276.246 331.384C275.859 331.196 275.291 331.103 274.541 331.103ZM286.072 329.608V329.125C286.072 327.824 286.348 326.854 286.898 326.216C287.455 325.577 288.12 325.258 288.894 325.258C289.228 325.258 289.623 325.311 290.08 325.416V326.98C289.822 326.887 289.576 326.84 289.342 326.84C288.715 326.84 288.278 327.007 288.032 327.341C287.792 327.675 287.672 328.27 287.672 329.125V329.608H289.113V331.05H287.672V337.694H286.072V331.05H284.912V329.608H286.072ZM292.102 329.608V331.463L292.189 331.322C292.963 330.074 293.736 329.45 294.51 329.45C295.113 329.45 295.743 329.755 296.399 330.364L295.556 331.771C294.999 331.243 294.483 330.979 294.009 330.979C293.493 330.979 293.045 331.226 292.664 331.718C292.289 332.21 292.102 332.793 292.102 333.467V337.694H290.493V329.608H292.102ZM302.604 332.834V336.271C302.604 336.546 302.698 336.684 302.886 336.684C303.079 336.684 303.381 336.54 303.791 336.253V337.229C303.428 337.463 303.135 337.621 302.912 337.703C302.695 337.791 302.467 337.835 302.227 337.835C301.541 337.835 301.137 337.565 301.014 337.026C300.334 337.554 299.61 337.817 298.843 337.817C298.28 337.817 297.812 337.633 297.437 337.264C297.062 336.889 296.874 336.42 296.874 335.857C296.874 335.348 297.056 334.894 297.419 334.495C297.788 334.091 298.31 333.771 298.983 333.537L301.031 332.834V332.403C301.031 331.431 300.545 330.944 299.572 330.944C298.699 330.944 297.85 331.396 297.023 332.298V330.549C297.645 329.816 298.538 329.45 299.704 329.45C300.577 329.45 301.277 329.679 301.805 330.136C301.98 330.282 302.139 330.479 302.279 330.725C302.42 330.965 302.508 331.208 302.543 331.454C302.584 331.694 302.604 332.154 302.604 332.834ZM301.031 336.095V333.695L299.959 334.108C299.414 334.325 299.027 334.545 298.799 334.768C298.576 334.984 298.465 335.257 298.465 335.585C298.465 335.919 298.57 336.191 298.781 336.402C298.998 336.613 299.276 336.719 299.616 336.719C300.126 336.719 300.598 336.511 301.031 336.095ZM300.249 324.537C300.7 324.537 301.087 324.698 301.409 325.021C301.737 325.343 301.901 325.735 301.901 326.198C301.901 326.661 301.737 327.057 301.409 327.385C301.087 327.713 300.694 327.877 300.231 327.877C299.774 327.877 299.382 327.716 299.054 327.394C298.731 327.065 298.57 326.673 298.57 326.216C298.57 325.747 298.734 325.352 299.062 325.029C299.396 324.701 299.792 324.537 300.249 324.537ZM300.205 325.249C299.906 325.249 299.666 325.34 299.484 325.521C299.309 325.697 299.221 325.929 299.221 326.216C299.221 326.497 299.317 326.737 299.511 326.937C299.71 327.13 299.95 327.227 300.231 327.227C300.513 327.227 300.753 327.13 300.952 326.937C301.151 326.743 301.251 326.509 301.251 326.233C301.251 325.958 301.151 325.727 300.952 325.539C300.753 325.346 300.504 325.249 300.205 325.249ZM306.806 329.608V330.637C307.521 329.846 308.332 329.45 309.24 329.45C309.744 329.45 310.213 329.582 310.646 329.846C311.08 330.104 311.408 330.461 311.631 330.918C311.859 331.369 311.974 332.087 311.974 333.071V337.694H310.374V333.089C310.374 332.263 310.248 331.674 309.996 331.322C309.744 330.965 309.322 330.786 308.73 330.786C307.975 330.786 307.333 331.164 306.806 331.92V337.694H305.171V329.608H306.806ZM38.4404 349.416H40.0488V361.694H36.6299C35.4346 361.694 34.4795 361.316 33.7646 360.561C33.0557 359.805 32.7012 358.791 32.7012 357.52C32.7012 356.33 33.0732 355.352 33.8174 354.584C34.5674 353.816 35.5225 353.433 36.6826 353.433C37.2217 353.433 37.8076 353.547 38.4404 353.775V349.416ZM38.4404 360.323V355.199C37.9424 354.947 37.4385 354.821 36.9287 354.821C36.1318 354.821 35.4961 355.082 35.0215 355.604C34.5527 356.125 34.3184 356.828 34.3184 357.713C34.3184 358.545 34.5234 359.187 34.9336 359.638C35.1797 359.907 35.4404 360.089 35.7158 360.183C35.9912 360.276 36.4863 360.323 37.2012 360.323H38.4404ZM43.0459 350.207C43.3096 350.207 43.5352 350.298 43.7227 350.479C43.9102 350.661 44.0039 350.884 44.0039 351.147C44.0039 351.405 43.9102 351.628 43.7227 351.815C43.5352 352.003 43.3096 352.097 43.0459 352.097C42.7998 352.097 42.583 352.003 42.3955 351.815C42.208 351.622 42.1143 351.399 42.1143 351.147C42.1143 350.901 42.208 350.685 42.3955 350.497C42.583 350.304 42.7998 350.207 43.0459 350.207ZM42.2549 353.608H43.8545V361.694H42.2549V353.608ZM47.7744 353.608V354.637C48.4893 353.846 49.3008 353.45 50.209 353.45C50.7129 353.45 51.1816 353.582 51.6152 353.846C52.0488 354.104 52.377 354.461 52.5996 354.918C52.8281 355.369 52.9424 356.087 52.9424 357.071V361.694H51.3428V357.089C51.3428 356.263 51.2168 355.674 50.9648 355.322C50.7129 354.965 50.291 354.786 49.6992 354.786C48.9434 354.786 48.3018 355.164 47.7744 355.92V361.694H46.1396V353.608H47.7744ZM60.1494 349.416H61.749V354.672C62.417 353.857 63.2461 353.45 64.2363 353.45C64.7754 353.45 65.2588 353.585 65.6865 353.854C66.1143 354.124 66.4307 354.496 66.6357 354.971C66.8467 355.445 66.9521 356.151 66.9521 357.089V361.694H65.3525V356.693C65.3525 356.102 65.2061 355.627 64.9131 355.27C64.626 354.906 64.2451 354.725 63.7705 354.725C63.4189 354.725 63.0879 354.815 62.7773 354.997C62.4668 355.179 62.124 355.48 61.749 355.902V361.694H60.1494V349.416ZM74.1328 353.608H75.9346L70.2129 365.816H68.4287L71.1797 359.963L68.0508 353.608H69.8701L72.0498 358.17L74.1328 353.608ZM78.791 353.608V355.463L78.8789 355.322C79.6523 354.074 80.4258 353.45 81.1992 353.45C81.8027 353.45 82.4326 353.755 83.0889 354.364L82.2451 355.771C81.6885 355.243 81.1729 354.979 80.6982 354.979C80.1826 354.979 79.7344 355.226 79.3535 355.718C78.9785 356.21 78.791 356.793 78.791 357.467V361.694H77.1826V353.608H78.791ZM91.1045 357.792H85.418C85.459 358.565 85.7168 359.181 86.1914 359.638C86.6719 360.095 87.29 360.323 88.0459 360.323C89.1006 360.323 90.0732 359.995 90.9639 359.339V360.903C90.4717 361.231 89.9824 361.466 89.4961 361.606C89.0156 361.747 88.4502 361.817 87.7998 361.817C86.9092 361.817 86.1885 361.633 85.6377 361.264C85.0869 360.895 84.6445 360.399 84.3105 359.778C83.9824 359.151 83.8184 358.428 83.8184 357.607C83.8184 356.377 84.167 355.378 84.8643 354.61C85.5615 353.837 86.4668 353.45 87.5801 353.45C88.6523 353.45 89.5078 353.825 90.1465 354.575C90.7852 355.325 91.1045 356.33 91.1045 357.59V357.792ZM85.4531 356.834H89.5225C89.4814 356.195 89.291 355.703 88.9512 355.357C88.6113 355.012 88.1543 354.839 87.5801 354.839C87.0059 354.839 86.5342 355.012 86.165 355.357C85.8018 355.703 85.5645 356.195 85.4531 356.834ZM92.4492 361.114V359.392C92.9004 359.708 93.3604 359.966 93.8291 360.165C94.3037 360.358 94.7021 360.455 95.0244 360.455C95.3584 360.455 95.6455 360.373 95.8857 360.209C96.126 360.045 96.2461 359.849 96.2461 359.62C96.2461 359.386 96.167 359.192 96.0088 359.04C95.8564 358.882 95.5225 358.656 95.0068 358.363C93.9756 357.789 93.2988 357.3 92.9766 356.896C92.6602 356.485 92.502 356.04 92.502 355.56C92.502 354.938 92.7422 354.432 93.2227 354.039C93.709 353.646 94.333 353.45 95.0947 353.45C95.8857 353.45 96.6973 353.673 97.5293 354.118V355.7C96.5801 355.126 95.8037 354.839 95.2002 354.839C94.8896 354.839 94.6377 354.906 94.4443 355.041C94.2568 355.17 94.1631 355.343 94.1631 355.56C94.1631 355.747 94.248 355.926 94.418 356.096C94.5938 356.266 94.8984 356.471 95.332 356.711L95.9033 357.036C97.251 357.798 97.9248 358.642 97.9248 359.567C97.9248 360.229 97.6641 360.774 97.1426 361.202C96.627 361.624 95.9619 361.835 95.1475 361.835C94.667 361.835 94.2393 361.785 93.8643 361.686C93.4893 361.58 93.0176 361.39 92.4492 361.114ZM99.3574 356.403C99.3574 355.542 99.6709 354.862 100.298 354.364C100.931 353.86 101.792 353.608 102.882 353.608H106.213V354.856H104.578C104.895 355.179 105.114 355.472 105.237 355.735C105.36 355.999 105.422 356.301 105.422 356.641C105.422 357.062 105.302 357.479 105.062 357.889C104.821 358.293 104.511 358.604 104.13 358.82C103.755 359.037 103.137 359.21 102.275 359.339C101.672 359.427 101.37 359.635 101.37 359.963C101.37 360.15 101.481 360.306 101.704 360.429C101.933 360.546 102.343 360.669 102.935 360.798C103.925 361.015 104.561 361.185 104.842 361.308C105.129 361.431 105.387 361.606 105.615 361.835C106.002 362.222 106.195 362.708 106.195 363.294C106.195 364.062 105.853 364.674 105.167 365.131C104.487 365.588 103.576 365.816 102.434 365.816C101.279 365.816 100.356 365.585 99.665 365.122C98.9795 364.665 98.6367 364.05 98.6367 363.276C98.6367 362.181 99.3135 361.475 100.667 361.158C100.128 360.812 99.8584 360.47 99.8584 360.13C99.8584 359.872 99.9727 359.638 100.201 359.427C100.436 359.216 100.749 359.061 101.142 358.961C99.9521 358.434 99.3574 357.581 99.3574 356.403ZM102.363 354.997C101.93 354.997 101.561 355.144 101.256 355.437C100.951 355.729 100.799 356.081 100.799 356.491C100.799 356.907 100.948 357.253 101.247 357.528C101.546 357.798 101.924 357.933 102.381 357.933C102.832 357.933 103.207 357.795 103.506 357.52C103.811 357.238 103.963 356.89 103.963 356.474C103.963 356.052 103.811 355.7 103.506 355.419C103.201 355.138 102.82 354.997 102.363 354.997ZM101.985 362.072C101.446 362.072 101.004 362.187 100.658 362.415C100.318 362.644 100.148 362.937 100.148 363.294C100.148 364.126 100.898 364.542 102.398 364.542C103.107 364.542 103.655 364.437 104.042 364.226C104.435 364.021 104.631 363.728 104.631 363.347C104.631 362.972 104.385 362.664 103.893 362.424C103.4 362.189 102.765 362.072 101.985 362.072ZM112.532 356.834V360.271C112.532 360.546 112.626 360.684 112.813 360.684C113.007 360.684 113.309 360.54 113.719 360.253V361.229C113.355 361.463 113.062 361.621 112.84 361.703C112.623 361.791 112.395 361.835 112.154 361.835C111.469 361.835 111.064 361.565 110.941 361.026C110.262 361.554 109.538 361.817 108.771 361.817C108.208 361.817 107.739 361.633 107.364 361.264C106.989 360.889 106.802 360.42 106.802 359.857C106.802 359.348 106.983 358.894 107.347 358.495C107.716 358.091 108.237 357.771 108.911 357.537L110.959 356.834V356.403C110.959 355.431 110.473 354.944 109.5 354.944C108.627 354.944 107.777 355.396 106.951 356.298V354.549C107.572 353.816 108.466 353.45 109.632 353.45C110.505 353.45 111.205 353.679 111.732 354.136C111.908 354.282 112.066 354.479 112.207 354.725C112.348 354.965 112.436 355.208 112.471 355.454C112.512 355.694 112.532 356.154 112.532 356.834ZM110.959 360.095V357.695L109.887 358.108C109.342 358.325 108.955 358.545 108.727 358.768C108.504 358.984 108.393 359.257 108.393 359.585C108.393 359.919 108.498 360.191 108.709 360.402C108.926 360.613 109.204 360.719 109.544 360.719C110.054 360.719 110.525 360.511 110.959 360.095ZM108.463 349.688C108.691 349.688 108.888 349.771 109.052 349.935C109.222 350.099 109.307 350.298 109.307 350.532C109.307 350.767 109.228 350.966 109.069 351.13C108.911 351.288 108.718 351.367 108.489 351.367C108.255 351.367 108.056 351.285 107.892 351.121C107.728 350.951 107.646 350.752 107.646 350.523C107.646 350.289 107.725 350.093 107.883 349.935C108.047 349.771 108.24 349.688 108.463 349.688ZM111.847 349.688C112.075 349.688 112.271 349.771 112.436 349.935C112.605 350.099 112.69 350.298 112.69 350.532C112.69 350.767 112.611 350.966 112.453 351.13C112.295 351.288 112.102 351.367 111.873 351.367C111.639 351.367 111.439 351.285 111.275 351.121C111.111 350.951 111.029 350.752 111.029 350.523C111.029 350.289 111.108 350.093 111.267 349.935C111.431 349.771 111.624 349.688 111.847 349.688ZM114.738 361.114V359.392C115.189 359.708 115.649 359.966 116.118 360.165C116.593 360.358 116.991 360.455 117.313 360.455C117.647 360.455 117.935 360.373 118.175 360.209C118.415 360.045 118.535 359.849 118.535 359.62C118.535 359.386 118.456 359.192 118.298 359.04C118.146 358.882 117.812 358.656 117.296 358.363C116.265 357.789 115.588 357.3 115.266 356.896C114.949 356.485 114.791 356.04 114.791 355.56C114.791 354.938 115.031 354.432 115.512 354.039C115.998 353.646 116.622 353.45 117.384 353.45C118.175 353.45 118.986 353.673 119.818 354.118V355.7C118.869 355.126 118.093 354.839 117.489 354.839C117.179 354.839 116.927 354.906 116.733 355.041C116.546 355.17 116.452 355.343 116.452 355.56C116.452 355.747 116.537 355.926 116.707 356.096C116.883 356.266 117.188 356.471 117.621 356.711L118.192 357.036C119.54 357.798 120.214 358.642 120.214 359.567C120.214 360.229 119.953 360.774 119.432 361.202C118.916 361.624 118.251 361.835 117.437 361.835C116.956 361.835 116.528 361.785 116.153 361.686C115.778 361.58 115.307 361.39 114.738 361.114ZM120.926 354.892L123.932 351.938V353.608H126.489V355.05H123.932V359.014C123.932 359.939 124.315 360.402 125.083 360.402C125.657 360.402 126.264 360.209 126.902 359.822V361.316C126.287 361.662 125.616 361.835 124.89 361.835C124.157 361.835 123.548 361.621 123.062 361.193C122.909 361.064 122.783 360.921 122.684 360.763C122.584 360.599 122.499 360.388 122.429 360.13C122.364 359.866 122.332 359.368 122.332 358.636V355.05H120.926V354.892ZM128.88 359.734C129.179 359.734 129.434 359.837 129.645 360.042C129.855 360.247 129.961 360.499 129.961 360.798C129.961 361.091 129.855 361.337 129.645 361.536C129.439 361.735 129.185 361.835 128.88 361.835C128.581 361.835 128.329 361.735 128.124 361.536C127.919 361.337 127.816 361.091 127.816 360.798C127.816 360.499 127.919 360.247 128.124 360.042C128.329 359.837 128.581 359.734 128.88 359.734ZM136.192 349.398H146.449V350.963H142.169V361.694H140.402V350.963H136.192V349.398ZM148.726 359.734C149.024 359.734 149.279 359.837 149.49 360.042C149.701 360.247 149.807 360.499 149.807 360.798C149.807 361.091 149.701 361.337 149.49 361.536C149.285 361.735 149.03 361.835 148.726 361.835C148.427 361.835 148.175 361.735 147.97 361.536C147.765 361.337 147.662 361.091 147.662 360.798C147.662 360.499 147.765 360.247 147.97 360.042C148.175 359.837 148.427 359.734 148.726 359.734ZM158.745 357.792H153.059C153.1 358.565 153.357 359.181 153.832 359.638C154.312 360.095 154.931 360.323 155.687 360.323C156.741 360.323 157.714 359.995 158.604 359.339V360.903C158.112 361.231 157.623 361.466 157.137 361.606C156.656 361.747 156.091 361.817 155.44 361.817C154.55 361.817 153.829 361.633 153.278 361.264C152.728 360.895 152.285 360.399 151.951 359.778C151.623 359.151 151.459 358.428 151.459 357.607C151.459 356.377 151.808 355.378 152.505 354.61C153.202 353.837 154.107 353.45 155.221 353.45C156.293 353.45 157.148 353.825 157.787 354.575C158.426 355.325 158.745 356.33 158.745 357.59V357.792ZM153.094 356.834H157.163C157.122 356.195 156.932 355.703 156.592 355.357C156.252 355.012 155.795 354.839 155.221 354.839C154.646 354.839 154.175 355.012 153.806 355.357C153.442 355.703 153.205 356.195 153.094 356.834ZM166.066 353.608H168.114L164.783 357.59L168.352 361.694H166.304L163.764 358.794L161.364 361.694H159.352L162.753 357.59L159.352 353.608H161.364L163.764 356.386L166.066 353.608ZM179.575 356.834V360.271C179.575 360.546 179.669 360.684 179.856 360.684C180.05 360.684 180.352 360.54 180.762 360.253V361.229C180.398 361.463 180.105 361.621 179.883 361.703C179.666 361.791 179.438 361.835 179.197 361.835C178.512 361.835 178.107 361.565 177.984 361.026C177.305 361.554 176.581 361.817 175.813 361.817C175.251 361.817 174.782 361.633 174.407 361.264C174.032 360.889 173.845 360.42 173.845 359.857C173.845 359.348 174.026 358.894 174.39 358.495C174.759 358.091 175.28 357.771 175.954 357.537L178.002 356.834V356.403C178.002 355.431 177.516 354.944 176.543 354.944C175.67 354.944 174.82 355.396 173.994 356.298V354.549C174.615 353.816 175.509 353.45 176.675 353.45C177.548 353.45 178.248 353.679 178.775 354.136C178.951 354.282 179.109 354.479 179.25 354.725C179.391 354.965 179.479 355.208 179.514 355.454C179.555 355.694 179.575 356.154 179.575 356.834ZM178.002 360.095V357.695L176.93 358.108C176.385 358.325 175.998 358.545 175.77 358.768C175.547 358.984 175.436 359.257 175.436 359.585C175.436 359.919 175.541 360.191 175.752 360.402C175.969 360.613 176.247 360.719 176.587 360.719C177.097 360.719 177.568 360.511 178.002 360.095ZM181.043 354.892L184.049 351.938V353.608H186.606V355.05H184.049V359.014C184.049 359.939 184.433 360.402 185.2 360.402C185.774 360.402 186.381 360.209 187.02 359.822V361.316C186.404 361.662 185.733 361.835 185.007 361.835C184.274 361.835 183.665 361.621 183.179 361.193C183.026 361.064 182.9 360.921 182.801 360.763C182.701 360.599 182.616 360.388 182.546 360.13C182.481 359.866 182.449 359.368 182.449 358.636V355.05H181.043V354.892ZM187.037 354.892L190.043 351.938V353.608H192.601V355.05H190.043V359.014C190.043 359.939 190.427 360.402 191.194 360.402C191.769 360.402 192.375 360.209 193.014 359.822V361.316C192.398 361.662 191.728 361.835 191.001 361.835C190.269 361.835 189.659 361.621 189.173 361.193C189.021 361.064 188.895 360.921 188.795 360.763C188.695 360.599 188.61 360.388 188.54 360.13C188.476 359.866 188.443 359.368 188.443 358.636V355.05H187.037V354.892ZM198.041 354.892L201.047 351.938V353.608H203.604V355.05H201.047V359.014C201.047 359.939 201.431 360.402 202.198 360.402C202.772 360.402 203.379 360.209 204.018 359.822V361.316C203.402 361.662 202.731 361.835 202.005 361.835C201.272 361.835 200.663 361.621 200.177 361.193C200.024 361.064 199.898 360.921 199.799 360.763C199.699 360.599 199.614 360.388 199.544 360.13C199.479 359.866 199.447 359.368 199.447 358.636V355.05H198.041V354.892ZM210.249 356.834V360.271C210.249 360.546 210.343 360.684 210.53 360.684C210.724 360.684 211.025 360.54 211.436 360.253V361.229C211.072 361.463 210.779 361.621 210.557 361.703C210.34 361.791 210.111 361.835 209.871 361.835C209.186 361.835 208.781 361.565 208.658 361.026C207.979 361.554 207.255 361.817 206.487 361.817C205.925 361.817 205.456 361.633 205.081 361.264C204.706 360.889 204.519 360.42 204.519 359.857C204.519 359.348 204.7 358.894 205.063 358.495C205.433 358.091 205.954 357.771 206.628 357.537L208.676 356.834V356.403C208.676 355.431 208.189 354.944 207.217 354.944C206.344 354.944 205.494 355.396 204.668 356.298V354.549C205.289 353.816 206.183 353.45 207.349 353.45C208.222 353.45 208.922 353.679 209.449 354.136C209.625 354.282 209.783 354.479 209.924 354.725C210.064 354.965 210.152 355.208 210.188 355.454C210.229 355.694 210.249 356.154 210.249 356.834ZM208.676 360.095V357.695L207.604 358.108C207.059 358.325 206.672 358.545 206.443 358.768C206.221 358.984 206.109 359.257 206.109 359.585C206.109 359.919 206.215 360.191 206.426 360.402C206.643 360.613 206.921 360.719 207.261 360.719C207.771 360.719 208.242 360.511 208.676 360.095ZM217.825 349.416H219.425V354.672C220.093 353.857 220.922 353.45 221.912 353.45C222.451 353.45 222.935 353.585 223.362 353.854C223.79 354.124 224.106 354.496 224.312 354.971C224.522 355.445 224.628 356.151 224.628 357.089V361.694H223.028V356.693C223.028 356.102 222.882 355.627 222.589 355.27C222.302 354.906 221.921 354.725 221.446 354.725C221.095 354.725 220.764 354.815 220.453 354.997C220.143 355.179 219.8 355.48 219.425 355.902V361.694H217.825V349.416ZM231.94 356.834V360.271C231.94 360.546 232.034 360.684 232.222 360.684C232.415 360.684 232.717 360.54 233.127 360.253V361.229C232.764 361.463 232.471 361.621 232.248 361.703C232.031 361.791 231.803 361.835 231.562 361.835C230.877 361.835 230.473 361.565 230.35 361.026C229.67 361.554 228.946 361.817 228.179 361.817C227.616 361.817 227.147 361.633 226.772 361.264C226.397 360.889 226.21 360.42 226.21 359.857C226.21 359.348 226.392 358.894 226.755 358.495C227.124 358.091 227.646 357.771 228.319 357.537L230.367 356.834V356.403C230.367 355.431 229.881 354.944 228.908 354.944C228.035 354.944 227.186 355.396 226.359 356.298V354.549C226.98 353.816 227.874 353.45 229.04 353.45C229.913 353.45 230.613 353.679 231.141 354.136C231.316 354.282 231.475 354.479 231.615 354.725C231.756 354.965 231.844 355.208 231.879 355.454C231.92 355.694 231.94 356.154 231.94 356.834ZM230.367 360.095V357.695L229.295 358.108C228.75 358.325 228.363 358.545 228.135 358.768C227.912 358.984 227.801 359.257 227.801 359.585C227.801 359.919 227.906 360.191 228.117 360.402C228.334 360.613 228.612 360.719 228.952 360.719C229.462 360.719 229.934 360.511 230.367 360.095ZM236.142 353.608V354.637C236.856 353.846 237.668 353.45 238.576 353.45C239.08 353.45 239.549 353.582 239.982 353.846C240.416 354.104 240.744 354.461 240.967 354.918C241.195 355.369 241.31 356.087 241.31 357.071V361.694H239.71V357.089C239.71 356.263 239.584 355.674 239.332 355.322C239.08 354.965 238.658 354.786 238.066 354.786C237.311 354.786 236.669 355.164 236.142 355.92V361.694H234.507V353.608H236.142ZM248.938 349.416H250.547V361.694H247.128C245.933 361.694 244.978 361.316 244.263 360.561C243.554 359.805 243.199 358.791 243.199 357.52C243.199 356.33 243.571 355.352 244.315 354.584C245.065 353.816 246.021 353.433 247.181 353.433C247.72 353.433 248.306 353.547 248.938 353.775V349.416ZM248.938 360.323V355.199C248.44 354.947 247.937 354.821 247.427 354.821C246.63 354.821 245.994 355.082 245.52 355.604C245.051 356.125 244.816 356.828 244.816 357.713C244.816 358.545 245.021 359.187 245.432 359.638C245.678 359.907 245.938 360.089 246.214 360.183C246.489 360.276 246.984 360.323 247.699 360.323H248.938ZM261.595 353.591C262.825 353.591 263.848 353.989 264.662 354.786C265.477 355.577 265.884 356.573 265.884 357.774C265.884 358.94 265.471 359.91 264.645 360.684C263.818 361.451 262.778 361.835 261.524 361.835C260.312 361.835 259.298 361.445 258.483 360.666C257.669 359.881 257.262 358.902 257.262 357.73C257.262 356.547 257.672 355.562 258.492 354.777C259.318 353.986 260.353 353.591 261.595 353.591ZM261.507 355.032C260.739 355.032 260.109 355.284 259.617 355.788C259.125 356.292 258.879 356.934 258.879 357.713C258.879 358.486 259.131 359.119 259.635 359.611C260.139 360.098 260.786 360.341 261.577 360.341C262.362 360.341 263.004 360.095 263.502 359.603C264.006 359.104 264.258 358.469 264.258 357.695C264.258 356.928 263.997 356.292 263.476 355.788C262.954 355.284 262.298 355.032 261.507 355.032ZM274.286 355.823V361.694H272.678V357.194C272.678 356.298 272.558 355.674 272.317 355.322C272.077 354.965 271.658 354.786 271.061 354.786C270.727 354.786 270.419 354.862 270.138 355.015C269.862 355.167 269.546 355.437 269.188 355.823V361.694H267.589V353.608H269.188V354.672C270.003 353.857 270.8 353.45 271.579 353.45C272.604 353.45 273.398 353.937 273.961 354.909C274.816 353.925 275.71 353.433 276.642 353.433C277.427 353.433 278.071 353.72 278.575 354.294C279.085 354.868 279.34 355.744 279.34 356.922V361.694H277.74V356.904C277.74 356.23 277.603 355.715 277.327 355.357C277.052 355 276.656 354.821 276.141 354.821C275.479 354.821 274.86 355.155 274.286 355.823ZM31.9102 378.892L34.916 375.938V377.608H37.4736V379.05H34.916V383.014C34.916 383.939 35.2998 384.402 36.0674 384.402C36.6416 384.402 37.248 384.209 37.8867 383.822V385.316C37.2715 385.662 36.6006 385.835 35.874 385.835C35.1416 385.835 34.5322 385.621 34.0459 385.193C33.8936 385.064 33.7676 384.921 33.668 384.763C33.5684 384.599 33.4834 384.388 33.4131 384.13C33.3486 383.866 33.3164 383.368 33.3164 382.636V379.05H31.9102V378.892ZM40.752 377.608V379.463L40.8398 379.322C41.6133 378.074 42.3867 377.45 43.1602 377.45C43.7637 377.45 44.3936 377.755 45.0498 378.364L44.2061 379.771C43.6494 379.243 43.1338 378.979 42.6592 378.979C42.1436 378.979 41.6953 379.226 41.3145 379.718C40.9395 380.21 40.752 380.793 40.752 381.467V385.694H39.1436V377.608H40.752ZM51.2549 380.834V384.271C51.2549 384.546 51.3486 384.684 51.5361 384.684C51.7295 384.684 52.0312 384.54 52.4414 384.253V385.229C52.0781 385.463 51.7852 385.621 51.5625 385.703C51.3457 385.791 51.1172 385.835 50.877 385.835C50.1914 385.835 49.7871 385.565 49.6641 385.026C48.9844 385.554 48.2607 385.817 47.4932 385.817C46.9307 385.817 46.4619 385.633 46.0869 385.264C45.7119 384.889 45.5244 384.42 45.5244 383.857C45.5244 383.348 45.7061 382.894 46.0693 382.495C46.4385 382.091 46.96 381.771 47.6338 381.537L49.6816 380.834V380.403C49.6816 379.431 49.1953 378.944 48.2227 378.944C47.3496 378.944 46.5 379.396 45.6738 380.298V378.549C46.2949 377.816 47.1885 377.45 48.3545 377.45C49.2275 377.45 49.9277 377.679 50.4551 378.136C50.6309 378.282 50.7891 378.479 50.9297 378.725C51.0703 378.965 51.1582 379.208 51.1934 379.454C51.2344 379.694 51.2549 380.154 51.2549 380.834ZM49.6816 384.095V381.695L48.6094 382.108C48.0645 382.325 47.6777 382.545 47.4492 382.768C47.2266 382.984 47.1152 383.257 47.1152 383.585C47.1152 383.919 47.2207 384.191 47.4316 384.402C47.6484 384.613 47.9268 384.719 48.2666 384.719C48.7764 384.719 49.248 384.511 49.6816 384.095ZM47.1855 373.688C47.4141 373.688 47.6104 373.771 47.7744 373.935C47.9443 374.099 48.0293 374.298 48.0293 374.532C48.0293 374.767 47.9502 374.966 47.792 375.13C47.6338 375.288 47.4404 375.367 47.2119 375.367C46.9775 375.367 46.7783 375.285 46.6143 375.121C46.4502 374.951 46.3682 374.752 46.3682 374.523C46.3682 374.289 46.4473 374.093 46.6055 373.935C46.7695 373.771 46.9629 373.688 47.1855 373.688ZM50.5693 373.688C50.7979 373.688 50.9941 373.771 51.1582 373.935C51.3281 374.099 51.4131 374.298 51.4131 374.532C51.4131 374.767 51.334 374.966 51.1758 375.13C51.0176 375.288 50.8242 375.367 50.5957 375.367C50.3613 375.367 50.1621 375.285 49.998 375.121C49.834 374.951 49.752 374.752 49.752 374.523C49.752 374.289 49.8311 374.093 49.9893 373.935C50.1533 373.771 50.3467 373.688 50.5693 373.688ZM59.2529 373.416H60.8613V385.694H57.4424C56.2471 385.694 55.292 385.316 54.5771 384.561C53.8682 383.805 53.5137 382.791 53.5137 381.52C53.5137 380.33 53.8857 379.352 54.6299 378.584C55.3799 377.816 56.335 377.433 57.4951 377.433C58.0342 377.433 58.6201 377.547 59.2529 377.775V373.416ZM59.2529 384.323V379.199C58.7549 378.947 58.251 378.821 57.7412 378.821C56.9443 378.821 56.3086 379.082 55.834 379.604C55.3652 380.125 55.1309 380.828 55.1309 381.713C55.1309 382.545 55.3359 383.187 55.7461 383.638C55.9922 383.907 56.2529 384.089 56.5283 384.183C56.8037 384.276 57.2988 384.323 58.0137 384.323H59.2529ZM62.6191 380.403C62.6191 379.542 62.9326 378.862 63.5596 378.364C64.1924 377.86 65.0537 377.608 66.1436 377.608H69.4746V378.856H67.8398C68.1562 379.179 68.376 379.472 68.499 379.735C68.6221 379.999 68.6836 380.301 68.6836 380.641C68.6836 381.062 68.5635 381.479 68.3232 381.889C68.083 382.293 67.7725 382.604 67.3916 382.82C67.0166 383.037 66.3984 383.21 65.5371 383.339C64.9336 383.427 64.6318 383.635 64.6318 383.963C64.6318 384.15 64.7432 384.306 64.9658 384.429C65.1943 384.546 65.6045 384.669 66.1963 384.798C67.1865 385.015 67.8223 385.185 68.1035 385.308C68.3906 385.431 68.6484 385.606 68.877 385.835C69.2637 386.222 69.457 386.708 69.457 387.294C69.457 388.062 69.1143 388.674 68.4287 389.131C67.749 389.588 66.8379 389.816 65.6953 389.816C64.541 389.816 63.6182 389.585 62.9268 389.122C62.2412 388.665 61.8984 388.05 61.8984 387.276C61.8984 386.181 62.5752 385.475 63.9287 385.158C63.3896 384.812 63.1201 384.47 63.1201 384.13C63.1201 383.872 63.2344 383.638 63.4629 383.427C63.6973 383.216 64.0107 383.061 64.4033 382.961C63.2139 382.434 62.6191 381.581 62.6191 380.403ZM65.625 378.997C65.1914 378.997 64.8223 379.144 64.5176 379.437C64.2129 379.729 64.0605 380.081 64.0605 380.491C64.0605 380.907 64.21 381.253 64.5088 381.528C64.8076 381.798 65.1855 381.933 65.6426 381.933C66.0938 381.933 66.4688 381.795 66.7676 381.52C67.0723 381.238 67.2246 380.89 67.2246 380.474C67.2246 380.052 67.0723 379.7 66.7676 379.419C66.4629 379.138 66.082 378.997 65.625 378.997ZM65.2471 386.072C64.708 386.072 64.2656 386.187 63.9199 386.415C63.5801 386.644 63.4102 386.937 63.4102 387.294C63.4102 388.126 64.1602 388.542 65.6602 388.542C66.3691 388.542 66.917 388.437 67.3037 388.226C67.6963 388.021 67.8926 387.728 67.8926 387.347C67.8926 386.972 67.6465 386.664 67.1543 386.424C66.6621 386.189 66.0264 386.072 65.2471 386.072ZM75.7939 380.834V384.271C75.7939 384.546 75.8877 384.684 76.0752 384.684C76.2686 384.684 76.5703 384.54 76.9805 384.253V385.229C76.6172 385.463 76.3242 385.621 76.1016 385.703C75.8848 385.791 75.6562 385.835 75.416 385.835C74.7305 385.835 74.3262 385.565 74.2031 385.026C73.5234 385.554 72.7998 385.817 72.0322 385.817C71.4697 385.817 71.001 385.633 70.626 385.264C70.251 384.889 70.0635 384.42 70.0635 383.857C70.0635 383.348 70.2451 382.894 70.6084 382.495C70.9775 382.091 71.499 381.771 72.1729 381.537L74.2207 380.834V380.403C74.2207 379.431 73.7344 378.944 72.7617 378.944C71.8887 378.944 71.0391 379.396 70.2129 380.298V378.549C70.834 377.816 71.7275 377.45 72.8936 377.45C73.7666 377.45 74.4668 377.679 74.9941 378.136C75.1699 378.282 75.3281 378.479 75.4688 378.725C75.6094 378.965 75.6973 379.208 75.7324 379.454C75.7734 379.694 75.7939 380.154 75.7939 380.834ZM74.2207 384.095V381.695L73.1484 382.108C72.6035 382.325 72.2168 382.545 71.9883 382.768C71.7656 382.984 71.6543 383.257 71.6543 383.585C71.6543 383.919 71.7598 384.191 71.9707 384.402C72.1875 384.613 72.4658 384.719 72.8057 384.719C73.3154 384.719 73.7871 384.511 74.2207 384.095ZM73.4385 372.537C73.8896 372.537 74.2764 372.698 74.5986 373.021C74.9268 373.343 75.0908 373.735 75.0908 374.198C75.0908 374.661 74.9268 375.057 74.5986 375.385C74.2764 375.713 73.8838 375.877 73.4209 375.877C72.9639 375.877 72.5713 375.716 72.2432 375.394C71.9209 375.065 71.7598 374.673 71.7598 374.216C71.7598 373.747 71.9238 373.352 72.252 373.029C72.5859 372.701 72.9814 372.537 73.4385 372.537ZM73.3945 373.249C73.0957 373.249 72.8555 373.34 72.6738 373.521C72.498 373.697 72.4102 373.929 72.4102 374.216C72.4102 374.497 72.5068 374.737 72.7002 374.937C72.8994 375.13 73.1396 375.227 73.4209 375.227C73.7021 375.227 73.9424 375.13 74.1416 374.937C74.3408 374.743 74.4404 374.509 74.4404 374.233C74.4404 373.958 74.3408 373.727 74.1416 373.539C73.9424 373.346 73.6934 373.249 73.3945 373.249ZM80.1094 377.608V379.463L80.1973 379.322C80.9707 378.074 81.7441 377.45 82.5176 377.45C83.1211 377.45 83.751 377.755 84.4072 378.364L83.5635 379.771C83.0068 379.243 82.4912 378.979 82.0166 378.979C81.501 378.979 81.0527 379.226 80.6719 379.718C80.2969 380.21 80.1094 380.793 80.1094 381.467V385.694H78.501V377.608H80.1094ZM90.9287 373.416H92.5371V385.694H89.1182C87.9229 385.694 86.9678 385.316 86.2529 384.561C85.5439 383.805 85.1895 382.791 85.1895 381.52C85.1895 380.33 85.5615 379.352 86.3057 378.584C87.0557 377.816 88.0107 377.433 89.1709 377.433C89.71 377.433 90.2959 377.547 90.9287 377.775V373.416ZM90.9287 384.323V379.199C90.4307 378.947 89.9268 378.821 89.417 378.821C88.6201 378.821 87.9844 379.082 87.5098 379.604C87.041 380.125 86.8066 380.828 86.8066 381.713C86.8066 382.545 87.0117 383.187 87.4219 383.638C87.668 383.907 87.9287 384.089 88.2041 384.183C88.4795 384.276 88.9746 384.323 89.6895 384.323H90.9287ZM106.608 381.792H100.922C100.963 382.565 101.221 383.181 101.695 383.638C102.176 384.095 102.794 384.323 103.55 384.323C104.604 384.323 105.577 383.995 106.468 383.339V384.903C105.976 385.231 105.486 385.466 105 385.606C104.52 385.747 103.954 385.817 103.304 385.817C102.413 385.817 101.692 385.633 101.142 385.264C100.591 384.895 100.148 384.399 99.8145 383.778C99.4863 383.151 99.3223 382.428 99.3223 381.607C99.3223 380.377 99.6709 379.378 100.368 378.61C101.065 377.837 101.971 377.45 103.084 377.45C104.156 377.45 105.012 377.825 105.65 378.575C106.289 379.325 106.608 380.33 106.608 381.59V381.792ZM100.957 380.834H105.026C104.985 380.195 104.795 379.703 104.455 379.357C104.115 379.012 103.658 378.839 103.084 378.839C102.51 378.839 102.038 379.012 101.669 379.357C101.306 379.703 101.068 380.195 100.957 380.834ZM108.384 373.416H109.983V385.694H108.384V373.416ZM112.339 373.416H113.938V385.694H112.339V373.416ZM123.149 381.792H117.463C117.504 382.565 117.762 383.181 118.236 383.638C118.717 384.095 119.335 384.323 120.091 384.323C121.146 384.323 122.118 383.995 123.009 383.339V384.903C122.517 385.231 122.027 385.466 121.541 385.606C121.061 385.747 120.495 385.817 119.845 385.817C118.954 385.817 118.233 385.633 117.683 385.264C117.132 384.895 116.689 384.399 116.355 383.778C116.027 383.151 115.863 382.428 115.863 381.607C115.863 380.377 116.212 379.378 116.909 378.61C117.606 377.837 118.512 377.45 119.625 377.45C120.697 377.45 121.553 377.825 122.191 378.575C122.83 379.325 123.149 380.33 123.149 381.59V381.792ZM117.498 380.834H121.567C121.526 380.195 121.336 379.703 120.996 379.357C120.656 379.012 120.199 378.839 119.625 378.839C119.051 378.839 118.579 379.012 118.21 379.357C117.847 379.703 117.609 380.195 117.498 380.834ZM126.604 377.608V379.463L126.691 379.322C127.465 378.074 128.238 377.45 129.012 377.45C129.615 377.45 130.245 377.755 130.901 378.364L130.058 379.771C129.501 379.243 128.985 378.979 128.511 378.979C127.995 378.979 127.547 379.226 127.166 379.718C126.791 380.21 126.604 380.793 126.604 381.467V385.694H124.995V377.608H126.604ZM137.001 373.416H138.601V378.672C139.269 377.857 140.098 377.45 141.088 377.45C141.627 377.45 142.11 377.585 142.538 377.854C142.966 378.124 143.282 378.496 143.487 378.971C143.698 379.445 143.804 380.151 143.804 381.089V385.694H142.204V380.693C142.204 380.102 142.058 379.627 141.765 379.27C141.478 378.906 141.097 378.725 140.622 378.725C140.271 378.725 139.939 378.815 139.629 378.997C139.318 379.179 138.976 379.48 138.601 379.902V385.694H137.001V373.416ZM146.774 374.207C147.038 374.207 147.264 374.301 147.451 374.488C147.639 374.67 147.732 374.89 147.732 375.147C147.732 375.417 147.642 375.643 147.46 375.824C147.284 376.006 147.062 376.097 146.792 376.097C146.54 376.097 146.317 376.003 146.124 375.815C145.931 375.628 145.834 375.405 145.834 375.147C145.834 374.901 145.928 374.685 146.115 374.497C146.309 374.304 146.528 374.207 146.774 374.207ZM146.019 377.608H147.618V386.846C147.618 388.246 147.079 389.236 146.001 389.816L144.814 388.647C145.184 388.519 145.477 388.293 145.693 387.971C145.91 387.648 146.019 387.273 146.019 386.846V377.608ZM155.071 380.834V384.271C155.071 384.546 155.165 384.684 155.353 384.684C155.546 384.684 155.848 384.54 156.258 384.253V385.229C155.895 385.463 155.602 385.621 155.379 385.703C155.162 385.791 154.934 385.835 154.693 385.835C154.008 385.835 153.604 385.565 153.48 385.026C152.801 385.554 152.077 385.817 151.31 385.817C150.747 385.817 150.278 385.633 149.903 385.264C149.528 384.889 149.341 384.42 149.341 383.857C149.341 383.348 149.522 382.894 149.886 382.495C150.255 382.091 150.776 381.771 151.45 381.537L153.498 380.834V380.403C153.498 379.431 153.012 378.944 152.039 378.944C151.166 378.944 150.316 379.396 149.49 380.298V378.549C150.111 377.816 151.005 377.45 152.171 377.45C153.044 377.45 153.744 377.679 154.271 378.136C154.447 378.282 154.605 378.479 154.746 378.725C154.887 378.965 154.975 379.208 155.01 379.454C155.051 379.694 155.071 380.154 155.071 380.834ZM153.498 384.095V381.695L152.426 382.108C151.881 382.325 151.494 382.545 151.266 382.768C151.043 382.984 150.932 383.257 150.932 383.585C150.932 383.919 151.037 384.191 151.248 384.402C151.465 384.613 151.743 384.719 152.083 384.719C152.593 384.719 153.064 384.511 153.498 384.095ZM151.002 373.688C151.23 373.688 151.427 373.771 151.591 373.935C151.761 374.099 151.846 374.298 151.846 374.532C151.846 374.767 151.767 374.966 151.608 375.13C151.45 375.288 151.257 375.367 151.028 375.367C150.794 375.367 150.595 375.285 150.431 375.121C150.267 374.951 150.185 374.752 150.185 374.523C150.185 374.289 150.264 374.093 150.422 373.935C150.586 373.771 150.779 373.688 151.002 373.688ZM154.386 373.688C154.614 373.688 154.811 373.771 154.975 373.935C155.145 374.099 155.229 374.298 155.229 374.532C155.229 374.767 155.15 374.966 154.992 375.13C154.834 375.288 154.641 375.367 154.412 375.367C154.178 375.367 153.979 375.285 153.814 375.121C153.65 374.951 153.568 374.752 153.568 374.523C153.568 374.289 153.647 374.093 153.806 373.935C153.97 373.771 154.163 373.688 154.386 373.688ZM157.708 373.416H159.308V385.694H157.708V373.416ZM161.522 389.816V377.608H164.326C165.762 377.608 166.878 377.966 167.675 378.681C168.478 379.396 168.879 380.395 168.879 381.678C168.879 382.891 168.501 383.887 167.745 384.666C166.995 385.445 166.037 385.835 164.871 385.835C164.355 385.835 163.784 385.721 163.157 385.492V389.816H161.522ZM164.291 379.103H163.157V384.077C163.649 384.329 164.165 384.455 164.704 384.455C165.454 384.455 166.066 384.194 166.541 383.673C167.021 383.151 167.262 382.48 167.262 381.66C167.262 381.133 167.147 380.667 166.919 380.263C166.696 379.858 166.389 379.565 165.996 379.384C165.609 379.196 165.041 379.103 164.291 379.103ZM182.265 379.823V385.694H180.656V381.194C180.656 380.298 180.536 379.674 180.296 379.322C180.056 378.965 179.637 378.786 179.039 378.786C178.705 378.786 178.397 378.862 178.116 379.015C177.841 379.167 177.524 379.437 177.167 379.823V385.694H175.567V377.608H177.167V378.672C177.981 377.857 178.778 377.45 179.558 377.45C180.583 377.45 181.377 377.937 181.939 378.909C182.795 377.925 183.688 377.433 184.62 377.433C185.405 377.433 186.05 377.72 186.554 378.294C187.063 378.868 187.318 379.744 187.318 380.922V385.694H185.719V380.904C185.719 380.23 185.581 379.715 185.306 379.357C185.03 379 184.635 378.821 184.119 378.821C183.457 378.821 182.839 379.155 182.265 379.823ZM196.415 381.792H190.729C190.77 382.565 191.027 383.181 191.502 383.638C191.982 384.095 192.601 384.323 193.356 384.323C194.411 384.323 195.384 383.995 196.274 383.339V384.903C195.782 385.231 195.293 385.466 194.807 385.606C194.326 385.747 193.761 385.817 193.11 385.817C192.22 385.817 191.499 385.633 190.948 385.264C190.397 384.895 189.955 384.399 189.621 383.778C189.293 383.151 189.129 382.428 189.129 381.607C189.129 380.377 189.478 379.378 190.175 378.61C190.872 377.837 191.777 377.45 192.891 377.45C193.963 377.45 194.818 377.825 195.457 378.575C196.096 379.325 196.415 380.33 196.415 381.59V381.792ZM190.764 380.834H194.833C194.792 380.195 194.602 379.703 194.262 379.357C193.922 379.012 193.465 378.839 192.891 378.839C192.316 378.839 191.845 379.012 191.476 379.357C191.112 379.703 190.875 380.195 190.764 380.834ZM203.552 373.416H205.16V385.694H201.741C200.546 385.694 199.591 385.316 198.876 384.561C198.167 383.805 197.812 382.791 197.812 381.52C197.812 380.33 198.185 379.352 198.929 378.584C199.679 377.816 200.634 377.433 201.794 377.433C202.333 377.433 202.919 377.547 203.552 377.775V373.416ZM203.552 384.323V379.199C203.054 378.947 202.55 378.821 202.04 378.821C201.243 378.821 200.607 379.082 200.133 379.604C199.664 380.125 199.43 380.828 199.43 381.713C199.43 382.545 199.635 383.187 200.045 383.638C200.291 383.907 200.552 384.089 200.827 384.183C201.103 384.276 201.598 384.323 202.312 384.323H203.552ZM217.421 380.834V384.271C217.421 384.546 217.515 384.684 217.702 384.684C217.896 384.684 218.197 384.54 218.607 384.253V385.229C218.244 385.463 217.951 385.621 217.729 385.703C217.512 385.791 217.283 385.835 217.043 385.835C216.357 385.835 215.953 385.565 215.83 385.026C215.15 385.554 214.427 385.817 213.659 385.817C213.097 385.817 212.628 385.633 212.253 385.264C211.878 384.889 211.69 384.42 211.69 383.857C211.69 383.348 211.872 382.894 212.235 382.495C212.604 382.091 213.126 381.771 213.8 381.537L215.848 380.834V380.403C215.848 379.431 215.361 378.944 214.389 378.944C213.516 378.944 212.666 379.396 211.84 380.298V378.549C212.461 377.816 213.354 377.45 214.521 377.45C215.394 377.45 216.094 377.679 216.621 378.136C216.797 378.282 216.955 378.479 217.096 378.725C217.236 378.965 217.324 379.208 217.359 379.454C217.4 379.694 217.421 380.154 217.421 380.834ZM215.848 384.095V381.695L214.775 382.108C214.23 382.325 213.844 382.545 213.615 382.768C213.393 382.984 213.281 383.257 213.281 383.585C213.281 383.919 213.387 384.191 213.598 384.402C213.814 384.613 214.093 384.719 214.433 384.719C214.942 384.719 215.414 384.511 215.848 384.095ZM218.889 378.892L221.895 375.938V377.608H224.452V379.05H221.895V383.014C221.895 383.939 222.278 384.402 223.046 384.402C223.62 384.402 224.227 384.209 224.865 383.822V385.316C224.25 385.662 223.579 385.835 222.853 385.835C222.12 385.835 221.511 385.621 221.024 385.193C220.872 385.064 220.746 384.921 220.646 384.763C220.547 384.599 220.462 384.388 220.392 384.13C220.327 383.866 220.295 383.368 220.295 382.636V379.05H218.889V378.892ZM224.883 378.892L227.889 375.938V377.608H230.446V379.05H227.889V383.014C227.889 383.939 228.272 384.402 229.04 384.402C229.614 384.402 230.221 384.209 230.859 383.822V385.316C230.244 385.662 229.573 385.835 228.847 385.835C228.114 385.835 227.505 385.621 227.019 385.193C226.866 385.064 226.74 384.921 226.641 384.763C226.541 384.599 226.456 384.388 226.386 384.13C226.321 383.866 226.289 383.368 226.289 382.636V379.05H224.883V378.892ZM236.985 373.416H238.585V378.672C239.253 377.857 240.082 377.45 241.072 377.45C241.611 377.45 242.095 377.585 242.522 377.854C242.95 378.124 243.267 378.496 243.472 378.971C243.683 379.445 243.788 380.151 243.788 381.089V385.694H242.188V380.693C242.188 380.102 242.042 379.627 241.749 379.27C241.462 378.906 241.081 378.725 240.606 378.725C240.255 378.725 239.924 378.815 239.613 378.997C239.303 379.179 238.96 379.48 238.585 379.902V385.694H236.985V373.416ZM251.101 380.834V384.271C251.101 384.546 251.194 384.684 251.382 384.684C251.575 384.684 251.877 384.54 252.287 384.253V385.229C251.924 385.463 251.631 385.621 251.408 385.703C251.191 385.791 250.963 385.835 250.723 385.835C250.037 385.835 249.633 385.565 249.51 385.026C248.83 385.554 248.106 385.817 247.339 385.817C246.776 385.817 246.308 385.633 245.933 385.264C245.558 384.889 245.37 384.42 245.37 383.857C245.37 383.348 245.552 382.894 245.915 382.495C246.284 382.091 246.806 381.771 247.479 381.537L249.527 380.834V380.403C249.527 379.431 249.041 378.944 248.068 378.944C247.195 378.944 246.346 379.396 245.52 380.298V378.549C246.141 377.816 247.034 377.45 248.2 377.45C249.073 377.45 249.773 377.679 250.301 378.136C250.477 378.282 250.635 378.479 250.775 378.725C250.916 378.965 251.004 379.208 251.039 379.454C251.08 379.694 251.101 380.154 251.101 380.834ZM249.527 384.095V381.695L248.455 382.108C247.91 382.325 247.523 382.545 247.295 382.768C247.072 382.984 246.961 383.257 246.961 383.585C246.961 383.919 247.066 384.191 247.277 384.402C247.494 384.613 247.772 384.719 248.112 384.719C248.622 384.719 249.094 384.511 249.527 384.095ZM255.302 377.608V378.637C256.017 377.846 256.828 377.45 257.736 377.45C258.24 377.45 258.709 377.582 259.143 377.846C259.576 378.104 259.904 378.461 260.127 378.918C260.355 379.369 260.47 380.087 260.47 381.071V385.694H258.87V381.089C258.87 380.263 258.744 379.674 258.492 379.322C258.24 378.965 257.818 378.786 257.227 378.786C256.471 378.786 255.829 379.164 255.302 379.92V385.694H253.667V377.608H255.302ZM268.099 373.416H269.707V385.694H266.288C265.093 385.694 264.138 385.316 263.423 384.561C262.714 383.805 262.359 382.791 262.359 381.52C262.359 380.33 262.731 379.352 263.476 378.584C264.226 377.816 265.181 377.433 266.341 377.433C266.88 377.433 267.466 377.547 268.099 377.775V373.416ZM268.099 384.323V379.199C267.601 378.947 267.097 378.821 266.587 378.821C265.79 378.821 265.154 379.082 264.68 379.604C264.211 380.125 263.977 380.828 263.977 381.713C263.977 382.545 264.182 383.187 264.592 383.638C264.838 383.907 265.099 384.089 265.374 384.183C265.649 384.276 266.145 384.323 266.859 384.323H268.099ZM271.913 373.416H273.513V385.694H271.913V373.416ZM280.913 380.834V384.271C280.913 384.546 281.007 384.684 281.194 384.684C281.388 384.684 281.689 384.54 282.1 384.253V385.229C281.736 385.463 281.443 385.621 281.221 385.703C281.004 385.791 280.775 385.835 280.535 385.835C279.85 385.835 279.445 385.565 279.322 385.026C278.643 385.554 277.919 385.817 277.151 385.817C276.589 385.817 276.12 385.633 275.745 385.264C275.37 384.889 275.183 384.42 275.183 383.857C275.183 383.348 275.364 382.894 275.728 382.495C276.097 382.091 276.618 381.771 277.292 381.537L279.34 380.834V380.403C279.34 379.431 278.854 378.944 277.881 378.944C277.008 378.944 276.158 379.396 275.332 380.298V378.549C275.953 377.816 276.847 377.45 278.013 377.45C278.886 377.45 279.586 377.679 280.113 378.136C280.289 378.282 280.447 378.479 280.588 378.725C280.729 378.965 280.816 379.208 280.852 379.454C280.893 379.694 280.913 380.154 280.913 380.834ZM279.34 384.095V381.695L278.268 382.108C277.723 382.325 277.336 382.545 277.107 382.768C276.885 382.984 276.773 383.257 276.773 383.585C276.773 383.919 276.879 384.191 277.09 384.402C277.307 384.613 277.585 384.719 277.925 384.719C278.435 384.719 278.906 384.511 279.34 384.095ZM284.341 383.734C284.64 383.734 284.895 383.837 285.105 384.042C285.316 384.247 285.422 384.499 285.422 384.798C285.422 385.091 285.316 385.337 285.105 385.536C284.9 385.735 284.646 385.835 284.341 385.835C284.042 385.835 283.79 385.735 283.585 385.536C283.38 385.337 283.277 385.091 283.277 384.798C283.277 384.499 283.38 384.247 283.585 384.042C283.79 383.837 284.042 383.734 284.341 383.734Z" fill="#171211"/>
<path fill-rule="evenodd" clip-rule="evenodd" d="M17.9525 110.38C47.5487 111.361 87.6911 112.692 149.832 123.859C186.361 130.424 210.998 136.65 231.888 141.93C268.979 151.304 294.262 157.694 353.338 157.694L353.337 109.713L353.41 109.713L353.41 13.2383C353.41 6.31062 347.794 0.694626 340.867 0.694624L12.9621 0.694567C6.03445 0.694566 0.418475 6.31056 0.418474 13.2383L0.418457 109.711L0.410165 109.711C0.412929 109.711 0.415693 109.711 0.418457 109.711L0.418457 109.713L0.449284 109.713C5.88275 109.98 11.6808 110.172 17.9525 110.38Z" fill="#0E5657"/>
<g clip-path="url(#clip0_754_36296)">
<path d="M224.313 55.016C224.718 55.2827 225.266 55.2291 225.576 54.8559C228.88 50.8885 231.783 46.9266 235.269 43.5542C242.859 36.2118 254.366 34.5698 263.855 39.1668C280.705 47.3307 290.474 67.7364 285.547 86.0555C283.457 93.8301 281.505 101.741 281.217 109.823C281.075 113.831 281.356 117.856 282.179 121.784C282.795 124.723 284.151 127.615 283.95 130.679C283.739 133.897 281.271 135.739 278.833 137.504C266.21 146.642 253.643 155.847 241.084 165.074C235.369 169.272 229.655 173.47 223.939 177.667L223.928 177.674C220.528 180.169 215.404 179.156 213.813 175.846C208.416 162.982 196.678 157.892 184.616 153.122C164.295 145.085 144.256 136.321 124.198 127.63C121.902 126.635 119.241 125.577 116.907 127.081C115.974 127.682 115.276 128.575 114.5 129.37C113.159 130.743 111.456 131.377 109.536 131.272C107.923 131.182 106.266 130.495 105.131 129.327C102.15 126.257 104.199 122.663 105.469 119.335C106.25 117.289 107.077 115.26 107.947 113.249C109.643 109.33 111.498 105.481 113.472 101.695C114.776 99.1947 117.601 98.0211 120.195 99.4276C122.588 100.725 124.148 103.583 124.519 106.22C124.71 107.582 124.403 109.061 124.929 110.365C125.596 112.018 127.785 112.329 129.275 112.766C131.383 113.385 133.489 114.016 135.59 114.659C138.742 115.624 141.885 116.617 145.019 117.637C145.834 117.902 154.131 120.359 154.115 120.456C162.929 123.217 171.742 125.978 180.556 128.738C181.379 128.996 182.07 128.073 181.611 127.34C176.022 118.418 171.308 110.886 166.586 103.36C161.825 95.7744 162.392 92.1309 169.383 87.0055C182.976 77.0403 196.711 67.2677 210.192 57.1526C214.841 53.6642 219.26 51.6914 224.313 55.0158L224.313 55.016ZM268.286 108.321C268.775 108.911 269.725 108.683 269.897 107.935C271.988 98.812 274.573 90.4759 275.236 81.9902C275.768 75.1786 274.892 67.5146 272.125 61.3732C268.468 53.2602 261.527 46.799 251.785 46.8325C243.043 46.8625 238.866 54.1599 235.19 60.8406C234.118 62.7891 234.267 66.7938 235.596 68.47C246.118 81.7473 257.024 94.7192 268.286 108.321V108.321Z" fill="#E3C7AA"/>
<path d="M98.9139 141.279C99.2145 140.707 100.028 140.708 100.328 141.281C103.671 147.682 109.531 156.133 105.968 162.969C104.31 166.15 99.7963 167.262 96.5982 165.991C92.2161 164.251 91.2702 158.73 92.5688 154.718C93.3644 152.26 94.4783 149.918 95.6121 147.603C96.2541 146.292 96.914 144.989 97.5595 143.68C97.7226 143.35 98.3997 142.258 98.9139 141.279Z" fill="#6A5752"/>
<path d="M110.621 169.095C110.895 168.556 111.657 168.555 111.93 169.095C114.311 173.81 117.783 178.57 118.351 184.015C118.732 187.672 117.844 192.68 113.925 194.099C113.654 194.197 113.374 194.274 113.091 194.332C110.373 194.883 107.329 194.208 105.59 191.91C103.66 189.36 103.738 185.487 104.418 182.522C105.532 177.666 108.397 173.475 110.621 169.095Z" fill="#FDFAF8"/>
<path d="M85.8424 169.277C86.1385 168.647 87.0247 168.639 87.3314 169.264C88.745 172.148 90.3192 175.09 91.714 178.036C93.1046 180.973 94.817 184.202 94.3428 187.562C93.9996 189.995 92.6027 192.615 90.4135 193.852C88.4132 194.983 85.8534 194.93 83.7929 193.968C78.2929 191.4 78.8331 184.718 80.7611 180.007C82.2603 176.344 84.1618 172.857 85.8424 169.278V169.277Z" fill="#E3C7AA"/>
</g>
<defs>
<clipPath id="clip0_754_36296">
<rect width="208" height="175" fill="white" transform="translate(79.4102 19.6943)"/>
</clipPath>
</defs>
</svg>
