<svg width="353" height="488" viewBox="0 0 353 488" fill="none" xmlns="http://www.w3.org/2000/svg">
<path d="M0 18C0 8.61115 7.61116 1 17 1H336C345.389 1 353 8.61116 353 18V471C353 480.389 345.389 488 336 488H17C7.61116 488 0 480.389 0 471V18Z" fill="#F6ECE3"/>
<path d="M33.684 261H36.622C36.856 261 37.012 260.844 37.012 260.61V256.294L38.988 253.824L43.902 260.766C44.032 260.948 44.162 261 44.37 261H47.776C48.088 261 48.192 260.792 48.01 260.532L41.25 250.912L47.282 243.268C47.464 243.034 47.412 242.8 47.074 242.8H43.512C43.33 242.8 43.174 242.852 43.044 243.008L37.012 251.224V243.19C37.012 242.956 36.856 242.8 36.622 242.8H33.684C33.45 242.8 33.294 242.956 33.294 243.19V260.61C33.294 260.844 33.45 261 33.684 261ZM54.8844 261.312C58.7064 261.312 61.5404 258.4 61.5404 254.63C61.5404 250.86 58.7064 247.948 54.8844 247.948C51.0364 247.948 48.2024 250.86 48.2024 254.63C48.2024 258.4 51.0364 261.312 54.8844 261.312ZM51.6604 254.63C51.6604 252.55 53.0644 251.25 54.8844 251.25C56.6784 251.25 58.0824 252.55 58.0824 254.63C58.0824 256.71 56.6784 258.01 54.8844 258.01C53.0644 258.01 51.6604 256.71 51.6604 254.63ZM64.3498 261H67.1838C67.4178 261 67.5738 260.844 67.5738 260.61V242.8C67.5738 242.566 67.4178 242.41 67.1838 242.41H64.3498C64.1158 242.41 63.9598 242.566 63.9598 242.8V260.61C63.9598 260.844 64.1158 261 64.3498 261ZM71.0529 261H73.8869C74.1209 261 74.2769 260.844 74.2769 260.61V242.8C74.2769 242.566 74.1209 242.41 73.8869 242.41H71.0529C70.8189 242.41 70.6629 242.566 70.6629 242.8V260.61C70.6629 260.844 70.8189 261 71.0529 261ZM83.71 261.312C85.504 261.312 87.142 260.792 88.234 259.7C88.468 259.492 88.494 259.31 88.364 259.128L87.402 257.802C87.272 257.62 87.142 257.594 86.96 257.698C85.92 258.296 84.984 258.478 83.996 258.478C81.942 258.478 80.616 257.594 80.226 255.982H87.974C89.092 255.982 89.378 255.28 89.378 254.032C89.378 250.808 87.142 247.948 83.268 247.948C79.342 247.948 76.716 250.834 76.716 254.578C76.716 258.426 79.524 261.312 83.71 261.312ZM80.174 253.46C80.486 251.77 81.708 250.912 83.294 250.912C84.828 250.912 85.972 251.77 86.18 253.46H80.174ZM92.1779 261H95.0119C95.2459 261 95.4019 260.844 95.4019 260.61V257.906L96.9879 256.112L100.42 260.766C100.55 260.948 100.68 261 100.888 261H103.904C104.216 261 104.32 260.792 104.138 260.532L99.1459 253.642L103.462 248.728C103.67 248.468 103.592 248.26 103.254 248.26H100.056C99.8739 248.26 99.7179 248.312 99.5879 248.468L95.4019 253.408V242.8C95.4019 242.566 95.2459 242.41 95.0119 242.41H92.1779C91.9439 242.41 91.7879 242.566 91.7879 242.8V260.61C91.7879 260.844 91.9439 261 92.1779 261ZM111.458 261.156C112.316 261.156 113.616 261 113.616 260.402V258.504C113.616 258.244 113.434 258.114 113.148 258.14C112.836 258.166 112.576 258.166 112.342 258.166C111.666 258.166 111.224 257.802 111.224 257.048V251.042H113.226C113.46 251.042 113.616 250.886 113.616 250.652V248.65C113.616 248.416 113.46 248.26 113.226 248.26H111.224V245.27C111.224 245.036 111.068 244.88 110.834 244.88H108C107.766 244.88 107.61 245.036 107.61 245.27V248.26H105.998C105.764 248.26 105.608 248.416 105.608 248.65V250.652C105.608 250.886 105.764 251.042 105.998 251.042H107.61V257.438C107.61 260.22 109.43 261.156 111.458 261.156ZM117.755 245.998C118.899 245.998 119.731 245.114 119.731 243.996C119.731 242.904 118.899 242.02 117.755 242.02C116.611 242.02 115.753 242.904 115.753 243.996C115.753 245.114 116.611 245.998 117.755 245.998ZM115.935 260.61C115.935 260.844 116.091 261 116.325 261H119.159C119.393 261 119.549 260.844 119.549 260.61V248.65C119.549 248.416 119.393 248.26 119.159 248.26H116.325C116.091 248.26 115.935 248.416 115.935 248.65V260.61ZM127.135 261H129.969C130.177 261 130.359 260.896 130.437 260.688L135.195 248.702C135.299 248.416 135.169 248.26 134.883 248.26H132.023C131.815 248.26 131.633 248.364 131.555 248.572L128.565 256.866L125.549 248.572C125.471 248.364 125.289 248.26 125.081 248.26H122.221C121.935 248.26 121.805 248.416 121.909 248.702L126.667 260.688C126.745 260.896 126.927 261 127.135 261ZM142.01 261.312C143.908 261.312 145.286 260.506 146.17 259.206L146.222 260.61C146.222 260.844 146.378 261 146.612 261H149.134C149.368 261 149.55 260.844 149.55 260.61V248.65C149.55 248.416 149.394 248.26 149.16 248.26H146.612C146.378 248.26 146.222 248.416 146.222 248.65L146.17 250.054C145.312 248.728 143.934 247.948 142.01 247.948C138.422 247.948 135.952 250.86 135.952 254.63C135.952 258.426 138.422 261.312 142.01 261.312ZM139.462 254.63C139.462 252.602 140.866 251.224 142.764 251.224C144.662 251.224 145.988 252.576 145.988 254.63C145.988 256.684 144.662 258.036 142.764 258.036C140.866 258.036 139.462 256.684 139.462 254.63ZM158.117 261H160.925C161.159 261 161.315 260.844 161.315 260.61V254.006C161.315 252.212 162.303 251.25 163.811 251.25C165.345 251.25 166.177 252.212 166.177 254.006V260.61C166.177 260.844 166.333 261 166.567 261H169.349C169.583 261 169.765 260.844 169.765 260.61V253.2C169.765 249.872 167.815 247.948 165.163 247.948C163.265 247.948 162.043 248.884 161.315 250.184V242.8C161.315 242.566 161.159 242.41 160.925 242.41H158.117C157.883 242.41 157.727 242.566 157.727 242.8V260.61C157.727 260.844 157.883 261 158.117 261ZM174.889 245.998C176.033 245.998 176.865 245.114 176.865 243.996C176.865 242.904 176.033 242.02 174.889 242.02C173.745 242.02 172.887 242.904 172.887 243.996C172.887 245.114 173.745 245.998 174.889 245.998ZM170.131 265.42C170.131 265.576 170.209 265.732 170.365 265.81C171.067 266.148 171.613 266.2 172.315 266.2C175.045 266.2 176.683 264.874 176.683 261.91V248.65C176.683 248.416 176.527 248.26 176.293 248.26H173.459C173.225 248.26 173.069 248.416 173.069 248.65V261.416C173.069 262.352 172.783 263.002 171.535 263.002C171.223 263.002 170.885 262.95 170.469 262.872C170.287 262.846 170.131 262.872 170.131 263.054V265.42ZM185.2 261.312C187.098 261.312 188.476 260.506 189.36 259.206L189.412 260.61C189.412 260.844 189.568 261 189.802 261H192.324C192.558 261 192.74 260.844 192.74 260.61V248.65C192.74 248.416 192.584 248.26 192.35 248.26H189.802C189.568 248.26 189.412 248.416 189.412 248.65L189.36 250.054C188.502 248.728 187.124 247.948 185.2 247.948C181.612 247.948 179.142 250.86 179.142 254.63C179.142 258.426 181.612 261.312 185.2 261.312ZM181.534 244.464C181.534 245.504 182.366 246.284 183.328 246.284C184.316 246.284 185.122 245.504 185.122 244.464C185.122 243.45 184.316 242.67 183.328 242.67C182.366 242.67 181.534 243.45 181.534 244.464ZM182.652 254.63C182.652 252.602 184.056 251.224 185.954 251.224C187.852 251.224 189.178 252.576 189.178 254.63C189.178 256.684 187.852 258.036 185.954 258.036C184.056 258.036 182.652 256.684 182.652 254.63ZM187.254 244.464C187.254 245.504 188.06 246.284 189.048 246.284C190.036 246.284 190.842 245.504 190.842 244.464C190.842 243.45 190.036 242.67 189.048 242.67C188.06 242.67 187.254 243.45 187.254 244.464ZM196.229 261H199.063C199.297 261 199.453 260.844 199.453 260.61V242.8C199.453 242.566 199.297 242.41 199.063 242.41H196.229C195.995 242.41 195.839 242.566 195.839 242.8V260.61C195.839 260.844 195.995 261 196.229 261ZM202.932 265.94H205.766C206 265.94 206.156 265.784 206.156 265.55V259.492C207.04 260.636 208.366 261.312 210.108 261.312C213.67 261.312 216.14 258.426 216.14 254.63C216.14 250.86 213.67 247.948 210.108 247.948C208.158 247.948 206.806 248.728 205.948 250.054L205.896 248.65C205.896 248.416 205.74 248.26 205.506 248.26H202.932C202.698 248.26 202.542 248.416 202.542 248.65V265.55C202.542 265.784 202.698 265.94 202.932 265.94ZM206.104 254.63C206.104 252.576 207.43 251.224 209.354 251.224C211.226 251.224 212.63 252.602 212.63 254.63C212.63 256.684 211.226 258.036 209.354 258.036C207.43 258.036 206.104 256.684 206.104 254.63ZM224.933 261.312C226.727 261.312 228.365 260.792 229.457 259.7C229.691 259.492 229.717 259.31 229.587 259.128L228.625 257.802C228.495 257.62 228.365 257.594 228.183 257.698C227.143 258.296 226.207 258.478 225.219 258.478C223.165 258.478 221.839 257.594 221.449 255.982H229.197C230.315 255.982 230.601 255.28 230.601 254.032C230.601 250.808 228.365 247.948 224.491 247.948C220.565 247.948 217.939 250.834 217.939 254.578C217.939 258.426 220.747 261.312 224.933 261.312ZM221.397 253.46C221.709 251.77 222.931 250.912 224.517 250.912C226.051 250.912 227.195 251.77 227.403 253.46H221.397ZM233.401 261H236.209C236.443 261 236.599 260.844 236.599 260.61V254.24C236.599 252.42 237.535 251.25 239.303 251.25C239.667 251.25 239.953 251.302 240.239 251.38C240.577 251.458 240.759 251.38 240.759 251.068V248.78C240.759 248.546 240.707 248.39 240.525 248.26C240.317 248.104 239.953 247.948 239.355 247.948C237.847 247.948 237.041 248.962 236.599 250.314L236.495 248.676C236.469 248.364 236.339 248.26 236.105 248.26H233.401C233.167 248.26 233.011 248.416 233.011 248.65V260.61C233.011 260.844 233.167 261 233.401 261ZM253.297 261.312C255.195 261.312 256.573 260.506 257.457 259.206L257.509 260.61C257.509 260.844 257.665 261 257.899 261H260.421C260.655 261 260.837 260.844 260.837 260.61V242.8C260.837 242.566 260.681 242.41 260.447 242.41H257.613C257.379 242.41 257.223 242.566 257.223 242.8V249.742C256.365 248.598 255.065 247.948 253.297 247.948C249.709 247.948 247.239 250.86 247.239 254.63C247.239 258.426 249.709 261.312 253.297 261.312ZM250.749 254.63C250.749 252.602 252.153 251.224 254.051 251.224C255.949 251.224 257.275 252.576 257.275 254.63C257.275 256.684 255.949 258.036 254.051 258.036C252.153 258.036 250.749 256.684 250.749 254.63ZM265.782 245.998C266.926 245.998 267.758 245.114 267.758 243.996C267.758 242.904 266.926 242.02 265.782 242.02C264.638 242.02 263.78 242.904 263.78 243.996C263.78 245.114 264.638 245.998 265.782 245.998ZM263.962 260.61C263.962 260.844 264.118 261 264.352 261H267.186C267.42 261 267.576 260.844 267.576 260.61V248.65C267.576 248.416 267.42 248.26 267.186 248.26H264.352C264.118 248.26 263.962 248.416 263.962 248.65V260.61ZM276.696 266.33C279.842 266.33 283.43 264.874 283.43 260.298V248.65C283.43 248.416 283.274 248.26 283.04 248.26H280.492C280.258 248.26 280.076 248.416 280.076 248.65L280.024 249.82C279.218 248.624 277.918 247.948 276.046 247.948C272.458 247.948 270.04 250.6 270.04 254.344C270.04 258.114 272.458 260.74 276.046 260.74C277.866 260.74 279.192 260.038 279.998 258.894V260.272C279.998 262.638 278.152 263.418 276.358 263.418C275.24 263.418 274.096 263.106 272.978 262.482C272.692 262.326 272.458 262.43 272.328 262.69L271.574 264.12C271.444 264.354 271.47 264.692 271.73 264.874C272.978 265.81 274.798 266.33 276.696 266.33ZM273.55 254.344C273.55 252.42 274.902 251.172 276.748 251.172C278.568 251.172 279.868 252.394 279.868 254.344C279.868 256.294 278.568 257.516 276.748 257.516C274.902 257.516 273.55 256.294 273.55 254.344ZM38.442 291.312C40.34 291.312 41.718 290.506 42.602 289.206L42.654 290.61C42.654 290.844 42.81 291 43.044 291H45.566C45.8 291 45.982 290.844 45.982 290.61V278.65C45.982 278.416 45.826 278.26 45.592 278.26H43.044C42.81 278.26 42.654 278.416 42.654 278.65L42.602 280.054C41.744 278.728 40.366 277.948 38.442 277.948C34.854 277.948 32.384 280.86 32.384 284.63C32.384 288.426 34.854 291.312 38.442 291.312ZM35.894 284.63C35.894 282.602 37.298 281.224 39.196 281.224C41.094 281.224 42.42 282.576 42.42 284.63C42.42 286.684 41.094 288.036 39.196 288.036C37.298 288.036 35.894 286.684 35.894 284.63ZM54.1509 291.156C55.0089 291.156 56.3089 291 56.3089 290.402V288.504C56.3089 288.244 56.1269 288.114 55.8409 288.14C55.5289 288.166 55.2689 288.166 55.0349 288.166C54.3589 288.166 53.9169 287.802 53.9169 287.048V281.042H55.9189C56.1529 281.042 56.3089 280.886 56.3089 280.652V278.65C56.3089 278.416 56.1529 278.26 55.9189 278.26H53.9169V275.27C53.9169 275.036 53.7609 274.88 53.5269 274.88H50.6929C50.4589 274.88 50.3029 275.036 50.3029 275.27V278.26H48.6909C48.4569 278.26 48.3009 278.416 48.3009 278.65V280.652C48.3009 280.886 48.4569 281.042 48.6909 281.042H50.3029V287.438C50.3029 290.22 52.1229 291.156 54.1509 291.156ZM63.6724 291.156C64.5304 291.156 65.8304 291 65.8304 290.402V288.504C65.8304 288.244 65.6484 288.114 65.3624 288.14C65.0504 288.166 64.7904 288.166 64.5564 288.166C63.8804 288.166 63.4384 287.802 63.4384 287.048V281.042H65.4404C65.6744 281.042 65.8304 280.886 65.8304 280.652V278.65C65.8304 278.416 65.6744 278.26 65.4404 278.26H63.4384V275.27C63.4384 275.036 63.2824 274.88 63.0484 274.88H60.2144C59.9804 274.88 59.8244 275.036 59.8244 275.27V278.26H58.2124C57.9784 278.26 57.8224 278.416 57.8224 278.65V280.652C57.8224 280.886 57.9784 281.042 58.2124 281.042H59.8244V287.438C59.8244 290.22 61.6444 291.156 63.6724 291.156ZM77.544 291.312C80.092 291.312 82.302 289.986 82.328 287.412C82.354 285.462 81.08 284.344 79.468 283.694L77.674 282.992C76.972 282.732 76.452 282.394 76.452 281.77C76.452 281.224 76.842 280.756 77.674 280.756C78.428 280.756 79.156 281.12 79.988 281.822C80.222 282.004 80.404 282.03 80.586 281.822L81.73 280.444C81.86 280.288 81.912 280.08 81.756 279.898C80.69 278.624 79.156 277.948 77.492 277.948C75.126 277.948 73.046 279.352 73.046 281.796C73.046 283.564 74.19 284.656 75.828 285.306L77.44 285.956C78.376 286.346 78.766 286.632 78.766 287.256C78.766 287.984 78.194 288.322 77.336 288.322C76.348 288.322 75.464 287.88 74.398 287.074C74.19 286.918 73.956 286.866 73.748 287.178L72.838 288.452C72.656 288.738 72.63 289.024 72.786 289.206C73.8 290.402 75.412 291.312 77.544 291.312ZM90.1627 291.312C92.0607 291.312 93.4387 290.506 94.3227 289.206L94.3747 290.61C94.3747 290.844 94.5307 291 94.7647 291H97.2867C97.5207 291 97.7027 290.844 97.7027 290.61V278.65C97.7027 278.416 97.5467 278.26 97.3127 278.26H94.7647C94.5307 278.26 94.3747 278.416 94.3747 278.65L94.3227 280.054C93.4647 278.728 92.0867 277.948 90.1627 277.948C86.5747 277.948 84.1047 280.86 84.1047 284.63C84.1047 288.426 86.5747 291.312 90.1627 291.312ZM86.4967 274.464C86.4967 275.504 87.3287 276.284 88.2907 276.284C89.2787 276.284 90.0847 275.504 90.0847 274.464C90.0847 273.45 89.2787 272.67 88.2907 272.67C87.3287 272.67 86.4967 273.45 86.4967 274.464ZM87.6147 284.63C87.6147 282.602 89.0187 281.224 90.9167 281.224C92.8147 281.224 94.1407 282.576 94.1407 284.63C94.1407 286.684 92.8147 288.036 90.9167 288.036C89.0187 288.036 87.6147 286.684 87.6147 284.63ZM92.2167 274.464C92.2167 275.504 93.0227 276.284 94.0107 276.284C94.9987 276.284 95.8047 275.504 95.8047 274.464C95.8047 273.45 94.9987 272.67 94.0107 272.67C93.0227 272.67 92.2167 273.45 92.2167 274.464ZM105.872 291.156C106.73 291.156 108.03 291 108.03 290.402V288.504C108.03 288.244 107.848 288.114 107.562 288.14C107.25 288.166 106.99 288.166 106.756 288.166C106.08 288.166 105.638 287.802 105.638 287.048V281.042H107.64C107.874 281.042 108.03 280.886 108.03 280.652V278.65C108.03 278.416 107.874 278.26 107.64 278.26H105.638V275.27C105.638 275.036 105.482 274.88 105.248 274.88H102.414C102.18 274.88 102.024 275.036 102.024 275.27V278.26H100.412C100.178 278.26 100.022 278.416 100.022 278.65V280.652C100.022 280.886 100.178 281.042 100.412 281.042H102.024V287.438C102.024 290.22 103.844 291.156 105.872 291.156ZM115.393 291.156C116.251 291.156 117.551 291 117.551 290.402V288.504C117.551 288.244 117.369 288.114 117.083 288.14C116.771 288.166 116.511 288.166 116.277 288.166C115.601 288.166 115.159 287.802 115.159 287.048V281.042H117.161C117.395 281.042 117.551 280.886 117.551 280.652V278.65C117.551 278.416 117.395 278.26 117.161 278.26H115.159V275.27C115.159 275.036 115.003 274.88 114.769 274.88H111.935C111.701 274.88 111.545 275.036 111.545 275.27V278.26H109.933C109.699 278.26 109.543 278.416 109.543 278.65V280.652C109.543 280.886 109.699 281.042 109.933 281.042H111.545V287.438C111.545 290.22 113.365 291.156 115.393 291.156ZM125.126 291.312C127.024 291.312 128.402 290.506 129.286 289.206L129.338 290.61C129.338 290.844 129.494 291 129.728 291H132.25C132.484 291 132.666 290.844 132.666 290.61V278.65C132.666 278.416 132.51 278.26 132.276 278.26H129.728C129.494 278.26 129.338 278.416 129.338 278.65L129.286 280.054C128.428 278.728 127.05 277.948 125.126 277.948C121.538 277.948 119.068 280.86 119.068 284.63C119.068 288.426 121.538 291.312 125.126 291.312ZM122.578 284.63C122.578 282.602 123.982 281.224 125.88 281.224C127.778 281.224 129.104 282.576 129.104 284.63C129.104 286.684 127.778 288.036 125.88 288.036C123.982 288.036 122.578 286.684 122.578 284.63ZM141.233 291H144.041C144.275 291 144.431 290.844 144.431 290.61V284.24C144.431 282.42 145.367 281.25 147.135 281.25C147.499 281.25 147.785 281.302 148.071 281.38C148.409 281.458 148.591 281.38 148.591 281.068V278.78C148.591 278.546 148.539 278.39 148.357 278.26C148.149 278.104 147.785 277.948 147.187 277.948C145.679 277.948 144.873 278.962 144.431 280.314L144.327 278.676C144.301 278.364 144.171 278.26 143.937 278.26H141.233C140.999 278.26 140.843 278.416 140.843 278.65V290.61C140.843 290.844 140.999 291 141.233 291ZM155.95 291.312C157.848 291.312 159.226 290.506 160.11 289.206L160.162 290.61C160.162 290.844 160.318 291 160.552 291H163.074C163.308 291 163.49 290.844 163.49 290.61V278.65C163.49 278.416 163.334 278.26 163.1 278.26H160.552C160.318 278.26 160.162 278.416 160.162 278.65L160.11 280.054C159.252 278.728 157.874 277.948 155.95 277.948C152.362 277.948 149.892 280.86 149.892 284.63C149.892 288.426 152.362 291.312 155.95 291.312ZM152.284 274.464C152.284 275.504 153.116 276.284 154.078 276.284C155.066 276.284 155.872 275.504 155.872 274.464C155.872 273.45 155.066 272.67 154.078 272.67C153.116 272.67 152.284 273.45 152.284 274.464ZM153.402 284.63C153.402 282.602 154.806 281.224 156.704 281.224C158.602 281.224 159.928 282.576 159.928 284.63C159.928 286.684 158.602 288.036 156.704 288.036C154.806 288.036 153.402 286.684 153.402 284.63ZM158.004 274.464C158.004 275.504 158.81 276.284 159.798 276.284C160.786 276.284 161.592 275.504 161.592 274.464C161.592 273.45 160.786 272.67 159.798 272.67C158.81 272.67 158.004 273.45 158.004 274.464ZM171.659 291.156C172.517 291.156 173.817 291 173.817 290.402V288.504C173.817 288.244 173.635 288.114 173.349 288.14C173.037 288.166 172.777 288.166 172.543 288.166C171.867 288.166 171.425 287.802 171.425 287.048V281.042H173.427C173.661 281.042 173.817 280.886 173.817 280.652V278.65C173.817 278.416 173.661 278.26 173.427 278.26H171.425V275.27C171.425 275.036 171.269 274.88 171.035 274.88H168.201C167.967 274.88 167.811 275.036 167.811 275.27V278.26H166.199C165.965 278.26 165.809 278.416 165.809 278.65V280.652C165.809 280.886 165.965 281.042 166.199 281.042H167.811V287.438C167.811 290.22 169.631 291.156 171.659 291.156ZM181.18 291.156C182.038 291.156 183.338 291 183.338 290.402V288.504C183.338 288.244 183.156 288.114 182.87 288.14C182.558 288.166 182.298 288.166 182.064 288.166C181.388 288.166 180.946 287.802 180.946 287.048V281.042H182.948C183.182 281.042 183.338 280.886 183.338 280.652V278.65C183.338 278.416 183.182 278.26 182.948 278.26H180.946V275.27C180.946 275.036 180.79 274.88 180.556 274.88H177.722C177.488 274.88 177.332 275.036 177.332 275.27V278.26H175.72C175.486 278.26 175.33 278.416 175.33 278.65V280.652C175.33 280.886 175.486 281.042 175.72 281.042H177.332V287.438C177.332 290.22 179.152 291.156 181.18 291.156ZM191.1 291H193.908C194.142 291 194.298 290.844 194.298 290.61V284.006C194.298 282.212 195.286 281.25 196.794 281.25C198.328 281.25 199.16 282.212 199.16 284.006V290.61C199.16 290.844 199.316 291 199.55 291H202.332C202.566 291 202.748 290.844 202.748 290.61V283.2C202.748 279.872 200.798 277.948 198.146 277.948C196.248 277.948 195.026 278.884 194.298 280.184V272.8C194.298 272.566 194.142 272.41 193.908 272.41H191.1C190.866 272.41 190.71 272.566 190.71 272.8V290.61C190.71 290.844 190.866 291 191.1 291ZM207.402 295.94H210.158C210.366 295.94 210.548 295.836 210.626 295.628L217.36 278.702C217.464 278.416 217.334 278.26 217.048 278.26H214.188C213.98 278.26 213.798 278.364 213.72 278.572L210.704 286.84L207.662 278.572C207.584 278.364 207.402 278.26 207.194 278.26H204.334C204.048 278.26 203.918 278.416 204.022 278.702L208.936 291.026L207.09 295.498C206.96 295.784 207.116 295.94 207.402 295.94ZM220.07 291H222.878C223.112 291 223.268 290.844 223.268 290.61V284.24C223.268 282.42 224.204 281.25 225.972 281.25C226.336 281.25 226.622 281.302 226.908 281.38C227.246 281.458 227.428 281.38 227.428 281.068V278.78C227.428 278.546 227.376 278.39 227.194 278.26C226.986 278.104 226.622 277.948 226.024 277.948C224.516 277.948 223.71 278.962 223.268 280.314L223.164 278.676C223.138 278.364 223.008 278.26 222.774 278.26H220.07C219.836 278.26 219.68 278.416 219.68 278.65V290.61C219.68 290.844 219.836 291 220.07 291ZM234.788 291.312C236.686 291.312 238.064 290.506 238.948 289.206L239 290.61C239 290.844 239.156 291 239.39 291H241.912C242.146 291 242.328 290.844 242.328 290.61V278.65C242.328 278.416 242.172 278.26 241.938 278.26H239.39C239.156 278.26 239 278.416 239 278.65L238.948 280.054C238.09 278.728 236.712 277.948 234.788 277.948C231.2 277.948 228.73 280.86 228.73 284.63C228.73 288.426 231.2 291.312 234.788 291.312ZM232.24 284.63C232.24 282.602 233.644 281.224 235.542 281.224C237.44 281.224 238.766 282.576 238.766 284.63C238.766 286.684 237.44 288.036 235.542 288.036C233.644 288.036 232.24 286.684 232.24 284.63Z" fill="#0E5657"/>
<path d="M40.623 323.722H42.3721L37.1865 336.053H36.791L31.5 323.722H33.2666L36.958 332.344L40.623 323.722ZM44.3408 324.513C44.6045 324.513 44.8301 324.604 45.0176 324.785C45.2051 324.967 45.2988 325.189 45.2988 325.453C45.2988 325.711 45.2051 325.934 45.0176 326.121C44.8301 326.309 44.6045 326.402 44.3408 326.402C44.0947 326.402 43.8779 326.309 43.6904 326.121C43.5029 325.928 43.4092 325.705 43.4092 325.453C43.4092 325.207 43.5029 324.99 43.6904 324.803C43.8779 324.609 44.0947 324.513 44.3408 324.513ZM43.5498 327.914H45.1494V336H43.5498V327.914ZM52.4443 323.722H54.0439V328.978C54.7119 328.163 55.541 327.756 56.5312 327.756C57.0703 327.756 57.5537 327.891 57.9814 328.16C58.4092 328.43 58.7256 328.802 58.9307 329.276C59.1416 329.751 59.2471 330.457 59.2471 331.395V336H57.6475V330.999C57.6475 330.407 57.501 329.933 57.208 329.575C56.9209 329.212 56.54 329.03 56.0654 329.03C55.7139 329.03 55.3828 329.121 55.0723 329.303C54.7617 329.484 54.4189 329.786 54.0439 330.208V336H52.4443V323.722ZM62.2178 324.513C62.4814 324.513 62.707 324.606 62.8945 324.794C63.082 324.976 63.1758 325.195 63.1758 325.453C63.1758 325.723 63.085 325.948 62.9033 326.13C62.7275 326.312 62.5049 326.402 62.2354 326.402C61.9834 326.402 61.7607 326.309 61.5674 326.121C61.374 325.934 61.2773 325.711 61.2773 325.453C61.2773 325.207 61.3711 324.99 61.5586 324.803C61.752 324.609 61.9717 324.513 62.2178 324.513ZM61.4619 327.914H63.0615V337.151C63.0615 338.552 62.5225 339.542 61.4443 340.122L60.2578 338.953C60.627 338.824 60.9199 338.599 61.1367 338.276C61.3535 337.954 61.4619 337.579 61.4619 337.151V327.914ZM70.5146 331.14V334.576C70.5146 334.852 70.6084 334.989 70.7959 334.989C70.9893 334.989 71.291 334.846 71.7012 334.559V335.534C71.3379 335.769 71.0449 335.927 70.8223 336.009C70.6055 336.097 70.377 336.141 70.1367 336.141C69.4512 336.141 69.0469 335.871 68.9238 335.332C68.2441 335.859 67.5205 336.123 66.7529 336.123C66.1904 336.123 65.7217 335.938 65.3467 335.569C64.9717 335.194 64.7842 334.726 64.7842 334.163C64.7842 333.653 64.9658 333.199 65.3291 332.801C65.6982 332.396 66.2197 332.077 66.8936 331.843L68.9414 331.14V330.709C68.9414 329.736 68.4551 329.25 67.4824 329.25C66.6094 329.25 65.7598 329.701 64.9336 330.604V328.854C65.5547 328.122 66.4482 327.756 67.6143 327.756C68.4873 327.756 69.1875 327.984 69.7148 328.441C69.8906 328.588 70.0488 328.784 70.1895 329.03C70.3301 329.271 70.418 329.514 70.4531 329.76C70.4941 330 70.5146 330.46 70.5146 331.14ZM68.9414 334.4V332.001L67.8691 332.414C67.3242 332.631 66.9375 332.851 66.709 333.073C66.4863 333.29 66.375 333.562 66.375 333.891C66.375 334.225 66.4805 334.497 66.6914 334.708C66.9082 334.919 67.1865 335.024 67.5264 335.024C68.0361 335.024 68.5078 334.816 68.9414 334.4ZM66.4453 323.994C66.6738 323.994 66.8701 324.076 67.0342 324.24C67.2041 324.404 67.2891 324.604 67.2891 324.838C67.2891 325.072 67.21 325.271 67.0518 325.436C66.8936 325.594 66.7002 325.673 66.4717 325.673C66.2373 325.673 66.0381 325.591 65.874 325.427C65.71 325.257 65.6279 325.058 65.6279 324.829C65.6279 324.595 65.707 324.398 65.8652 324.24C66.0293 324.076 66.2227 323.994 66.4453 323.994ZM69.8291 323.994C70.0576 323.994 70.2539 324.076 70.418 324.24C70.5879 324.404 70.6729 324.604 70.6729 324.838C70.6729 325.072 70.5938 325.271 70.4355 325.436C70.2773 325.594 70.084 325.673 69.8555 325.673C69.6211 325.673 69.4219 325.591 69.2578 325.427C69.0938 325.257 69.0117 325.058 69.0117 324.829C69.0117 324.595 69.0908 324.398 69.249 324.24C69.4131 324.076 69.6064 323.994 69.8291 323.994ZM73.1514 323.722H74.751V336H73.1514V323.722ZM76.9658 340.122V327.914H79.7695C81.2051 327.914 82.3213 328.271 83.1182 328.986C83.9209 329.701 84.3223 330.7 84.3223 331.983C84.3223 333.196 83.9443 334.192 83.1885 334.972C82.4385 335.751 81.4805 336.141 80.3145 336.141C79.7988 336.141 79.2275 336.026 78.6006 335.798V340.122H76.9658ZM79.7344 329.408H78.6006V334.383C79.0928 334.635 79.6084 334.761 80.1475 334.761C80.8975 334.761 81.5098 334.5 81.9844 333.979C82.4648 333.457 82.7051 332.786 82.7051 331.966C82.7051 331.438 82.5908 330.973 82.3623 330.568C82.1396 330.164 81.832 329.871 81.4395 329.689C81.0527 329.502 80.4844 329.408 79.7344 329.408ZM92.9619 332.098H87.2754C87.3164 332.871 87.5742 333.486 88.0488 333.943C88.5293 334.4 89.1475 334.629 89.9033 334.629C90.958 334.629 91.9307 334.301 92.8213 333.645V335.209C92.3291 335.537 91.8398 335.771 91.3535 335.912C90.873 336.053 90.3076 336.123 89.6572 336.123C88.7666 336.123 88.0459 335.938 87.4951 335.569C86.9443 335.2 86.502 334.705 86.168 334.084C85.8398 333.457 85.6758 332.733 85.6758 331.913C85.6758 330.683 86.0244 329.684 86.7217 328.916C87.4189 328.143 88.3242 327.756 89.4375 327.756C90.5098 327.756 91.3652 328.131 92.0039 328.881C92.6426 329.631 92.9619 330.636 92.9619 331.896V332.098ZM87.3105 331.14H91.3799C91.3389 330.501 91.1484 330.009 90.8086 329.663C90.4688 329.317 90.0117 329.145 89.4375 329.145C88.8633 329.145 88.3916 329.317 88.0225 329.663C87.6592 330.009 87.4219 330.501 87.3105 331.14ZM96.416 327.914V329.769L96.5039 329.628C97.2773 328.38 98.0508 327.756 98.8242 327.756C99.4277 327.756 100.058 328.061 100.714 328.67L99.8701 330.076C99.3135 329.549 98.7979 329.285 98.3232 329.285C97.8076 329.285 97.3594 329.531 96.9785 330.023C96.6035 330.516 96.416 331.099 96.416 331.772V336H94.8076V327.914H96.416ZM112.245 323.722H113.854V336H110.435C109.239 336 108.284 335.622 107.569 334.866C106.86 334.11 106.506 333.097 106.506 331.825C106.506 330.636 106.878 329.657 107.622 328.89C108.372 328.122 109.327 327.738 110.487 327.738C111.026 327.738 111.612 327.853 112.245 328.081V323.722ZM112.245 334.629V329.505C111.747 329.253 111.243 329.127 110.733 329.127C109.937 329.127 109.301 329.388 108.826 329.909C108.357 330.431 108.123 331.134 108.123 332.019C108.123 332.851 108.328 333.492 108.738 333.943C108.984 334.213 109.245 334.395 109.521 334.488C109.796 334.582 110.291 334.629 111.006 334.629H112.245ZM116.851 324.513C117.114 324.513 117.34 324.604 117.527 324.785C117.715 324.967 117.809 325.189 117.809 325.453C117.809 325.711 117.715 325.934 117.527 326.121C117.34 326.309 117.114 326.402 116.851 326.402C116.604 326.402 116.388 326.309 116.2 326.121C116.013 325.928 115.919 325.705 115.919 325.453C115.919 325.207 116.013 324.99 116.2 324.803C116.388 324.609 116.604 324.513 116.851 324.513ZM116.06 327.914H117.659V336H116.06V327.914ZM119.566 330.709C119.566 329.848 119.88 329.168 120.507 328.67C121.14 328.166 122.001 327.914 123.091 327.914H126.422V329.162H124.787C125.104 329.484 125.323 329.777 125.446 330.041C125.569 330.305 125.631 330.606 125.631 330.946C125.631 331.368 125.511 331.784 125.271 332.194C125.03 332.599 124.72 332.909 124.339 333.126C123.964 333.343 123.346 333.516 122.484 333.645C121.881 333.732 121.579 333.94 121.579 334.269C121.579 334.456 121.69 334.611 121.913 334.734C122.142 334.852 122.552 334.975 123.144 335.104C124.134 335.32 124.77 335.49 125.051 335.613C125.338 335.736 125.596 335.912 125.824 336.141C126.211 336.527 126.404 337.014 126.404 337.6C126.404 338.367 126.062 338.979 125.376 339.437C124.696 339.894 123.785 340.122 122.643 340.122C121.488 340.122 120.565 339.891 119.874 339.428C119.188 338.971 118.846 338.355 118.846 337.582C118.846 336.486 119.522 335.78 120.876 335.464C120.337 335.118 120.067 334.775 120.067 334.436C120.067 334.178 120.182 333.943 120.41 333.732C120.645 333.521 120.958 333.366 121.351 333.267C120.161 332.739 119.566 331.887 119.566 330.709ZM122.572 329.303C122.139 329.303 121.77 329.449 121.465 329.742C121.16 330.035 121.008 330.387 121.008 330.797C121.008 331.213 121.157 331.559 121.456 331.834C121.755 332.104 122.133 332.238 122.59 332.238C123.041 332.238 123.416 332.101 123.715 331.825C124.02 331.544 124.172 331.195 124.172 330.779C124.172 330.357 124.02 330.006 123.715 329.725C123.41 329.443 123.029 329.303 122.572 329.303ZM122.194 336.378C121.655 336.378 121.213 336.492 120.867 336.721C120.527 336.949 120.357 337.242 120.357 337.6C120.357 338.432 121.107 338.848 122.607 338.848C123.316 338.848 123.864 338.742 124.251 338.531C124.644 338.326 124.84 338.033 124.84 337.652C124.84 337.277 124.594 336.97 124.102 336.729C123.609 336.495 122.974 336.378 122.194 336.378ZM137.751 331.14V334.576C137.751 334.852 137.845 334.989 138.032 334.989C138.226 334.989 138.527 334.846 138.938 334.559V335.534C138.574 335.769 138.281 335.927 138.059 336.009C137.842 336.097 137.613 336.141 137.373 336.141C136.688 336.141 136.283 335.871 136.16 335.332C135.48 335.859 134.757 336.123 133.989 336.123C133.427 336.123 132.958 335.938 132.583 335.569C132.208 335.194 132.021 334.726 132.021 334.163C132.021 333.653 132.202 333.199 132.565 332.801C132.935 332.396 133.456 332.077 134.13 331.843L136.178 331.14V330.709C136.178 329.736 135.691 329.25 134.719 329.25C133.846 329.25 132.996 329.701 132.17 330.604V328.854C132.791 328.122 133.685 327.756 134.851 327.756C135.724 327.756 136.424 327.984 136.951 328.441C137.127 328.588 137.285 328.784 137.426 329.03C137.566 329.271 137.654 329.514 137.689 329.76C137.73 330 137.751 330.46 137.751 331.14ZM136.178 334.4V332.001L135.105 332.414C134.561 332.631 134.174 332.851 133.945 333.073C133.723 333.29 133.611 333.562 133.611 333.891C133.611 334.225 133.717 334.497 133.928 334.708C134.145 334.919 134.423 335.024 134.763 335.024C135.272 335.024 135.744 334.816 136.178 334.4ZM139.219 329.197L142.225 326.244V327.914H144.782V329.355H142.225V333.319C142.225 334.245 142.608 334.708 143.376 334.708C143.95 334.708 144.557 334.515 145.195 334.128V335.622C144.58 335.968 143.909 336.141 143.183 336.141C142.45 336.141 141.841 335.927 141.354 335.499C141.202 335.37 141.076 335.227 140.977 335.068C140.877 334.904 140.792 334.693 140.722 334.436C140.657 334.172 140.625 333.674 140.625 332.941V329.355H139.219V329.197ZM145.213 329.197L148.219 326.244V327.914H150.776V329.355H148.219V333.319C148.219 334.245 148.603 334.708 149.37 334.708C149.944 334.708 150.551 334.515 151.189 334.128V335.622C150.574 335.968 149.903 336.141 149.177 336.141C148.444 336.141 147.835 335.927 147.349 335.499C147.196 335.37 147.07 335.227 146.971 335.068C146.871 334.904 146.786 334.693 146.716 334.436C146.651 334.172 146.619 333.674 146.619 332.941V329.355H145.213V329.197ZM156.955 335.42V333.697C157.406 334.014 157.866 334.271 158.335 334.471C158.81 334.664 159.208 334.761 159.53 334.761C159.864 334.761 160.151 334.679 160.392 334.515C160.632 334.351 160.752 334.154 160.752 333.926C160.752 333.691 160.673 333.498 160.515 333.346C160.362 333.188 160.028 332.962 159.513 332.669C158.481 332.095 157.805 331.605 157.482 331.201C157.166 330.791 157.008 330.346 157.008 329.865C157.008 329.244 157.248 328.737 157.729 328.345C158.215 327.952 158.839 327.756 159.601 327.756C160.392 327.756 161.203 327.979 162.035 328.424V330.006C161.086 329.432 160.31 329.145 159.706 329.145C159.396 329.145 159.144 329.212 158.95 329.347C158.763 329.476 158.669 329.648 158.669 329.865C158.669 330.053 158.754 330.231 158.924 330.401C159.1 330.571 159.404 330.776 159.838 331.017L160.409 331.342C161.757 332.104 162.431 332.947 162.431 333.873C162.431 334.535 162.17 335.08 161.648 335.508C161.133 335.93 160.468 336.141 159.653 336.141C159.173 336.141 158.745 336.091 158.37 335.991C157.995 335.886 157.523 335.695 156.955 335.42ZM169.356 331.14V334.576C169.356 334.852 169.45 334.989 169.638 334.989C169.831 334.989 170.133 334.846 170.543 334.559V335.534C170.18 335.769 169.887 335.927 169.664 336.009C169.447 336.097 169.219 336.141 168.979 336.141C168.293 336.141 167.889 335.871 167.766 335.332C167.086 335.859 166.362 336.123 165.595 336.123C165.032 336.123 164.563 335.938 164.188 335.569C163.813 335.194 163.626 334.726 163.626 334.163C163.626 333.653 163.808 333.199 164.171 332.801C164.54 332.396 165.062 332.077 165.735 331.843L167.783 331.14V330.709C167.783 329.736 167.297 329.25 166.324 329.25C165.451 329.25 164.602 329.701 163.775 330.604V328.854C164.396 328.122 165.29 327.756 166.456 327.756C167.329 327.756 168.029 327.984 168.557 328.441C168.732 328.588 168.891 328.784 169.031 329.03C169.172 329.271 169.26 329.514 169.295 329.76C169.336 330 169.356 330.46 169.356 331.14ZM167.783 334.4V332.001L166.711 332.414C166.166 332.631 165.779 332.851 165.551 333.073C165.328 333.29 165.217 333.562 165.217 333.891C165.217 334.225 165.322 334.497 165.533 334.708C165.75 334.919 166.028 335.024 166.368 335.024C166.878 335.024 167.35 334.816 167.783 334.4ZM165.287 323.994C165.516 323.994 165.712 324.076 165.876 324.24C166.046 324.404 166.131 324.604 166.131 324.838C166.131 325.072 166.052 325.271 165.894 325.436C165.735 325.594 165.542 325.673 165.313 325.673C165.079 325.673 164.88 325.591 164.716 325.427C164.552 325.257 164.47 325.058 164.47 324.829C164.47 324.595 164.549 324.398 164.707 324.24C164.871 324.076 165.064 323.994 165.287 323.994ZM168.671 323.994C168.899 323.994 169.096 324.076 169.26 324.24C169.43 324.404 169.515 324.604 169.515 324.838C169.515 325.072 169.436 325.271 169.277 325.436C169.119 325.594 168.926 325.673 168.697 325.673C168.463 325.673 168.264 325.591 168.1 325.427C167.936 325.257 167.854 325.058 167.854 324.829C167.854 324.595 167.933 324.398 168.091 324.24C168.255 324.076 168.448 323.994 168.671 323.994ZM170.824 329.197L173.83 326.244V327.914H176.388V329.355H173.83V333.319C173.83 334.245 174.214 334.708 174.981 334.708C175.556 334.708 176.162 334.515 176.801 334.128V335.622C176.186 335.968 175.515 336.141 174.788 336.141C174.056 336.141 173.446 335.927 172.96 335.499C172.808 335.37 172.682 335.227 172.582 335.068C172.482 334.904 172.397 334.693 172.327 334.436C172.263 334.172 172.23 333.674 172.23 332.941V329.355H170.824V329.197ZM176.818 329.197L179.824 326.244V327.914H182.382V329.355H179.824V333.319C179.824 334.245 180.208 334.708 180.976 334.708C181.55 334.708 182.156 334.515 182.795 334.128V335.622C182.18 335.968 181.509 336.141 180.782 336.141C180.05 336.141 179.44 335.927 178.954 335.499C178.802 335.37 178.676 335.227 178.576 335.068C178.477 334.904 178.392 334.693 178.321 334.436C178.257 334.172 178.225 333.674 178.225 332.941V329.355H176.818V329.197ZM189.026 331.14V334.576C189.026 334.852 189.12 334.989 189.308 334.989C189.501 334.989 189.803 334.846 190.213 334.559V335.534C189.85 335.769 189.557 335.927 189.334 336.009C189.117 336.097 188.889 336.141 188.648 336.141C187.963 336.141 187.559 335.871 187.436 335.332C186.756 335.859 186.032 336.123 185.265 336.123C184.702 336.123 184.233 335.938 183.858 335.569C183.483 335.194 183.296 334.726 183.296 334.163C183.296 333.653 183.478 333.199 183.841 332.801C184.21 332.396 184.731 332.077 185.405 331.843L187.453 331.14V330.709C187.453 329.736 186.967 329.25 185.994 329.25C185.121 329.25 184.271 329.701 183.445 330.604V328.854C184.066 328.122 184.96 327.756 186.126 327.756C186.999 327.756 187.699 327.984 188.227 328.441C188.402 328.588 188.561 328.784 188.701 329.03C188.842 329.271 188.93 329.514 188.965 329.76C189.006 330 189.026 330.46 189.026 331.14ZM187.453 334.4V332.001L186.381 332.414C185.836 332.631 185.449 332.851 185.221 333.073C184.998 333.29 184.887 333.562 184.887 333.891C184.887 334.225 184.992 334.497 185.203 334.708C185.42 334.919 185.698 335.024 186.038 335.024C186.548 335.024 187.02 334.816 187.453 334.4ZM198.352 327.914V329.769L198.439 329.628C199.213 328.38 199.986 327.756 200.76 327.756C201.363 327.756 201.993 328.061 202.649 328.67L201.806 330.076C201.249 329.549 200.733 329.285 200.259 329.285C199.743 329.285 199.295 329.531 198.914 330.023C198.539 330.516 198.352 331.099 198.352 331.772V336H196.743V327.914H198.352ZM208.854 331.14V334.576C208.854 334.852 208.948 334.989 209.136 334.989C209.329 334.989 209.631 334.846 210.041 334.559V335.534C209.678 335.769 209.385 335.927 209.162 336.009C208.945 336.097 208.717 336.141 208.477 336.141C207.791 336.141 207.387 335.871 207.264 335.332C206.584 335.859 205.86 336.123 205.093 336.123C204.53 336.123 204.062 335.938 203.687 335.569C203.312 335.194 203.124 334.726 203.124 334.163C203.124 333.653 203.306 333.199 203.669 332.801C204.038 332.396 204.56 332.077 205.233 331.843L207.281 331.14V330.709C207.281 329.736 206.795 329.25 205.822 329.25C204.949 329.25 204.1 329.701 203.273 330.604V328.854C203.895 328.122 204.788 327.756 205.954 327.756C206.827 327.756 207.527 327.984 208.055 328.441C208.23 328.588 208.389 328.784 208.529 329.03C208.67 329.271 208.758 329.514 208.793 329.76C208.834 330 208.854 330.46 208.854 331.14ZM207.281 334.4V332.001L206.209 332.414C205.664 332.631 205.277 332.851 205.049 333.073C204.826 333.29 204.715 333.562 204.715 333.891C204.715 334.225 204.82 334.497 205.031 334.708C205.248 334.919 205.526 335.024 205.866 335.024C206.376 335.024 206.848 334.816 207.281 334.4ZM204.785 323.994C205.014 323.994 205.21 324.076 205.374 324.24C205.544 324.404 205.629 324.604 205.629 324.838C205.629 325.072 205.55 325.271 205.392 325.436C205.233 325.594 205.04 325.673 204.812 325.673C204.577 325.673 204.378 325.591 204.214 325.427C204.05 325.257 203.968 325.058 203.968 324.829C203.968 324.595 204.047 324.398 204.205 324.24C204.369 324.076 204.562 323.994 204.785 323.994ZM208.169 323.994C208.397 323.994 208.594 324.076 208.758 324.24C208.928 324.404 209.013 324.604 209.013 324.838C209.013 325.072 208.934 325.271 208.775 325.436C208.617 325.594 208.424 325.673 208.195 325.673C207.961 325.673 207.762 325.591 207.598 325.427C207.434 325.257 207.352 325.058 207.352 324.829C207.352 324.595 207.431 324.398 207.589 324.24C207.753 324.076 207.946 323.994 208.169 323.994ZM210.322 329.197L213.328 326.244V327.914H215.886V329.355H213.328V333.319C213.328 334.245 213.712 334.708 214.479 334.708C215.054 334.708 215.66 334.515 216.299 334.128V335.622C215.684 335.968 215.013 336.141 214.286 336.141C213.554 336.141 212.944 335.927 212.458 335.499C212.306 335.37 212.18 335.227 212.08 335.068C211.98 334.904 211.896 334.693 211.825 334.436C211.761 334.172 211.729 333.674 211.729 332.941V329.355H210.322V329.197ZM216.316 329.197L219.322 326.244V327.914H221.88V329.355H219.322V333.319C219.322 334.245 219.706 334.708 220.474 334.708C221.048 334.708 221.654 334.515 222.293 334.128V335.622C221.678 335.968 221.007 336.141 220.28 336.141C219.548 336.141 218.938 335.927 218.452 335.499C218.3 335.37 218.174 335.227 218.074 335.068C217.975 334.904 217.89 334.693 217.819 334.436C217.755 334.172 217.723 333.674 217.723 332.941V329.355H216.316V329.197ZM228.419 323.722H230.019V328.978C230.687 328.163 231.516 327.756 232.506 327.756C233.045 327.756 233.528 327.891 233.956 328.16C234.384 328.43 234.7 328.802 234.905 329.276C235.116 329.751 235.222 330.457 235.222 331.395V336H233.622V330.999C233.622 330.407 233.476 329.933 233.183 329.575C232.896 329.212 232.515 329.03 232.04 329.03C231.688 329.03 231.357 329.121 231.047 329.303C230.736 329.484 230.394 329.786 230.019 330.208V336H228.419V323.722ZM242.402 327.914H244.204L238.482 340.122H236.698L239.449 334.269L236.32 327.914H238.14L240.319 332.476L242.402 327.914ZM247.061 327.914V329.769L247.148 329.628C247.922 328.38 248.695 327.756 249.469 327.756C250.072 327.756 250.702 328.061 251.358 328.67L250.515 330.076C249.958 329.549 249.442 329.285 248.968 329.285C248.452 329.285 248.004 329.531 247.623 330.023C247.248 330.516 247.061 331.099 247.061 331.772V336H245.452V327.914H247.061ZM257.563 331.14V334.576C257.563 334.852 257.657 334.989 257.845 334.989C258.038 334.989 258.34 334.846 258.75 334.559V335.534C258.387 335.769 258.094 335.927 257.871 336.009C257.654 336.097 257.426 336.141 257.186 336.141C256.5 336.141 256.096 335.871 255.973 335.332C255.293 335.859 254.569 336.123 253.802 336.123C253.239 336.123 252.771 335.938 252.396 335.569C252.021 335.194 251.833 334.726 251.833 334.163C251.833 333.653 252.015 333.199 252.378 332.801C252.747 332.396 253.269 332.077 253.942 331.843L255.99 331.14V330.709C255.99 329.736 255.504 329.25 254.531 329.25C253.658 329.25 252.809 329.701 251.982 330.604V328.854C252.604 328.122 253.497 327.756 254.663 327.756C255.536 327.756 256.236 327.984 256.764 328.441C256.939 328.588 257.098 328.784 257.238 329.03C257.379 329.271 257.467 329.514 257.502 329.76C257.543 330 257.563 330.46 257.563 331.14ZM255.99 334.4V332.001L254.918 332.414C254.373 332.631 253.986 332.851 253.758 333.073C253.535 333.29 253.424 333.562 253.424 333.891C253.424 334.225 253.529 334.497 253.74 334.708C253.957 334.919 254.235 335.024 254.575 335.024C255.085 335.024 255.557 334.816 255.99 334.4ZM265.359 327.914V327.431C265.359 326.13 265.635 325.16 266.186 324.521C266.742 323.883 267.407 323.563 268.181 323.563C268.515 323.563 268.91 323.616 269.367 323.722V325.286C269.109 325.192 268.863 325.146 268.629 325.146C268.002 325.146 267.565 325.312 267.319 325.646C267.079 325.98 266.959 326.575 266.959 327.431V327.914H268.4V329.355H266.959V336H265.359V329.355H264.199V327.914H265.359ZM273.542 327.896C274.772 327.896 275.795 328.295 276.609 329.092C277.424 329.883 277.831 330.879 277.831 332.08C277.831 333.246 277.418 334.216 276.592 334.989C275.766 335.757 274.726 336.141 273.472 336.141C272.259 336.141 271.245 335.751 270.431 334.972C269.616 334.187 269.209 333.208 269.209 332.036C269.209 330.853 269.619 329.868 270.439 329.083C271.266 328.292 272.3 327.896 273.542 327.896ZM273.454 329.338C272.687 329.338 272.057 329.59 271.564 330.094C271.072 330.598 270.826 331.239 270.826 332.019C270.826 332.792 271.078 333.425 271.582 333.917C272.086 334.403 272.733 334.646 273.524 334.646C274.31 334.646 274.951 334.4 275.449 333.908C275.953 333.41 276.205 332.774 276.205 332.001C276.205 331.233 275.944 330.598 275.423 330.094C274.901 329.59 274.245 329.338 273.454 329.338ZM271.564 323.994C271.793 323.994 271.989 324.076 272.153 324.24C272.323 324.404 272.408 324.604 272.408 324.838C272.408 325.072 272.329 325.271 272.171 325.436C272.013 325.594 271.819 325.673 271.591 325.673C271.356 325.673 271.157 325.591 270.993 325.427C270.829 325.257 270.747 325.058 270.747 324.829C270.747 324.595 270.826 324.398 270.984 324.24C271.148 324.076 271.342 323.994 271.564 323.994ZM274.948 323.994C275.177 323.994 275.373 324.076 275.537 324.24C275.707 324.404 275.792 324.604 275.792 324.838C275.792 325.072 275.713 325.271 275.555 325.436C275.396 325.594 275.203 325.673 274.975 325.673C274.74 325.673 274.541 325.591 274.377 325.427C274.213 325.257 274.131 325.058 274.131 324.829C274.131 324.595 274.21 324.398 274.368 324.24C274.532 324.076 274.726 323.994 274.948 323.994ZM281.32 327.914V329.769L281.408 329.628C282.182 328.38 282.955 327.756 283.729 327.756C284.332 327.756 284.962 328.061 285.618 328.67L284.774 330.076C284.218 329.549 283.702 329.285 283.228 329.285C282.712 329.285 282.264 329.531 281.883 330.023C281.508 330.516 281.32 331.099 281.32 331.772V336H279.712V327.914H281.32ZM297.149 323.722H298.758V336H295.339C294.144 336 293.188 335.622 292.474 334.866C291.765 334.11 291.41 333.097 291.41 331.825C291.41 330.636 291.782 329.657 292.526 328.89C293.276 328.122 294.231 327.738 295.392 327.738C295.931 327.738 296.517 327.853 297.149 328.081V323.722ZM297.149 334.629V329.505C296.651 329.253 296.147 329.127 295.638 329.127C294.841 329.127 294.205 329.388 293.73 329.909C293.262 330.431 293.027 331.134 293.027 332.019C293.027 332.851 293.232 333.492 293.643 333.943C293.889 334.213 294.149 334.395 294.425 334.488C294.7 334.582 295.195 334.629 295.91 334.629H297.149ZM301.755 324.513C302.019 324.513 302.244 324.604 302.432 324.785C302.619 324.967 302.713 325.189 302.713 325.453C302.713 325.711 302.619 325.934 302.432 326.121C302.244 326.309 302.019 326.402 301.755 326.402C301.509 326.402 301.292 326.309 301.104 326.121C300.917 325.928 300.823 325.705 300.823 325.453C300.823 325.207 300.917 324.99 301.104 324.803C301.292 324.609 301.509 324.513 301.755 324.513ZM300.964 327.914H302.563V336H300.964V327.914ZM306.483 327.914V328.942C307.198 328.151 308.01 327.756 308.918 327.756C309.422 327.756 309.891 327.888 310.324 328.151C310.758 328.409 311.086 328.767 311.309 329.224C311.537 329.675 311.651 330.393 311.651 331.377V336H310.052V331.395C310.052 330.568 309.926 329.979 309.674 329.628C309.422 329.271 309 329.092 308.408 329.092C307.652 329.092 307.011 329.47 306.483 330.226V336H304.849V327.914H306.483ZM32.5635 347.722H34.1631V352.494C34.8545 351.99 35.5928 351.738 36.3779 351.738C37.4033 351.738 38.2412 352.125 38.8916 352.898C39.542 353.672 39.8672 354.665 39.8672 355.878C39.8672 357.179 39.4775 358.216 38.6982 358.989C37.9248 359.757 36.8877 360.141 35.5869 360.141C35.0654 360.141 34.5146 360.085 33.9346 359.974C33.3604 359.862 32.9033 359.722 32.5635 359.552V347.722ZM34.1631 354.023V358.4C34.708 358.564 35.2676 358.646 35.8418 358.646C36.5508 358.646 37.1279 358.395 37.5732 357.891C38.0244 357.387 38.25 356.739 38.25 355.948C38.25 355.146 38.0391 354.492 37.6172 353.988C37.2012 353.484 36.6562 353.232 35.9824 353.232C35.3848 353.232 34.7783 353.496 34.1631 354.023ZM45.501 351.896C46.7314 351.896 47.7539 352.295 48.5684 353.092C49.3828 353.883 49.79 354.879 49.79 356.08C49.79 357.246 49.377 358.216 48.5508 358.989C47.7246 359.757 46.6846 360.141 45.4307 360.141C44.2178 360.141 43.2041 359.751 42.3896 358.972C41.5752 358.187 41.168 357.208 41.168 356.036C41.168 354.853 41.5781 353.868 42.3984 353.083C43.2246 352.292 44.2588 351.896 45.501 351.896ZM45.4131 353.338C44.6455 353.338 44.0156 353.59 43.5234 354.094C43.0312 354.598 42.7852 355.239 42.7852 356.019C42.7852 356.792 43.0371 357.425 43.541 357.917C44.0449 358.403 44.6924 358.646 45.4834 358.646C46.2686 358.646 46.9102 358.4 47.4082 357.908C47.9121 357.41 48.1641 356.774 48.1641 356.001C48.1641 355.233 47.9033 354.598 47.3818 354.094C46.8604 353.59 46.2041 353.338 45.4131 353.338ZM51.1699 359.42V357.697C51.6211 358.014 52.0811 358.271 52.5498 358.471C53.0244 358.664 53.4229 358.761 53.7451 358.761C54.0791 358.761 54.3662 358.679 54.6064 358.515C54.8467 358.351 54.9668 358.154 54.9668 357.926C54.9668 357.691 54.8877 357.498 54.7295 357.346C54.5771 357.188 54.2432 356.962 53.7275 356.669C52.6963 356.095 52.0195 355.605 51.6973 355.201C51.3809 354.791 51.2227 354.346 51.2227 353.865C51.2227 353.244 51.4629 352.737 51.9434 352.345C52.4297 351.952 53.0537 351.756 53.8154 351.756C54.6064 351.756 55.418 351.979 56.25 352.424V354.006C55.3008 353.432 54.5244 353.145 53.9209 353.145C53.6104 353.145 53.3584 353.212 53.165 353.347C52.9775 353.476 52.8838 353.648 52.8838 353.865C52.8838 354.053 52.9688 354.231 53.1387 354.401C53.3145 354.571 53.6191 354.776 54.0527 355.017L54.624 355.342C55.9717 356.104 56.6455 356.947 56.6455 357.873C56.6455 358.535 56.3848 359.08 55.8633 359.508C55.3477 359.93 54.6826 360.141 53.8682 360.141C53.3877 360.141 52.96 360.091 52.585 359.991C52.21 359.886 51.7383 359.695 51.1699 359.42ZM57.3574 353.197L60.3633 350.244V351.914H62.9209V353.355H60.3633V357.319C60.3633 358.245 60.7471 358.708 61.5146 358.708C62.0889 358.708 62.6953 358.515 63.334 358.128V359.622C62.7188 359.968 62.0479 360.141 61.3213 360.141C60.5889 360.141 59.9795 359.927 59.4932 359.499C59.3408 359.37 59.2148 359.227 59.1152 359.068C59.0156 358.904 58.9307 358.693 58.8604 358.436C58.7959 358.172 58.7637 357.674 58.7637 356.941V353.355H57.3574V353.197ZM69.5654 355.14V358.576C69.5654 358.852 69.6592 358.989 69.8467 358.989C70.04 358.989 70.3418 358.846 70.752 358.559V359.534C70.3887 359.769 70.0957 359.927 69.873 360.009C69.6562 360.097 69.4277 360.141 69.1875 360.141C68.502 360.141 68.0977 359.871 67.9746 359.332C67.2949 359.859 66.5713 360.123 65.8037 360.123C65.2412 360.123 64.7725 359.938 64.3975 359.569C64.0225 359.194 63.835 358.726 63.835 358.163C63.835 357.653 64.0166 357.199 64.3799 356.801C64.749 356.396 65.2705 356.077 65.9443 355.843L67.9922 355.14V354.709C67.9922 353.736 67.5059 353.25 66.5332 353.25C65.6602 353.25 64.8105 353.701 63.9844 354.604V352.854C64.6055 352.122 65.499 351.756 66.665 351.756C67.5381 351.756 68.2383 351.984 68.7656 352.441C68.9414 352.588 69.0996 352.784 69.2402 353.03C69.3809 353.271 69.4688 353.514 69.5039 353.76C69.5449 354 69.5654 354.46 69.5654 355.14ZM67.9922 358.4V356.001L66.9199 356.414C66.375 356.631 65.9883 356.851 65.7598 357.073C65.5371 357.29 65.4258 357.562 65.4258 357.891C65.4258 358.225 65.5312 358.497 65.7422 358.708C65.959 358.919 66.2373 359.024 66.5771 359.024C67.0869 359.024 67.5586 358.816 67.9922 358.4ZM77.5635 347.722H79.1719V360H75.7529C74.5576 360 73.6025 359.622 72.8877 358.866C72.1787 358.11 71.8242 357.097 71.8242 355.825C71.8242 354.636 72.1963 353.657 72.9404 352.89C73.6904 352.122 74.6455 351.738 75.8057 351.738C76.3447 351.738 76.9307 351.853 77.5635 352.081V347.722ZM77.5635 358.629V353.505C77.0654 353.253 76.5615 353.127 76.0518 353.127C75.2549 353.127 74.6191 353.388 74.1445 353.909C73.6758 354.431 73.4414 355.134 73.4414 356.019C73.4414 356.851 73.6465 357.492 74.0566 357.943C74.3027 358.213 74.5635 358.395 74.8389 358.488C75.1143 358.582 75.6094 358.629 76.3242 358.629H77.5635ZM91.5029 360V358.972C91.1631 359.341 90.7734 359.628 90.334 359.833C89.9004 360.038 89.4668 360.141 89.0332 360.141C88.5234 360.141 88.0518 360.015 87.6182 359.763C87.1904 359.505 86.8652 359.159 86.6426 358.726C86.4258 358.286 86.3174 357.56 86.3174 356.546V351.914H87.917V356.528C87.917 357.378 88.0371 357.973 88.2773 358.312C88.5234 358.646 88.9512 358.813 89.5605 358.813C90.3223 358.813 90.9697 358.441 91.5029 357.697V351.914H93.1025V360H91.5029ZM94.2188 353.197L97.2246 350.244V351.914H99.7822V353.355H97.2246V357.319C97.2246 358.245 97.6084 358.708 98.376 358.708C98.9502 358.708 99.5566 358.515 100.195 358.128V359.622C99.5801 359.968 98.9092 360.141 98.1826 360.141C97.4502 360.141 96.8408 359.927 96.3545 359.499C96.2021 359.37 96.0762 359.227 95.9766 359.068C95.877 358.904 95.792 358.693 95.7217 358.436C95.6572 358.172 95.625 357.674 95.625 356.941V353.355H94.2188V353.197ZM102.173 348.513C102.437 348.513 102.662 348.604 102.85 348.785C103.037 348.967 103.131 349.189 103.131 349.453C103.131 349.711 103.037 349.934 102.85 350.121C102.662 350.309 102.437 350.402 102.173 350.402C101.927 350.402 101.71 350.309 101.522 350.121C101.335 349.928 101.241 349.705 101.241 349.453C101.241 349.207 101.335 348.99 101.522 348.803C101.71 348.609 101.927 348.513 102.173 348.513ZM101.382 351.914H102.981V360H101.382V351.914ZM105.486 351.914V351.431C105.486 350.13 105.762 349.16 106.312 348.521C106.869 347.883 107.534 347.563 108.308 347.563C108.642 347.563 109.037 347.616 109.494 347.722V349.286C109.236 349.192 108.99 349.146 108.756 349.146C108.129 349.146 107.692 349.312 107.446 349.646C107.206 349.98 107.086 350.575 107.086 351.431V351.914H108.527V353.355H107.086V360H105.486V353.355H104.326V351.914H105.486ZM111.516 351.914V353.769L111.604 353.628C112.377 352.38 113.15 351.756 113.924 351.756C114.527 351.756 115.157 352.061 115.813 352.67L114.97 354.076C114.413 353.549 113.897 353.285 113.423 353.285C112.907 353.285 112.459 353.531 112.078 354.023C111.703 354.516 111.516 355.099 111.516 355.772V360H109.907V351.914H111.516ZM122.019 355.14V358.576C122.019 358.852 122.112 358.989 122.3 358.989C122.493 358.989 122.795 358.846 123.205 358.559V359.534C122.842 359.769 122.549 359.927 122.326 360.009C122.109 360.097 121.881 360.141 121.641 360.141C120.955 360.141 120.551 359.871 120.428 359.332C119.748 359.859 119.024 360.123 118.257 360.123C117.694 360.123 117.226 359.938 116.851 359.569C116.476 359.194 116.288 358.726 116.288 358.163C116.288 357.653 116.47 357.199 116.833 356.801C117.202 356.396 117.724 356.077 118.397 355.843L120.445 355.14V354.709C120.445 353.736 119.959 353.25 118.986 353.25C118.113 353.25 117.264 353.701 116.438 354.604V352.854C117.059 352.122 117.952 351.756 119.118 351.756C119.991 351.756 120.691 351.984 121.219 352.441C121.395 352.588 121.553 352.784 121.693 353.03C121.834 353.271 121.922 353.514 121.957 353.76C121.998 354 122.019 354.46 122.019 355.14ZM120.445 358.4V356.001L119.373 356.414C118.828 356.631 118.441 356.851 118.213 357.073C117.99 357.29 117.879 357.562 117.879 357.891C117.879 358.225 117.984 358.497 118.195 358.708C118.412 358.919 118.69 359.024 119.03 359.024C119.54 359.024 120.012 358.816 120.445 358.4ZM119.663 346.843C120.114 346.843 120.501 347.004 120.823 347.326C121.151 347.648 121.315 348.041 121.315 348.504C121.315 348.967 121.151 349.362 120.823 349.69C120.501 350.019 120.108 350.183 119.646 350.183C119.188 350.183 118.796 350.021 118.468 349.699C118.146 349.371 117.984 348.979 117.984 348.521C117.984 348.053 118.148 347.657 118.477 347.335C118.811 347.007 119.206 346.843 119.663 346.843ZM119.619 347.555C119.32 347.555 119.08 347.646 118.898 347.827C118.723 348.003 118.635 348.234 118.635 348.521C118.635 348.803 118.731 349.043 118.925 349.242C119.124 349.436 119.364 349.532 119.646 349.532C119.927 349.532 120.167 349.436 120.366 349.242C120.565 349.049 120.665 348.814 120.665 348.539C120.665 348.264 120.565 348.032 120.366 347.845C120.167 347.651 119.918 347.555 119.619 347.555ZM126.22 351.914V352.942C126.935 352.151 127.746 351.756 128.654 351.756C129.158 351.756 129.627 351.888 130.061 352.151C130.494 352.409 130.822 352.767 131.045 353.224C131.273 353.675 131.388 354.393 131.388 355.377V360H129.788V355.395C129.788 354.568 129.662 353.979 129.41 353.628C129.158 353.271 128.736 353.092 128.145 353.092C127.389 353.092 126.747 353.47 126.22 354.226V360H124.585V351.914H126.22ZM138.665 347.722H140.265V360H138.665V347.722ZM147.665 355.14V358.576C147.665 358.852 147.759 358.989 147.946 358.989C148.14 358.989 148.441 358.846 148.852 358.559V359.534C148.488 359.769 148.195 359.927 147.973 360.009C147.756 360.097 147.527 360.141 147.287 360.141C146.602 360.141 146.197 359.871 146.074 359.332C145.395 359.859 144.671 360.123 143.903 360.123C143.341 360.123 142.872 359.938 142.497 359.569C142.122 359.194 141.935 358.726 141.935 358.163C141.935 357.653 142.116 357.199 142.479 356.801C142.849 356.396 143.37 356.077 144.044 355.843L146.092 355.14V354.709C146.092 353.736 145.605 353.25 144.633 353.25C143.76 353.25 142.91 353.701 142.084 354.604V352.854C142.705 352.122 143.599 351.756 144.765 351.756C145.638 351.756 146.338 351.984 146.865 352.441C147.041 352.588 147.199 352.784 147.34 353.03C147.48 353.271 147.568 353.514 147.604 353.76C147.645 354 147.665 354.46 147.665 355.14ZM146.092 358.4V356.001L145.02 356.414C144.475 356.631 144.088 356.851 143.859 357.073C143.637 357.29 143.525 357.562 143.525 357.891C143.525 358.225 143.631 358.497 143.842 358.708C144.059 358.919 144.337 359.024 144.677 359.024C145.187 359.024 145.658 358.816 146.092 358.4ZM143.596 347.994C143.824 347.994 144.021 348.076 144.185 348.24C144.354 348.404 144.439 348.604 144.439 348.838C144.439 349.072 144.36 349.271 144.202 349.436C144.044 349.594 143.851 349.673 143.622 349.673C143.388 349.673 143.188 349.591 143.024 349.427C142.86 349.257 142.778 349.058 142.778 348.829C142.778 348.595 142.857 348.398 143.016 348.24C143.18 348.076 143.373 347.994 143.596 347.994ZM146.979 347.994C147.208 347.994 147.404 348.076 147.568 348.24C147.738 348.404 147.823 348.604 147.823 348.838C147.823 349.072 147.744 349.271 147.586 349.436C147.428 349.594 147.234 349.673 147.006 349.673C146.771 349.673 146.572 349.591 146.408 349.427C146.244 349.257 146.162 349.058 146.162 348.829C146.162 348.595 146.241 348.398 146.399 348.24C146.563 348.076 146.757 347.994 146.979 347.994ZM149.854 354.709C149.854 353.848 150.167 353.168 150.794 352.67C151.427 352.166 152.288 351.914 153.378 351.914H156.709V353.162H155.074C155.391 353.484 155.61 353.777 155.733 354.041C155.856 354.305 155.918 354.606 155.918 354.946C155.918 355.368 155.798 355.784 155.558 356.194C155.317 356.599 155.007 356.909 154.626 357.126C154.251 357.343 153.633 357.516 152.771 357.645C152.168 357.732 151.866 357.94 151.866 358.269C151.866 358.456 151.978 358.611 152.2 358.734C152.429 358.852 152.839 358.975 153.431 359.104C154.421 359.32 155.057 359.49 155.338 359.613C155.625 359.736 155.883 359.912 156.111 360.141C156.498 360.527 156.691 361.014 156.691 361.6C156.691 362.367 156.349 362.979 155.663 363.437C154.983 363.894 154.072 364.122 152.93 364.122C151.775 364.122 150.853 363.891 150.161 363.428C149.476 362.971 149.133 362.355 149.133 361.582C149.133 360.486 149.81 359.78 151.163 359.464C150.624 359.118 150.354 358.775 150.354 358.436C150.354 358.178 150.469 357.943 150.697 357.732C150.932 357.521 151.245 357.366 151.638 357.267C150.448 356.739 149.854 355.887 149.854 354.709ZM152.859 353.303C152.426 353.303 152.057 353.449 151.752 353.742C151.447 354.035 151.295 354.387 151.295 354.797C151.295 355.213 151.444 355.559 151.743 355.834C152.042 356.104 152.42 356.238 152.877 356.238C153.328 356.238 153.703 356.101 154.002 355.825C154.307 355.544 154.459 355.195 154.459 354.779C154.459 354.357 154.307 354.006 154.002 353.725C153.697 353.443 153.316 353.303 152.859 353.303ZM152.481 360.378C151.942 360.378 151.5 360.492 151.154 360.721C150.814 360.949 150.645 361.242 150.645 361.6C150.645 362.432 151.395 362.848 152.895 362.848C153.604 362.848 154.151 362.742 154.538 362.531C154.931 362.326 155.127 362.033 155.127 361.652C155.127 361.277 154.881 360.97 154.389 360.729C153.896 360.495 153.261 360.378 152.481 360.378ZM164.839 356.098H159.152C159.193 356.871 159.451 357.486 159.926 357.943C160.406 358.4 161.024 358.629 161.78 358.629C162.835 358.629 163.808 358.301 164.698 357.645V359.209C164.206 359.537 163.717 359.771 163.23 359.912C162.75 360.053 162.185 360.123 161.534 360.123C160.644 360.123 159.923 359.938 159.372 359.569C158.821 359.2 158.379 358.705 158.045 358.084C157.717 357.457 157.553 356.733 157.553 355.913C157.553 354.683 157.901 353.684 158.599 352.916C159.296 352.143 160.201 351.756 161.314 351.756C162.387 351.756 163.242 352.131 163.881 352.881C164.52 353.631 164.839 354.636 164.839 355.896V356.098ZM159.188 355.14H163.257C163.216 354.501 163.025 354.009 162.686 353.663C162.346 353.317 161.889 353.145 161.314 353.145C160.74 353.145 160.269 353.317 159.899 353.663C159.536 354.009 159.299 354.501 159.188 355.14ZM166.324 362.127V361.802C166.588 361.55 166.772 361.295 166.878 361.037C166.983 360.785 167.045 360.439 167.062 360C166.441 359.818 166.131 359.435 166.131 358.849C166.131 358.532 166.236 358.26 166.447 358.031C166.664 357.797 166.919 357.68 167.212 357.68C167.569 357.68 167.862 357.838 168.091 358.154C168.319 358.471 168.434 358.875 168.434 359.367C168.434 360.018 168.246 360.589 167.871 361.081C167.496 361.573 166.98 361.922 166.324 362.127ZM175.148 359.42V357.697C175.6 358.014 176.06 358.271 176.528 358.471C177.003 358.664 177.401 358.761 177.724 358.761C178.058 358.761 178.345 358.679 178.585 358.515C178.825 358.351 178.945 358.154 178.945 357.926C178.945 357.691 178.866 357.498 178.708 357.346C178.556 357.188 178.222 356.962 177.706 356.669C176.675 356.095 175.998 355.605 175.676 355.201C175.359 354.791 175.201 354.346 175.201 353.865C175.201 353.244 175.441 352.737 175.922 352.345C176.408 351.952 177.032 351.756 177.794 351.756C178.585 351.756 179.396 351.979 180.229 352.424V354.006C179.279 353.432 178.503 353.145 177.899 353.145C177.589 353.145 177.337 353.212 177.144 353.347C176.956 353.476 176.862 353.648 176.862 353.865C176.862 354.053 176.947 354.231 177.117 354.401C177.293 354.571 177.598 354.776 178.031 355.017L178.603 355.342C179.95 356.104 180.624 356.947 180.624 357.873C180.624 358.535 180.363 359.08 179.842 359.508C179.326 359.93 178.661 360.141 177.847 360.141C177.366 360.141 176.938 360.091 176.563 359.991C176.188 359.886 175.717 359.695 175.148 359.42ZM181.336 353.197L184.342 350.244V351.914H186.899V353.355H184.342V357.319C184.342 358.245 184.726 358.708 185.493 358.708C186.067 358.708 186.674 358.515 187.312 358.128V359.622C186.697 359.968 186.026 360.141 185.3 360.141C184.567 360.141 183.958 359.927 183.472 359.499C183.319 359.37 183.193 359.227 183.094 359.068C182.994 358.904 182.909 358.693 182.839 358.436C182.774 358.172 182.742 357.674 182.742 356.941V353.355H181.336V353.197ZM192.331 351.896C193.562 351.896 194.584 352.295 195.398 353.092C196.213 353.883 196.62 354.879 196.62 356.08C196.62 357.246 196.207 358.216 195.381 358.989C194.555 359.757 193.515 360.141 192.261 360.141C191.048 360.141 190.034 359.751 189.22 358.972C188.405 358.187 187.998 357.208 187.998 356.036C187.998 354.853 188.408 353.868 189.229 353.083C190.055 352.292 191.089 351.896 192.331 351.896ZM192.243 353.338C191.476 353.338 190.846 353.59 190.354 354.094C189.861 354.598 189.615 355.239 189.615 356.019C189.615 356.792 189.867 357.425 190.371 357.917C190.875 358.403 191.522 358.646 192.313 358.646C193.099 358.646 193.74 358.4 194.238 357.908C194.742 357.41 194.994 356.774 194.994 356.001C194.994 355.233 194.733 354.598 194.212 354.094C193.69 353.59 193.034 353.338 192.243 353.338ZM200.109 351.914V353.769L200.197 353.628C200.971 352.38 201.744 351.756 202.518 351.756C203.121 351.756 203.751 352.061 204.407 352.67L203.563 354.076C203.007 353.549 202.491 353.285 202.017 353.285C201.501 353.285 201.053 353.531 200.672 354.023C200.297 354.516 200.109 355.099 200.109 355.772V360H198.501V351.914H200.109ZM205.567 347.722H207.167V360H205.567V347.722ZM216.378 356.098H210.691C210.732 356.871 210.99 357.486 211.465 357.943C211.945 358.4 212.563 358.629 213.319 358.629C214.374 358.629 215.347 358.301 216.237 357.645V359.209C215.745 359.537 215.256 359.771 214.77 359.912C214.289 360.053 213.724 360.123 213.073 360.123C212.183 360.123 211.462 359.938 210.911 359.569C210.36 359.2 209.918 358.705 209.584 358.084C209.256 357.457 209.092 356.733 209.092 355.913C209.092 354.683 209.44 353.684 210.138 352.916C210.835 352.143 211.74 351.756 212.854 351.756C213.926 351.756 214.781 352.131 215.42 352.881C216.059 353.631 216.378 354.636 216.378 355.896V356.098ZM210.727 355.14H214.796C214.755 354.501 214.564 354.009 214.225 353.663C213.885 353.317 213.428 353.145 212.854 353.145C212.279 353.145 211.808 353.317 211.438 353.663C211.075 354.009 210.838 354.501 210.727 355.14ZM223.374 351.914H225.281L221.827 355.878L225.984 360H223.84L219.788 355.878L223.374 351.914ZM218.118 347.722H219.718V360H218.118V347.722ZM235.626 351.896C236.856 351.896 237.879 352.295 238.693 353.092C239.508 353.883 239.915 354.879 239.915 356.08C239.915 357.246 239.502 358.216 238.676 358.989C237.85 359.757 236.81 360.141 235.556 360.141C234.343 360.141 233.329 359.751 232.515 358.972C231.7 358.187 231.293 357.208 231.293 356.036C231.293 354.853 231.703 353.868 232.523 353.083C233.35 352.292 234.384 351.896 235.626 351.896ZM235.538 353.338C234.771 353.338 234.141 353.59 233.648 354.094C233.156 354.598 232.91 355.239 232.91 356.019C232.91 356.792 233.162 357.425 233.666 357.917C234.17 358.403 234.817 358.646 235.608 358.646C236.394 358.646 237.035 358.4 237.533 357.908C238.037 357.41 238.289 356.774 238.289 356.001C238.289 355.233 238.028 354.598 237.507 354.094C236.985 353.59 236.329 353.338 235.538 353.338ZM247.755 358.11V359.692C246.952 359.991 246.167 360.141 245.399 360.141C244.134 360.141 243.123 359.766 242.367 359.016C241.617 358.266 241.242 357.261 241.242 356.001C241.242 354.729 241.608 353.704 242.341 352.925C243.073 352.146 244.037 351.756 245.232 351.756C245.648 351.756 246.021 351.797 246.349 351.879C246.683 351.955 247.093 352.102 247.579 352.318V354.023C246.771 353.508 246.021 353.25 245.329 353.25C244.608 353.25 244.017 353.505 243.554 354.015C243.091 354.519 242.859 355.163 242.859 355.948C242.859 356.774 243.108 357.431 243.606 357.917C244.11 358.403 244.787 358.646 245.637 358.646C246.252 358.646 246.958 358.468 247.755 358.11ZM249.548 347.722H251.147V352.978C251.815 352.163 252.645 351.756 253.635 351.756C254.174 351.756 254.657 351.891 255.085 352.16C255.513 352.43 255.829 352.802 256.034 353.276C256.245 353.751 256.351 354.457 256.351 355.395V360H254.751V354.999C254.751 354.407 254.604 353.933 254.312 353.575C254.024 353.212 253.644 353.03 253.169 353.03C252.817 353.03 252.486 353.121 252.176 353.303C251.865 353.484 251.522 353.786 251.147 354.208V360H249.548V347.722ZM32.8184 375.914V375.431C32.8184 374.13 33.0938 373.16 33.6445 372.521C34.2012 371.883 34.8662 371.563 35.6396 371.563C35.9736 371.563 36.3691 371.616 36.8262 371.722V373.286C36.5684 373.192 36.3223 373.146 36.0879 373.146C35.4609 373.146 35.0244 373.312 34.7783 373.646C34.5381 373.98 34.418 374.575 34.418 375.431V375.914H35.8594V377.355H34.418V384H32.8184V377.355H31.6582V375.914H32.8184ZM42.2139 379.14V382.576C42.2139 382.852 42.3076 382.989 42.4951 382.989C42.6885 382.989 42.9902 382.846 43.4004 382.559V383.534C43.0371 383.769 42.7441 383.927 42.5215 384.009C42.3047 384.097 42.0762 384.141 41.8359 384.141C41.1504 384.141 40.7461 383.871 40.623 383.332C39.9434 383.859 39.2197 384.123 38.4521 384.123C37.8896 384.123 37.4209 383.938 37.0459 383.569C36.6709 383.194 36.4834 382.726 36.4834 382.163C36.4834 381.653 36.665 381.199 37.0283 380.801C37.3975 380.396 37.9189 380.077 38.5928 379.843L40.6406 379.14V378.709C40.6406 377.736 40.1543 377.25 39.1816 377.25C38.3086 377.25 37.459 377.701 36.6328 378.604V376.854C37.2539 376.122 38.1475 375.756 39.3135 375.756C40.1865 375.756 40.8867 375.984 41.4141 376.441C41.5898 376.588 41.748 376.784 41.8887 377.03C42.0293 377.271 42.1172 377.514 42.1523 377.76C42.1934 378 42.2139 378.46 42.2139 379.14ZM40.6406 382.4V380.001L39.5684 380.414C39.0234 380.631 38.6367 380.851 38.4082 381.073C38.1855 381.29 38.0742 381.562 38.0742 381.891C38.0742 382.225 38.1797 382.497 38.3906 382.708C38.6074 382.919 38.8857 383.024 39.2256 383.024C39.7354 383.024 40.207 382.816 40.6406 382.4ZM50.8799 382.11V383.692C50.0771 383.991 49.292 384.141 48.5244 384.141C47.2588 384.141 46.248 383.766 45.4922 383.016C44.7422 382.266 44.3672 381.261 44.3672 380.001C44.3672 378.729 44.7334 377.704 45.4658 376.925C46.1982 376.146 47.1621 375.756 48.3574 375.756C48.7734 375.756 49.1455 375.797 49.4736 375.879C49.8076 375.955 50.2178 376.102 50.7041 376.318V378.023C49.8955 377.508 49.1455 377.25 48.4541 377.25C47.7334 377.25 47.1416 377.505 46.6787 378.015C46.2158 378.519 45.9844 379.163 45.9844 379.948C45.9844 380.774 46.2334 381.431 46.7314 381.917C47.2354 382.403 47.9121 382.646 48.7617 382.646C49.377 382.646 50.083 382.468 50.8799 382.11ZM53.5342 372.513C53.7979 372.513 54.0234 372.604 54.2109 372.785C54.3984 372.967 54.4922 373.189 54.4922 373.453C54.4922 373.711 54.3984 373.934 54.2109 374.121C54.0234 374.309 53.7979 374.402 53.5342 374.402C53.2881 374.402 53.0713 374.309 52.8838 374.121C52.6963 373.928 52.6025 373.705 52.6025 373.453C52.6025 373.207 52.6963 372.99 52.8838 372.803C53.0713 372.609 53.2881 372.513 53.5342 372.513ZM52.7432 375.914H54.3428V384H52.7432V375.914ZM56.6982 371.722H58.2979V384H56.6982V371.722ZM61.4443 372.513C61.708 372.513 61.9336 372.604 62.1211 372.785C62.3086 372.967 62.4023 373.189 62.4023 373.453C62.4023 373.711 62.3086 373.934 62.1211 374.121C61.9336 374.309 61.708 374.402 61.4443 374.402C61.1982 374.402 60.9814 374.309 60.7939 374.121C60.6064 373.928 60.5127 373.705 60.5127 373.453C60.5127 373.207 60.6064 372.99 60.7939 372.803C60.9814 372.609 61.1982 372.513 61.4443 372.513ZM60.6533 375.914H62.2529V384H60.6533V375.914ZM63.4395 377.197L66.4453 374.244V375.914H69.0029V377.355H66.4453V381.319C66.4453 382.245 66.8291 382.708 67.5967 382.708C68.1709 382.708 68.7773 382.515 69.416 382.128V383.622C68.8008 383.968 68.1299 384.141 67.4033 384.141C66.6709 384.141 66.0615 383.927 65.5752 383.499C65.4229 383.37 65.2969 383.227 65.1973 383.068C65.0977 382.904 65.0127 382.693 64.9424 382.436C64.8779 382.172 64.8457 381.674 64.8457 380.941V377.355H63.4395V377.197ZM77.458 380.098H71.7715C71.8125 380.871 72.0703 381.486 72.5449 381.943C73.0254 382.4 73.6436 382.629 74.3994 382.629C75.4541 382.629 76.4268 382.301 77.3174 381.645V383.209C76.8252 383.537 76.3359 383.771 75.8496 383.912C75.3691 384.053 74.8037 384.123 74.1533 384.123C73.2627 384.123 72.542 383.938 71.9912 383.569C71.4404 383.2 70.998 382.705 70.6641 382.084C70.3359 381.457 70.1719 380.733 70.1719 379.913C70.1719 378.683 70.5205 377.684 71.2178 376.916C71.915 376.143 72.8203 375.756 73.9336 375.756C75.0059 375.756 75.8613 376.131 76.5 376.881C77.1387 377.631 77.458 378.636 77.458 379.896V380.098ZM71.8066 379.14H75.876C75.835 378.501 75.6445 378.009 75.3047 377.663C74.9648 377.317 74.5078 377.145 73.9336 377.145C73.3594 377.145 72.8877 377.317 72.5186 377.663C72.1553 378.009 71.918 378.501 71.8066 379.14ZM78.0645 377.197L81.0703 374.244V375.914H83.6279V377.355H81.0703V381.319C81.0703 382.245 81.4541 382.708 82.2217 382.708C82.7959 382.708 83.4023 382.515 84.041 382.128V383.622C83.4258 383.968 82.7549 384.141 82.0283 384.141C81.2959 384.141 80.6865 383.927 80.2002 383.499C80.0479 383.37 79.9219 383.227 79.8223 383.068C79.7227 382.904 79.6377 382.693 79.5674 382.436C79.5029 382.172 79.4707 381.674 79.4707 380.941V377.355H78.0645V377.197ZM92.083 380.098H86.3965C86.4375 380.871 86.6953 381.486 87.1699 381.943C87.6504 382.4 88.2686 382.629 89.0244 382.629C90.0791 382.629 91.0518 382.301 91.9424 381.645V383.209C91.4502 383.537 90.9609 383.771 90.4746 383.912C89.9941 384.053 89.4287 384.123 88.7783 384.123C87.8877 384.123 87.167 383.938 86.6162 383.569C86.0654 383.2 85.623 382.705 85.2891 382.084C84.9609 381.457 84.7969 380.733 84.7969 379.913C84.7969 378.683 85.1455 377.684 85.8428 376.916C86.54 376.143 87.4453 375.756 88.5586 375.756C89.6309 375.756 90.4863 376.131 91.125 376.881C91.7637 377.631 92.083 378.636 92.083 379.896V380.098ZM86.4316 379.14H90.501C90.46 378.501 90.2695 378.009 89.9297 377.663C89.5898 377.317 89.1328 377.145 88.5586 377.145C87.9844 377.145 87.5127 377.317 87.1436 377.663C86.7803 378.009 86.543 378.501 86.4316 379.14ZM95.5371 375.914V377.769L95.625 377.628C96.3984 376.38 97.1719 375.756 97.9453 375.756C98.5488 375.756 99.1787 376.061 99.835 376.67L98.9912 378.076C98.4346 377.549 97.9189 377.285 97.4443 377.285C96.9287 377.285 96.4805 377.531 96.0996 378.023C95.7246 378.516 95.5371 379.099 95.5371 379.772V384H93.9287V375.914H95.5371ZM101.786 382.04C102.085 382.04 102.34 382.143 102.551 382.348C102.762 382.553 102.867 382.805 102.867 383.104C102.867 383.396 102.762 383.643 102.551 383.842C102.346 384.041 102.091 384.141 101.786 384.141C101.487 384.141 101.235 384.041 101.03 383.842C100.825 383.643 100.723 383.396 100.723 383.104C100.723 382.805 100.825 382.553 101.03 382.348C101.235 382.143 101.487 382.04 101.786 382.04Z" fill="#171211"/>
<path fill-rule="evenodd" clip-rule="evenodd" d="M17.5423 110.656C47.1385 111.638 87.281 112.969 149.422 124.136C185.951 130.7 210.587 136.927 231.478 142.207C268.568 151.581 293.852 157.971 352.927 157.971L352.927 109.989L353 109.989L353 13.5145C353 6.58684 347.384 0.970855 340.456 0.970854L12.552 0.970797C5.62429 0.970796 0.00831886 6.58679 0.00831765 13.5145L0.00830078 109.987L8.38969e-06 109.987C0.00277243 109.987 0.00553656 109.988 0.00830078 109.988L0.00830078 109.989L0.0404488 109.989C5.47353 110.256 11.2712 110.448 17.5423 110.656Z" fill="#0E5657"/>
<g clip-path="url(#clip0_754_36294)">
<path d="M212.578 148.636C212.578 150.849 211.868 153.002 210.55 155.013C209.962 155.919 209.252 156.804 208.421 157.648C208.177 157.91 207.934 158.151 207.67 158.393C207.447 158.594 207.224 158.795 206.981 158.996C198.565 166.258 181.491 171.106 161.334 171.106C141.177 171.106 124.103 166.258 115.687 158.996C115.444 158.815 115.201 158.594 114.978 158.372C114.714 158.151 114.471 157.91 114.248 157.648C113.396 156.803 112.686 155.918 112.098 154.993C110.78 152.981 110.07 150.849 110.07 148.636C110.07 136.043 132.579 126.166 161.334 126.166C190.069 126.166 212.578 136.043 212.578 148.636V148.636Z" fill="#FDFAF8"/>
<path d="M212.578 148.637V166.661C212.578 166.983 212.557 167.305 212.537 167.606C211.442 179.757 189.339 189.111 161.334 189.111C133.309 189.111 111.206 179.757 110.111 167.606C110.09 167.305 110.07 166.983 110.07 166.661V148.637C110.07 150.85 110.78 152.982 112.098 154.994C112.686 155.919 113.396 156.804 114.248 157.649C114.471 157.91 114.714 158.152 114.978 158.373C115.201 158.594 115.444 158.816 115.687 158.997C124.103 166.259 141.177 171.107 161.334 171.107C181.491 171.107 198.566 166.259 206.981 158.997C207.225 158.796 207.447 158.594 207.67 158.393C207.934 158.152 208.177 157.911 208.421 157.649C209.252 156.804 209.962 155.919 210.55 155.014C211.868 153.002 212.578 150.85 212.578 148.637L212.578 148.637Z" fill="#E3C7AA"/>
<path d="M210.508 127.177C210.508 129.39 209.798 131.543 208.48 133.554C207.891 134.46 207.182 135.345 206.35 136.189C206.107 136.451 205.864 136.692 205.6 136.934C205.377 137.135 205.154 137.336 204.911 137.537C196.495 144.799 179.421 149.647 159.264 149.647C139.107 149.647 122.033 144.799 113.617 137.537C113.374 137.356 113.13 137.135 112.907 136.913C112.644 136.692 112.4 136.451 112.177 136.189C111.326 135.344 110.616 134.459 110.028 133.534C108.71 131.522 108 129.39 108 127.177C108 114.584 130.509 104.707 159.264 104.707C187.998 104.707 210.508 114.584 210.508 127.177V127.177Z" fill="#FDFAF8"/>
<path d="M210.508 127.178V145.202C210.508 145.524 210.487 145.846 210.467 146.147C209.372 158.298 187.269 167.652 159.264 167.652C131.239 167.652 109.136 158.298 108.041 146.147C108.02 145.846 108 145.524 108 145.202V127.178C108 129.391 108.71 131.523 110.028 133.535C110.616 134.46 111.326 135.345 112.177 136.19C112.4 136.451 112.644 136.693 112.907 136.914C113.13 137.135 113.374 137.357 113.617 137.538C122.033 144.8 139.107 149.648 159.264 149.648C179.421 149.648 196.495 144.8 204.911 137.538C205.154 137.337 205.377 137.135 205.6 136.934C205.864 136.693 206.107 136.452 206.35 136.19C207.182 135.345 207.891 134.46 208.48 133.555C209.798 131.543 210.508 129.391 210.508 127.178V127.178Z" fill="#E3C7AA"/>
<path d="M220.703 106.94C220.703 109.153 219.993 111.305 218.675 113.317C218.087 114.222 217.377 115.107 216.546 115.952C216.302 116.214 216.059 116.455 215.795 116.696C215.572 116.897 215.349 117.099 215.106 117.3C206.69 124.562 189.616 129.41 169.459 129.41C149.302 129.41 132.228 124.562 123.812 117.3C123.569 117.119 123.326 116.897 123.103 116.676C122.839 116.455 122.596 116.214 122.373 115.952C121.521 115.107 120.811 114.222 120.223 113.297C118.905 111.285 118.195 109.153 118.195 106.94C118.195 94.3469 140.704 84.4697 169.459 84.4697C198.194 84.4697 220.703 94.3469 220.703 106.94V106.94Z" fill="#FDFAF8"/>
<path d="M220.703 106.94V124.965C220.703 125.287 220.682 125.608 220.662 125.91C219.567 138.06 197.464 147.415 169.459 147.415C141.434 147.415 119.331 138.06 118.236 125.91C118.215 125.608 118.195 125.286 118.195 124.965V106.94C118.195 109.153 118.905 111.286 120.223 113.297C120.811 114.223 121.521 115.108 122.373 115.953C122.596 116.214 122.839 116.456 123.103 116.677C123.326 116.898 123.569 117.119 123.812 117.301C132.228 124.562 149.302 129.411 169.459 129.411C189.616 129.411 206.69 124.562 215.106 117.301C215.35 117.099 215.572 116.898 215.795 116.697C216.059 116.456 216.302 116.214 216.546 115.953C217.377 115.108 218.087 114.223 218.675 113.318C219.993 111.306 220.703 109.153 220.703 106.941L220.703 106.94Z" fill="#E3C7AA"/>
<path d="M213.66 84.4701C213.66 86.6829 212.95 88.8353 211.632 90.8469C211.044 91.7522 210.334 92.6373 209.503 93.4821C209.259 93.7435 209.016 93.985 208.752 94.2263C208.529 94.4274 208.306 94.6287 208.063 94.8298C199.648 102.092 182.573 106.94 162.416 106.94C142.259 106.94 125.185 102.092 116.769 94.8298C116.526 94.6488 116.283 94.4274 116.06 94.2061C115.796 93.9848 115.553 93.7435 115.33 93.4819C114.478 92.6369 113.768 91.752 113.18 90.8265C111.862 88.8148 111.152 86.6825 111.152 84.4697C111.152 71.8771 133.662 62 162.416 62C191.151 62 213.66 71.8771 213.66 84.4701Z" fill="#FDFAF8"/>
<path d="M207.074 84.4697C207.074 86.398 206.456 88.2737 205.307 90.0268C204.795 90.8158 204.176 91.5871 203.451 92.3235C203.239 92.5514 203.027 92.7616 202.798 92.9721C202.603 93.1473 202.409 93.3227 202.197 93.498C194.863 99.8267 179.983 104.052 162.417 104.052C144.851 104.052 129.971 99.8267 122.638 93.498C122.425 93.3404 122.213 93.1475 122.019 92.9545C121.789 92.7616 121.577 92.5514 121.383 92.3235C120.64 91.5872 120.022 90.8158 119.509 90.0093C118.361 88.2562 117.742 86.398 117.742 84.4697C117.742 73.4954 137.358 64.8877 162.417 64.8877C187.458 64.8877 207.074 73.4954 207.074 84.4697Z" fill="#E3C7AA"/>
<path d="M213.66 84.4697V102.494C213.66 102.816 213.639 103.138 213.619 103.439C212.524 115.59 190.421 124.944 162.416 124.944C134.391 124.944 112.288 115.59 111.193 103.439C111.173 103.138 111.152 102.816 111.152 102.494V84.4697C111.152 86.6825 111.862 88.8148 113.18 90.8265C113.768 91.7519 114.478 92.637 115.33 93.4819C115.553 93.7434 115.796 93.9849 116.06 94.2061C116.283 94.4274 116.526 94.6487 116.769 94.8298C125.185 102.092 142.259 106.94 162.416 106.94C182.573 106.94 199.648 102.092 208.063 94.8298C208.307 94.6287 208.529 94.4274 208.752 94.2263C209.016 93.9849 209.259 93.7436 209.503 93.4821C210.334 92.6372 211.044 91.7522 211.632 90.8469C212.95 88.8352 213.66 86.6827 213.66 84.4701L213.66 84.4697Z" fill="#E3C7AA"/>
<path d="M244.999 162.899C244.992 167.347 244.362 171.673 243.199 175.715C242.68 177.534 242.054 179.312 241.321 181.01C241.107 181.535 240.892 182.02 240.66 182.505C240.464 182.909 240.267 183.313 240.053 183.717C232.641 198.304 217.635 208.026 199.937 208C182.239 207.973 167.262 198.204 159.896 183.595C159.683 183.231 159.47 182.786 159.275 182.341C159.044 181.896 158.831 181.41 158.636 180.884C157.891 179.185 157.27 177.405 156.757 175.544C155.606 171.498 154.989 167.211 154.996 162.763C155.035 137.449 174.829 117.624 200.076 117.662C225.306 117.7 245.038 137.585 244.999 162.899L244.999 162.899Z" fill="#E3C7AA"/>
<path d="M241.265 162.125C241.252 166.492 240.632 170.734 239.493 174.7C238.987 176.495 238.368 178.239 237.646 179.896C237.444 180.41 237.229 180.887 237.001 181.364C236.811 181.766 236.622 182.155 236.406 182.556C229.309 196.537 215.089 205.963 198.237 206.377C197.845 206.389 197.44 206.389 197.035 206.389C193.038 206.377 189.179 205.862 185.523 204.896C184.118 204.532 182.752 204.105 181.411 203.603C179.842 203.026 178.324 202.361 176.857 201.608C176.844 201.608 176.844 201.595 176.831 201.595C175.566 200.955 174.352 200.252 173.162 199.487C173.162 199.487 173.137 199.474 173.124 199.461C172.669 199.185 172.214 198.884 171.771 198.57C165.863 194.479 161.042 188.944 157.753 182.431C157.538 182.079 157.335 181.64 157.146 181.201C156.918 180.774 156.703 180.297 156.513 179.77C155.779 178.114 155.172 176.357 154.666 174.537C153.54 170.571 152.933 166.354 152.946 161.999C152.984 137.15 172.403 117.697 197.175 117.734C208.738 117.747 219.137 122.027 226.918 129.13C227.247 129.406 227.576 129.707 227.892 130.021C228.816 130.912 229.701 131.841 230.536 132.82C232.307 134.853 233.876 137.049 235.243 139.396C235.787 140.337 236.305 141.304 236.773 142.295C238.772 146.387 240.151 150.855 240.809 155.586C241.113 157.72 241.264 159.903 241.264 162.125L241.265 162.125Z" fill="white"/>
<path d="M234.082 162.114C234.071 165.771 233.552 169.323 232.599 172.644C232.175 174.147 231.656 175.608 231.052 176.995C230.883 177.426 230.702 177.825 230.512 178.224C230.353 178.56 230.194 178.886 230.014 179.223C224.071 190.929 212.164 198.821 198.053 199.168C197.725 199.179 197.386 199.179 197.047 199.179C193.7 199.168 190.469 198.737 187.407 197.928C186.231 197.623 185.087 197.266 183.964 196.846C182.651 196.362 181.379 195.805 180.151 195.175C180.14 195.175 180.14 195.164 180.129 195.164C179.07 194.628 178.053 194.04 177.057 193.399C177.057 193.399 177.036 193.388 177.026 193.378C176.644 193.147 176.263 192.894 175.892 192.632C170.945 189.206 166.909 184.572 164.155 179.117C163.975 178.823 163.805 178.455 163.646 178.088C163.455 177.73 163.275 177.331 163.116 176.89C162.502 175.502 161.994 174.031 161.57 172.507C160.627 169.187 160.119 165.656 160.129 162.009C160.161 141.202 176.422 124.913 197.164 124.944C206.846 124.955 215.554 128.538 222.069 134.486C222.344 134.718 222.62 134.97 222.884 135.232C223.658 135.979 224.399 136.756 225.099 137.576C226.582 139.278 227.895 141.117 229.039 143.082C229.495 143.871 229.929 144.68 230.321 145.51C231.995 148.936 233.149 152.677 233.7 156.639C233.955 158.425 234.082 160.254 234.082 162.114V162.114Z" fill="#E3C7AA"/>
<path d="M202.469 174.279V158.114C202.469 157.798 202.681 157.587 203 157.587H206.684C207.003 157.587 207.18 157.728 207.215 158.149L207.357 160.363C207.96 158.536 209.057 157.165 211.112 157.165C211.927 157.165 212.423 157.376 212.707 157.587C212.954 157.762 213.025 157.973 213.025 158.29V161.382C213.025 161.804 212.777 161.909 212.317 161.804C211.927 161.699 211.537 161.628 211.041 161.628C208.632 161.628 207.357 163.21 207.357 165.67V174.279C207.357 174.595 207.145 174.806 206.826 174.806H203C202.681 174.806 202.469 174.595 202.469 174.279Z" fill="#5C4742"/>
<path d="M182.563 174.279V150.208C182.563 149.891 182.775 149.681 183.094 149.681H186.955C187.274 149.681 187.487 149.891 187.487 150.208V164.545L193.19 157.868C193.367 157.657 193.579 157.588 193.828 157.588H198.185C198.645 157.588 198.751 157.868 198.468 158.22L192.588 164.862L199.389 174.174C199.637 174.525 199.495 174.806 199.07 174.806H194.961C194.677 174.806 194.5 174.736 194.323 174.49L189.647 168.2L187.486 170.625V174.279C187.486 174.595 187.274 174.806 186.955 174.806H183.094C182.775 174.806 182.562 174.595 182.562 174.279L182.563 174.279Z" fill="#5C4742"/>
<path d="M156.337 89.4386L138.721 79.0233C138.49 78.8866 138.559 78.7759 138.895 78.7472L142.957 78.397C143.292 78.368 143.67 78.44 143.901 78.5767L154.394 84.7804L155.507 81.3742C155.54 81.267 155.712 81.2175 155.973 81.1948L160.557 80.7996C161.041 80.7579 161.358 80.8697 161.318 81.0476L159.992 84.4546L173.962 87.867C174.48 87.9965 174.537 88.1309 174.089 88.1696L169.767 88.5422C169.468 88.5679 169.23 88.5535 168.864 88.4632L159.342 86.1656L158.843 87.4109L161.517 88.9922C161.749 89.129 161.679 89.2396 161.344 89.2684L157.282 89.6186C156.947 89.6475 156.569 89.5755 156.337 89.4388L156.337 89.4386Z" fill="#5C4742"/>
<path d="M177.281 87.6326L165.452 80.6386C165.221 80.5019 165.29 80.3912 165.625 80.3625L169.501 80.0283C169.836 79.9993 170.125 80.0441 170.471 80.2233L172.241 81.1684C171.537 80.3231 171.689 79.6305 173.85 79.444C174.707 79.3701 175.384 79.4164 175.837 79.4821C176.225 79.5354 176.454 79.6202 176.686 79.7571L178.949 81.0953C179.258 81.2777 179.073 81.3459 178.512 81.3419C178.025 81.3316 177.563 81.3365 177.042 81.3815C174.508 81.5999 174.324 82.3999 176.124 83.4642L182.424 87.1893C182.656 87.326 182.586 87.4367 182.251 87.4654L178.226 87.8126C177.89 87.8415 177.513 87.7695 177.281 87.6328V87.6326Z" fill="#5C4742"/>
</g>
<defs>
<clipPath id="clip0_754_36294">
<rect width="137" height="146" fill="white" transform="translate(108 62)"/>
</clipPath>
</defs>
</svg>
